<svg width="128" height="40" viewBox="0 0 128 40" fill="none" xmlns="http://www.w3.org/2000/svg">
<g id="logotype" clip-path="url(#clip0_1725_910)">
<g id="Group">
<path id="Vector" d="M24.0896 18.6667L25.4464 13.7067H31.7696C35.0976 13.7067 37.12 12.1334 38.0416 8.80008L38.5536 6.96008C39.7312 2.72008 37.8112 0.0800781 33.6128 0.0800781H6.11841L0.998413 18.6667H24.0896ZM33.5872 5.06675L32.512 9.12008H26.7264L27.8272 5.09341H33.5872V5.06675Z" fill="#F7FF13"/>
<path id="Vector_2" d="M40.9088 18.6666L42.5984 15.5466H50.432V18.6666H55.5776V0.0532227H45.4656L34.944 18.6666H40.9088ZM48.3072 5.11989H50.432V11.0399H45.056L48.3072 5.11989Z" fill="#F7FF13"/>
<path id="Vector_3" d="M76.5696 8.61322L77.0304 6.93322C78.208 2.63989 76.288 0.0532227 72.0896 0.0532227H62.3104L57.1904 18.6666H62.5408L63.9488 13.5466H67.2768L68.7872 18.6666H74.2912L72.6784 13.1999C74.624 12.5866 75.904 11.0666 76.5696 8.61322ZM66.2784 5.06656H72.0384L70.9632 9.09322H65.1776L66.2784 5.06656Z" fill="#F7FF13"/>
<path id="Vector_4" d="M81.5872 18.6666L86.7072 0.0532227H81.3312L76.2368 18.6666H81.5872Z" fill="#F7FF13"/>
<path id="Vector_5" d="M48.7937 21.3066L42.7521 28.7466L40.2689 21.3066H17.1009L12.0065 39.9466H35.0977L37.9137 29.6533L39.7825 35.4133H43.2385L48.2305 29.28L45.2865 39.9466H50.6369L55.7313 21.3066H48.7937Z" fill="#F7FF13"/>
<path id="Vector_6" d="M62.8993 21.3066L52.3521 39.92H58.3169L60.0064 36.8H67.8401V39.92H72.9857V21.3333L62.8993 21.3066ZM62.4897 32.32L65.7153 26.4H67.8401V32.32H62.4897Z" fill="#F7FF13"/>
<path id="Vector_7" d="M91.0849 26.64L92.5441 21.3066H76.2881L74.8289 26.64H80.7169L77.0561 39.9466H82.4065L86.0673 26.64H91.0849Z" fill="#F7FF13"/>
<path id="Vector_8" d="M98.2273 26.6397H106.342L107.827 21.333H99.1745C95.8465 21.333 93.8241 22.9063 92.9025 26.2397L91.0081 33.0397C89.8049 37.3863 91.7505 39.9197 95.9489 39.9197H102.682L104.141 34.613H96.0257L98.2273 26.6397Z" fill="#F7FF13"/>
<path id="Vector_9" d="M121.651 21.3066L119.808 27.9733H113.69L115.507 21.3066H110.157L105.062 39.9466H110.413L112.23 33.28H118.349L116.531 39.9466H121.907L127.002 21.3066H121.651Z" fill="#F7FF13"/>
</g>
</g>
<defs>
<clipPath id="clip0_1725_910">
<rect width="128" height="40" fill="white"/>
</clipPath>
</defs>
</svg>
