<svg width="34" height="34" viewBox="0 0 34 34" fill="none" xmlns="http://www.w3.org/2000/svg">
<rect x="-0.00012207" width="34" height="34" rx="17" fill="#E44728"/>
<path d="M23.3158 23.8173H23.4358C23.6038 23.8112 23.7398 23.746 23.8258 23.5911C23.8598 23.532 23.8918 23.4709 23.9238 23.4077C24.1619 22.9308 24.3939 22.4498 24.5219 21.926C24.6459 21.4267 24.8039 20.9355 24.9199 20.4342C24.9639 20.2467 24.9899 20.0551 24.9999 19.8615C24.9999 19.8289 24.9959 19.8064 24.9639 19.7922C24.7799 19.7066 24.6259 19.5782 24.4679 19.4559C24.2539 19.2888 24.0479 19.1115 23.8158 18.9688C23.6818 18.8873 23.5578 18.7956 23.4438 18.6896C23.3918 18.6407 23.3378 18.5856 23.2578 18.5816C23.1058 18.5714 22.9698 18.5204 22.8458 18.4308C22.7118 18.337 22.5978 18.2208 22.4798 18.1067C22.3658 17.9967 22.2458 17.8927 22.0998 17.8255C22.0038 17.7806 21.9098 17.7317 21.8218 17.6706C21.5418 17.4769 21.2578 17.2915 20.9838 17.0918C20.8238 16.9756 20.6458 16.8839 20.5038 16.7432C20.4618 16.7025 20.4138 16.6678 20.3638 16.6352C20.0938 16.4538 19.8197 16.2765 19.5557 16.089C19.3317 15.9301 19.1117 15.7711 18.8717 15.6386C18.6417 15.5123 18.4097 15.3818 18.2097 15.2086C18.1257 15.1352 18.0377 15.07 17.9457 15.0068C17.3637 14.6033 16.7817 14.2038 16.1997 13.8003C15.8796 13.5782 15.5676 13.3438 15.2396 13.1359C14.9476 12.9504 14.6696 12.7425 14.3776 12.5571C14.2976 12.5061 14.2296 12.4409 14.1376 12.4124C14.0476 12.3839 13.9596 12.3512 13.8736 12.3146C13.7916 12.2819 13.7036 12.2493 13.6536 12.1678C13.5896 12.0639 13.4936 12.0109 13.3856 11.9701C13.2796 11.9314 13.1736 11.8947 13.0736 11.8397C12.8836 11.7337 12.7336 11.591 12.6916 11.3628C12.6816 11.3098 12.6536 11.2792 12.6116 11.2548C12.4556 11.159 12.2996 11.0612 12.1436 10.9633C11.8995 10.8105 11.6595 10.6535 11.4115 10.5068C11.2715 10.4232 11.1355 10.3376 11.0175 10.2215C10.9195 10.1257 10.8095 10.0503 10.6735 10.0197C10.4475 9.96876 10.2375 10.0217 10.0335 10.1196C9.76549 10.2459 9.50949 10.3988 9.21748 10.464C9.15748 10.4783 9.09748 10.4905 9.03948 10.5027C9.01948 10.5068 8.98948 10.5068 9.00348 10.5394C9.04948 10.6413 9.06948 10.7534 9.15748 10.8329C9.43349 11.0815 9.67949 11.3607 9.9355 11.6298C10.2355 11.9457 10.5375 12.2595 10.8335 12.5795C11.2295 13.0075 11.6715 13.3927 12.0276 13.8614C12.2916 14.2099 12.6176 14.5075 12.9316 14.8132C13.3236 15.1964 13.7096 15.5877 14.0876 15.9871C14.4376 16.3581 14.7656 16.7534 15.1196 17.1223C15.2776 17.2854 15.4256 17.4586 15.5776 17.6278C15.7096 17.7745 15.8336 17.9253 15.9917 18.0456C16.1257 18.1475 16.2477 18.2636 16.3597 18.388C16.5157 18.5592 16.6697 18.7324 16.8257 18.9056C17.0057 19.1033 17.1817 19.3051 17.3637 19.5007C17.5697 19.7229 17.7677 19.9511 18.0237 20.1203C18.1577 20.21 18.2977 20.3017 18.3657 20.4627C18.4217 20.5972 18.5117 20.7052 18.6077 20.8112C18.7817 20.9987 18.9517 21.1882 19.1217 21.3798C19.3477 21.6346 19.5697 21.8934 19.8057 22.14C19.9257 22.2664 20.0618 22.3785 20.1758 22.513C20.4138 22.7881 20.6498 23.0673 20.8978 23.3343C21.0898 23.5402 21.3198 23.6217 21.5818 23.6563C21.8958 23.6971 22.2078 23.7379 22.5238 23.7603C22.7878 23.7786 23.0518 23.8031 23.3158 23.8133V23.8173ZM9.28148 22.4498C9.27548 22.6108 9.33548 22.7596 9.53149 22.8309C9.62549 22.8656 9.71549 22.9206 9.7735 23.0082C9.8195 23.0775 9.8795 23.1326 9.9515 23.1672C10.0855 23.2304 10.1955 23.3262 10.3015 23.4281C10.4655 23.587 10.6295 23.748 10.8095 23.8907C10.8735 23.9417 10.9415 23.9885 11.0295 23.9885C11.2755 23.9906 11.5215 23.9906 11.7675 23.9987C12.1156 24.011 12.4476 23.9355 12.7536 23.7623C12.9236 23.6665 13.1076 23.6095 13.2996 23.585C13.5096 23.5585 13.7216 23.534 13.9056 23.4199C14.0416 23.3343 14.1896 23.2874 14.3396 23.2385C14.4076 23.2161 14.4776 23.1937 14.5476 23.1692C14.7116 23.1101 14.7156 23.0898 14.5916 22.9573C14.4936 22.8513 14.3876 22.7535 14.2816 22.6556C14.0056 22.4009 13.7336 22.1421 13.4556 21.8893C13.0456 21.5143 12.6376 21.1373 12.2496 20.7399C12.0936 20.5809 11.9495 20.4117 11.7895 20.2569C11.5135 19.9899 11.2475 19.7147 10.9735 19.4457C10.8575 19.3316 10.7415 19.2174 10.6115 19.1155C10.5735 19.085 10.5555 19.089 10.5355 19.1359C10.2835 19.7412 10.0275 20.3425 9.7795 20.9498C9.65149 21.2657 9.54149 21.5877 9.39149 21.8934C9.31148 22.0585 9.28548 22.2317 9.28148 22.4478V22.4498ZM23.4758 11.2853V11.0061C23.4758 10.9633 23.4618 10.9348 23.4198 10.9205C23.342 10.8934 23.269 10.8535 23.2038 10.8023C22.8778 10.5557 22.5238 10.3539 22.1598 10.1726C22.0958 10.14 22.0378 10.1318 21.9758 10.1726C21.9038 10.2194 21.8218 10.2419 21.7418 10.2683C21.5998 10.3173 21.4518 10.3458 21.3078 10.3804C21.0558 10.4416 20.8058 10.5129 20.5538 10.5802L19.1417 10.9593C19.0957 10.9715 19.0157 10.9674 19.0117 11.0061C19.0057 11.0632 19.0617 11.1203 19.1117 11.1529C19.2517 11.2446 19.3797 11.3526 19.4977 11.4728C19.5917 11.5666 19.7197 11.6033 19.8197 11.6909C19.9998 11.8478 20.1778 12.0048 20.3578 12.1617C20.5658 12.3411 20.8098 12.4715 21.0198 12.6468C21.3238 12.8974 21.6418 13.1277 21.9678 13.3499C22.1798 13.4946 22.4098 13.6189 22.5858 13.8166C22.6678 13.9083 22.7878 13.9409 22.9138 13.9389C23.0438 13.9389 23.0918 13.8981 23.1138 13.7677C23.1458 13.5639 23.1378 13.358 23.1558 13.1542C23.1718 12.9545 23.2018 12.7568 23.2598 12.5652C23.3198 12.3696 23.3778 12.1739 23.4258 11.9742C23.4778 11.748 23.4818 11.5156 23.4818 11.2833L23.4758 11.2853Z" fill="white"/>
</svg>
