<svg width="34" height="34" viewBox="0 0 34 34" fill="none" xmlns="http://www.w3.org/2000/svg">
<rect width="34" height="34" rx="17" fill="#36AEEA"/>
<path d="M24.8094 21.5371L17 26.0746L9.19067 21.5371V12.5277L17 7.99023L24.8094 12.5277V21.5371Z" fill="#418AF2"/>
<path d="M17 7.15625L8.25781 12.0594V21.9031L17 26.8438L25.7422 21.9031V12.0594L17 7.15625Z" fill="white"/>
<path d="M9.8938 16.2311C10.461 11.5576 14.5297 10.292 14.5297 10.292C9.09224 16.0998 15.5985 20.2342 15.5985 20.2342L11.1922 21.1998C11.225 21.2045 9.65942 19.3342 9.8938 16.2311Z" fill="#36AEEA"/>
<path d="M19.8032 23.6426C15.1298 25.3441 12.397 22.3723 12.397 22.3723C20.0376 24.3082 20.572 16.5645 20.572 16.5645L23.5063 19.9348C23.5063 19.9348 22.672 22.3395 19.8032 23.6426Z" fill="#36AEEA"/>
<path d="M23.9749 18.3356C21.6405 10.695 15.064 14.3325 15.064 14.3325L16.4655 9.89341C16.4655 9.89341 19.2687 9.52779 21.8046 11.6934C24.9077 14.3981 23.9749 18.3356 23.9749 18.3356Z" fill="#36AEEA"/>
</svg>
