<svg width="34" height="34" viewBox="0 0 34 34" fill="none" xmlns="http://www.w3.org/2000/svg">
<rect x="-0.00012207" width="34" height="34" rx="17" fill="#FA9C1E"/>
<g clip-path="url(#clip0_90_10713)">
<path d="M8.745 8.29007C6.35684 10.5337 4.95659 13.795 5.0009 17.0849C5.00231 20.4997 6.56005 23.8541 9.14698 26.0727C11.5382 28.1641 14.7904 29.2295 17.9654 28.9599C21.4058 28.7037 24.6713 26.8662 26.6901 24.0742C28.6551 21.4211 29.425 17.9223 28.7727 14.6779C28.2932 12.1942 26.9911 9.89248 25.1392 8.18164L22.8727 10.8131C24.6989 12.5344 25.6961 15.0754 25.5081 17.5821C25.4259 18.824 25.0652 20.0497 24.4555 21.1404L19.8367 16.6789L17.5063 11.6556L17.5028 19.2627L22.1706 23.7798C20.0905 25.3959 17.2364 25.9319 14.7075 25.2156C13.6777 24.9283 12.7026 24.4463 11.8551 23.7996L16.5546 19.2627C16.5465 16.7895 16.5833 14.1197 16.5546 11.6474L14.2207 16.6789L9.56219 21.1775C8.14097 18.6965 8.10698 15.489 9.47492 12.9804C9.90256 12.1767 10.4686 11.4432 11.1252 10.8131L8.85872 8.18164C8.82081 8.21778 8.7829 8.25393 8.745 8.29007Z" fill="#4A4C4E"/>
<path d="M16.8681 5.00032C14.1974 5.01744 11.5572 5.96945 9.48291 7.64365L11.7494 10.2751C13.6622 8.76551 16.2396 8.15035 18.6301 8.62559C19.9438 8.87833 21.1939 9.45518 22.2486 10.2751L24.5151 7.64365C22.3696 5.91232 19.6306 4.95892 16.8681 5.00032Z" fill="#4A4C4E"/>
</g>
<defs>
<clipPath id="clip0_90_10713">
<rect width="24" height="24" fill="white" transform="translate(4.99988 5)"/>
</clipPath>
</defs>
</svg>
