<svg width="34" height="34" viewBox="0 0 34 34" fill="none" xmlns="http://www.w3.org/2000/svg">
<g clip-path="url(#clip0_311_64)">
<path d="M10.4084 14.109C10.4732 14.0279 10.5516 14.0438 10.5928 14.0603C10.6272 14.0743 10.7061 14.1189 10.6952 14.2308C10.6821 14.3651 10.6747 14.502 10.6733 14.6378C10.6675 15.2011 10.8935 15.753 11.2933 16.152C11.6906 16.5484 12.2132 16.7619 12.7696 16.7558C13.5296 16.746 14.16 16.3496 14.5926 15.6093C14.9503 14.9972 14.7931 14.2077 14.6266 13.3718C14.5292 12.8825 14.4285 12.3765 14.4285 11.895C14.4285 8.14547 16.9491 5.98228 18.4517 5.02655C18.4828 5.00682 18.5123 4.99988 18.5385 4.99988C18.5811 4.99988 18.6149 5.01825 18.6315 5.0295C18.6638 5.05135 18.7154 5.10113 18.6988 5.18925C18.1245 8.23903 19.8375 10.0733 21.6511 12.0152C23.5205 14.0169 25.6393 16.2857 25.6393 20.3776C25.6393 25.132 21.7713 29 17.0168 29C13.1022 29 9.65075 26.2707 8.62363 22.3629C7.92322 19.6984 8.65719 16.3043 10.4084 14.109ZM16.8017 27.1595C17.9923 27.2138 19.1245 26.7868 19.9893 25.9599C20.8448 25.1419 21.3355 24.0002 21.3355 22.8277C21.3355 20.6273 20.4942 19.012 18.2313 16.8676C18.1943 16.8325 18.1564 16.8214 18.1233 16.8214C18.0934 16.8214 18.0674 16.8305 18.0495 16.8391C18.0119 16.8572 17.95 16.9021 17.9584 16.9993C18.0393 17.9408 18.0379 18.7222 17.9542 19.322C17.7405 20.8541 16.6189 21.8836 15.1632 21.8836C14.4495 21.8836 13.7697 21.615 13.2489 21.1272C13.2288 21.1079 13.2043 21.0938 13.1775 21.0861C13.1507 21.0785 13.1224 21.0775 13.0951 21.0833C13.0609 21.0907 13.015 21.1117 12.9909 21.1697C12.775 21.691 12.6647 22.2443 12.663 22.8143C12.6561 25.1077 14.5127 27.057 16.8017 27.1595Z" fill="#F7FF13"/>
</g>
<defs>
<clipPath id="clip0_311_64">
<rect width="24" height="24" fill="white" transform="translate(5 5)"/>
</clipPath>
</defs>
</svg>
