<svg width="24" height="24" viewBox="0 0 24 24" fill="none" xmlns="http://www.w3.org/2000/svg">
<path id="Vector" d="M5.24988 18.75C3.97488 18.75 2.99988 17.775 2.99988 16.5V7.5C2.99988 6.225 3.97488 5.25 5.24988 5.25C6.52488 5.25 7.49988 6.225 7.49988 7.5V16.5C7.49988 17.775 6.52488 18.75 5.24988 18.75ZM18.7499 18.75C17.4749 18.75 16.4999 17.775 16.4999 16.5V7.5C16.4999 6.225 17.4749 5.25 18.7499 5.25C20.0249 5.25 20.9999 6.225 20.9999 7.5V16.5C20.9999 17.775 20.0249 18.75 18.7499 18.75Z" fill="currentColor"/>
<path id="Vector_2" d="M17.2499 12.7499H6.74988C6.29988 12.7499 5.99988 12.4499 5.99988 11.9999C5.99988 11.5499 6.29988 11.2499 6.74988 11.2499H17.2499C17.6999 11.2499 17.9999 11.5499 17.9999 11.9999C17.9999 12.4499 17.6999 12.7499 17.2499 12.7499ZM1.49988 7.6499C0.599878 7.9499 -0.00012207 8.7749 -0.00012207 9.7499V14.2499C-0.00012207 15.2249 0.599878 16.0499 1.49988 16.3499V7.6499ZM22.4999 7.6499V16.3499C23.3999 16.0499 23.9999 15.2249 23.9999 14.2499V9.7499C23.9999 8.7749 23.3999 7.9499 22.4999 7.6499Z" fill="currentColor"/>
</svg>
