<svg width="24" height="24" viewBox="0 0 24 24" fill="none" xmlns="http://www.w3.org/2000/svg">
<path id="Vector" d="M21.4168 4.6012C19.6929 6.34959 18.5832 8.69625 18.4105 11.2969H23.9999C23.8522 8.77664 22.8921 6.46566 21.4168 4.6012ZM12.703 0V11.2969H17.0043C17.1813 8.27709 18.4699 5.55145 20.4843 3.54197C18.4767 1.53928 15.7125 0.176391 12.703 0ZM18.4105 12.7031C18.5832 15.3037 19.6929 17.6973 21.4168 19.4457C22.8921 17.5812 23.8522 15.2234 23.9999 12.7031H18.4105ZM3.5155 3.54197C5.52986 5.55145 6.8185 8.27709 6.9955 11.2969H11.2968V0C8.28728 0.176391 5.52307 1.53928 3.5155 3.54197ZM17.0043 12.7031H12.703V24C15.7125 23.8236 18.4767 22.5076 20.4843 20.5049C18.4699 18.4954 17.1813 15.7229 17.0043 12.7031ZM6.9955 12.7031C6.8185 15.7229 5.52986 18.4954 3.5155 20.5049C5.52307 22.5076 8.28728 23.8237 11.2968 24V12.7031H6.9955ZM-0.00012207 12.7031C0.147581 15.2234 1.10767 17.5812 2.58297 19.4457C4.30689 17.6973 5.41657 15.3038 5.5893 12.7031H-0.00012207ZM2.58292 4.6012C1.10767 6.46566 0.147581 8.77664 -0.00012207 11.2969H5.58925C5.41657 8.6963 4.30685 6.34959 2.58292 4.6012Z" fill="currentColor"/>

</svg>
