<svg width="24" height="24" viewBox="0 0 24 24" fill="none" xmlns="http://www.w3.org/2000/svg">
<path id="Vector" d="M15.6485 12.972L5.44644 2.784C5.33527 2.67276 5.20322 2.5845 5.05785 2.52428C4.91248 2.46406 4.75665 2.43307 4.59927 2.43307C4.44189 2.43307 4.28606 2.46406 4.14069 2.52428C3.99532 2.5845 3.86327 2.67276 3.7521 2.784L0.351417 6.18C0.240019 6.29102 0.15164 6.42288 0.0913396 6.56805C0.0310387 6.71322 0 6.86884 0 7.026C0 7.18316 0.0310387 7.33878 0.0913396 7.48395C0.15164 7.62912 0.240019 7.76098 0.351417 7.872L10.5535 18.06C11.0221 18.528 11.7792 18.528 12.2478 18.06L15.6485 14.664C15.7599 14.553 15.8483 14.4211 15.9086 14.276C15.9689 14.1308 15.9999 13.9752 15.9999 13.818C15.9999 13.6608 15.9689 13.5052 15.9086 13.3601C15.8483 13.2149 15.7599 13.083 15.6485 12.972ZM16.4957 17.2104L14.7965 18.9072L19.8939 24L21.5943 22.3032L16.4957 17.2104ZM19.7942 8.4C20.3465 8.4 20.8934 8.29136 21.4037 8.08029C21.914 7.86923 22.3776 7.55985 22.7682 7.16985C23.1587 6.77984 23.4685 6.31684 23.6799 5.80727C23.8912 5.2977 24 4.75155 24 4.2C24 3.64845 23.8912 3.1023 23.6799 2.59273C23.4685 2.08316 23.1587 1.62016 22.7682 1.23015C22.3776 0.840145 21.914 0.530776 21.4037 0.319706C20.8934 0.108636 20.3465 -8.21876e-09 19.7942 0C18.6788 1.65985e-08 17.609 0.442499 16.8203 1.23015C16.0315 2.0178 15.5884 3.08609 15.5884 4.2C15.5884 5.31391 16.0315 6.3822 16.8203 7.16985C17.609 7.9575 18.6788 8.4 19.7942 8.4Z" fill="currentColor"/>

</svg>
