<svg width="24" height="24" viewBox="0 0 24 24" fill="none" xmlns="http://www.w3.org/2000/svg">
<path id="Vector" d="M1.2473 24H3.93854L2.44478 18.888H1.28199C0.410173 18.888 -0.203243 19.7451 0.0780796 20.5703L1.2473 24ZM18.0071 6.67655H14.6375L8.50454 18.888H3.90995L5.40371 24H10.2656L18.0071 6.67655ZM3.00902 0L5.36414 5.27017H8.65587L6.00902 0H3.00902Z" fill="currentColor"/>
<path id="Vector_2" d="M9.32192 14.1268L11.2129 10.3616L9.36214 6.67655H5.99255L9.32192 14.1268ZM22.7176 18.888H21.5051L20.0113 24H22.7523L23.9215 20.5703C24.2029 19.7451 23.5894 18.888 22.7176 18.888ZM18.5461 24L20.0399 18.888H15.4951L14.7518 17.408L12.77 21.8428L13.734 24H18.5461ZM15.3438 5.27017H18.6355L20.9906 0H17.9906L15.3438 5.27017Z" fill="currentColor"/>
</svg>
