<svg width="24" height="24" viewBox="0 0 24 24" fill="none" xmlns="http://www.w3.org/2000/svg">
<path id="Vector" d="M5.57143 22.6667C5.57143 23.4 6.15 24 6.85714 24H17.1429C17.85 24 18.4286 23.4 18.4286 22.6667V18.6667H5.57143V22.6667ZM19.7143 5.33333C19.0071 5.33333 18.4286 5.93333 18.4286 6.66667V2.66667C18.4286 1.2 17.2714 0 15.8571 0H5.57143C4.15714 0 3 1.2 3 2.66667V10.4C3 10.5733 3.01286 10.7467 3.05143 10.92L4.08 16.2533C4.19571 16.88 4.72286 17.32 5.34 17.32H18.66C19.2386 17.32 19.8043 16.84 19.92 16.2533L20.9486 10.92C20.9871 10.7467 21 10.5733 21 10.4V6.66667C21 5.93333 20.4214 5.33333 19.7143 5.33333ZM15.8571 9.33333H5.57143V5.33333H15.8571V9.33333Z" fill="currentColor"/>
</svg>
