<svg width="24" height="24" viewBox="0 0 24 24" fill="none" xmlns="http://www.w3.org/2000/svg">
<path id="Vector" d="M1.14282 11.0927C2.831 5.73592 6.23074 2.36956 11.5684 1.19596C12.4249 1.00765 13.7215 1.33882 14.365 1.92419C16.9603 4.28522 19.3337 6.8884 21.8865 9.29889C22.8832 10.24 23.0382 11.1116 22.6851 12.3885C21.1262 18.0259 17.5802 21.5801 11.8599 22.8161C11.1254 22.9748 10.0067 22.6593 9.45629 22.1454C6.77621 19.6432 4.14108 17.0774 1.6971 14.3486C1.09793 13.6796 1.27708 12.3135 1.14282 11.0927ZM9.24139 16.2023C11.4521 13.8306 13.6628 11.4588 15.9825 8.97012C15.6282 8.63474 15.0927 8.12794 14.5554 7.61942C12.1551 10.0172 9.90278 12.2671 7.07525 15.0916C7.69849 15.4281 8.31028 15.7584 9.24139 16.2023Z" fill="currentColor"/>
<path id="Vector_2" d="M2.28734 19.2382C3.82716 20.6446 5.24955 21.9392 6.85714 23.4024C1.6095 25.1456 -0.531927 23.0818 0.110787 17.1431C0.905127 17.9081 1.53754 18.5173 2.28734 19.2382Z" fill="currentColor"/>
<path id="Vector_3" d="M18.2859 0.308309C23.5335 -0.746723 24.3696 0.870007 23.8792 5.71429C21.9025 3.83538 20.1142 2.13559 18.2859 0.308309Z" fill="currentColor"/>

</svg>
