<svg width="24" height="24" viewBox="0 0 24 24" fill="none" xmlns="http://www.w3.org/2000/svg">
<path id="Vector" d="M11.9998 0.000308778C14.8635 -0.0204233 17.6366 1.00349 19.7997 2.88028C18.4904 4.01358 17.4384 5.41351 16.7141 6.98635C15.9898 8.55919 15.6098 10.2686 15.5997 12.0002C15.6098 13.7318 15.9898 15.4412 16.7141 17.0141C17.4384 18.5869 18.4904 19.9868 19.7997 21.1201C17.626 22.979 14.8599 24.0003 11.9998 24.0001C9.13602 24.0208 6.36293 22.9969 4.19982 21.1201C5.50907 19.9868 6.56107 18.5869 7.28541 17.0141C8.00974 15.4412 8.38968 13.7318 8.39979 12.0002C8.38968 10.2686 8.00974 8.55919 7.28541 6.98635C6.56107 5.41351 5.50907 4.01358 4.19982 2.88028C6.36293 1.00349 9.13602 -0.0204233 11.9998 0.000308778ZM23.9996 12.0002C24.0108 14.6548 23.1226 17.235 21.4797 19.3201C20.3774 18.4484 19.4903 17.3348 18.8869 16.0656C18.2835 14.7964 17.9799 13.4054 17.9997 12.0002C17.9933 10.5799 18.302 9.17582 18.9038 7.88927C19.5056 6.60271 20.3854 5.46572 21.4797 4.56027C23.0895 6.70915 23.9722 9.31534 23.9996 12.0002ZM-0.000140146 12.0002C0.0272701 9.31534 0.910012 6.70915 2.51984 4.56027C3.61415 5.46572 4.49391 6.60271 5.09569 7.88927C5.69746 9.17582 6.00626 10.5799 5.99981 12.0002C6.0196 13.4054 5.71606 14.7964 5.11266 16.0656C4.50925 17.3348 3.62213 18.4484 2.51984 19.3201C0.876939 17.235 -0.0113057 14.6548 -0.000140146 12.0002Z" fill="currentColor"/>

</svg>
