<svg width="40" height="40" viewBox="0 0 40 40" fill="none" xmlns="http://www.w3.org/2000/svg">
<g clipPath="url(#clip0_137_16243)">
<path fillRule="evenodd" clipRule="evenodd" d="M23.2091 2.61503C24.2681 2.48103 25.3341 2.41503 26.4092 2.41503C27.6677 2.41503 28.9267 2.51003 30.1712 2.72503C32.2227 3.09504 34.4963 3.68805 35.7413 5.46507C36.6298 6.75508 36.9778 8.50211 37.2223 10.0201C37.5923 12.2202 37.6373 14.4642 37.4443 16.6862L23.2091 2.61503ZM3.38887 20.7078C4.20388 17.7452 7.98093 7.10259 20.4016 3.74755L36.4013 19.5452C35.5273 22.5293 31.5862 33.2829 19.2176 36.327L3.38937 20.7078H3.38887ZM9.70595 37.2305C7.68443 36.8605 5.5959 36.2455 4.32938 34.5354C3.39637 33.2754 3.04787 31.5724 2.78936 30.0469C2.41836 27.8249 2.36686 25.5518 2.55186 23.3068L16.795 37.364C15.735 37.4975 14.647 37.5715 13.58 37.5715C12.277 37.5715 10.9795 37.4675 9.70595 37.2305ZM37.7563 4.11005C35.9778 1.57752 33.0012 0.77751 30.5932 0.355004C29.2602 0.118502 27.8382 0 26.4082 0C25.2531 0 24.0681 0.074001 22.8906 0.222003C22.1791 0.326004 21.5566 0.711009 21.1866 1.28102C20.9641 1.20702 20.7126 1.18501 20.4756 1.24402C4.84739 5.03606 1.21835 19.2117 0.847841 20.8193C0.78784 21.0633 0.82584 21.3073 0.921842 21.5293C0.462836 21.9368 0.166832 22.4923 0.106831 23.1218C-0.100171 25.7438 -0.00417006 28.2099 0.381835 30.4769C0.691839 32.2539 1.12184 34.2904 2.36686 35.979C4.17338 38.423 7.00292 39.2155 9.26895 39.63C10.647 39.874 12.099 40 13.587 40C14.742 40 15.935 39.926 17.12 39.778C17.7641 39.6815 18.3271 39.348 18.7201 38.867H18.8451C18.9341 38.867 19.0231 38.867 19.1121 38.8445C34.6658 35.4374 38.5473 21.0918 38.9398 19.4692C39.0133 19.1957 38.9613 18.9142 38.8428 18.6552C39.4353 18.2627 39.8278 17.6182 39.8798 16.8777C40.1018 14.3152 40.0133 11.8711 39.6348 9.63462C39.3318 7.8346 38.9168 5.77607 37.7548 4.10955L37.7563 4.11005ZM20.0461 18.6637C19.8391 18.6787 19.0836 17.7157 18.9351 17.5537C18.4911 17.1237 17.9951 16.5687 17.32 16.9827C15.935 17.8417 18.1051 19.4267 18.6981 20.0192L14.3655 24.3443C13.9055 23.8853 13.454 23.4113 12.9805 22.9593C12.3135 22.3373 10.9655 22.4928 11.2245 23.6778C11.321 24.0998 11.743 24.4178 12.0395 24.7148L13.6395 26.3148L15.2685 27.9438C15.565 28.2399 15.9205 28.7289 16.3425 28.8324C17.5425 29.1584 17.7201 27.7438 17.0825 27.0773C16.6385 26.6033 16.1645 26.1513 15.7055 25.6923C16.4015 24.9813 17.1125 24.2853 17.8091 23.5823C18.2981 23.0923 18.7721 22.6038 19.2681 22.1223C19.4016 21.9973 19.8456 21.3823 20.0311 21.3673C20.2391 21.3448 20.8831 22.1823 21.0536 22.3598C21.5571 22.8558 22.2386 23.6188 22.9496 22.8998C23.9126 21.9373 22.0096 20.6048 21.3946 20.0117L24.2606 17.1532C24.6526 16.7607 25.0756 16.1532 25.5557 15.8572C25.9267 15.6347 25.9117 15.8422 26.2822 16.2272C26.6972 16.6347 27.3042 17.5012 27.9562 17.5012C28.9937 17.5012 29.0677 16.3762 28.5342 15.7762C27.6677 14.7987 26.6607 13.9097 25.7192 12.9762C25.1421 12.3842 23.7941 10.4811 22.8311 11.4361C21.8681 12.3987 23.7941 13.7322 24.3861 14.3247L22.2161 16.5002L20.7721 17.9452C20.6611 18.0487 20.2021 18.6567 20.0461 18.6637Z" fill="white"/>
</g>
<defs>
<clipPath id="clip0_137_16243">
<rect width="40" height="40" fill="white"/>
</clipPath>
</defs>
</svg>
