<svg width="40" height="40" viewBox="0 0 40 40" fill="none" xmlns="http://www.w3.org/2000/svg">
<g clipPath="url(#clip0_137_16235)">
<path d="M30.2558 12.4076L35.2531 12.2933C34.3124 10.3036 33.1324 8.61065 31.8019 7.40254C28.3808 4.29655 23.4871 2.40071 18.8963 2.40071C14.3075 2.40071 9.09552 3.25088 6.78827 4.42348C6.62665 5.0806 6.38217 5.7622 6.04871 6.53768C5.82423 7.06133 4.85693 9.12369 4.62918 9.64122C3.30149 12.6644 2.6407 15.3687 2.6407 18.9461C2.6407 21.6187 3.14598 24.3814 3.82432 25.3777C5.02305 27.1384 6.55481 28.3049 9.27714 29.073C11.2428 29.6257 19.893 31.9598 21.746 32.521C23.0263 32.9088 24.1361 33.2802 25.1899 33.6769C25.6781 33.8606 26.1768 34.0614 26.7245 34.292C27.351 34.5561 29.5424 35.5205 29.9705 35.7042C31.7733 36.4756 33.2487 37.0204 34.8879 37.4845C35.2213 36.9621 35.8258 36.0009 36.0902 35.527C36.6331 34.5524 37.0208 33.6577 37.211 32.8806C37.242 32.7541 37.2673 32.6329 37.2865 32.5174C36.5233 32.1664 35.4597 31.6705 34.0336 30.9991C32.8132 30.4256 31.8378 29.944 30.8962 29.4583C30.5513 29.2804 29.3167 28.6306 29.0253 28.482C28.8783 28.4073 28.7395 28.338 28.6032 28.2714C27.9526 27.9543 27.2755 27.6604 26.3217 27.2894L24.7912 26.6948V25.0528C24.7912 24.7251 24.7944 24.354 24.8009 23.9459C24.8075 23.5622 24.8165 23.1561 24.8271 22.7394C24.8352 22.4349 24.8434 22.1427 24.8516 21.8721C24.8556 21.7089 24.8597 21.5897 24.8626 21.5232L25.0332 17.4405L25.0397 17.2784L25.0683 17.1193C25.0928 16.9805 25.1352 16.7854 25.1997 16.5479C25.3058 16.156 25.4421 15.7626 25.6193 15.3765C25.8976 14.7692 26.2495 14.2337 26.7286 13.7888C27.1886 13.3619 27.7216 13.0582 28.3122 12.835C28.7318 12.6758 29.1571 12.5668 29.5787 12.4921C29.8338 12.4472 30.044 12.4227 30.2562 12.4064L30.2558 12.4076ZM33.4157 5.62506C35.9694 7.94333 37.8196 11.4779 38.8726 15.1198C38.7705 14.781 38.7077 14.6149 38.7077 14.6149L30.3734 14.8067C30.3734 14.8067 29.055 14.9047 28.3628 15.5479C27.671 16.1911 27.4314 17.5405 27.4314 17.5405L27.2621 21.6056C27.2621 21.6056 27.1927 23.6439 27.1927 25.0524C30.4317 26.3119 30.4685 26.6695 35.0548 28.8265C38.3636 30.3828 39.3338 30.8134 39.617 30.9325C40.3843 33.9528 37.2967 38.0979 36.7233 39.0608C36.1356 40.0473 35.5682 40.1668 34.3654 39.8309C30.1877 38.6636 27.3972 37.0731 24.343 35.9221C20.584 34.5059 16.4021 33.5696 8.62452 31.3823C4.80142 30.3056 2.98191 28.4061 1.83992 26.7295C0.698337 25.0528 0.23999 21.5811 0.23999 18.9461C0.23999 10.113 4.299 6.47564 4.6047 2.97212C7.24784 0.878329 14.3594 0 18.8967 0C24.0822 0 29.5518 2.11705 33.4157 5.62506Z" fill="black"/>
<path opacity="0.5" fillRule="evenodd" clipRule="evenodd" d="M38.7076 14.6152L30.3733 14.8071C30.3733 14.8071 29.055 14.905 28.3628 15.5483C27.671 16.1915 27.4314 17.5408 27.4314 17.5408L27.262 21.606L27.191 25.0805C27.191 25.0805 26.8849 25.1507 31.4716 27.3077C36.0576 29.4648 39.5529 30.9566 39.5529 30.9566C39.5529 30.9566 39.6684 27.2016 39.4158 22.3039C38.8627 17.4249 38.7068 14.6152 38.7068 14.6152H38.7076Z" fill="black"/>
<path opacity="0.8" d="M8.40054 18.7837C8.40054 18.807 8.39973 18.8376 8.3985 18.8866C8.39034 19.2335 8.41075 19.598 8.49238 20.0702C8.6136 20.7824 8.84869 21.5232 9.22704 22.2734C9.49437 22.8056 9.86987 23.2676 10.3278 23.6627C10.6776 23.9647 11.0551 24.2113 11.4314 24.4035C11.6518 24.5153 11.8167 24.5831 11.8951 24.6088C12.3224 24.7517 12.553 25.2145 12.4102 25.6414C12.2673 26.07 11.8045 26.3002 11.3767 26.1569C11.2257 26.1063 10.9866 26.0083 10.689 25.8565C10.2033 25.6083 9.71763 25.2916 9.26051 24.8982C8.64829 24.3692 8.13811 23.7415 7.76914 23.0072C7.3161 22.1052 7.03122 21.2114 6.88347 20.3441C6.78306 19.7564 6.75776 19.2919 6.76796 18.8474L6.7696 18.7821C6.7696 18.3311 7.13529 17.9658 7.58589 17.9658C8.03689 17.9658 8.40218 18.3311 8.40218 18.7821L8.40054 18.7837Z" fill="black"/>
</g>
<defs>
<clipPath id="clip0_137_16235">
<rect width="40" height="40" fill="black"/>
</clipPath>
</defs>
</svg>
