<svg width="40" height="40" viewBox="0 0 40 40" fill="none" xmlns="http://www.w3.org/2000/svg">
<g id="badminton-6x3ydK.svg" clip-path="url(#clip0_137_16214)">
<g id="Group">
<path id="Vector" fill-rule="evenodd" clip-rule="evenodd" d="M1.81074 38.1572C3.09915 39.3613 4.72227 39.9999 6.4261 39.9999C8.21836 39.9999 9.90059 39.3027 11.1679 38.0349L13.5998 35.603L36.9861 26.0427C38.7865 25.3075 39.6688 24.2047 39.9269 22.9194C40.2441 21.3482 39.5187 19.4644 37.9536 17.8984C36.7218 16.6671 34.9871 15.9858 33.0622 15.9858C32.7661 15.9858 32.4674 16.0013 32.1686 16.0336L31.4005 16.1149L31.5548 15.3591C31.9429 13.4517 31.4031 11.4671 30.0509 10.0019C28.8715 8.90933 27.4021 8.33504 25.8608 8.33504C25.4484 8.33504 25.0412 8.37617 24.6433 8.45638L23.8886 8.60856L23.9688 7.84251C24.2037 5.59472 23.5292 3.47239 22.1076 2.0503C20.8002 0.742354 19.2398 0.000976562 17.8465 0.000976562C16.2671 0.000976562 14.8594 0.827699 13.9648 3.0179L4.4071 26.4109L1.97526 28.8427C-0.592823 31.4103 -0.66583 35.5007 1.8092 38.1577L1.81074 38.1572ZM9.59057 19.8511L11.7175 21.9796L7.61168 27.3245L6.84923 26.562L9.59109 19.8516L9.59057 19.8511ZM13.5134 10.2507L17.593 14.3303L13.4903 19.6722L10.7741 16.956L13.5144 10.2502L13.5134 10.2507ZM23.0505 29.235L20.3349 26.5194L25.6757 22.4145L29.7543 26.4942L23.051 29.2355L23.0505 29.235ZM13.4507 33.1588L12.6872 32.3959L18.029 28.291L20.1549 30.4185L13.4507 33.1588ZM18.2784 24.4618L15.5463 21.7292L19.6501 16.3874L23.6192 20.3575L18.2784 24.4618ZM13.7746 24.0361L15.972 26.234L10.6301 30.3399L9.66975 29.381L13.7746 24.0361ZM33.0632 18.3046C34.365 18.3046 35.5192 18.7426 36.3146 19.5385C37.2904 20.5133 37.8169 21.6608 37.6565 22.4613C37.5382 23.0423 37.019 23.5256 36.1089 23.8957L32.6499 25.3106L27.9826 20.6413L30.034 19.0644C30.9903 18.5688 32.035 18.3046 33.0632 18.3046ZM25.8618 10.6533C26.7985 10.6533 27.6931 10.9957 28.3872 11.6183C29.7157 13.099 29.671 15.3365 28.2895 16.7678L25.9245 18.5853L21.4218 14.0815L23.2382 11.7165C23.9477 11.0317 24.8747 10.6533 25.8618 10.6533ZM16.1123 3.89449C16.756 2.31919 17.5776 2.31919 17.848 2.31919C18.6208 2.31919 19.6249 2.84361 20.4701 3.68884C21.9251 5.14486 22.1128 7.71654 20.941 9.97307L19.3657 12.0244L14.6985 7.35511L16.1123 3.89449ZM3.61534 30.4812L5.15259 28.944L11.0687 34.8555L9.52888 36.3953C8.7001 37.2241 7.59832 37.6806 6.4261 37.6806C5.32791 37.6806 4.28114 37.2755 3.4719 36.5393C1.88837 34.7999 1.94853 32.1486 3.61585 30.4807L3.61534 30.4812Z" fill="currentColor"/>
</g>
</g>
<defs>
<clipPath id="clip0_137_16214">
<rect width="40" height="40" fill="currentColor"/>
</clipPath>
</defs>
</svg>
