<svg width="40" height="40" viewBox="0 0 40 40" fill="none" xmlns="http://www.w3.org/2000/svg">
<g clipPath="url(#clip0_137_16345)">
<path fillRule="evenodd" clipRule="evenodd" d="M7.5671 33.8771C7.30895 33.8986 7.0504 33.9192 6.79184 33.9381C5.91926 34.0025 5.10813 34.047 4.37782 34.0763C3.93452 34.0944 3.61246 34.1027 3.43102 34.1052L1.66112 34.0705C1.56834 34.0693 1.36834 33.9984 1.23102 33.7893C1.09411 33.5806 1.15473 33.2656 1.15473 33.2656L2.897 24.6771C2.897 24.6771 2.94359 24.428 3.07184 24.2994C3.19968 24.1707 3.43143 24.1365 3.51638 24.1353L5.45535 24.1076L5.65741 24.1023C5.83473 24.0981 6.04174 24.0911 6.27597 24.0816C6.95225 24.0548 12.716 23.9361 14.8607 23.5229C17.7048 22.9753 20.1341 22.0701 21.6384 21.1864C25.6401 18.8371 28.5345 15.1542 29.57 12.3369C29.8038 11.6454 30.8822 9.02433 31.8751 5.82969C32.3073 4.44082 32.7687 2.95134 33.229 1.46268L33.6809 0H35.3923C35.3906 0.00742268 34.9283 1.55217 34.8059 1.94969C34.3151 3.53732 33.8607 5.00206 33.4512 6.31876C33.3597 6.61237 33.2657 6.90722 33.1696 7.20371C32.7663 8.44412 32.3448 9.63464 31.8698 10.9047C31.7737 11.1616 31.1894 12.7002 31.1193 12.9047C29.8422 16.3794 26.5065 20.2408 22.4747 22.6078C20.6908 23.6553 18.0356 24.5905 15.1737 25.1419C14.2756 25.3151 12.8685 25.4437 11.0285 25.546C10.0809 25.5996 9.07968 25.6408 8.01122 25.6779C7.49164 25.6944 6.3972 25.7274 6.34112 25.7295C6.10937 25.7386 5.89411 25.746 5.70401 25.7501C5.59349 25.7534 5.5205 25.7551 5.48009 25.7559C5.40999 25.7559 5.40999 25.7559 5.12545 25.76L4.35844 25.7711L3.00463 32.4462L3.13576 32.4487L3.43555 32.4544C3.63885 32.4515 3.94772 32.4421 4.31225 32.4272C5.06689 32.3971 5.85865 32.3522 6.67102 32.2924C7.08463 32.2623 7.49576 32.2285 7.90153 32.1918C7.72627 32.7278 7.61287 33.2928 7.56751 33.8767L7.5671 33.8771ZM21.1766 31.1225C21.8005 30.8412 22.4632 30.5047 23.1869 30.0948C25.9642 28.5237 27.8219 26.0718 30.4652 22.2474C33.1069 18.4235 33.9716 15.3423 34.6302 13.532C34.8941 12.7579 35.5753 10.5967 36.5737 7.38763C37.0343 5.90722 37.4962 4.41443 37.9572 2.92371C38.118 2.40165 38.2685 1.91753 38.4026 1.48206L38.5271 1.07794L38.5712 0.934433L38.8586 0H37.1329L36.9943 0.44866C36.9828 0.48866 36.9828 0.48866 36.9502 0.594639L36.9073 0.734021C36.8908 0.785155 36.8805 0.819794 36.8265 0.993814C36.7366 1.2866 36.3782 2.44536 36.3811 2.43711C35.845 4.17031 35.4129 5.56454 34.9984 6.89897C33.9395 10.3035 33.3127 12.287 33.0698 12.9988C32.9832 13.2359 32.6063 14.3237 32.5197 14.5658C32.271 15.2627 32.0384 15.8672 31.7741 16.4874C31.0797 18.1163 30.229 19.6874 29.1077 21.3101C26.0438 25.7443 24.5494 27.4285 22.3745 28.6598C21.6104 29.092 20.9135 29.4425 20.2393 29.7332C20.603 30.1563 20.918 30.6223 21.1766 31.1225Z" fill="white"/>
<path fillRule="evenodd" clipRule="evenodd" d="M14.7631 38.3507C16.9268 38.3507 18.6806 36.5969 18.6806 34.4332C18.6806 32.2695 16.9268 30.5157 14.7631 30.5157C12.5993 30.5157 10.8455 32.2695 10.8455 34.4332C10.8455 36.5969 12.5993 38.3507 14.7631 38.3507ZM14.7631 40.0002C11.6884 40.0002 9.19604 37.5079 9.19604 34.4332C9.19604 31.3586 11.6884 28.8662 14.7631 28.8662C17.8377 28.8662 20.3301 31.3586 20.3301 34.4332C20.3301 37.5079 17.8377 40.0002 14.7631 40.0002Z" fill="white"/>
</g>
<defs>
<clipPath id="clip0_137_16345">
<rect width="40" height="40" fill="white"/>
</clipPath>
</defs>
</svg>
