<svg width="40" height="40" viewBox="0 0 40 40" fill="none" xmlns="http://www.w3.org/2000/svg">
<g clip-path="url(#clip0_137_16220)">
<path fill-rule="evenodd" clip-rule="evenodd" d="M3.32222 13.7805C0.744429 20.6767 2.80666 28.7062 8.3878 33.5167C14.0223 38.374 22.3567 39.1601 28.8323 35.4567C35.309 31.7534 38.849 24.1317 37.489 16.8044C36.1335 9.4905 30.189 3.64992 22.8651 2.4488C15.6067 1.25602 8.10224 4.8577 4.49111 11.2672C4.03667 12.0738 3.64555 12.915 3.32222 13.7805ZM1.24054 13.0027C1.60388 12.0294 2.04444 11.0827 2.55499 10.1766C6.6239 2.95269 15.0473 -1.08788 23.2251 0.256015C31.4846 1.61102 38.1502 8.17661 39.674 16.4C41.2074 24.6628 37.2263 33.2167 29.9351 37.3856C22.6573 41.5479 13.2973 40.6829 6.93723 35.2001C0.654984 29.7856 -1.66558 20.7739 1.24054 13.0027Z" fill="black"/>
<path fill-rule="evenodd" clip-rule="evenodd" d="M23.5807 4.37647L20.0574 4.23314C19.224 4.19758 19.1685 5.49759 20.0046 5.53148L23.5279 5.67592C24.3624 5.71037 24.4152 4.41147 23.5807 4.37592V4.37647ZM20.0863 7.84705C18.9235 8.04149 19.2151 9.84483 20.3852 9.65261L25.2852 8.83816C26.4485 8.64705 26.1552 6.83704 24.9852 7.03149L20.0851 7.84705H20.0863ZM21.8252 12.6148C20.7029 12.9721 21.2507 14.7204 22.3807 14.3593L27.1118 12.8504C28.2357 12.4921 27.6896 10.7448 26.558 11.106L21.8252 12.6148ZM28.378 14.6171L24.1879 17.2838C23.1935 17.9154 24.1696 19.4638 25.1702 18.8282L29.3591 16.1615C30.3558 15.5293 29.3769 13.9799 28.378 14.6171ZM31.0558 18.1115L27.5763 21.6527C26.7502 22.4938 28.0502 23.7832 28.8819 22.936L32.363 19.3943C33.1874 18.5515 31.8891 17.2638 31.0563 18.111L31.0558 18.1115ZM33.9669 20.5593L32.228 25.211C31.8158 26.3132 33.5263 26.9627 33.943 25.8516L35.683 21.2004C36.0941 20.0965 34.3835 19.4488 33.9669 20.5593ZM14.2946 18.7493C13.9246 18.4077 13.3446 18.431 13.0012 18.8021L9.63344 22.4521C8.83343 23.3155 10.174 24.5655 10.9779 23.6943L14.3485 20.0443C14.6901 19.6732 14.6668 19.0943 14.2951 18.7488C13.9251 18.4071 14.6673 19.0932 14.2951 18.7488L14.2946 18.7493ZM16.2324 22.9193L12.0446 25.586C11.0501 26.2205 12.0257 27.7677 13.0279 27.1305L17.2168 24.4638C18.2101 23.8293 17.2346 22.2821 16.2324 22.9193ZM14.0779 29.4916C12.9668 29.886 13.5685 31.6155 14.6873 31.2194L19.369 29.5638C20.4818 29.1716 19.8768 27.4399 18.759 27.8377L14.0779 29.4916ZM15.0646 33.1661C13.8901 33.0716 13.7379 34.8994 14.9201 34.9916L19.8701 35.3833C21.044 35.4738 21.1979 33.6516 20.0157 33.5572L15.0646 33.1661ZM8.11676 20.3393L10.9279 16.2449C11.5946 15.2743 10.0868 14.2321 9.41677 15.2104L6.60731 19.3049C5.94231 20.2749 7.44454 21.3171 8.11732 20.3399L8.11676 20.3393ZM5.99453 17.4104L7.35565 14.1576C7.67787 13.3865 6.47787 12.8832 6.15564 13.6554L4.79619 16.9082C4.47397 17.6788 5.67231 18.1804 5.99509 17.4099L5.99453 17.4104Z" fill="black"/>
</g>
<defs>
<clipPath id="clip0_137_16220">
<rect width="40" height="40" fill="black"/>
</clipPath>
</defs>
</svg>
