<svg width="40" height="40" viewBox="0 0 40 40" fill="none" xmlns="http://www.w3.org/2000/svg">
<path fillRule="evenodd" clipRule="evenodd" d="M20 40C31.0455 40 40 31.0455 40 20C40 8.95447 31.0455 0 20 0C8.95447 0 0 8.95447 0 20C0 31.0455 8.95447 40 20 40ZM21.4906 4.6583C21.9047 4.10936 21.8383 2.94596 21.7792 1.91957C21.7774 1.87574 21.7749 1.83234 21.7723 1.78851C21.1915 1.73277 20.6043 1.70213 20.0094 1.70213C17.7302 1.70213 15.5498 2.1217 13.537 2.88255C14.9728 3.57192 17.1953 4.75915 19.6647 6.51234C20.5081 5.78766 21.1438 5.1183 21.4906 4.6583ZM30.766 15.0991C29.8638 15.2013 29.103 15.3489 28.4523 15.5566C31.563 20.9864 32.7766 27.8451 33.0736 32.814C36.1549 29.6753 38.1123 25.4319 38.2979 20.7319C36.1745 18.1226 33.3609 14.8051 30.766 15.0991ZM12.2715 10.4128C14.4574 9.9583 16.5115 8.85872 18.1489 7.69787C14.7319 5.34638 11.883 4.12596 11.3162 3.89362C7.77234 5.80851 4.93617 8.85957 3.28638 12.5562C5.43106 11.7021 7.75362 11.2677 10.0353 10.8443C10.7728 10.7072 11.5362 10.566 12.2715 10.4128ZM24.9251 10.9447C25.1209 11.1404 25.3149 11.3404 25.5081 11.5434C26.2213 12.2915 26.8685 13.1102 27.4613 13.9757C28.326 13.6498 29.343 13.4183 30.5609 13.2809C33.4302 12.9566 35.9813 15.2281 38.1711 17.7294C37.7021 13.9379 36.0745 10.5064 33.6511 7.8C32.3277 7.95957 30.8528 8.22979 29.3489 8.67787C28.3626 8.97234 26.7915 9.77234 24.9255 10.9451L24.9251 10.9447ZM22.5166 20.3945C23.2672 17.8523 24.137 16.02 25.8221 14.8306C25.317 14.1051 24.7728 13.4238 24.183 12.8051C23.9106 12.5191 23.634 12.2426 23.3574 11.9711C16.5957 16.5711 7.33532 25.0196 6.49277 32.3404C9.30426 35.414 13.1511 37.5221 17.4817 38.1204C19.0587 34.9826 20.543 28.6034 21.4251 24.8098C21.8485 22.9872 22.2145 21.414 22.5157 20.3945H22.5166ZM14.8511 16.3634C17.2077 14.1923 19.697 12.2455 21.9745 10.6809C21.2149 10.0098 20.4536 9.39149 19.7064 8.8234C17.8153 10.2447 15.3391 11.6438 12.6438 12.2043C11.8894 12.3617 11.1162 12.5047 10.3689 12.6434C7.49021 13.1779 4.72638 13.6953 2.40213 14.9915C1.94979 16.5838 1.70213 18.2626 1.70213 20C1.70213 23.8868 2.9183 27.4877 4.98553 30.4511C6.32511 25.1511 10.9192 19.9847 14.8511 16.3634ZM23.5511 9.63574C25.7289 8.24851 27.6064 7.28851 28.8247 6.92511C29.9183 6.5983 30.9919 6.36043 32.0077 6.18681C29.66 4.14681 26.7894 2.69319 23.6204 2.05915C23.6906 3.33745 23.7213 4.74 22.9523 5.76C22.5864 6.24383 21.9685 6.90766 21.1643 7.62809C21.9515 8.24085 22.7523 8.90894 23.5515 9.63532L23.5511 9.63574ZM24.2715 20.9123C23.9864 21.8804 23.6247 23.4298 23.2077 25.2238C21.9766 30.5209 20.7979 35.2604 19.4217 38.2834C19.6174 38.2894 19.8132 38.2979 20.0098 38.2979C24.2762 38.2979 28.1983 36.8353 31.3111 34.3898C31.1877 29.1898 29.9409 21.8345 26.7991 16.3745C25.5804 17.2796 24.9247 18.703 24.2715 20.9123Z" fill="white"/>
</svg>
