<svg width="40" height="40" viewBox="0 0 40 40" fill="none" xmlns="http://www.w3.org/2000/svg">
<g clip-path="url(#clip0_137_16284)">
<path opacity="0.5" fill-rule="evenodd" clip-rule="evenodd" d="M20.0004 0.210814C8.95389 0.210814 0 9.06955 0 19.9996C0 30.9296 8.95432 39.7896 20.0004 39.7896C31.0457 39.7896 40 30.9292 40 19.9996C40 9.06997 31.0457 0.209961 19.9996 0.209961L20.0004 0.210814ZM36.2286 20.6465L36.1689 20.574C34.206 18.2611 33.0709 16.9042 32.8959 16.5713L32.9642 9.41519C33.1349 9.4792 33.519 9.61575 33.9884 9.77364L34.0566 9.79498L35.4733 10.371C37.2528 13.1618 38.2897 16.4604 38.2897 19.9979C38.2897 20.4374 38.2641 20.894 38.2726 20.6892C37.4832 21.4999 37.2826 21.7133 37.2058 21.8157C37.0309 21.5938 36.6724 21.1671 36.2286 20.6465ZM25.8977 35.8847L24.4469 35.4068L28.2618 29.8423C28.5861 29.6503 30.31 29.0742 33.28 28.1013L34.6455 27.649L34.8077 29.3559L34.8205 30.5763C32.9941 33.0854 30.5234 35.0995 27.6601 36.4138C26.7938 36.1621 26.0257 35.9231 25.8977 35.8847ZM5.4535 30.9475V29.3601L5.61138 27.6533L7.13478 28.1653L7.36948 28.2379C9.94687 29.0913 11.6794 29.6588 11.9909 29.8381L13.1302 31.4938L15.8186 35.4111L13.7063 36.1023L12.4517 36.4779C9.67804 35.2276 7.2756 33.3201 5.4535 30.9475ZM6.75073 9.67976L6.7934 9.66696C7.13478 9.55601 7.42068 9.4664 7.57004 9.41092L7.64258 16.55C7.47189 16.8913 6.35388 18.2185 4.53605 20.3734L3.32843 21.8157L2.91877 21.261C2.8505 21.1586 2.72675 21.0305 1.70689 19.9808C1.70689 16.5073 2.71395 13.2514 4.44644 10.4905L6.75073 9.67976ZM16.3008 2.27615C17.4956 2.02865 18.7331 1.90063 20.0004 1.90063C21.6134 1.90063 23.1752 2.11399 24.6645 2.49804L25.3131 3.46243C25.6545 4.00863 25.9959 4.55484 26.35 5.09251C25.3344 5.42535 21.7414 6.60737 21.0288 6.83353L20.9563 6.85913L20.9136 6.88473L20.8709 6.9018C20.7216 6.96581 20.5466 7.04262 20.4015 7.04689C20.2821 7.04689 20.1114 6.97008 19.9492 6.9018C19.9065 6.88047 19.8639 6.85913 19.7956 6.8378C19.0872 6.60737 15.5711 5.45095 14.4616 5.09677L15.1017 4.09398C15.1657 3.9745 15.7076 3.16373 16.3008 2.27615ZM21.9719 11.7417C21.6143 11.4652 21.3514 11.262 21.2405 11.1754C21.0186 10.9988 20.6418 10.7841 20.1374 10.7666C20.0926 10.7636 20.0486 10.7624 20.0119 10.7624C19.5869 10.7624 19.1696 10.9074 18.8402 11.1694C18.7198 11.2633 18.4476 11.4745 18.0763 11.7605C10.904 17.304 10.904 17.304 11.2851 18.547C11.4814 19.2114 11.7801 20.2556 12.1057 21.392C12.4884 22.7293 12.9079 24.1921 13.2407 25.3208C13.9679 27.7915 14.1633 28.4559 15.4921 28.4559H24.5813C25.9109 28.4559 26.1064 27.7902 26.8352 25.3144C27.1693 24.1802 27.5897 22.7123 27.9724 21.3741C28.2967 20.245 28.5937 19.2084 28.7832 18.5662C29.1715 17.3057 29.1715 17.3057 21.9727 11.7421L21.9719 11.7417Z" fill="black"/>
<path fill-rule="evenodd" clip-rule="evenodd" d="M27.1464 18.084C26.9535 18.7381 26.6548 19.7793 26.3296 20.914C25.9482 22.2483 25.5295 23.7111 25.1963 24.8415C24.9317 25.7406 24.7149 26.4759 24.5801 26.7673H15.4922C15.3582 26.4771 15.1423 25.744 14.8786 24.8488C14.547 23.7235 14.1292 22.2654 13.7478 20.9323C13.4226 19.7972 13.1239 18.7543 12.9242 18.0776C13.3099 17.5868 15.2182 16.1125 19.1266 13.0917C19.5012 12.8024 19.7778 12.5882 19.9041 12.4901C19.9339 12.4657 19.9753 12.4517 20.0116 12.4517L20.0483 12.4529C20.1008 12.4542 20.1409 12.467 20.1755 12.4948C20.2915 12.5852 20.5587 12.7918 20.9448 13.0905C24.8579 16.1146 26.7666 17.5902 27.1477 18.0788L27.146 18.0831L27.1464 18.084ZM21.972 11.742C21.6144 11.4655 21.3515 11.2624 21.2406 11.1758C21.0187 10.9991 20.6419 10.7845 20.1375 10.767C20.0927 10.764 20.0487 10.7627 20.012 10.7627C19.587 10.7627 19.1697 10.9078 18.8403 11.1698C18.7199 11.2637 18.4477 11.4749 18.0764 11.7608C10.9041 17.3043 10.9041 17.3043 11.2852 18.5474C11.4814 19.2118 11.7801 20.256 12.1057 21.3923C12.4885 22.7297 12.908 24.1925 13.2408 25.3211C13.9679 27.7919 14.1634 28.4563 15.4922 28.4563H24.5814C25.911 28.4563 26.1065 27.7906 26.8353 25.3147C27.1694 24.1805 27.5897 22.7126 27.9725 21.3744C28.2968 20.2453 28.5938 19.2088 28.7833 18.5666C29.1716 17.306 29.1716 17.306 21.9728 11.7424L21.972 11.742Z" fill="black"/>
<path fill-rule="evenodd" clip-rule="evenodd" d="M37.2144 21.817C37.0309 21.5938 36.6707 21.1671 36.2329 20.6486L36.1676 20.5718C34.2111 18.2577 33.0709 16.9033 32.8938 16.5666L32.9672 9.4105C33.1379 9.47451 33.5275 9.61106 33.9884 9.77108L34.0609 9.79668C34.1505 9.82911 34.7607 10.0766 35.4776 10.3685C37.2579 13.1592 38.2931 16.4621 38.2931 19.9996C38.2931 20.4378 38.2675 20.8936 38.276 20.6879C37.4858 21.5012 37.2869 21.7176 37.2144 21.817ZM36.4002 28.0015L36.3541 27.5001C36.3063 26.9807 36.0255 26.5199 35.5826 26.2344C35.1482 25.9553 34.5917 25.8879 34.101 26.0539C33.8356 26.1444 33.3427 26.307 32.744 26.5037C27.2649 28.3074 27.2649 28.3074 26.8574 28.8959L23.034 34.4595C22.7323 34.8964 22.6559 35.455 22.8279 35.9521C22.9986 36.4514 23.4023 36.8483 23.9083 37.0147L25.0579 37.3893C23.4505 37.8502 21.7551 38.102 19.9991 38.102C18.2944 38.102 16.646 37.8651 15.0791 37.4311C15.5058 37.2925 15.9325 37.1538 16.3592 37.013C16.8636 36.8474 17.2668 36.4497 17.4375 35.9491C17.6074 35.4499 17.5297 34.8926 17.2284 34.4573C16.3298 33.1558 15.4345 31.8509 14.5401 30.5469L13.3777 28.8528C12.9821 28.313 12.9821 28.313 7.90928 26.636L7.67458 26.5583C7.01146 26.339 6.45971 26.1559 6.17466 26.0577C5.68265 25.8871 5.12364 25.9528 4.6854 26.2327C4.2399 26.5169 3.95784 26.9795 3.91047 27.5022L3.82513 28.4359C2.89488 26.6991 2.23773 24.7981 1.92195 22.7861L1.93262 22.7997C2.24199 23.2273 2.74339 23.491 3.2529 23.5038C3.26741 23.5051 3.30624 23.506 3.32117 23.506C3.84007 23.506 4.32482 23.2764 4.64913 22.8778C4.86036 22.6192 5.30841 22.0871 5.83968 21.459C9.34818 17.301 9.34818 17.301 9.34818 16.5431L9.27564 9.39386C9.27009 8.84467 8.99401 8.33132 8.53571 8.01853C8.08338 7.71129 7.49237 7.63875 6.97732 7.82651C6.8429 7.87558 6.58474 7.95709 6.2711 8.05694C8.28522 5.79361 10.8618 4.03296 13.7814 2.98493C13.7161 3.08478 13.6683 3.15732 13.6491 3.18805L13.0141 4.18658C12.7351 4.62397 12.6745 5.17572 12.8533 5.66517C13.0342 6.15888 13.4276 6.53482 13.9316 6.69612C15.0325 7.0486 18.5389 8.19904 19.2144 8.42435L19.2827 8.45422C19.508 8.55108 19.8856 8.71452 20.3392 8.73159L20.4024 8.73329L20.4681 8.73201C20.9332 8.71409 21.3194 8.54425 21.552 8.44269L21.5938 8.42349C22.4016 8.16533 25.8909 7.01958 26.8886 6.691C27.39 6.52458 27.7791 6.14608 27.9554 5.65407C28.1325 5.16078 28.0714 4.62439 27.7872 4.18188C27.6217 3.92414 27.4561 3.66555 27.2901 3.4044C29.664 4.42938 31.7698 5.94339 33.4938 7.81115C32.9988 7.6507 32.4419 7.72154 32.0024 8.01597C31.5415 8.32663 31.2629 8.8421 31.2569 9.39428L31.1852 16.5602C31.1852 17.3138 31.1852 17.3138 34.8567 21.6561L34.9207 21.7329C35.3526 22.2433 35.7076 22.6632 35.8877 22.8825C36.2128 23.2781 36.6955 23.5055 37.2122 23.5055C37.2195 23.5055 37.2498 23.5055 37.257 23.5047C37.5088 23.4987 37.752 23.4321 37.9722 23.3255C37.6624 24.9726 37.1282 26.5429 36.3985 28.0015H36.4002ZM27.6601 36.4194C26.7938 36.1578 26.0236 35.9253 25.8969 35.8834L24.4447 35.4098L28.2669 29.8475L28.272 29.8406C28.592 29.6542 30.3181 29.0811 33.2817 28.1056C33.8868 27.9067 34.3856 27.7429 34.654 27.6511L34.8119 29.3623C34.8162 29.4498 34.8205 29.9631 34.8247 30.5806C32.9928 33.0888 30.5234 35.1047 27.6601 36.4194ZM12.4504 36.4761C9.67932 35.228 7.27645 33.3184 5.45008 30.9471C5.45179 30.1389 5.4535 29.4195 5.45435 29.3555C5.50812 28.7862 5.56103 28.2174 5.61224 27.6511C5.90156 27.7514 6.46141 27.937 7.13478 28.1589L7.36948 28.2374C9.94687 29.0887 11.6751 29.6601 11.9926 29.8376L13.1298 31.4946C14.0242 32.8004 14.9203 34.1061 15.8207 35.4089C15.1089 35.6436 14.398 35.8753 13.7054 36.1011L12.4496 36.4757L12.4504 36.4761ZM4.44644 10.4918C5.53884 10.1035 6.62399 9.71945 6.74518 9.68019L6.78786 9.66738C7.13563 9.55644 7.42068 9.46597 7.56876 9.41135L7.64258 16.5517V16.5675C7.47061 16.8918 6.34961 18.2206 4.5305 20.376C3.99198 21.0143 3.53624 21.5546 3.32288 21.8183L2.91749 21.2571C2.84922 21.1607 2.72632 21.0297 1.70731 19.9872C1.7103 16.5052 2.71437 13.2536 4.44686 10.4927L4.44644 10.4918ZM15.0957 4.08544C15.167 3.97322 15.7068 3.16543 16.302 2.27615C17.4969 2.03078 18.7326 1.89935 19.9996 1.89935C21.6109 1.89935 23.1744 2.10844 24.6636 2.49804L25.3123 3.46243C25.6566 4.0065 26.001 4.54844 26.3483 5.08824C25.3344 5.42236 21.7355 6.60438 21.0271 6.82926C21.0041 6.83694 20.9802 6.84548 20.9571 6.85486C20.9495 6.85913 20.9119 6.87535 20.9042 6.87876L20.8598 6.89882C20.7182 6.96069 20.5415 7.03835 20.4024 7.0439C20.2752 7.03835 20.1037 6.96453 19.9458 6.89583C19.8976 6.87449 19.8528 6.85615 19.7896 6.8331C19.083 6.5967 15.5634 5.44199 14.459 5.08696L15.0948 4.08544H15.0957ZM20.0004 0.210814C8.95389 0.210814 0 9.06955 0 19.9996C0 30.9296 8.95432 39.7896 20.0004 39.7896C31.0457 39.7896 40 30.9292 40 19.9996C40 9.06997 31.0457 0.209961 19.9996 0.209961L20.0004 0.210814Z" fill="black"/>
</g>
<defs>
<clipPath id="clip0_137_16284">
<rect width="40" height="40" fill="black"/>
</clipPath>
</defs>
</svg>
