<svg width="40" height="40" viewBox="0 0 40 40" fill="none" xmlns="http://www.w3.org/2000/svg">
<path fillRule="evenodd" clipRule="evenodd" d="M2.7907 22.866C2.7907 20.0427 5.08372 17.7497 7.90884 17.7497H32.0912C34.9163 17.7497 37.2093 20.0427 37.2093 22.866V27.5171C37.2093 30.3404 34.9163 32.6334 32.0912 32.6334H7.90884C5.08372 32.6334 2.7907 30.3404 2.7907 27.5171V22.866ZM0 22.866V27.5171C0 31.8818 3.54186 35.4241 7.90884 35.4241H32.0912C36.4567 35.4241 40 31.8827 40 27.5171V22.866C40 18.5013 36.4581 14.959 32.0912 14.959H7.90884C3.54326 14.959 0 18.5004 0 22.866Z" fill="black"/>
<path fillRule="evenodd" clipRule="evenodd" d="M5.11621 24.7311C5.11621 24.4716 5.32551 24.2614 5.58226 24.2614H25.1153C25.373 24.2614 25.5813 24.4674 25.5813 24.7311V25.6521C25.5813 25.9116 25.372 26.1218 25.1153 26.1218H5.58226C5.32458 26.1218 5.11621 25.9158 5.11621 25.6521V24.7311ZM28.372 24.7311C28.372 24.4716 28.5813 24.2614 28.8404 24.2614H34.4153C34.6739 24.2614 34.8837 24.4674 34.8837 24.7311V25.6521C34.8837 25.9116 34.6743 26.1218 34.4153 26.1218H28.8404C28.5813 26.1218 28.372 25.9158 28.372 25.6521V24.7311ZM10.6976 12.167C10.6976 11.9102 10.905 11.7032 11.166 11.7032H28.8339C29.0934 11.7032 29.3023 11.9116 29.3023 12.167V14.9604C29.3023 15.2172 29.0948 15.4242 28.8339 15.4242H11.166C10.9069 15.4242 10.6976 15.2158 10.6976 14.9604V12.167ZM8.83714 12.167V14.9604C8.83714 16.2442 9.8804 17.2846 11.166 17.2846H28.8339C30.1209 17.2846 31.1627 16.2451 31.1627 14.9604V12.167C31.1627 10.8832 30.1195 9.84277 28.8339 9.84277H11.166C9.879 9.84277 8.83714 10.8823 8.83714 12.167Z" fill="black"/>
<path fillRule="evenodd" clipRule="evenodd" d="M26.1936 10.0338V10.3036C26.1936 10.8166 26.6098 11.2338 27.1238 11.2338C27.6373 11.2338 28.054 10.8166 28.054 10.3036V8.45617L28.0522 8.40501C27.9703 6.92594 26.7196 5.56083 25.1159 4.97478C24.5126 4.75431 23.4359 4.6478 21.9131 4.60083C20.9875 4.57152 20.0061 4.56966 19.0945 4.58362C18.8936 4.58687 18.7457 4.58966 18.6647 4.59199H13.868C13.354 4.59199 12.9377 5.00873 12.9377 5.52222C12.9377 6.03617 13.354 6.45245 13.868 6.45245H18.6894L19.1238 6.44408C20.0084 6.43013 20.9633 6.43245 21.8559 6.46036C23.1605 6.50083 24.135 6.59711 24.4773 6.72222C25.4298 7.07013 26.1424 7.84129 26.1936 8.48641V10.0338Z" fill="black"/>
</svg>
