<svg width="40" height="40" viewBox="0 0 40 40" fill="none" xmlns="http://www.w3.org/2000/svg">
<path fill-rule="evenodd" clip-rule="evenodd" d="M0 0H1.6V40H0V0ZM7.9108 20.39C8.0828 21.0832 8.6916 21.6 9.4228 21.6H13.7256V18.4H9.4228C8.6924 18.4 8.0828 18.916 7.9108 19.61L5.9028 19.6708L1.6 19.8V20.2L5.9024 20.3292L7.9104 20.39H7.9108ZM28.204 20.9348L30.8468 20.8C31.2948 20.8 31.6812 21.062 31.8788 21.4412C31.966 21.6092 32.0204 21.7972 32.0204 22C32.0204 22.6468 31.5164 23.176 30.8896 23.1992C30.4664 23.0928 29.4288 22.3912 28.2336 21.4712C28.0256 21.312 27.8152 21.1472 27.6 20.9764C27.8012 20.9628 28.0032 20.948 28.204 20.9348ZM28.2332 18.5284C29.4284 17.6084 30.466 16.9072 30.8892 16.8012C31.516 16.8244 32.02 17.3532 32.02 18.0004C32.02 18.2032 31.9656 18.3912 31.8784 18.5588C31.6808 18.9388 31.2944 19.2004 30.8464 19.2004L28.2048 19.0652C28.0032 19.0516 27.8008 19.038 27.5996 19.0236C27.8144 18.8528 28.0252 18.6884 28.2328 18.5288L28.2332 18.5284ZM15.616 21.5792L23.9532 21.1528L24.1148 21.166C24.1068 21.1596 24.1 21.1528 24.092 21.146L25.8216 21.058L26.1428 21.3244C27.0428 22.066 28.1828 22.9656 29.1484 23.6004C29.8692 24.0736 30.4936 24.4004 30.846 24.4004H30.848C31.5408 24.4004 32.1624 24.09 32.592 23.6004C32.668 23.514 32.7388 23.4232 32.802 23.326C33.048 22.946 33.1924 22.4912 33.1928 22.002V22V21.998C33.1928 21.6004 33.0968 21.226 32.9288 20.896C32.89 20.82 32.848 20.7456 32.802 20.6744C32.628 20.4064 32.4036 20.1776 32.142 20C32.4036 19.8224 32.628 19.5928 32.802 19.3256C32.848 19.2544 32.89 19.18 32.9288 19.104C33.0968 18.7736 33.1928 18.4 33.1928 18.002V18V17.9984C33.1928 17.5088 33.048 17.0544 32.802 16.6744C32.7388 16.5772 32.6676 16.4864 32.592 16.4C32.162 15.91 31.54 15.6 30.8464 15.6C30.4944 15.6 29.8692 15.9264 29.1484 16.4C28.1828 17.0348 27.0432 17.934 26.1432 18.676L25.822 18.9428L24.0908 18.8548L24.1132 18.8348L23.9532 18.8476L15.6164 18.4208L15.5916 18.4196L15.2 18.4V21.6L15.5912 21.58L15.616 21.5788V21.5792Z" fill="white"/>
</svg>
