<svg width="40" height="40" viewBox="0 0 40 40" fill="none" xmlns="http://www.w3.org/2000/svg">
<g clipPath="url(#clip0_137_16338)">
<path fillRule="evenodd" clipRule="evenodd" d="M12.4552 35.5216C12.5848 35.7056 12.7328 35.8576 12.8976 35.9672C13.0312 36.0552 13.2456 36.188 13.5308 36.35C13.9908 36.6108 14.4988 36.87 15.0468 37.1124C16.6132 37.8064 18.2028 38.2404 19.7804 38.2696C19.8908 38.2716 20.0004 38.2716 20.1096 38.2696C23.3916 38.208 25.4616 37.0848 27.5476 34.7236C27.6396 34.6196 27.7308 34.5092 27.8204 34.3944C28.3716 33.6896 28.8988 32.3728 29.4296 31.2692C29.7832 30.534 30.4576 28.7836 30.7656 28.0076C30.9512 27.5416 31.0884 27.1756 31.1664 26.9548L39.5952 0.6148L39.7856 0H38.196L29.7256 26.468C29.6392 26.7088 29.5072 27.0576 29.3528 27.4456C29.3552 27.44 28.8808 28.6436 28.7188 29.0496L28.6548 29.2088C28.3924 29.8596 28.1892 30.3396 28.0588 30.61C27.99 30.754 27.918 30.906 27.8364 31.0832L27.6356 31.5192C27.1116 32.6644 26.8596 33.1544 26.6224 33.458C26.5504 33.55 26.4784 33.6364 26.4076 33.7168C24.5124 35.8624 22.81 36.698 20.0804 36.7496C19.9904 36.7512 19.9004 36.7512 19.8084 36.7496C18.5224 36.7256 17.1424 36.3784 15.6612 35.7224C15.1812 35.5104 14.718 35.276 14.2812 35.028C14.0504 34.8972 13.858 34.78 13.7352 34.6992C13.7264 34.6936 13.6632 34.6132 13.5904 34.458C13.4856 34.2364 13.4016 33.944 13.3552 33.626C13.2672 33.0168 13.3392 32.4492 13.4512 32.28C13.744 31.8372 14.6764 31.6144 15.0448 31.8576C15.14 31.9208 15.3016 32.0176 15.4888 32.1244C15.8752 32.3444 16.288 32.5524 16.7128 32.7404C17.944 33.2856 19.1312 33.5976 20.1808 33.6172C20.25 33.6184 20.3184 33.6184 20.3864 33.6172C22.6024 33.5756 23.8692 32.9432 25.4276 31.1792C25.4764 31.1244 25.5256 31.0648 25.5756 31.0012C25.9516 30.5196 26.374 29.786 26.8124 28.8744C27.1176 28.2404 27.4228 27.5368 27.7172 26.796C27.812 26.5568 27.9012 26.326 27.982 26.1096C28.014 26.0256 28.0404 25.952 28.0788 25.8424L36.348 0H34.7624C31.3456 10.6704 26.632 25.3792 26.632 25.3792C26.616 25.4224 26.592 25.4896 26.5584 25.5776C26.4848 25.7748 26.4 25.996 26.3052 26.2344C26.0352 26.9144 25.7428 27.592 25.4432 28.2152C25.0488 29.0352 24.6752 29.6848 24.378 30.0648C24.346 30.106 24.316 30.142 24.2892 30.1728C23.0324 31.5952 22.17 32.0632 20.3588 32.0968C20.31 32.098 20.2604 32.098 20.21 32.0968C19.366 32.0808 18.3612 31.8072 17.3288 31.3504C16.9352 31.176 16.5676 30.9884 16.24 30.8024C16.0532 30.6964 15.9304 30.6204 15.884 30.5896C14.7776 29.8588 12.9148 30.336 12.184 31.4416C12.172 31.4596 12.1612 31.4776 12.15 31.4956C12.4572 32.2704 12.626 33.1156 12.626 33.9996C12.626 34.5228 12.5668 35.032 12.4552 35.5216ZM6 38.588C8.534 38.588 10.588 36.534 10.588 34C10.588 31.466 8.534 29.412 6 29.412C3.466 29.412 1.412 31.466 1.412 34C1.412 36.534 3.466 38.588 6 38.588ZM6 40C2.6864 40 0 37.3136 0 34C0 30.6864 2.6864 28 6 28C9.3136 28 12 30.6864 12 34C12 37.3136 9.3136 40 6 40Z" fill="black"/>
<path fillRule="evenodd" clipRule="evenodd" d="M6 34.8C6.442 34.8 6.8 34.442 6.8 34C6.8 33.558 6.442 33.2 6 33.2C5.558 33.2 5.2 33.558 5.2 34C5.2 34.442 5.558 34.8 6 34.8ZM9.2 34.8C9.642 34.8 10 34.442 10 34C10 33.558 9.642 33.2 9.2 33.2C8.758 33.2 8.4 33.558 8.4 34C8.4 34.442 8.758 34.8 9.2 34.8ZM2.8 34.8C3.242 34.8 3.6 34.442 3.6 34C3.6 33.558 3.242 33.2 2.8 33.2C2.358 33.2 2 33.558 2 34C2 34.442 2.358 34.8 2.8 34.8ZM4.4 33.2C4.842 33.2 5.2 32.842 5.2 32.4C5.2 31.958 4.842 31.6 4.4 31.6C3.958 31.6 3.6 31.958 3.6 32.4C3.6 32.842 3.958 33.2 4.4 33.2ZM6 31.6C6.442 31.6 6.8 31.242 6.8 30.8C6.8 30.358 6.442 30 6 30C5.558 30 5.2 30.358 5.2 30.8C5.2 31.242 5.558 31.6 6 31.6ZM6 38C6.442 38 6.8 37.642 6.8 37.2C6.8 36.758 6.442 36.4 6 36.4C5.558 36.4 5.2 36.758 5.2 37.2C5.2 37.642 5.558 38 6 38ZM4.4 36.4C4.842 36.4 5.2 36.042 5.2 35.6C5.2 35.158 4.842 34.8 4.4 34.8C3.958 34.8 3.6 35.158 3.6 35.6C3.6 36.042 3.958 36.4 4.4 36.4ZM7.6 33.2C8.042 33.2 8.4 32.842 8.4 32.4C8.4 31.958 8.042 31.6 7.6 31.6C7.158 31.6 6.8 31.958 6.8 32.4C6.8 32.842 7.158 33.2 7.6 33.2ZM7.6 36.4C8.042 36.4 8.4 36.042 8.4 35.6C8.4 35.158 8.042 34.8 7.6 34.8C7.158 34.8 6.8 35.158 6.8 35.6C6.8 36.042 7.158 36.4 7.6 36.4Z" fill="black"/>
</g>
<defs>
<clipPath id="clip0_137_16338">
<rect width="40" height="40" fill="black"/>
</clipPath>
</defs>
</svg>
