<svg width="40" height="40" viewBox="0 0 40 40" fill="none" xmlns="http://www.w3.org/2000/svg">
<g clip-path="url(#clip0_137_16182)">
<path fill-rule="evenodd" clip-rule="evenodd" d="M35.4438 29.8064L35.4004 29.3328C35.3472 28.7489 35.294 28.1655 35.2417 27.5838C35.2183 27.3234 35.0766 27.0881 34.8574 26.9455C34.6379 26.8034 34.3647 26.7702 34.1183 26.8545C33.8523 26.9455 33.3579 27.1098 32.7579 27.3098C27.5664 29.0374 27.5481 29.063 27.323 29.3906L23.5094 35.0004C23.3592 35.2217 23.3213 35.4996 23.4072 35.7523C23.4932 36.0051 23.6923 36.2034 23.9455 36.2868L25.3949 36.7651C25.7515 36.8826 26.1068 37.0009 26.463 37.1183C24.4085 37.8979 22.2391 38.2979 20 38.2979C17.7489 38.2979 15.5523 37.8868 13.4613 37.086L13.7498 36.9906C14.4617 36.7566 15.1719 36.5226 15.8826 36.286C16.1357 36.2017 16.3345 36.003 16.42 35.7498C16.5051 35.497 16.4668 35.2179 16.3162 34.9983C15.4183 33.6864 14.5255 32.3702 13.6336 31.0553L12.4881 29.3702C12.2668 29.0647 12.254 29.0468 7.45404 27.4426C6.68553 27.186 6.03277 26.9681 5.71362 26.8562C5.46553 26.7694 5.19149 26.8017 4.97064 26.9443C4.75064 27.086 4.60766 27.3221 4.58426 27.5834C4.53319 28.1634 4.47915 28.7451 4.42553 29.3272L4.40426 29.5681C3.92553 28.7877 3.50213 27.9711 3.14213 27.1183C2.35362 25.2651 1.89106 23.3085 1.75149 21.2885C1.85234 21.4289 1.95404 21.5694 2.05447 21.7098L2.45702 22.2736C2.61149 22.4898 2.85872 22.6217 3.12511 22.6289C3.40596 22.6289 3.64979 22.514 3.81149 22.3128C4.0234 22.0502 4.47404 21.5098 5.00723 20.8719C8.30851 16.9187 8.30851 16.903 8.30851 16.4719L8.23617 9.26766C8.23362 8.99106 8.0966 8.73149 7.86851 8.57489C7.64 8.41745 7.34851 8.38213 7.09064 8.47702C6.9434 8.53234 6.65362 8.62468 6.30255 8.73745C6.00894 8.83192 5.67404 8.93957 5.3383 9.05149C5.8617 8.35106 6.43702 7.68681 7.0617 7.06128C8.73957 5.38468 10.6957 4.06553 12.8813 3.14128C13.5098 2.87404 14.1511 2.64766 14.8017 2.45404L14.1698 3.45702L13.5357 4.46553C13.3953 4.68766 13.3655 4.96255 13.4549 5.21021C13.5451 5.45702 13.7443 5.64851 13.9936 5.72936C15.0574 6.07404 18.5664 7.23702 19.3 7.48468C19.3298 7.49575 19.3664 7.51234 19.4051 7.52936C19.5979 7.61319 19.8617 7.72936 20.1498 7.74043C20.5191 7.72936 20.7898 7.60851 20.9872 7.52128C21.7672 7.26 25.3489 6.07149 26.3817 5.72766C26.6302 5.64426 26.8268 5.45191 26.9145 5.20426C27.0021 4.95745 26.9711 4.68426 26.8306 4.46298C26.486 3.92085 26.1434 3.37617 25.8009 2.82979L25.6549 2.59745C26.1498 2.75915 26.6396 2.93787 27.1213 3.14213C29.3051 4.06638 31.2626 5.38468 32.9383 7.06043C33.5681 7.69362 34.1468 8.36383 34.6728 9.06894L34.0911 8.86468C33.6072 8.69447 33.1906 8.54851 33.0145 8.4817C32.7536 8.3817 32.4621 8.4166 32.2315 8.57277C32.0009 8.73021 31.8621 8.98979 31.8592 9.26809L31.7872 16.4809C31.7872 16.8979 31.7872 16.9319 35.2502 21.0711C35.7128 21.6243 36.0962 22.0826 36.2868 22.3166C36.4485 22.5157 36.6911 22.6302 36.9464 22.6302C37.234 22.6234 37.4796 22.494 37.6349 22.2804C37.837 22.0026 38.0362 21.723 38.2362 21.4434C38.083 23.3983 37.6247 25.303 36.8574 27.1213C36.4591 28.0617 35.9843 28.9562 35.4438 29.8072V29.8064ZM34.1417 5.8583C32.3089 4.02553 30.1702 2.58468 27.7855 1.57617C25.3285 0.530213 22.7089 0 20 0C17.2911 0 14.6711 0.530213 12.2162 1.57532C9.82979 2.58468 7.69106 4.02638 5.85872 5.8583C4.02553 7.69106 2.58426 9.82979 1.57574 12.2145C0.530213 14.6711 0 17.2911 0 20C0 22.7089 0.530213 25.3285 1.57532 27.7838C2.58468 30.1702 4.02638 32.3089 5.8583 34.1413C7.69064 35.9745 9.82979 37.4153 12.217 38.4255C14.6911 39.4698 17.3094 40 20 40C22.7089 40 25.3285 39.4698 27.7838 38.4243C30.1557 37.4213 32.2945 35.9804 34.1413 34.1417C35.9745 32.3098 37.4153 30.1702 38.4255 27.783C39.4698 25.3085 40 22.6894 40 20C40 17.2906 39.4698 14.6711 38.4247 12.2162C37.4204 9.84383 35.9804 7.70511 34.1417 5.8583Z" fill="white"/>
<path fill-rule="evenodd" clip-rule="evenodd" d="M21.2469 12.3148C20.8758 12.0254 20.6026 11.8114 20.4852 11.7182C20.3618 11.6195 20.1558 11.5029 19.8596 11.4918C19.8358 11.4905 19.812 11.4893 19.7924 11.4893C19.5618 11.4893 19.3328 11.571 19.1524 11.7156C19.0315 11.8118 18.7579 12.025 18.3864 12.3156C11.6937 17.542 11.6937 17.542 11.9064 18.245C12.1022 18.9165 12.4018 19.971 12.7277 21.1195C13.1081 22.465 13.5256 23.9365 13.8567 25.0727C14.5567 27.4748 14.5988 27.619 15.2852 27.619H24.349C25.0358 27.619 25.0779 27.4744 25.7796 25.0646C26.1124 23.9242 26.5307 22.4476 26.9115 21.1003C27.235 19.9599 27.5328 18.9131 27.7243 18.2552C27.9413 17.5437 27.9413 17.5437 21.2469 12.3148Z" fill="white"/>
</g>
<defs>
<clipPath id="clip0_137_16182">
<rect width="40" height="40" fill="white"/>
</clipPath>
</defs>
</svg>
