<svg width="40" height="40" viewBox="0 0 40 40" fill="none" xmlns="http://www.w3.org/2000/svg">
<g clip-path="url(#clip0_137_16195)">
<path fill-rule="evenodd" clip-rule="evenodd" d="M27.2161 36.923C27.1779 36.9578 27.1269 36.9989 27.0502 37.0491C26.7556 37.2399 26.2901 37.4411 25.6977 37.6216C24.2884 38.0498 22.3762 38.3061 20.2313 38.3061C18.0864 38.307 16.1751 38.0502 14.7662 37.6216C14.2434 37.4627 13.819 37.2876 13.5241 37.1171C13.4842 37.0947 13.4469 37.0715 13.412 37.0495C13.3353 36.9997 13.2843 36.9582 13.2461 36.923V34.7955C13.3013 34.8162 13.354 34.8357 13.4071 34.8544C13.4299 34.8635 13.4631 34.8751 13.505 34.8892C13.6016 34.9224 13.7 34.9548 13.7987 34.9859C15.396 35.5618 17.6881 35.9011 20.2309 35.9003C22.7728 35.9003 25.0642 35.5613 26.6614 34.9863C26.7627 34.9548 26.8631 34.9229 26.9601 34.8884C26.9913 34.878 27.0282 34.8648 27.0651 34.8511C27.1149 34.8332 27.1647 34.8129 27.2157 34.7938V36.9238L27.2161 36.923ZM14.7658 32.4224C16.1743 31.9943 18.0864 31.7379 20.2313 31.7379C22.377 31.7379 24.2879 31.9943 25.6968 32.4224C26.2669 32.5958 26.7145 32.7875 27.0107 32.9725C26.8066 33.0995 26.5287 33.2298 26.1893 33.3559C26.1408 33.3712 26.0906 33.3891 26.0416 33.4044C24.5049 33.8782 22.4347 34.1437 20.2317 34.1437C18.0287 34.1437 15.9594 33.8782 14.4202 33.4036C14.3712 33.3882 14.3223 33.3704 14.2737 33.3546C13.9742 33.2443 13.7236 33.1306 13.529 33.0173C13.5025 33.0024 13.4768 32.9875 13.4523 32.9717C13.7485 32.7875 14.1961 32.5954 14.7662 32.422L14.7658 32.4224ZM28.9436 32.9721C28.9436 32.3988 28.5142 31.8839 27.7666 31.4524C26.2524 30.5779 23.4341 30.0439 20.2309 30.0439C15.4445 30.0439 11.5186 31.2371 11.5186 32.9729C11.5186 33.0501 11.5351 33.1265 11.5517 33.2024C11.531 33.2746 11.5186 33.3509 11.5186 33.4318V37.0727C11.5186 38.8069 15.4449 40.0001 20.2309 40.0001C25.0173 40.0009 28.9432 38.8069 28.9432 37.0719V33.4293C28.9432 33.3492 28.9308 33.2733 28.91 33.2011C28.9266 33.1265 28.9432 33.0497 28.9432 32.9717L28.9436 32.9721Z" fill="white"/>
<path fill-rule="evenodd" clip-rule="evenodd" d="M5.14079 32.2564H2.72125L4.65954 25.6184H7.07949L5.14079 32.2564ZM6.86957 32.2564L8.80786 25.6184H25.3995L24.4963 28.7092C25.0721 28.8046 25.6164 28.92 26.1247 29.0536L27.1287 25.6184C27.1287 25.6184 27.1419 25.7429 27.7228 25.2919C28.3036 24.8405 28.4592 23.9589 28.4592 23.9589L35.8298 0H34.094L26.7233 23.9589H4.03806C3.66882 23.9589 3.34522 24.202 3.2415 24.5563L0.818643 32.8538C0.663066 33.3848 1.06134 33.9159 1.61437 33.9159H9.85997V33.4346C9.85997 33.3558 9.86412 33.277 9.87118 33.1982C9.86412 33.1289 9.85997 33.0529 9.86039 32.9725C9.86039 32.7194 9.89151 32.4813 9.94834 32.2564H6.86957ZM37.4785 0L30.1083 23.9589L28.5969 28.8752C28.504 29.1946 28.3575 29.5016 28.182 29.7962C28.3256 29.8667 28.4654 29.9393 28.5961 30.0148C28.9902 30.2422 29.308 30.482 29.566 30.7263C29.8357 30.2899 30.0485 29.8248 30.19 29.3407L39.2156 0H37.4785Z" fill="white"/>
</g>
<defs>
<clipPath id="clip0_137_16195">
<rect width="40" height="40" fill="white"/>
</clipPath>
</defs>
</svg>
