<svg width="40" height="40" viewBox="0 0 40 40" fill="none" xmlns="http://www.w3.org/2000/svg">
<g clipPath="url(#clip0_137_16277)">
<path fillRule="evenodd" clipRule="evenodd" d="M3.32222 13.7805C0.744429 20.6767 2.80666 28.7061 8.3878 33.5167C14.0223 38.374 22.3567 39.1601 28.8323 35.4567C35.309 31.7534 38.849 24.1317 37.489 16.8044C36.1335 9.4905 30.189 3.64992 22.8651 2.4488C15.6067 1.25602 8.10224 4.8577 4.49111 11.2672C4.03667 12.0738 3.64555 12.915 3.32222 13.7805ZM1.24054 13.0027C1.60388 12.0294 2.04444 11.0827 2.55499 10.1766C6.6239 2.95269 15.0473 -1.08788 23.2251 0.256015C31.4846 1.61102 38.1502 8.17661 39.674 16.4C41.2074 24.6628 37.2263 33.2167 29.9351 37.3856C22.6573 41.5479 13.2973 40.6829 6.93723 35.2001C0.654984 29.7856 -1.66558 20.7739 1.24054 13.0027Z" fill="white"/>
<path fillRule="evenodd" clipRule="evenodd" d="M21.9294 37.5442C21.9072 37.5286 21.8616 37.4942 21.7933 37.4414C21.6766 37.3525 21.5405 37.247 21.3866 37.1247C20.9444 36.7764 20.4511 36.372 19.9188 35.917C18.3966 34.6169 16.8755 33.1753 15.4577 31.6392C13.2633 29.2586 11.5299 26.8725 10.4271 24.5669C7.69101 18.8391 9.14824 13.9707 15.7516 10.8913C22.3505 7.8146 27.0144 9.82183 29.6439 15.588C30.3428 17.1213 30.8939 18.8969 31.3095 20.868C32.1217 24.7263 32.3372 28.7902 32.2228 32.2103C32.2139 32.478 32.205 32.663 32.1995 32.7558L32.135 33.8147L34.2517 33.9436L34.3167 32.8847C34.3189 32.8547 34.3222 32.8003 34.3256 32.7225C34.3311 32.5958 34.3378 32.448 34.3434 32.2808C34.4634 28.7047 34.2389 24.4847 33.3856 20.4308C32.9411 18.3169 32.3433 16.3946 31.5745 14.7085C28.4761 7.91238 22.5711 5.37126 14.856 8.96961C7.1349 12.5696 5.29044 18.7324 8.51379 25.4808C9.71935 28.0041 11.5727 30.553 13.8994 33.0764C15.3772 34.6803 16.9594 36.1775 18.5405 37.5297C19.0944 38.0031 19.6094 38.4253 20.0727 38.7908C20.2355 38.9197 20.3805 39.0325 20.5061 39.1281L20.6672 39.2503L21.52 39.8809L22.7822 38.1764L21.93 37.5453L21.9294 37.5442Z" fill="white"/>
</g>
<defs>
<clipPath id="clip0_137_16277">
<rect width="40" height="40" fill="white"/>
</clipPath>
</defs>
</svg>
