<svg width="40" height="40" viewBox="0 0 40 40" fill="none" xmlns="http://www.w3.org/2000/svg">
<g clipPath="url(#clip0_137_16292)">
<path fillRule="evenodd" clipRule="evenodd" d="M4.60105 35.3989C9.65936 40.4572 20.85 38.0488 29.4496 29.4497C38.0492 20.8496 40.4571 9.659 35.3988 4.6007C30.3405 -0.457595 19.1499 1.95079 10.5507 10.5499C1.95113 19.15 -0.456758 30.3406 4.60155 35.3989H4.60105ZM3.20185 36.7981C-2.7909 30.8073 -0.127127 18.4289 9.15105 9.15069C18.4287 -0.126975 30.8072 -2.79075 36.7985 3.2015C42.7908 9.19276 40.127 21.5712 30.8493 30.8489C21.5716 40.1266 9.19312 42.7903 3.20185 36.7981Z" fill="currentColor"/>
<path opacity="0.2" fillRule="evenodd" clipRule="evenodd" d="M4.60113 35.3992C8.41218 39.2103 18.7436 35.9555 27.3496 27.3495C35.9552 18.7425 39.2104 8.41206 35.3989 4.60052C31.5878 0.789477 21.2564 4.04421 12.6504 12.6502C4.04482 21.2573 0.789586 31.5877 4.60113 35.3992ZM3.20193 36.7984C-1.63117 31.9678 1.9725 20.5287 11.2497 11.251C20.5284 1.97288 31.967 -1.63078 36.7996 3.20182C41.6312 8.03343 38.027 19.472 28.7498 28.7497C19.4721 38.0274 8.03355 41.631 3.20094 36.7989L3.20193 36.7984Z" fill="currentColor"/>
</g>
<defs>
<clipPath id="clip0_137_16292">
<rect width="40" height="40" fill="currentColor"/>
</clipPath>
</defs>
</svg>
