<svg width="40" height="40" viewBox="0 0 40 40" fill="none" xmlns="http://www.w3.org/2000/svg">
<g clip-path="url(#clip0_137_16308)">
<path fill-rule="evenodd" clip-rule="evenodd" d="M40 20C40 8.95442 31.0456 0 20 0C8.95442 0 0 8.95442 0 20C0 31.0456 8.95442 40 20 40C31.0456 40 40 31.0456 40 20ZM2.7907 20C2.7907 10.4953 10.4953 2.7907 20 2.7907C29.5047 2.7907 37.2093 10.4953 37.2093 20C37.2093 29.5047 29.5047 37.2093 20 37.2093C10.4953 37.2093 2.7907 29.5047 2.7907 20Z" fill="white"/>
<path fill-rule="evenodd" clip-rule="evenodd" d="M19.5052 5.12412C18.9917 5.14086 18.5889 5.57063 18.6056 6.08458C18.6224 6.59807 19.0521 7.00086 19.5661 6.98365C19.7103 6.979 19.8545 6.97668 20 6.97668C20.514 6.97668 20.9303 6.5604 20.9303 6.04644C20.9303 5.53249 20.514 5.11621 20 5.11621C19.8349 5.11621 19.6698 5.119 19.5052 5.12412ZM6.93771 12.8604C6.6912 13.3106 6.85585 13.8762 7.30655 14.1227C7.75678 14.3692 8.32236 14.2046 8.56888 13.7539C10.0479 11.053 12.4479 8.94784 15.3247 7.84133C15.8038 7.65668 16.0428 7.11854 15.8582 6.639C15.6735 6.15993 15.1354 5.9204 14.6559 6.10412C11.3684 7.36923 8.62702 9.77389 6.93678 12.8604H6.93771Z" fill="white"/>
</g>
<defs>
<clipPath id="clip0_137_16308">
<rect width="40" height="40" fill="white"/>
</clipPath>
</defs>
</svg>
