<svg width="40" height="40" viewBox="0 0 40 40" fill="none" xmlns="http://www.w3.org/2000/svg">
<g clipPath="url(#clip0_137_16270)">
<path fillRule="evenodd" clipRule="evenodd" d="M33.7487 25.361C30.8972 28.2117 27.1774 29.7819 23.2755 29.7819C22.7528 29.7819 22.2302 29.7518 21.7134 29.6934C20.7626 27.4886 19.0979 25.1387 16.9785 23.0184C14.8591 20.8986 12.5087 19.2343 10.304 18.283C9.811 13.9397 11.4096 9.47495 14.6359 6.2477C17.4888 3.39477 21.209 1.82451 25.1105 1.82451C28.6641 1.82451 31.9621 3.16516 34.3969 5.59952C39.6646 10.8708 39.3734 19.735 33.7487 25.361ZM35.6874 4.31045C32.9075 1.53054 29.1512 0 25.111 0C20.7211 0 16.543 1.7606 13.345 4.95818C9.58367 8.71949 7.79659 13.994 8.56575 19.0654L8.64517 19.5903L9.14044 19.7807C11.2553 20.5955 13.5801 22.2045 15.6871 24.3107C17.7942 26.4182 19.4028 28.743 20.2171 30.8587L20.407 31.3535L20.932 31.433C21.7016 31.5494 22.4899 31.6087 23.2755 31.6087C27.6649 31.6087 31.8434 29.8481 35.0387 26.6524C41.3768 20.3138 41.6685 10.2916 35.6874 4.31045Z" fill="white"/>
<path fillRule="evenodd" clipRule="evenodd" d="M9.02186 32.7678C7.11839 34.5458 4.68677 37.6187 4.28279 38.1341C4.26454 38.1478 4.24628 38.1569 4.23167 38.1628L1.83383 35.765C1.84068 35.7486 1.85118 35.7285 1.8667 35.7084C2.53543 35.1634 6.34923 32.0384 7.26446 30.9346C9.31583 28.4592 10.1996 25.3265 10.5008 23.9908L15.9839 29.4739C14.5771 29.7433 11.3809 30.5649 9.02186 32.7678ZM11.4138 22.3211C11.0897 21.9979 10.688 21.8203 10.2799 21.8203C9.64632 21.8203 9.10586 22.2311 8.8694 22.893L8.82832 23.0537C8.82239 23.092 8.16964 26.9803 5.85853 29.7697C5.15328 30.6206 1.86442 33.3567 0.656141 34.339L0.573977 34.4148C-0.147246 35.1661 -0.195631 36.3169 0.467619 36.9801L3.01472 39.5282C3.31919 39.8326 3.73594 40.0001 4.18785 40.0001C4.69134 40.0001 5.19893 39.7893 5.58145 39.4218L5.66955 39.3236C5.69557 39.2894 8.33397 35.9065 10.2671 34.1016C12.8644 31.6764 16.864 31.1775 16.9028 31.1725L17.0064 31.1601L17.1046 31.1255C17.651 30.9305 18.0294 30.5288 18.1426 30.0231C18.2567 29.5173 18.0864 28.9915 17.6761 28.5825L11.4133 22.3197L11.4138 22.3211Z" fill="white"/>
</g>
<defs>
<clipPath id="clip0_137_16270">
<rect width="40" height="40" fill="white"/>
</clipPath>
</defs>
</svg>
