<svg width="40" height="40" viewBox="0 0 40 40" fill="none" xmlns="http://www.w3.org/2000/svg">
<g clip-path="url(#clip0_137_16315)">
<path fill-rule="evenodd" clip-rule="evenodd" d="M38.3326 19.0928C33.9166 18.9776 29.5026 17.0596 26.2198 13.7788C22.9394 10.4976 21.021 6.08195 20.9062 1.66791C25.3202 1.78271 29.7294 3.70673 33.0102 6.98795C36.2934 10.2692 38.2162 14.68 38.3326 19.0928ZM33.0102 33.0105C29.6194 36.4034 25.2034 38.0994 20.7954 38.4426C20.5622 33.6918 18.6394 28.8293 14.905 25.0945C11.169 21.3585 6.5346 19.4312 1.557 19.2024C1.6674 14.7952 3.597 10.3792 6.9882 6.98835C10.3794 3.59753 14.7954 1.89991 19.2034 1.55751C19.4362 6.30875 21.3594 11.1696 25.0954 14.9056C28.8294 18.6396 33.465 20.5681 38.4426 20.7965C38.0994 25.2037 36.4026 29.6205 33.0106 33.0109L33.0102 33.0105ZM6.9882 33.0105C3.5974 29.6201 1.7826 25.3201 1.6674 20.9065C6.0818 21.0209 10.4974 22.9385 13.7786 26.2201C17.0598 29.5009 18.9778 33.917 19.0926 38.3322C14.6806 38.2162 10.379 36.4034 6.9882 33.0105ZM5.8554 5.85514C-1.9518 13.662 -1.9518 26.3365 5.8554 34.1434C13.6634 41.9522 26.3362 41.9522 34.1434 34.1434C41.9522 26.3365 41.9522 13.662 34.1434 5.85514C26.3362 -1.95171 13.6634 -1.95171 5.8554 5.85514Z" fill="black"/>
</g>
<defs>
<clipPath id="clip0_137_16315">
<rect width="40" height="40" fill="black"/>
</clipPath>
</defs>
</svg>
