<svg width="40" height="40" viewBox="0 0 40 40" fill="none" xmlns="http://www.w3.org/2000/svg">
<g clip-path="url(#clip0_137_16208)">
<path fill-rule="evenodd" clip-rule="evenodd" d="M20 40C31.045 40 40 31.045 40 20C40 8.955 31.045 0 20 0C8.955 0 0 8.955 0 20C0 31.045 8.955 40 20 40ZM37.882 17.825C37.2305 19.389 35.117 21.718 34.354 22.535C30.943 26.185 26.339 28.353 19.907 28.775C19.582 26.1875 19.75 23.429 20.533 20.525C24.501 19.417 27.786 17.469 30.441 14.9175C31.951 13.466 33.162 11.911 34.103 10.3525C34.2295 10.1425 34.526 9.6915 34.636 9.4925C35.898 11.2445 37.503 14.2245 37.882 17.825ZM19.7285 2.0015C16.23 2.0965 13.9985 2.9035 11.88 3.9225C17.4125 4.386 20.9275 5.9525 23.335 7.6925C25.4065 9.1895 27.3165 11.1285 29.05 13.5605C29.065 13.5455 31.585 10.7655 32.4415 9.347C32.7265 8.875 33.13 8.279 33.3205 7.886C29.9155 4.123 25.0905 1.944 19.729 2.002L19.7285 2.0015ZM22.1875 9.2715C20.0045 7.6935 17.6975 6.6995 15.2105 6.1365C13.448 5.738 12.1335 5.4685 9.3415 5.4655C6.8515 7.1795 4.5075 10.383 3.7165 12.308C5.4505 12.4065 6.2585 12.398 8.213 12.688C11.334 13.15 14.29 14.45 17.11 16.42C18.069 17.091 18.995 17.845 19.885 18.686C22.858 17.8735 25.4075 16.556 27.5685 14.8475C25.927 12.511 24.1285 10.6725 22.1875 9.2695V9.2715ZM11.961 36.107C11.781 35.7695 11.568 35.372 11.503 35.2485C11.201 34.6765 10.954 34.1885 10.717 33.6885C8.054 28.0635 7.615 22.431 10.665 15.342C12.498 15.9535 14.29 16.8395 16.006 18.039C16.8945 18.66 17.7535 19.36 18.579 20.1425C17.0365 25.9735 17.777 31.2925 19.9555 35.8775C20.3005 36.6025 20.708 37.3775 21.0765 37.9785C16.7935 38.1405 14.5295 37.331 11.9615 36.106L11.961 36.107ZM37.6635 23.456C37.8325 22.7035 37.9275 21.661 38 20.876C37.4265 21.646 36.343 23.089 35.7025 23.774C31.9975 27.739 27.0785 30.198 20.2415 30.688C20.585 32.212 21.1 33.669 21.758 35.053C22.193 35.9695 22.8465 37.011 23.3095 37.698C27.292 37.273 35.8185 33.093 37.663 23.4555L37.6635 23.456ZM2.001 19.881C1.9795 17.6335 2.393 16.107 2.864 14.3345C4.281 14.198 5.9105 14.261 7.864 14.6215C8.187 14.6815 8.509 14.748 8.829 14.823C5.733 22.192 6.0875 28.3195 8.8415 34.148C4.8595 31.0845 1.9735 25.721 2.0015 19.8815L2.001 19.881Z" fill="white"/>
</g>
<defs>
<clipPath id="clip0_137_16208">
<rect width="40" height="40" fill="white"/>
</clipPath>
</defs>
</svg>
