<svg width="40" height="40" viewBox="0 0 40 40" fill="none" xmlns="http://www.w3.org/2000/svg">
<path fill-rule="evenodd" clip-rule="evenodd" d="M25.7927 30.1203L25.8358 30.1448C26.3856 30.4541 26.9559 30.6355 27.507 30.6355C28.0603 30.6355 28.6332 30.4519 29.1852 30.1399C29.3852 30.0266 29.5674 29.9043 29.7266 29.7843C29.8168 29.7155 29.8848 29.6581 29.8999 29.6439C30.2715 29.2972 30.7577 29.1168 31.2572 29.1172C32.1373 28.4737 32.9484 27.751 33.6995 26.9541C34.2315 26.3905 34.7186 25.8052 35.1951 25.1718C35.0262 26.9896 34.5271 28.711 33.7604 30.2772C34.2297 30.5039 34.7097 30.6346 35.1764 30.6346C35.732 30.6346 36.3071 30.4492 36.8609 30.135C36.9453 30.087 37.0275 30.0372 37.1053 29.9861C37.6431 28.5492 37.9987 27.0261 38.1453 25.4461C38.1587 25.3038 38.1622 25.1616 38.1551 25.0225C38.1804 24.8874 38.1969 24.7487 38.2031 24.6074C38.2164 24.3318 38.2227 24.0563 38.2227 23.7771C38.2227 23.3705 38.2093 22.9669 38.1827 22.5665C38.1769 22.482 38.1671 22.3976 38.1551 22.3149C38.1542 22.2322 38.1493 22.1482 38.1418 22.0651C37.8129 18.6206 36.4915 15.3695 34.3226 12.665C34.2382 12.5583 34.1471 12.4605 34.0524 12.3694C33.9786 12.2592 33.8982 12.153 33.8079 12.0521C30.431 8.20537 25.5598 6 20.4442 6C17.1309 6 13.8975 6.91824 11.093 8.65648C10.8726 8.79293 10.6761 8.95338 10.505 9.13205C10.2739 9.22671 10.0517 9.34983 9.84945 9.50094C7.43387 11.2965 5.50051 13.6877 4.25828 16.4193C4.17205 16.6059 4.1085 16.797 4.06494 16.989C3.95827 17.1566 3.8685 17.3375 3.79694 17.5304C3.04671 19.5277 2.66626 21.6296 2.66626 23.778C2.66626 26.1078 3.13204 28.3937 4.0005 30.5092C4.27694 30.591 4.55339 30.6355 4.82539 30.6355C5.37073 30.6355 5.93518 30.4577 6.48008 30.1532C6.64453 30.0621 6.79653 29.9643 6.93475 29.8657C6.09652 28.0079 5.62985 25.9474 5.62985 23.7776C5.62985 22.1762 5.89741 20.6398 6.36763 19.1953C7.54187 19.0842 8.96233 19.1255 10.5792 19.422C10.8459 19.4709 11.1139 19.5255 11.381 19.5864C9.85656 23.1834 9.357 26.3967 9.669 29.431C9.76234 29.4914 9.85123 29.5608 9.93345 29.639C9.96323 29.6657 10.0255 29.7181 10.1192 29.7892C10.2792 29.9106 10.4615 30.0319 10.6615 30.1448C10.9041 30.2812 11.1504 30.3928 11.3979 30.4746C10.8126 27.2865 11.2104 23.9189 12.9055 20.0144C14.4277 20.5175 15.9157 21.2473 17.3411 22.2345C18.0789 22.7456 18.7922 23.3216 19.4789 23.9665C18.8798 26.2078 18.6949 28.3577 18.8522 30.3959C19.2358 30.5501 19.6229 30.6359 20.0011 30.6359C20.1745 30.6359 20.3505 30.6172 20.5269 30.5826C20.3358 28.5959 20.5002 26.4892 21.1011 24.2812C24.3967 23.37 27.1248 21.7656 29.3301 19.6655C30.5835 18.47 31.5892 17.1908 32.3701 15.9081C32.4759 15.7357 32.5746 15.5672 32.6661 15.405C34.0475 17.4184 34.9462 19.7873 35.1915 22.3487L34.968 22.6882C34.7146 23.0705 34.5048 23.378 34.2857 23.6874C33.7137 24.4927 33.1435 25.2029 32.5101 25.8758C30.7039 27.7914 28.5221 29.2359 25.7927 30.1203ZM23.4274 13.7183C21.4274 12.2863 19.31 11.3823 17.0389 10.8738C15.9744 10.6338 15.1766 10.5138 14.0424 10.4232C15.9815 9.49205 18.15 8.96315 20.4442 8.96315C24.8834 8.96315 28.8665 10.9156 31.5812 14.0086C31.4235 14.3308 31.2275 14.6917 30.9901 15.0797C30.279 16.2486 29.359 17.4175 28.2123 18.5108C28.199 18.5228 28.1865 18.5353 28.1732 18.5482C26.7332 16.5464 25.1483 14.9508 23.4274 13.7183ZM11.6166 11.8801C11.741 11.8801 11.8153 11.8965 11.9886 11.9054C14.2851 12.021 15.2162 12.1099 16.6797 12.4379C18.7451 12.901 20.662 13.7179 22.4745 15.0175C24.0861 16.1717 25.5798 17.6851 26.9434 19.6077C25.1487 21.0144 23.0323 22.0993 20.562 22.7678C19.8233 22.0753 19.054 21.4544 18.2567 20.902C15.9162 19.2797 13.4144 18.2944 10.8677 17.8291C9.45256 17.5699 8.14854 17.4913 7.01164 17.5331C6.9912 17.5708 6.97253 17.6086 6.95386 17.6464C7.99832 15.3499 9.61345 13.3677 11.6161 11.8792L11.6166 11.8801Z" fill="white"/>
<path fill-rule="evenodd" clip-rule="evenodd" d="M38.1733 30.7392C38.16 30.7512 36.832 31.9686 35.1759 31.9686C33.5257 31.9686 32.2017 30.761 32.1772 30.7388C31.9435 30.5197 31.6315 30.4277 31.3283 30.453C31.0332 30.4352 30.7315 30.5272 30.5043 30.7388C30.4919 30.7508 29.1621 31.9681 27.5056 31.9681C25.8576 31.9681 24.5354 30.7637 24.5078 30.7388C24.0923 30.3477 23.4256 30.3477 23.0065 30.7308C22.9931 30.7414 22.9931 30.7419 22.9931 30.7423C22.9398 30.7912 21.6296 31.9677 19.9998 31.9677C18.3495 31.9677 17.0255 30.7601 17.0011 30.7379C16.7677 30.5188 16.4557 30.4268 16.1522 30.4521C15.8575 30.4343 15.5557 30.5263 15.3286 30.7379C15.3162 30.7499 13.9864 31.9672 12.3299 31.9672C10.6823 31.9672 9.36099 30.7628 9.33255 30.7379C8.91743 30.3468 8.25076 30.3468 7.83209 30.7299C7.81875 30.7406 7.81875 30.741 7.81875 30.7414C7.76542 30.7903 6.45429 31.9668 4.82494 31.9668C3.1747 31.9668 1.85069 30.7592 1.82624 30.737C1.40757 30.3432 0.731119 30.3441 0.313337 30.7401C-0.104446 31.1366 -0.104446 31.7801 0.313337 32.177C0.392004 32.2535 2.26536 34.0002 4.82539 34.0002C6.4454 34.0002 7.78897 33.3001 8.57832 32.7681C9.36677 33.3001 10.7099 34.0002 12.3308 34.0002C14.0108 34.0002 15.3904 33.249 16.1664 32.7113C16.9406 33.249 18.3206 34.0002 19.9998 34.0002C21.6202 34.0002 22.9634 33.3001 23.7527 32.7681C24.542 33.3001 25.8852 34.0002 27.5065 34.0002C29.1857 34.0002 30.5657 33.249 31.3412 32.7113C32.1164 33.249 33.4968 34.0002 35.1759 34.0002C37.7346 34.0002 39.6084 32.2535 39.6871 32.1792C40.104 31.7837 40.104 31.1446 39.6889 30.7472C39.2729 30.3499 38.5955 30.3468 38.1733 30.7392Z" fill="white"/>
</svg>
