<svg width="48" height="48" viewBox="0 0 48 48" fill="none" xmlns="http://www.w3.org/2000/svg">
<path d="M24 0C37.2561 0 48 10.7461 48 24C48 37.2561 37.2561 48 24 48C10.7461 48 0 37.255 0 24C0 10.7461 10.7461 0 24 0Z" fill="#F5AC37"/>
<path d="M24.8846 25.6947H34.0042C34.1987 25.6947 34.2905 25.6947 34.3045 25.4399C34.379 24.5121 34.379 23.579 34.3045 22.6502C34.3045 22.4698 34.2148 22.3953 34.0194 22.3953H15.8698C15.6451 22.3953 15.5847 22.4698 15.5847 22.6804V25.3502C15.5847 25.6947 15.5847 25.6947 15.9443 25.6947H24.8846V25.6947ZM33.286 19.2752C33.312 19.2071 33.312 19.1326 33.286 19.0656C33.1338 18.7341 32.9534 18.4176 32.7439 18.1206C32.4285 17.613 32.057 17.1454 31.6336 16.7252C31.4338 16.4714 31.2027 16.2436 30.9435 16.0502C29.6453 14.9454 28.102 14.1635 26.4431 13.7703C25.6061 13.5824 24.7507 13.4928 23.8932 13.5003H15.8385C15.6138 13.5003 15.5836 13.59 15.5836 13.7855V19.1099C15.5836 19.3346 15.5836 19.395 15.8687 19.395H33.178C33.178 19.395 33.3282 19.3648 33.3584 19.2752H33.285H33.286ZM33.286 28.8149C33.0312 28.7868 32.7741 28.7868 32.5192 28.8149H15.8849C15.6603 28.8149 15.5847 28.8149 15.5847 29.1151V34.3208C15.5847 34.5605 15.5847 34.621 15.8849 34.621H23.5649C23.9321 34.6491 24.2993 34.6232 24.6589 34.5465C25.7735 34.4666 26.8697 34.2247 27.9151 33.8261C28.2953 33.6944 28.6625 33.5227 29.0092 33.3164H29.114C30.9143 32.38 32.3767 30.909 33.299 29.1032C33.299 29.1032 33.4038 28.8764 33.286 28.817V28.8149ZM12.5704 37.32V37.2303V33.7354V32.5506V29.0255C12.5704 28.83 12.5704 28.8008 12.3306 28.8008H9.07544C8.89508 28.8008 8.82056 28.8008 8.82056 28.5611V25.7109H12.3004C12.4948 25.7109 12.5704 25.7109 12.5704 25.4561V22.6361C12.5704 22.4558 12.5704 22.4115 12.3306 22.4115H9.07544C8.89508 22.4115 8.82056 22.4115 8.82056 22.1717V19.5322C8.82056 19.367 8.82056 19.3227 9.06032 19.3227H12.2852C12.5099 19.3227 12.5704 19.3227 12.5704 19.0375V10.9526C12.5704 10.7128 12.5704 10.6523 12.8706 10.6523H24.12C24.9365 10.6847 25.7476 10.7744 26.55 10.9223C28.2035 11.228 29.7922 11.8188 31.2448 12.6622C32.2082 13.2292 33.0949 13.914 33.8844 14.7024C34.4784 15.3191 35.0141 15.9865 35.4893 16.6972C35.9612 17.4175 36.3533 18.1876 36.6611 18.9922C36.6989 19.2017 36.8998 19.3432 37.1093 19.3076H39.7942C40.1387 19.3076 40.1387 19.3076 40.1538 19.638V22.0983C40.1538 22.3381 40.0642 22.3985 39.8233 22.3985H37.753C37.5434 22.3985 37.483 22.3985 37.4981 22.6685C37.5802 23.5822 37.5802 24.4992 37.4981 25.4129C37.4981 25.6677 37.4981 25.698 37.7843 25.698H40.1527C40.2575 25.833 40.1527 25.968 40.1527 26.1041C40.1679 26.2779 40.1679 26.454 40.1527 26.6279V28.4434C40.1527 28.6982 40.0782 28.7738 39.8525 28.7738H37.0175C36.8198 28.736 36.6276 28.8624 36.5822 29.059C35.9072 30.814 34.8272 32.3876 33.4318 33.649C32.9221 34.108 32.3864 34.54 31.8269 34.9385C31.2265 35.2842 30.6422 35.6438 30.0266 35.9289C28.8936 36.4387 27.7056 36.8145 26.4863 37.0532C25.3285 37.2606 24.1546 37.3545 22.9763 37.3383H12.566V37.3232L12.5704 37.32Z" fill="#FEFEFD"/>
</svg>
