<svg width="24" height="24" viewBox="0 0 24 24" fill="none" xmlns="http://www.w3.org/2000/svg">
<path d="M3.99902 12.2707C3.99902 12.6504 4.28118 12.9642 4.64725 13.0138L4.74902 13.0207L17.933 13.0201L13.17 17.7636C12.8765 18.0559 12.8755 18.5308 13.1678 18.8243C13.4334 19.0911 13.8501 19.1162 14.1441 18.899L14.2284 18.8266L20.2784 12.8026C20.3171 12.764 20.3507 12.7223 20.3792 12.6783C20.3873 12.6651 20.3955 12.6515 20.4033 12.6377C20.4104 12.6258 20.4169 12.6135 20.423 12.6011C20.4314 12.583 20.4397 12.5642 20.4472 12.5451C20.4533 12.5304 20.4584 12.5161 20.4631 12.5017C20.4686 12.4838 20.474 12.4647 20.4786 12.4454C20.482 12.4318 20.4847 12.4188 20.4871 12.4058C20.4904 12.3863 20.4933 12.3662 20.4953 12.3459C20.497 12.3304 20.4981 12.315 20.4987 12.2996C20.4988 12.2903 20.499 12.2805 20.499 12.2707L20.4986 12.2416C20.4981 12.2269 20.4971 12.2122 20.4956 12.1975L20.499 12.2707C20.499 12.2234 20.4946 12.1771 20.4863 12.1322C20.4843 12.1214 20.482 12.1104 20.4794 12.0995C20.4741 12.0769 20.4679 12.0552 20.4609 12.0338C20.4574 12.0232 20.4533 12.0119 20.449 12.0007C20.4402 11.9781 20.4307 11.9566 20.4202 11.9357C20.4153 11.9258 20.4099 11.9155 20.4042 11.9053C20.3948 11.8886 20.3852 11.8728 20.375 11.8574C20.3677 11.8464 20.3598 11.8351 20.3514 11.8239L20.3449 11.8152C20.3247 11.7888 20.3028 11.7638 20.2794 11.7404L20.2785 11.7397L14.2285 5.71467C13.935 5.42238 13.4601 5.42336 13.1678 5.71686C12.9021 5.98368 12.8787 6.40039 13.0972 6.69355L13.17 6.77752L17.931 11.5201L4.74902 11.5207C4.33481 11.5207 3.99902 11.8565 3.99902 12.2707Z" fill="white"/>
</svg>
