<svg width="8" height="14" viewBox="0 0 8 14" fill="none" xmlns="http://www.w3.org/2000/svg">
<path fillRule="evenodd" clipRule="evenodd" d="M0.208995 12.9802C0.0751759 12.8514 0 12.6767 0 12.4946C0 12.3125 0.0751759 12.1378 0.208995 12.009L5.41481 7.00016L0.208995 1.9913C0.0751759 1.8625 0 1.68784 0 1.50572C0 1.32361 0.0751759 1.14895 0.208995 1.02015L0.713657 0.534583C0.847516 0.405827 1.02904 0.333496 1.21832 0.333496C1.4076 0.333496 1.58913 0.405827 1.72298 0.534583L7.68615 6.27146C7.78565 6.36713 7.86458 6.48073 7.91843 6.60577C7.97228 6.7308 8 6.86482 8 7.00016C8 7.13551 7.97228 7.26952 7.91843 7.39456C7.86458 7.51959 7.78565 7.63319 7.68615 7.72886L1.72298 13.4657C1.58913 13.5945 1.4076 13.6668 1.21832 13.6668C1.02904 13.6668 0.847516 13.5945 0.713657 13.4657L0.208995 12.9802Z" fill="#484848"/>
</svg>
