<svg width="14" height="14" viewBox="0 0 14 14" fill="none" xmlns="http://www.w3.org/2000/svg">
<path d="M12.3334 0.333252H4.33337C3.59804 0.333252 3.00004 0.931252 3.00004 1.66659V2.99992H1.66671C0.931374 2.99992 0.333374 3.59792 0.333374 4.33325V12.3333C0.333374 13.0686 0.931374 13.6666 1.66671 13.6666H9.66671C10.402 13.6666 11 13.0686 11 12.3333V10.9999H12.3334C13.0687 10.9999 13.6667 10.4019 13.6667 9.66659V1.66659C13.6667 0.931252 13.0687 0.333252 12.3334 0.333252ZM9.66671 12.3333H1.66671V4.33325H3.00004V9.66659C3.00004 10.4019 3.59804 10.9999 4.33337 10.9999H9.66671V12.3333ZM12.3314 9.66659H4.33337V1.66659H12.3334L12.3314 9.66659Z" fill="#FFFFFF"/>
</svg>
