<svg width="16" height="20" viewBox="0 0 16 20" fill="none" xmlns="http://www.w3.org/2000/svg">
<path fillRule="evenodd" clipRule="evenodd" d="M7.99999 2.85714C7.24223 2.85714 6.51551 3.15816 5.97969 3.69398C5.44387 4.2298 5.14285 4.95652 5.14285 5.71429V7.14286H10.8571V5.71429C10.8571 4.95652 10.5561 4.2298 10.0203 3.69398C9.48448 3.15816 8.75776 2.85714 7.99999 2.85714ZM2.28571 5.71429V7.14286C1.71739 7.14286 1.17234 7.36862 0.770481 7.77049C0.368617 8.17235 0.142853 8.71739 0.142853 9.28571V17.8571C0.142853 18.4255 0.368617 18.9705 0.770481 19.3724C1.17234 19.7742 1.71739 20 2.28571 20H13.7143C14.2826 20 14.8276 19.7742 15.2295 19.3724C15.6314 18.9705 15.8571 18.4255 15.8571 17.8571V9.28571C15.8571 8.71739 15.6314 8.17235 15.2295 7.77049C14.8276 7.36862 14.2826 7.14286 13.7143 7.14286V5.71429C13.7143 4.19876 13.1122 2.74531 12.0406 1.67368C10.969 0.602039 9.51552 0 7.99999 0C6.48447 0 5.03102 0.602039 3.95938 1.67368C2.88775 2.74531 2.28571 4.19876 2.28571 5.71429ZM7.99999 15.3571C8.2345 15.3571 8.46671 15.311 8.68336 15.2212C8.90001 15.1315 9.09687 14.9999 9.26268 14.8341C9.4285 14.6683 9.56004 14.4714 9.64978 14.2548C9.73952 14.0381 9.78571 13.8059 9.78571 13.5714C9.78571 13.3369 9.73952 13.1047 9.64978 12.8881C9.56004 12.6714 9.4285 12.4746 9.26268 12.3087C9.09687 12.1429 8.90001 12.0114 8.68336 11.9216C8.46671 11.8319 8.2345 11.7857 7.99999 11.7857C7.52639 11.7857 7.07219 11.9739 6.7373 12.3087C6.40242 12.6436 6.21428 13.0978 6.21428 13.5714C6.21428 14.045 6.40242 14.4992 6.7373 14.8341C7.07219 15.169 7.52639 15.3571 7.99999 15.3571Z" fill="#FFFFFF"/>
</svg>
