<svg width="18" height="18" viewBox="0 0 18 18" fill="none" xmlns="http://www.w3.org/2000/svg">
<path fillRule="evenodd" clipRule="evenodd" d="M8.72669 2C8.17441 2 7.72669 2.44772 7.72669 3V7.72669H3C2.44772 7.72669 2 8.17441 2 8.72669V9.27215C2 9.82443 2.44772 10.2721 3 10.2721H7.72669V15C7.72669 15.5523 8.17441 16 8.72669 16H9.27215C9.82443 16 10.2721 15.5523 10.2721 15V10.2721H15C15.5523 10.2721 16 9.82443 16 9.27215V8.72669C16 8.17441 15.5523 7.72669 15 7.72669H10.2721V3C10.2721 2.44772 9.82443 2 9.27215 2H8.72669Z" fill="white"/>
</svg>
