<svg width="18" height="18" viewBox="0 0 18 18" fill="none" xmlns="http://www.w3.org/2000/svg">
<path fill-rule="evenodd" clip-rule="evenodd" d="M13.2649 15.7275C13.4154 15.5826 13.5 15.3861 13.5 15.1812C13.5 14.9764 13.4154 14.7799 13.2649 14.635L7.40834 9L13.2649 3.36502C13.4154 3.22013 13.5 3.02364 13.5 2.81876C13.5 2.61388 13.4154 2.41738 13.2649 2.27249L12.6971 1.72622C12.5465 1.58137 12.3423 1.5 12.1294 1.5C11.9165 1.5 11.7122 1.58137 11.5616 1.72622L4.85308 8.18021C4.74114 8.28784 4.65235 8.41564 4.59177 8.5563C4.53118 8.69697 4.5 8.84774 4.5 9C4.5 9.15226 4.53118 9.30303 4.59177 9.44369C4.65235 9.58436 4.74114 9.71215 4.85308 9.81979L11.5616 16.2738C11.7122 16.4186 11.9165 16.5 12.1294 16.5C12.3423 16.5 12.5465 16.4186 12.6971 16.2738L13.2649 15.7275Z" fill="white"/>
</svg>
