<svg width="30" height="48" viewBox="0 0 30 48" fill="none" xmlns="http://www.w3.org/2000/svg">
<rect x="14" y="29" width="2" height="19" fill="#1F8F4B"/>
<circle cx="15" cy="15" r="14" stroke="#1F8F4B" stroke-width="2"/>
<g clipPath="url(#clip0_60_10022)">
<path d="M22.7782 7.2218C20.7005 5.14421 17.9382 4 15 4C12.0618 4 9.29947 5.14421 7.2218 7.2218C5.14421 9.29947 4 12.0618 4 15C4 17.9382 5.14421 20.7005 7.2218 22.7782C9.29947 24.8558 12.0618 26 15 26C17.9382 26 20.7005 24.8558 22.7782 22.7782C24.8558 20.7005 26 17.9382 26 15C26 12.0618 24.8558 9.29947 22.7782 7.2218ZM15.6445 7.90672L18.4008 5.90416C20.0631 6.52772 21.5104 7.59438 22.5981 8.95988L21.5469 12.1951L18.4249 13.2095L15.6445 11.1894V7.90672ZM11.5992 5.90416L14.3555 7.90672V11.1894L11.5751 13.2095L8.45307 12.1951L7.40188 8.95988C8.48959 7.59438 9.93686 6.52772 11.5992 5.90416ZM6.90632 20.3597C5.95821 18.9328 5.37723 17.2422 5.29882 15.4233L8.0547 13.421L11.1768 14.4354L12.2388 17.7039L10.3092 20.3597H6.90632ZM17.5948 24.3584C16.7685 24.5878 15.8984 24.7109 15 24.7109C14.1016 24.7109 13.2315 24.5878 12.4052 24.3584L11.3521 21.1175L13.2817 18.4616H16.7183L18.6478 21.1175L17.5948 24.3584ZM19.6908 20.3598L17.7612 17.7039L18.8232 14.4355L21.9453 13.4211L24.7012 15.4233C24.6228 17.2422 24.0418 18.9328 23.0937 20.3598H19.6908Z" fill="white"/>
</g>
<defs>
<clipPath id="clip0_60_10022">
<rect width="22" height="22" fill="white" transform="translate(4 4)"/>
</clipPath>
</defs>
</svg>
