<svg width="22" height="22" viewBox="0 0 22 22" fill="none" xmlns="http://www.w3.org/2000/svg">
<path d="M20.8918 7.70337L20.8917 7.70336L14.541 7.1268L14.2436 7.0998L14.1264 6.82525L11.6169 0.950002C11.6168 0.949929 11.6168 0.949856 11.6168 0.949783C11.51 0.70127 11.2687 0.54248 11.0001 0.54248C10.731 0.54248 10.4903 0.701531 10.3848 0.948919L10.3846 0.949166L7.8748 6.82525L7.75752 7.09981L7.46019 7.1268L1.10917 7.7033C1.10911 7.7033 1.10905 7.70331 1.10899 7.70331C0.842799 7.72795 0.616812 7.90803 0.532889 8.16372C0.492337 8.28842 0.489215 8.42228 0.523915 8.54874C0.558636 8.67528 0.6297 8.78886 0.728311 8.87542C0.72835 8.87545 0.72839 8.87549 0.728429 8.87552L5.52899 13.0849L5.75286 13.2812L5.68694 13.5715L4.2716 19.8053C4.2119 20.0696 4.3144 20.3404 4.53148 20.4973L4.53276 20.4982C4.6464 20.5809 4.78334 20.6254 4.92387 20.6253H4.9243C5.04494 20.6253 5.16332 20.5925 5.2668 20.5305L5.26722 20.5303L10.7435 17.2558L11.0001 17.1024L11.2567 17.2559L16.7319 20.5303L16.732 20.5303C16.8444 20.5976 16.9741 20.6303 17.1049 20.6245C17.2357 20.6188 17.362 20.5747 17.468 20.4978L17.4687 20.4973C17.6857 20.3404 17.7883 20.0696 17.7286 19.8053L16.3132 13.5716L16.2473 13.2812L16.4711 13.0849L20.8918 7.70337ZM20.8918 7.70337C21.0221 7.71517 21.1461 7.76498 21.2483 7.84662C21.349 7.92707 21.4243 8.03493 21.4651 8.15716L20.8918 7.70337Z" stroke="#656566"/>
</svg>
