<svg width="24" height="24" viewBox="0 0 24 24" fill="none" xmlns="http://www.w3.org/2000/svg">
<path d="M1.99999 9.00001H4.99999V22.5C4.99999 22.6326 5.05266 22.7598 5.14643 22.8536C5.2402 22.9473 5.36738 23 5.49999 23H18.5C18.6326 23 18.7598 22.9473 18.8535 22.8536C18.9473 22.7598 19 22.6326 19 22.5V9.00001H22C22.1231 9.00002 22.2418 8.95462 22.3335 8.87251C22.4253 8.7904 22.4834 8.67735 22.497 8.55501L22.997 4.05501C23.0096 3.94134 22.9829 3.82678 22.9213 3.73043C22.8597 3.63407 22.767 3.56174 22.6585 3.52551L15.1585 1.02551C15.0641 0.994164 14.9626 0.991596 14.8668 1.01813C14.771 1.04466 14.6853 1.0991 14.6205 1.17451C13.3205 2.76701 10.68 2.76601 9.37999 1.17451C9.31517 1.09915 9.22942 1.04476 9.13363 1.01823C9.03785 0.991698 8.93633 0.994232 8.84199 1.02551L1.34199 3.52551C1.23342 3.56165 1.14054 3.63394 1.07885 3.73031C1.01715 3.82667 0.990375 3.94128 1.00299 4.05501L1.50299 8.55501C1.51653 8.67735 1.57472 8.7904 1.66642 8.87251C1.75813 8.95462 1.87689 9.00002 1.99999 9.00001Z" fill="white"/>
</svg>
