<svg width="20" height="20" viewBox="0 0 20 20" fill="none" xmlns="http://www.w3.org/2000/svg">
<path d="M4.24002 0.399902C3.22159 0.399902 2.24487 0.804473 1.52473 1.52461C0.804595 2.24475 0.400024 3.22147 0.400024 4.2399V9.0399H10.5626L8.3613 6.83862C8.18643 6.65756 8.08967 6.41507 8.09186 6.16336C8.09404 5.91165 8.19501 5.67087 8.373 5.49288C8.55099 5.31488 8.79177 5.21392 9.04348 5.21173C9.29519 5.20955 9.53769 5.30631 9.71874 5.48118L13.5587 9.32118L13.5655 9.3279C13.7411 9.50639 13.8396 9.74664 13.84 9.99702V10.0028C13.84 10.2639 13.7344 10.5001 13.5655 10.6729L13.5578 10.6796L9.71874 14.5196C9.53861 14.6996 9.29434 14.8007 9.03968 14.8006C8.78502 14.8005 8.54083 14.6992 8.36082 14.5191C8.18082 14.339 8.07974 14.0947 8.07983 13.84C8.07992 13.5854 8.18117 13.3412 8.3613 13.1612L10.5626 10.9599H0.400024V15.7599C0.400024 16.7783 0.804595 17.7551 1.52473 18.4752C2.24487 19.1953 3.22159 19.5999 4.24002 19.5999H15.76C16.7785 19.5999 17.7552 19.1953 18.4753 18.4752C19.1955 17.7551 19.6 16.7783 19.6 15.7599V4.2399C19.6 3.22147 19.1955 2.24475 18.4753 1.52461C17.7552 0.804473 16.7785 0.399902 15.76 0.399902H4.24002Z" fill="white"/>
</svg>
