<svg width="21" height="14" viewBox="0 0 21 14" fill="none" xmlns="http://www.w3.org/2000/svg">
<path d="M5.63845 0.291289C4.31435 0.50601 3.28051 1.28537 2.41367 2.72479C1.71782 3.88189 1.19295 5.24178 0.906656 6.64939C0.735676 7.48442 0.680007 8.0411 0.660126 9.14253C0.61241 11.4806 0.898704 12.8325 1.56275 13.3972C2.02002 13.7908 2.74768 13.9022 3.28051 13.6596C3.94455 13.3534 5.0261 12.3951 6.21104 11.0631C6.73591 10.4746 6.90689 10.3314 7.22897 10.2201C7.41188 10.1525 7.69023 10.1485 10.8275 10.1485C13.436 10.1485 14.267 10.1605 14.3903 10.2002C14.6249 10.2678 14.9549 10.5024 15.1577 10.741C16.3307 12.1128 17.5833 13.262 18.291 13.6159C18.8795 13.9101 19.5992 13.8226 20.0923 13.3972C20.7524 12.8325 21.0426 11.4607 20.9949 9.11868C20.9711 7.97748 20.9154 7.44863 20.7086 6.47046C20.3547 4.80439 19.5953 3.08265 18.7205 1.95736C17.5435 0.446365 15.9291 -0.066577 14.0881 0.490105C13.6507 0.625299 13.0224 0.919545 12.6049 1.19391C11.9409 1.62733 11.754 1.67107 10.7082 1.65118C9.79766 1.63528 9.68633 1.60347 9.10579 1.2297C8.13955 0.605417 7.27271 0.315147 6.29454 0.287313C6.0003 0.279361 5.70605 0.283337 5.63845 0.291289ZM15.1299 2.63731C15.5474 2.77648 15.8615 3.22182 15.8536 3.66717C15.8496 3.96142 15.774 4.1483 15.5633 4.37495C15.3327 4.62546 15.0623 4.73282 14.7283 4.71294C14.3028 4.68908 13.9648 4.4664 13.8058 4.10058C13.6109 3.66319 13.6865 3.24966 14.0205 2.91167C14.3386 2.59357 14.7283 2.49814 15.1299 2.63731ZM6.61265 3.36895C6.71206 3.3928 6.8393 3.42859 6.90292 3.45245L7.01028 3.49619V4.18806V4.87994H7.68227H8.35824L8.4656 5.09864C8.56103 5.29348 8.56899 5.34914 8.54911 5.6076C8.53718 5.76268 8.49741 5.96945 8.45765 6.0609L8.3821 6.23188H7.6783H6.97051V6.90785C6.97051 7.68721 6.9904 7.64745 6.5371 7.76673C6.23888 7.84228 5.94463 7.80252 5.714 7.65937L5.57881 7.57587V6.90388V6.23188H4.90681H4.23482L4.15927 6.04102C4.06384 5.79051 4.06384 5.32131 4.15927 5.06683L4.23482 4.87994H4.94658H5.65834V4.16818V3.45642L5.78955 3.41269C6.0838 3.32123 6.33431 3.3093 6.61265 3.36895ZM17.8894 4.27157C18.3229 4.41869 18.6648 4.95151 18.6052 5.38493C18.5535 5.76268 18.3189 6.10066 17.9928 6.25574C17.802 6.3472 17.4322 6.37503 17.2055 6.31141C16.9789 6.24779 16.6687 5.96945 16.5494 5.72689C16.3546 5.32529 16.4739 4.78849 16.8198 4.48231C17.126 4.2159 17.5037 4.14035 17.8894 4.27157ZM15.2253 5.71496C15.7661 5.94956 16.0086 6.62156 15.7422 7.15836C15.5514 7.55201 15.2213 7.75481 14.7839 7.75878C14.3585 7.76276 14.0205 7.55599 13.8296 7.18619C13.6467 6.82037 13.6587 6.48637 13.8654 6.1444C14.1477 5.67122 14.7163 5.49229 15.2253 5.71496Z" fill="currentColor"/>
</svg>
