<svg width="48" height="48" viewBox="0 0 48 48" fill="none" xmlns="http://www.w3.org/2000/svg">
<g clipPath="url(#clip0_11_92)">
<path d="M33.4169 16.6012C31.693 18.3496 30.5833 20.6963 30.4106 23.2969H36C35.8523 20.7766 34.8922 18.4657 33.4169 16.6012ZM24.7031 12V23.2969H29.0044C29.1814 20.2771 30.47 17.5515 32.4844 15.542C30.4768 13.5393 27.7126 12.1764 24.7031 12ZM30.4106 24.7031C30.5833 27.3037 31.693 29.6973 33.417 31.4457C34.8922 29.5812 35.8523 27.2234 36 24.7031H30.4106ZM15.5156 15.542C17.53 17.5515 18.8186 20.2771 18.9956 23.2969H23.2969V12C20.2874 12.1764 17.5232 13.5393 15.5156 15.542ZM29.0044 24.7031H24.7031V36C27.7126 35.8236 30.4768 34.5076 32.4844 32.5049C30.47 30.4954 29.1814 27.7229 29.0044 24.7031ZM18.9956 24.7031C18.8186 27.7229 17.53 30.4954 15.5156 32.5049C17.5232 34.5076 20.2874 35.8237 23.2969 36V24.7031H18.9956ZM12 24.7031C12.1477 27.2234 13.1078 29.5812 14.5831 31.4457C16.307 29.6973 17.4167 27.3037 17.5894 24.7031H12ZM14.583 16.6012C13.1078 18.4657 12.1477 20.7766 12 23.2969H17.5894C17.4167 20.6963 16.307 18.3496 14.583 16.6012Z" fill="white"/>
</g>
<defs>
<clipPath id="clip0_11_92">
<rect width="24" height="24" fill="white" transform="translate(12 12)"/>
</clipPath>
</defs>
</svg>
