<svg width="48" height="48" viewBox="0 0 48 48" fill="none" xmlns="http://www.w3.org/2000/svg">
<g clipPath="url(#clip0_11_92)">
<path d="M16.8169 14.3579C13.9027 16.5594 12 20.0361 12 23.9699C12 25.7263 12.3853 27.3985 13.0718 28.9143L16.8169 26.7489V14.3579ZM22.8379 23.2722V12C21.5615 12.1323 20.3452 12.4571 19.2253 12.9504V25.3654L22.8379 23.2722ZM24.0421 25.3534L14.276 30.9835C15.0105 31.994 15.8896 32.8962 16.9012 33.6301L27.6548 27.4466L24.0421 25.3534ZM25.2464 19.1098V23.2722L35.0125 28.9023C35.5183 27.7835 35.8555 26.5804 36 25.3173L25.2464 19.1098ZM19.3096 35.0376C20.7667 35.6511 22.3562 36 24.0421 36C28.0642 36 31.6167 34.015 33.8083 30.9955L30.0632 28.8301L19.3096 35.0376ZM35.988 22.5383C35.3256 16.9684 30.858 12.5534 25.2464 12V16.3308L35.988 22.5383Z" fill="white"/>
</g>
<defs>
<clipPath id="clip0_11_92">
<rect width="24" height="24" fill="white" transform="translate(12 12)"/>
</clipPath>
</defs>
</svg>
