<svg width="48" height="48" viewBox="0 0 48 48" fill="none" xmlns="http://www.w3.org/2000/svg">
<g clipPath="url(#clip0_11_92)">
<path d="M13.1428 23.0925C14.831 17.7357 18.2307 14.3694 23.5684 13.1958C24.4249 13.0075 25.7215 13.3386 26.365 13.924C28.9603 16.285 31.3337 18.8882 33.8865 21.2987C34.8832 22.2398 35.0382 23.1114 34.6851 24.3883C33.1262 30.0257 29.5802 33.5799 23.8599 34.8159C23.1254 34.9746 22.0067 34.6591 21.4563 34.1452C18.7762 31.643 16.1411 29.0772 13.6971 26.3484C13.0979 25.6794 13.2771 24.3133 13.1428 23.0925ZM21.2414 28.2021C23.4521 25.8304 25.6628 23.4586 27.9826 20.9699C27.6282 20.6345 27.0927 20.1277 26.5554 19.6192C24.1551 22.017 21.9028 24.2669 19.0753 27.0914C19.6985 27.4279 20.3103 27.7582 21.2414 28.2021Z" fill="white"/>
<path d="M14.2873 31.238C15.8272 32.6444 17.2496 33.939 18.8571 35.4022C13.6095 37.1454 11.4681 35.0816 12.1108 29.1429C12.9051 29.9079 13.5375 30.517 14.2873 31.238Z" fill="white"/>
<path d="M30.2858 12.3083C35.5334 11.2533 36.3696 12.87 35.8792 17.7143C33.9024 15.8354 32.1141 14.1356 30.2858 12.3083Z" fill="white"/>
</g>
<defs>
<clipPath id="clip0_11_92">
<rect width="24" height="24" fill="white" transform="translate(12 12)"/>
</clipPath>
</defs>
</svg>
