<svg width="40" height="40" viewBox="0 0 40 40" fill="none" xmlns="http://www.w3.org/2000/svg">
<g id="ic:round-plus">
<path id="Vector" d="M29.9997 21.6615H21.6663V29.9948C21.6663 30.4368 21.4907 30.8607 21.1782 31.1733C20.8656 31.4859 20.4417 31.6615 19.9997 31.6615C19.5576 31.6615 19.1337 31.4859 18.8212 31.1733C18.5086 30.8607 18.333 30.4368 18.333 29.9948V21.6615H9.99967C9.55765 21.6615 9.13372 21.4859 8.82116 21.1733C8.5086 20.8607 8.33301 20.4368 8.33301 19.9948C8.33301 19.5528 8.5086 19.1288 8.82116 18.8163C9.13372 18.5037 9.55765 18.3281 9.99967 18.3281H18.333V9.99479C18.333 9.55276 18.5086 9.12884 18.8212 8.81628C19.1337 8.50372 19.5576 8.32812 19.9997 8.32812C20.4417 8.32812 20.8656 8.50372 21.1782 8.81628C21.4907 9.12884 21.6663 9.55276 21.6663 9.99479V18.3281H29.9997C30.4417 18.3281 30.8656 18.5037 31.1782 18.8163C31.4907 19.1288 31.6663 19.5528 31.6663 19.9948C31.6663 20.4368 31.4907 20.8607 31.1782 21.1733C30.8656 21.4859 30.4417 21.6615 29.9997 21.6615Z" fill="white"/>
</g>
</svg>
