<svg width="8" height="14" viewBox="0 0 8 14" fill="none" xmlns="http://www.w3.org/2000/svg">
<path fill-rule="evenodd" clip-rule="evenodd" d="M7.79101 12.9799C7.92482 12.8511 8 12.6765 8 12.4944C8 12.3122 7.92482 12.1376 7.79101 12.0088L2.58519 6.99992L7.79101 1.99105C7.92482 1.86226 8 1.6876 8 1.50548C8 1.32336 7.92482 1.1487 7.79101 1.01991L7.28634 0.534339C7.15248 0.405583 6.97096 0.333252 6.78168 0.333252C6.5924 0.333252 6.41087 0.405583 6.27701 0.534339L0.313848 6.27122C0.21435 6.36689 0.135421 6.48049 0.0815692 6.60552C0.0277179 6.73056 0 6.86457 0 6.99992C0 7.13526 0.0277179 7.26928 0.0815692 7.39431C0.135421 7.51935 0.21435 7.63294 0.313848 7.72862L6.27701 13.4655C6.41087 13.5943 6.5924 13.6666 6.78168 13.6666C6.97096 13.6666 7.15248 13.5943 7.28634 13.4655L7.79101 12.9799Z" fill="white"/>
</svg>
