<svg width="24" height="24" viewBox="0 0 24 24" fill="none" xmlns="http://www.w3.org/2000/svg">
<g clipPath="url(#clip0_21_12)">
<path d="M1.14283 11.0925C2.83101 5.7357 6.23075 2.36934 11.5684 1.19575C12.4249 1.00744 13.7215 1.33861 14.365 1.92398C16.9603 4.28501 19.3337 6.88818 21.8865 9.29867C22.8832 10.2398 23.0382 11.1114 22.6851 12.3883C21.1262 18.0257 17.5802 21.5798 11.8599 22.8159C11.1254 22.9746 10.0067 22.6591 9.4563 22.1452C6.77622 19.643 4.14109 17.0772 1.6971 14.3484C1.09793 13.6794 1.27709 12.3133 1.14283 11.0925ZM9.2414 16.2021C11.4521 13.8304 13.6628 11.4586 15.9826 8.96991C15.6282 8.63453 15.0927 8.12772 14.5554 7.61921C12.1551 10.017 9.90279 12.2669 7.07525 15.0914C7.69849 15.4279 8.31028 15.7582 9.2414 16.2021Z" fill="white"/>
<path d="M2.28734 19.238C3.82716 20.6444 5.24955 21.939 6.85714 23.4022C1.6095 25.1453 -0.531927 23.0816 0.110787 17.1429C0.905127 17.9079 1.53754 18.517 2.28734 19.238Z" fill="white"/>
<path d="M18.2858 0.308309C23.5334 -0.746723 24.3696 0.870007 23.8792 5.71429C21.9024 3.83538 20.1141 2.13559 18.2858 0.308309Z" fill="white"/>
</g>
<defs>
<clipPath id="clip0_21_12">
<rect width="24" height="24" fill="white"/>
</clipPath>
</defs>
</svg>
