<svg width="24" height="24" viewBox="0 0 24 24" fill="none" xmlns="http://www.w3.org/2000/svg">
<path d="M1.23826 24H3.92951L2.43575 18.888H1.27295C0.401139 18.888 -0.212276 19.7451 0.0690464 20.5703L1.23826 24ZM17.998 6.67655H14.6284L8.49551 18.888H3.90091L5.39468 24H10.2566L17.998 6.67655ZM2.99999 0L5.35511 5.27017H8.64683L5.99998 0H2.99999Z" fill="white"/>
<path d="M9.31295 14.1268L11.2039 10.3616L9.35317 6.67655H5.98358L9.31295 14.1268ZM22.7087 18.888H21.4961L20.0023 24H22.7434L23.9126 20.5703C24.1939 19.7451 23.5805 18.888 22.7087 18.888ZM18.5371 24L20.0309 18.888H15.4861L14.7428 17.408L12.761 21.8428L13.725 24H18.5371ZM15.3348 5.27017H18.6265L20.9816 0H17.9816L15.3348 5.27017Z" fill="white"/>
</svg>
