<svg width="24" height="24" viewBox="0 0 24 24" fill="none" xmlns="http://www.w3.org/2000/svg">
<path d="M5.04774 9.10908C5.11247 9.02798 5.19094 9.04392 5.23205 9.06047C5.2665 9.07444 5.34544 9.11906 5.33452 9.23091C5.32139 9.3652 5.31404 9.50212 5.31263 9.63792C5.30677 10.2013 5.53275 10.7532 5.9326 11.1521C6.32991 11.5485 6.85247 11.7621 7.40888 11.7559C8.16891 11.7462 8.79929 11.3497 9.23189 10.6095C9.5896 9.99731 9.43238 9.2078 9.26592 8.37188C9.16852 7.88259 9.06778 7.37663 9.06778 6.89508C9.06778 3.14559 11.5884 0.982406 13.091 0.0266719C13.1221 0.0069375 13.1516 0 13.1778 0C13.2204 0 13.2542 0.018375 13.2708 0.029625C13.3031 0.0514687 13.3547 0.10125 13.3381 0.189375C12.7638 3.23916 14.4768 5.07342 16.2904 7.01536C18.1598 9.01706 20.2785 11.2859 20.2785 15.3777C20.2785 20.1321 16.4106 24.0001 11.6561 24.0001C7.7415 24.0001 4.29005 21.2708 3.26293 17.3631C2.56252 14.6985 3.29649 11.3044 5.04774 9.10908ZM11.441 22.1596C12.6315 22.2139 13.7638 21.7869 14.6286 20.9601C15.4841 20.142 15.9748 19.0004 15.9748 17.8278C15.9748 15.6275 15.1335 14.0122 12.8706 11.8677C12.8336 11.8326 12.7957 11.8215 12.7626 11.8215C12.7327 11.8215 12.7067 11.8306 12.6888 11.8392C12.6512 11.8574 12.5893 11.9023 12.5977 11.9994C12.6786 12.9409 12.6772 13.7223 12.5935 14.3221C12.3798 15.8543 11.2582 16.8837 9.8025 16.8837C9.08879 16.8837 8.40896 16.6151 7.88822 16.1273C7.86812 16.108 7.84359 16.0939 7.81678 16.0863C7.78997 16.0786 7.7617 16.0776 7.73443 16.0834C7.70016 16.0908 7.65427 16.1118 7.63022 16.1698C7.41432 16.6911 7.30397 17.2445 7.30228 17.8144C7.29539 20.1078 9.15202 22.0571 11.441 22.1596Z" fill="#F7FF13"/>
</svg>
