<svg width="24" height="25" viewBox="0 0 24 25" fill="none" xmlns="http://www.w3.org/2000/svg">
<path d="M3.99902 12.7746C3.99902 13.1543 4.28118 13.4681 4.64725 13.5178L4.74902 13.5246L17.933 13.524L13.17 18.2675C12.8765 18.5598 12.8755 19.0347 13.1678 19.3282C13.4334 19.595 13.8501 19.6201 14.1441 19.4029L14.2284 19.3305L20.2784 13.3065C20.3171 13.2679 20.3507 13.2263 20.3792 13.1822C20.3873 13.169 20.3955 13.1554 20.4033 13.1416C20.4104 13.1297 20.4169 13.1174 20.423 13.105C20.4314 13.0869 20.4397 13.0681 20.4472 13.0491C20.4533 13.0343 20.4584 13.02 20.4631 13.0056C20.4686 12.9877 20.474 12.9686 20.4786 12.9493C20.482 12.9358 20.4847 12.9227 20.4871 12.9097C20.4904 12.8903 20.4933 12.8701 20.4953 12.8498C20.497 12.8343 20.4981 12.8189 20.4987 12.8035C20.4988 12.7942 20.499 12.7844 20.499 12.7746L20.4986 12.7455C20.4981 12.7308 20.4971 12.7161 20.4956 12.7014L20.499 12.7746C20.499 12.7273 20.4946 12.681 20.4863 12.6361C20.4843 12.6253 20.482 12.6143 20.4794 12.6034C20.4741 12.5808 20.4679 12.5591 20.4609 12.5377C20.4574 12.5272 20.4533 12.5158 20.449 12.5046C20.4402 12.482 20.4307 12.4605 20.4202 12.4396C20.4153 12.4297 20.4099 12.4194 20.4042 12.4092C20.3948 12.3925 20.3852 12.3767 20.375 12.3613C20.3677 12.3504 20.3598 12.339 20.3514 12.3278L20.3449 12.3192C20.3247 12.2928 20.3028 12.2677 20.2794 12.2443L20.2785 12.2436L14.2285 6.21857C13.935 5.92629 13.4601 5.92727 13.1678 6.22077C12.9021 6.48759 12.8787 6.9043 13.0972 7.19746L13.17 7.28143L17.931 12.024L4.74902 12.0246C4.33481 12.0246 3.99902 12.3604 3.99902 12.7746Z" fill="white"/>
</svg>
