<svg width="24" height="25" viewBox="0 0 24 25" fill="none" xmlns="http://www.w3.org/2000/svg">
<path d="M20.001 12.7746C20.001 13.1543 19.7188 13.4681 19.3527 13.5178L19.251 13.5246L6.06698 13.524L10.83 18.2675C11.1235 18.5598 11.1245 19.0347 10.8322 19.3282C10.5666 19.595 10.1499 19.6201 9.85586 19.4029L9.77159 19.3305L3.72159 13.3065C3.6829 13.2679 3.64929 13.2263 3.62077 13.1822C3.61271 13.169 3.60452 13.1554 3.59674 13.1416C3.58959 13.1297 3.58313 13.1174 3.57703 13.105C3.56857 13.0869 3.56029 13.0681 3.55278 13.0491C3.54668 13.0343 3.54158 13.02 3.53694 13.0056C3.53141 12.9877 3.52604 12.9686 3.52142 12.9493C3.51799 12.9358 3.51527 12.9227 3.5129 12.9097C3.50956 12.8903 3.50673 12.8701 3.5047 12.8498C3.50295 12.8343 3.5019 12.8189 3.50132 12.8035C3.50117 12.7942 3.50098 12.7844 3.50098 12.7746L3.50135 12.7455C3.50193 12.7308 3.50293 12.7161 3.50437 12.7014L3.50098 12.7746C3.50098 12.7273 3.50536 12.681 3.51374 12.6361C3.51569 12.6253 3.51801 12.6143 3.52057 12.6034C3.5259 12.5808 3.53205 12.5591 3.53914 12.5377C3.54262 12.5272 3.54668 12.5158 3.55101 12.5046C3.55977 12.482 3.5693 12.4605 3.57978 12.4396C3.58465 12.4297 3.5901 12.4194 3.59581 12.4092C3.60518 12.3925 3.61484 12.3767 3.62505 12.3613C3.63225 12.3504 3.64023 12.339 3.64856 12.3278L3.65505 12.3192C3.67526 12.2928 3.69718 12.2677 3.72065 12.2443L3.72155 12.2436L9.77155 6.21857C10.065 5.92629 10.5399 5.92727 10.8322 6.22077C11.0979 6.48759 11.1213 6.9043 10.9028 7.19746L10.83 7.28143L6.06898 12.024L19.251 12.0246C19.6652 12.0246 20.001 12.3604 20.001 12.7746Z" fill="white"/>
</svg>
