<svg width="18" height="18" viewBox="0 0 18 18" fill="none" xmlns="http://www.w3.org/2000/svg">
<path d="M9.00007 2C9.28031 2 9.51191 2.2394 9.54857 2.55001L9.55362 2.63636L9.55318 13.8228L13.0542 9.78147C13.2699 9.53242 13.6204 9.53155 13.837 9.77953C14.034 10.005 14.0525 10.3585 13.8922 10.608L13.8387 10.6795L9.39263 15.8128C9.36419 15.8456 9.33342 15.8742 9.30092 15.8984C9.29114 15.9052 9.28114 15.9121 9.27093 15.9187C9.26218 15.9248 9.25309 15.9303 9.24391 15.9355C9.23054 15.9427 9.21673 15.9497 9.20264 15.956C9.19178 15.9612 9.18121 15.9655 9.17056 15.9695C9.15735 15.9742 9.14328 15.9787 9.12899 15.9827C9.11902 15.9856 9.10941 15.9879 9.09978 15.9899C9.08543 15.9927 9.07059 15.9951 9.05558 15.9968C9.04412 15.9983 9.03277 15.9992 9.02142 15.9997C9.01453 15.9998 9.00732 16 9.00007 16L8.97863 15.9997C8.96777 15.9992 8.95691 15.9983 8.94608 15.9971L9.00007 16C8.96514 16 8.93097 15.9963 8.89783 15.9892C8.88992 15.9875 8.88179 15.9856 8.8737 15.9834C8.85704 15.9789 8.84099 15.9736 8.82526 15.9676C8.81744 15.9647 8.80909 15.9612 8.8008 15.9575C8.78415 15.9501 8.76827 15.942 8.7528 15.9331C8.74553 15.929 8.73792 15.9244 8.73038 15.9195C8.71809 15.9116 8.7064 15.9034 8.69501 15.8947C8.68695 15.8886 8.67856 15.8818 8.67031 15.8748L8.66393 15.8693C8.64444 15.8521 8.62598 15.8335 8.60866 15.8136L8.60814 15.8129L4.16132 10.6795C3.9456 10.4305 3.94632 10.0276 4.16294 9.77956C4.35987 9.55411 4.66743 9.5343 4.8838 9.71967L4.94577 9.78143L8.44608 13.8211L8.44653 2.63636C8.44653 2.28491 8.69436 2 9.00007 2Z" fill="#979797"/>
</svg>
