<svg width="18" height="24" viewBox="0 0 18 24" fill="none" xmlns="http://www.w3.org/2000/svg">
<path d="M2.40835 9.10908C2.47308 9.02798 2.55155 9.04392 2.59266 9.06047C2.62711 9.07444 2.70605 9.11906 2.69513 9.23091C2.682 9.3652 2.67465 9.50212 2.67324 9.63792C2.66738 10.2013 2.89336 10.7532 3.29321 11.1521C3.69052 11.5485 4.21308 11.7621 4.76949 11.7559C5.52952 11.7462 6.1599 11.3497 6.59251 10.6095C6.95021 9.99731 6.79299 9.2078 6.62654 8.37188C6.52913 7.88259 6.4284 7.37663 6.4284 6.89508C6.4284 3.14559 8.94905 0.982406 10.4516 0.0266719C10.4827 0.0069375 10.5122 0 10.5384 0C10.5811 0 10.6148 0.018375 10.6314 0.029625C10.6637 0.0514687 10.7153 0.10125 10.6987 0.189375C10.1244 3.23916 11.8374 5.07342 13.651 7.01536C15.5204 9.01706 17.6392 11.2859 17.6392 15.3777C17.6392 20.1321 13.7712 24.0001 9.01674 24.0001C5.10211 24.0001 1.65066 21.2708 0.623537 17.3631C-0.07687 14.6985 0.657101 11.3044 2.40835 9.10908ZM8.80163 22.1596C9.99216 22.2139 11.1244 21.7869 11.9892 20.9601C12.8447 20.142 13.3354 19.0004 13.3354 17.8278C13.3354 15.6275 12.4941 14.0122 10.2312 11.8677C10.1942 11.8326 10.1563 11.8215 10.1232 11.8215C10.0933 11.8215 10.0673 11.8306 10.0494 11.8392C10.0118 11.8574 9.94993 11.9023 9.95827 11.9994C10.0392 12.9409 10.0378 13.7223 9.95415 14.3221C9.7404 15.8542 8.61882 16.8837 7.16311 16.8837C6.4494 16.8837 5.76957 16.6151 5.24883 16.1273C5.22873 16.108 5.2042 16.0939 5.17739 16.0863C5.15059 16.0786 5.12231 16.0776 5.09504 16.0834C5.06077 16.0908 5.01488 16.1118 4.99083 16.1698C4.77493 16.6911 4.66458 17.2445 4.6629 17.8144C4.656 20.1078 6.51263 22.0571 8.80163 22.1596Z" fill="currentColor"/>
</svg>
