<svg width="34" height="34" viewBox="0 0 34 34" fill="none" xmlns="http://www.w3.org/2000/svg">
<rect width="34" height="34" rx="17" fill="#E44728"/>
<path d="M23.316 23.8173H23.436C23.604 23.8112 23.74 23.746 23.826 23.5911C23.86 23.532 23.892 23.4709 23.924 23.4077C24.162 22.9308 24.394 22.4498 24.522 21.926C24.646 21.4267 24.804 20.9355 24.92 20.4342C24.964 20.2467 24.99 20.0551 25 19.8615C25 19.8289 24.996 19.8064 24.964 19.7922C24.78 19.7066 24.626 19.5782 24.468 19.4559C24.254 19.2888 24.048 19.1115 23.816 18.9688C23.682 18.8873 23.558 18.7956 23.444 18.6896C23.392 18.6407 23.338 18.5856 23.258 18.5816C23.106 18.5714 22.9699 18.5204 22.8459 18.4308C22.7119 18.337 22.5979 18.2208 22.4799 18.1067C22.3659 17.9967 22.2459 17.8927 22.0999 17.8255C22.0039 17.7806 21.9099 17.7317 21.8219 17.6706C21.5419 17.4769 21.2579 17.2915 20.9839 17.0918C20.8239 16.9756 20.6459 16.8839 20.5039 16.7432C20.4619 16.7025 20.4139 16.6678 20.3639 16.6352C20.0939 16.4538 19.8199 16.2765 19.5559 16.089C19.3319 15.9301 19.1119 15.7711 18.8718 15.6386C18.6418 15.5123 18.4098 15.3818 18.2098 15.2086C18.1258 15.1352 18.0378 15.07 17.9458 15.0068C17.3638 14.6033 16.7818 14.2038 16.1998 13.8003C15.8798 13.5782 15.5678 13.3438 15.2398 13.1359C14.9477 12.9504 14.6697 12.7425 14.3777 12.5571C14.2977 12.5061 14.2297 12.4409 14.1377 12.4124C14.0477 12.3839 13.9597 12.3512 13.8737 12.3146C13.7917 12.2819 13.7037 12.2493 13.6537 12.1678C13.5897 12.0639 13.4937 12.0109 13.3857 11.9701C13.2797 11.9314 13.1737 11.8947 13.0737 11.8397C12.8837 11.7337 12.7337 11.591 12.6917 11.3628C12.6817 11.3098 12.6537 11.2792 12.6117 11.2548C12.4557 11.159 12.2997 11.0612 12.1437 10.9633C11.8997 10.8105 11.6597 10.6535 11.4117 10.5068C11.2717 10.4232 11.1357 10.3376 11.0176 10.2215C10.9196 10.1257 10.8096 10.0503 10.6736 10.0197C10.4476 9.96876 10.2376 10.0217 10.0336 10.1196C9.76562 10.2459 9.50961 10.3988 9.2176 10.464C9.1576 10.4783 9.0976 10.4905 9.0396 10.5027C9.0196 10.5068 8.9896 10.5068 9.0036 10.5394C9.0496 10.6413 9.0696 10.7534 9.1576 10.8329C9.43361 11.0815 9.67962 11.3607 9.93562 11.6298C10.2356 11.9457 10.5376 12.2595 10.8336 12.5795C11.2297 13.0075 11.6717 13.3927 12.0277 13.8614C12.2917 14.2099 12.6177 14.5075 12.9317 14.8132C13.3237 15.1964 13.7097 15.5877 14.0877 15.9871C14.4377 16.3581 14.7657 16.7534 15.1198 17.1223C15.2778 17.2854 15.4258 17.4586 15.5778 17.6278C15.7098 17.7745 15.8338 17.9253 15.9918 18.0456C16.1258 18.1475 16.2478 18.2636 16.3598 18.388C16.5158 18.5592 16.6698 18.7324 16.8258 18.9056C17.0058 19.1033 17.1818 19.3051 17.3638 19.5007C17.5698 19.7229 17.7678 19.9511 18.0238 20.1203C18.1578 20.21 18.2978 20.3017 18.3658 20.4627C18.4218 20.5972 18.5118 20.7052 18.6078 20.8112C18.7818 20.9987 18.9518 21.1882 19.1219 21.3798C19.3479 21.6346 19.5699 21.8934 19.8059 22.14C19.9259 22.2664 20.0619 22.3785 20.1759 22.513C20.4139 22.7881 20.6499 23.0673 20.8979 23.3343C21.0899 23.5402 21.3199 23.6217 21.5819 23.6563C21.8959 23.6971 22.2079 23.7379 22.5239 23.7603C22.7879 23.7786 23.052 23.8031 23.316 23.8133V23.8173ZM9.28161 22.4498C9.27561 22.6108 9.33561 22.7596 9.53161 22.8309C9.62561 22.8656 9.71562 22.9206 9.77362 23.0082C9.81962 23.0775 9.87962 23.1326 9.95162 23.1672C10.0856 23.2304 10.1956 23.3262 10.3016 23.4281C10.4656 23.587 10.6296 23.748 10.8096 23.8907C10.8736 23.9417 10.9416 23.9885 11.0296 23.9885C11.2757 23.9906 11.5217 23.9906 11.7677 23.9987C12.1157 24.011 12.4477 23.9355 12.7537 23.7623C12.9237 23.6665 13.1077 23.6095 13.2997 23.585C13.5097 23.5585 13.7217 23.534 13.9057 23.4199C14.0417 23.3343 14.1897 23.2874 14.3397 23.2385C14.4077 23.2161 14.4777 23.1937 14.5477 23.1692C14.7117 23.1101 14.7157 23.0898 14.5917 22.9573C14.4937 22.8513 14.3877 22.7535 14.2817 22.6556C14.0057 22.4009 13.7337 22.1421 13.4557 21.8893C13.0457 21.5143 12.6377 21.1373 12.2497 20.7399C12.0937 20.5809 11.9497 20.4117 11.7897 20.2569C11.5137 19.9899 11.2477 19.7147 10.9736 19.4457C10.8576 19.3316 10.7416 19.2174 10.6116 19.1155C10.5736 19.085 10.5556 19.089 10.5356 19.1359C10.2836 19.7412 10.0276 20.3425 9.77962 20.9498C9.65161 21.2657 9.54161 21.5877 9.39161 21.8934C9.31161 22.0585 9.28561 22.2317 9.28161 22.4478V22.4498ZM23.476 11.2853V11.0061C23.476 10.9633 23.462 10.9348 23.42 10.9205C23.3421 10.8934 23.2691 10.8535 23.204 10.8023C22.8779 10.5557 22.5239 10.3539 22.1599 10.1726C22.0959 10.14 22.0379 10.1318 21.9759 10.1726C21.9039 10.2194 21.8219 10.2419 21.7419 10.2683C21.5999 10.3173 21.4519 10.3458 21.3079 10.3804C21.0559 10.4416 20.8059 10.5129 20.5539 10.5802L19.1419 10.9593C19.0959 10.9715 19.0158 10.9674 19.0118 11.0061C19.0058 11.0632 19.0618 11.1203 19.1119 11.1529C19.2519 11.2446 19.3799 11.3526 19.4979 11.4728C19.5919 11.5666 19.7199 11.6033 19.8199 11.6909C19.9999 11.8478 20.1779 12.0048 20.3579 12.1617C20.5659 12.3411 20.8099 12.4715 21.0199 12.6468C21.3239 12.8974 21.6419 13.1277 21.9679 13.3499C22.1799 13.4946 22.4099 13.6189 22.5859 13.8166C22.6679 13.9083 22.7879 13.9409 22.9139 13.9389C23.044 13.9389 23.092 13.8981 23.114 13.7677C23.146 13.5639 23.138 13.358 23.156 13.1542C23.172 12.9545 23.202 12.7568 23.26 12.5652C23.32 12.3696 23.378 12.1739 23.426 11.9742C23.478 11.748 23.482 11.5156 23.482 11.2833L23.476 11.2853Z" fill="white"/>
</svg>
