<svg width="34" height="34" viewBox="0 0 34 34" fill="none" xmlns="http://www.w3.org/2000/svg">
<rect width="34" height="34" rx="17" fill="#173552"/>
<path d="M8.144 14.5273C9.44 14.5273 10.568 14.5273 11.696 14.5273C11.912 14.5273 12.032 14.6233 12.152 14.7673C13.664 16.6153 15.152 18.4873 16.568 20.4313C16.904 20.8873 16.904 21.3673 16.664 21.8473C16.448 22.3033 16.016 22.3993 15.56 22.3993C12.56 22.3993 9.584 22.3993 6.584 22.3993C6.416 22.3993 6.176 22.4953 6.08 22.3033C5.984 22.1113 6.224 21.9913 6.344 21.8713C7.016 21.2233 7.736 20.5753 8.408 19.9273C8.624 19.7113 8.792 19.6873 9.032 19.9033C9.392 20.2393 9.824 20.3593 10.304 20.3353C11.216 20.3113 12.128 20.3353 13.16 20.3353C11.48 18.3913 9.872 16.5193 8.144 14.5273Z" fill="#CDD3D5"/>
<path d="M25.1841 21.1513C24.9921 21.4873 24.7761 21.7033 24.4881 21.8473C22.5921 22.7113 20.6721 22.5913 18.9921 21.1273C17.6001 19.9273 16.8561 18.4393 16.9521 16.5673C16.9521 16.4473 16.9521 16.3273 16.9761 16.2073C17.2881 14.5273 17.2881 14.5273 19.0161 14.5273C19.2801 14.5273 19.5441 14.5273 19.8081 14.5273C20.6481 14.5273 20.7441 14.6233 20.5761 15.4153C20.3601 16.2793 20.4321 17.1433 20.6001 17.9833C20.9601 20.0233 23.1201 21.5353 24.9921 21.0793C25.0161 21.0793 25.0641 21.1033 25.1841 21.1513Z" fill="#CDD3D5"/>
<path d="M28.424 11.7918C27.44 12.5118 26.456 13.2078 25.496 13.9038C25.328 14.0238 25.232 13.9278 25.136 13.8078C24.872 13.4238 24.464 13.4238 24.056 13.4238C22.064 13.4238 20.072 13.4238 18.056 13.4238C17.888 13.4238 17.648 13.5198 17.576 13.3038C17.528 13.1358 17.744 13.0398 17.84 12.9198C18.608 11.8878 19.592 11.5038 20.912 11.5758C23.168 11.6958 25.424 11.5998 27.68 11.5998C27.92 11.6238 28.184 11.5278 28.424 11.7918Z" fill="#CDD3D5"/>
<path d="M12.7039 11.5994C13.9279 11.5994 15.1759 11.5994 16.3999 11.5994C16.5679 11.5994 16.8079 11.5034 16.9039 11.7194C17.0239 11.9594 16.7599 12.0794 16.6399 12.1994C16.1119 12.7754 15.5599 13.3514 15.0559 13.9274C14.8159 14.2154 14.6239 14.2394 14.4079 13.9274C14.0719 13.4714 13.6399 13.3754 13.0879 13.3994C11.4559 13.4234 9.82391 13.3994 8.19191 13.4234C7.71191 13.4234 7.59191 13.2554 7.63991 12.8234C7.68791 12.0554 8.16791 11.5994 9.05591 11.5994C10.2319 11.5994 11.4559 11.5994 12.7039 11.5994Z" fill="#CDD3D5"/>
</svg>
