<svg width="34" height="34" viewBox="0 0 34 34" fill="none" xmlns="http://www.w3.org/2000/svg">
<rect width="34" height="34" rx="17" fill="#173552"/>
<path d="M8.144 14.5283C9.44 14.5283 10.568 14.5283 11.696 14.5283C11.912 14.5283 12.032 14.6243 12.152 14.7683C13.664 16.6163 15.152 18.4883 16.568 20.4323C16.904 20.8883 16.904 21.3683 16.664 21.8483C16.448 22.3043 16.016 22.4003 15.56 22.4003C12.56 22.4003 9.584 22.4003 6.584 22.4003C6.416 22.4003 6.176 22.4963 6.08 22.3043C5.984 22.1123 6.224 21.9923 6.344 21.8723C7.016 21.2243 7.736 20.5763 8.408 19.9283C8.624 19.7123 8.792 19.6883 9.032 19.9043C9.392 20.2403 9.824 20.3603 10.304 20.3363C11.216 20.3123 12.128 20.3363 13.16 20.3363C11.48 18.3923 9.872 16.5203 8.144 14.5283Z" fill="#CDD3D5"/>
<path d="M25.1841 21.1523C24.9921 21.4883 24.7761 21.7043 24.4881 21.8483C22.5921 22.7123 20.6721 22.5923 18.9921 21.1283C17.6001 19.9283 16.8561 18.4403 16.9521 16.5683C16.9521 16.4483 16.9521 16.3283 16.9761 16.2083C17.2881 14.5283 17.2881 14.5283 19.0161 14.5283C19.2801 14.5283 19.5441 14.5283 19.8081 14.5283C20.6481 14.5283 20.7441 14.6243 20.5761 15.4163C20.3601 16.2803 20.4321 17.1443 20.6001 17.9843C20.9601 20.0243 23.1201 21.5363 24.9921 21.0803C25.0161 21.0803 25.0641 21.1043 25.1841 21.1523Z" fill="#CDD3D5"/>
<path d="M25.304 8.33639C24.392 8.81639 23.432 9.27239 22.616 9.92039C22.232 10.2324 21.8 10.5204 21.8 11.1204C21.8 11.3604 21.656 11.3604 21.488 11.3604C21.104 11.3604 20.72 11.3844 20.336 11.3604C19.496 11.2644 18.752 11.4084 18.176 12.1044C18.008 12.1284 17.984 12.0084 17.984 11.8884C18.008 10.8564 17.912 9.82439 18.032 8.79239C19.16 8.33639 20.264 7.90439 21.392 7.44839C21.56 7.37639 21.704 7.40039 21.872 7.42439C22.952 7.61639 24.008 7.92839 25.112 8.02439C25.136 8.02439 25.184 8.07239 25.208 8.09639C25.232 8.16839 25.376 8.19239 25.304 8.33639Z" fill="#597F99"/>
<path d="M12.44 11.2399C12.32 10.5199 11.84 10.0639 11.24 9.67992C10.424 9.12792 9.56 8.69592 8.552 8.21592C9.224 7.87992 9.848 7.85592 10.424 7.75992C11 7.68792 11.576 7.47192 12.152 7.42392C12.32 7.39992 12.488 7.30392 12.68 7.37592C13.832 7.85592 15.008 8.31192 16.16 8.79192C16.256 9.55992 16.232 10.3279 16.184 11.0959C15.296 11.2159 14.432 11.1199 13.544 11.1439C13.208 11.1919 12.824 11.1439 12.44 11.2399Z" fill="#597F99"/>
<path d="M28.424 11.7918C27.44 12.5118 26.456 13.2078 25.496 13.9038C25.328 14.0238 25.232 13.9278 25.136 13.8078C24.872 13.4238 24.464 13.4238 24.056 13.4238C22.064 13.4238 20.072 13.4238 18.056 13.4238C17.888 13.4238 17.648 13.5198 17.576 13.3038C17.528 13.1358 17.744 13.0398 17.84 12.9198C18.608 11.8878 19.592 11.5038 20.912 11.5758C23.168 11.6958 25.424 11.5998 27.68 11.5998C27.92 11.6238 28.184 11.5278 28.424 11.7918Z" fill="#CDD3D5"/>
<path d="M12.7039 11.6004C13.9279 11.6004 15.1759 11.6004 16.3999 11.6004C16.5679 11.6004 16.8079 11.5044 16.9039 11.7204C17.0239 11.9604 16.7599 12.0804 16.6399 12.2004C16.1119 12.7764 15.5599 13.3524 15.0559 13.9284C14.8159 14.2164 14.6239 14.2404 14.4079 13.9284C14.0719 13.4724 13.6399 13.3764 13.0879 13.4004C11.4559 13.4244 9.82391 13.4004 8.19191 13.4244C7.71191 13.4244 7.59191 13.2564 7.63991 12.8244C7.68791 12.0564 8.16791 11.6004 9.05591 11.6004C10.2319 11.6004 11.4559 11.6004 12.7039 11.6004Z" fill="#CDD3D5"/>
<path d="M18.1521 20.9355C19.0401 21.7755 20.0241 22.4715 21.2721 22.6395C21.7041 22.6875 21.8001 22.9035 21.7521 23.2875C21.6801 23.6955 21.5361 24.0795 21.2961 24.3915C20.3841 25.5915 19.3281 26.5995 18.0081 27.3435C17.8881 26.7915 17.9601 26.2155 17.9601 25.6635C17.9361 24.2475 17.9601 22.8075 17.9601 21.3915C17.9601 21.2475 17.8161 20.9835 18.1521 20.9355Z" fill="#597F99"/>
<path d="M16.2081 27.2476C16.1841 27.3436 16.0881 27.3916 16.0401 27.3436C14.6001 26.3356 13.1841 25.3036 12.4641 23.5996C12.5361 23.4796 12.5361 23.3596 12.5121 23.2396C12.4641 22.8796 12.6321 22.8076 12.9681 22.8076C13.8561 22.8316 14.7441 22.8316 15.6081 22.8076C16.0161 22.7836 16.1601 22.9036 16.1601 23.3356C16.1361 24.4396 16.1361 25.5436 16.1601 26.6476C16.1361 26.8636 16.0881 27.0556 16.2081 27.2476Z" fill="#597F99"/>
<path d="M15.872 18.8719C14.768 17.4799 13.64 16.0639 12.536 14.6719C12.392 14.4799 12.32 14.2639 12.392 14.0479C12.488 13.7839 12.728 13.9279 12.92 13.9039C13.4 13.8559 13.832 13.8799 14.144 14.4079C14.336 14.7439 14.768 14.7679 15.08 14.4559C15.368 14.1679 15.656 13.8559 15.944 13.5439C16.256 13.5679 16.208 13.8079 16.208 13.9759C16.208 15.4879 16.232 16.9759 16.208 18.4879C16.184 18.6559 16.256 18.9679 15.872 18.8719Z" fill="#597F99"/>
<path d="M20.912 17.0964C20.768 16.7364 20.768 16.3524 20.912 15.9684C21.056 15.7284 21.008 15.4884 20.96 15.2484C20.984 14.8644 21.152 14.4324 20.696 14.1684C19.976 14.0004 19.232 14.1444 18.512 14.0964C18.296 14.0724 18.056 14.1684 17.936 13.9284C18.008 13.7364 18.176 13.8084 18.296 13.8084C19.352 13.8084 20.384 13.8084 21.44 13.8084C21.56 13.8084 21.728 13.7124 21.8 13.9284C21.704 15.4884 21.8 17.0724 21.752 18.6324C21.752 18.8004 21.92 19.0884 21.56 19.1364C21.224 18.7524 21.104 18.2724 21.008 17.7924C20.984 17.5524 21.08 17.3124 20.912 17.0964Z" fill="#597F99"/>
<path d="M25.3041 8.33613C25.2561 8.24013 25.2321 8.16813 25.1841 8.07213C25.3041 8.07213 25.4481 8.02413 25.4961 8.16813C25.5201 8.31213 25.4001 8.33613 25.3041 8.33613Z" fill="#9EBACA"/>
</svg>
