<svg width="34" height="34" viewBox="0 0 34 34" fill="none" xmlns="http://www.w3.org/2000/svg">
<rect width="34" height="34" rx="17" fill="#5A482C"/>
<path d="M19.6624 7.16039C24.299 8.34449 27.7275 12.5492 27.7275 17.5548C27.7275 17.669 27.7251 17.7827 27.7215 17.8961L20.5061 16.8696C20.2948 15.7824 19.5907 14.8719 18.6354 14.3789L19.6624 7.16039ZM13.8242 15.9191C14.3171 14.9639 15.2276 14.2598 16.3148 14.0486L17.3412 6.83309C17.2277 6.82955 17.1142 6.82715 16.9999 6.82715C11.9944 6.82715 7.7898 10.2555 6.60564 14.8922L13.8242 15.9191ZM15.3643 20.7305C14.4092 20.2375 13.705 19.327 13.4938 18.2398L6.2784 17.2135C6.27486 17.327 6.27246 17.4405 6.27246 17.5548C6.27246 22.5602 9.70086 26.7649 14.3375 27.949L15.3643 20.7305ZM20.1758 19.1903C19.6828 20.1455 18.7723 20.8496 17.6851 21.061L16.6586 28.2764C16.772 28.2801 16.8857 28.2825 17 28.2825C22.0055 28.2825 26.2102 24.8538 27.3943 20.2173L20.1758 19.1903Z" fill="black"/>
<path d="M19.7189 6.59887C24.3554 7.78297 27.7841 11.9876 27.7841 16.9933C27.7841 17.1075 27.7817 17.2212 27.778 17.3345L20.5626 16.3082C20.3513 15.221 19.6472 14.3105 18.692 13.8175L19.7189 6.59887ZM13.8808 15.3576C14.3738 14.4024 15.2843 13.6983 16.3715 13.487L17.3979 6.27157C17.2845 6.26803 17.1709 6.26562 17.0566 6.26562C12.0511 6.26562 7.8465 9.69403 6.66234 14.3307L13.8808 15.3576ZM15.421 20.1691C14.4658 19.676 13.7617 18.7655 13.5505 17.6783L6.33504 16.6519C6.3315 16.7653 6.3291 16.879 6.3291 16.9933C6.3291 21.9987 9.7575 26.2033 14.3941 27.3875L15.421 20.1691ZM20.2324 18.6289C19.7393 19.5841 18.8288 20.2881 17.7416 20.4994L16.7152 27.715C16.8286 27.7186 16.9423 27.721 17.0565 27.721C22.0621 27.721 26.2667 24.2924 27.4507 19.6558L20.2324 18.6289Z" fill="url(#paint0_linear_90_12661)"/>
<path d="M19.7189 6.59887C24.3554 7.78297 27.7841 11.9876 27.7841 16.9933C27.7841 17.1075 27.7817 17.2212 27.778 17.3345L20.5626 16.3082C20.3513 15.221 19.6472 14.3105 18.692 13.8175L19.7189 6.59887ZM13.8808 15.3576C14.3738 14.4024 15.2843 13.6983 16.3715 13.487L17.3979 6.27157C17.2845 6.26803 17.1709 6.26562 17.0566 6.26562C12.0511 6.26562 7.8465 9.69403 6.66234 14.3307L13.8808 15.3576ZM15.421 20.1691C14.4658 19.676 13.7617 18.7655 13.5505 17.6783L6.33504 16.6519C6.3315 16.7653 6.3291 16.879 6.3291 16.9933C6.3291 21.9987 9.7575 26.2033 14.3941 27.3875L15.421 20.1691ZM20.2324 18.6289C19.7393 19.5841 18.8288 20.2881 17.7416 20.4994L16.7152 27.715C16.8286 27.7186 16.9423 27.721 17.0565 27.721C22.0621 27.721 26.2667 24.2924 27.4507 19.6558L20.2324 18.6289Z" fill="url(#paint1_radial_90_12661)"/>
<defs>
<linearGradient id="paint0_linear_90_12661" x1="19.4338" y1="27.4566" x2="14.6794" y2="6.52997" gradientUnits="userSpaceOnUse">
<stop stop-color="#5D1F0E"/>
<stop offset="1" stop-color="#D09737"/>
</linearGradient>
<radialGradient id="paint1_radial_90_12661" cx="0" cy="0" r="1" gradientUnits="userSpaceOnUse" gradientTransform="translate(8.20989 7.10024) rotate(12.2044) scale(18.2791 10.9426)">
<stop stop-color="white" stop-opacity="0"/>
<stop offset="0.4657" stop-color="white" stop-opacity="0.0804"/>
<stop offset="0.9861" stop-color="white" stop-opacity="0.2143"/>
<stop offset="1" stop-color="white" stop-opacity="0"/>
</radialGradient>
</defs>
</svg>
