<svg width="48" height="48" viewBox="0 0 48 48" fill="none" xmlns="http://www.w3.org/2000/svg">
<g clip-path="url(#clip0_11_92)">
<path d="M27.6485 24.972L17.4464 14.784C17.3353 14.6728 17.2032 14.5845 17.0579 14.5243C16.9125 14.4641 16.7566 14.4331 16.5993 14.4331C16.4419 14.4331 16.2861 14.4641 16.1407 14.5243C15.9953 14.5845 15.8633 14.6728 15.7521 14.784L12.3514 18.18C12.24 18.291 12.1516 18.4229 12.0913 18.5681C12.031 18.7132 12 18.8688 12 19.026C12 19.1832 12.031 19.3388 12.0913 19.4839C12.1516 19.6291 12.24 19.761 12.3514 19.872L22.5535 30.06C23.0221 30.528 23.7792 30.528 24.2478 30.06L27.6485 26.664C27.7599 26.553 27.8483 26.4211 27.9086 26.276C27.9689 26.1308 27.9999 25.9752 27.9999 25.818C27.9999 25.6608 27.9689 25.5052 27.9086 25.3601C27.8483 25.2149 27.7599 25.083 27.6485 24.972ZM28.4957 29.2104L26.7965 30.9072L31.8939 36L33.5943 34.3032L28.4957 29.2104ZM31.7942 20.4C32.3465 20.4 32.8934 20.2914 33.4037 20.0803C33.914 19.8692 34.3776 19.5599 34.7682 19.1698C35.1587 18.7798 35.4685 18.3168 35.6799 17.8073C35.8912 17.2977 36 16.7516 36 16.2C36 15.6484 35.8912 15.1023 35.6799 14.5927C35.4685 14.0832 35.1587 13.6202 34.7682 13.2302C34.3776 12.8401 33.914 12.5308 33.4037 12.3197C32.8934 12.1086 32.3465 12 31.7942 12C30.6788 12 29.609 12.4425 28.8203 13.2302C28.0315 14.0178 27.5884 15.0861 27.5884 16.2C27.5884 17.3139 28.0315 18.3822 28.8203 19.1698C29.609 19.9575 30.6788 20.4 31.7942 20.4Z" fill="white"/>
</g>
<defs>
<clipPath id="clip0_11_92">
<rect width="24" height="24" fill="white" transform="translate(12 12)"/>
</clipPath>
</defs>
</svg>
