<svg width="48" height="48" viewBox="0 0 48 48" fill="none" xmlns="http://www.w3.org/2000/svg">
<path d="M27.9396 20.0172C27.9389 19.519 27.7315 19.0413 27.3628 18.689C26.994 18.3366 26.4941 18.1384 25.9726 18.1378H14.7287L12 25.9574L26.5385 21.8165C26.9425 21.6988 27.2964 21.4606 27.5485 21.1369C27.8006 20.8131 27.9376 20.4208 27.9396 20.0172Z" fill="white"/>
<path d="M35.9815 15.6584C35.9581 15.5589 35.9142 15.4648 35.8525 15.3817C35.7908 15.2985 35.7124 15.2279 35.6219 15.1739C23.6558 8.03517 16.8432 14.9343 15.4486 16.5973H25.9726C26.8318 16.5973 27.6624 16.8927 28.3126 17.4294C28.9628 17.9662 29.3892 18.7086 29.5139 19.5209C29.6386 20.3333 29.4533 21.1614 28.9918 21.8539C28.5303 22.5465 27.8235 23.0573 27.0004 23.2931L12.0975 27.5349L13.4679 31.4732C13.5039 31.5764 13.5623 31.6712 13.6394 31.7512C13.7165 31.8313 13.8105 31.8948 13.9151 31.9377C14.0197 31.9806 14.1327 32.0018 14.2465 31.9999C14.3604 31.998 14.4725 31.9731 14.5755 31.9269C20.7214 29.1732 30.1338 30.532 30.2313 30.5458C30.3524 30.5628 30.4759 30.5537 30.5928 30.5192C30.7097 30.4847 30.817 30.4256 30.9069 30.3463C35.4808 26.2455 34.6957 19.8924 34.4305 18.3812L35.8702 16.2414C35.9281 16.1561 35.9678 16.0606 35.9869 15.9605C36.006 15.8605 36.0041 15.7578 35.9815 15.6584Z" fill="white"/>
</svg>
