<svg width="48" height="48" viewBox="0 0 48 48" fill="none" xmlns="http://www.w3.org/2000/svg">
<path d="M13.2475 36H15.9387L14.4449 30.888H13.2821C12.4103 30.888 11.7969 31.7451 12.0782 32.5703L13.2475 36ZM30.0072 18.6766H26.6376L20.5047 30.888H15.9101L17.4039 36H22.2658L30.0072 18.6766ZM15.0092 12L17.3643 17.2702H20.656L18.0092 12H15.0092Z" fill="white"/>
<path d="M21.3221 26.1268L23.2131 22.3616L21.3624 18.6766H17.9928L21.3221 26.1268ZM34.7178 30.888H33.5053L32.0115 36H34.7525L35.9218 32.5703C36.2031 31.7451 35.5897 30.888 34.7178 30.888ZM30.5463 36L32.0401 30.888H27.4953L26.752 29.408L24.7702 33.8428L25.7342 36H30.5463ZM27.344 17.2702H30.6357L32.9908 12H29.9908L27.344 17.2702Z" fill="white"/>
</svg>
