<svg width="24" height="24" viewBox="0 0 24 24" fill="none" xmlns="http://www.w3.org/2000/svg">
<path d="M20.4853 3.51469C18.2188 1.24823 15.2053 0 12 0C8.79469 0 5.78123 1.24823 3.51469 3.51469C1.24823 5.78123 0 8.79469 0 12C0 15.2053 1.24823 18.2188 3.51469 20.4853C5.78123 22.7518 8.79469 24 12 24C15.2053 24 18.2188 22.7518 20.4853 20.4853C22.7518 18.2188 24 15.2053 24 12C24 8.79469 22.7518 5.78123 20.4853 3.51469ZM12.7031 4.26187L15.71 2.07727C17.5234 2.75752 19.1023 3.92114 20.2889 5.41078L19.1421 8.94009L15.7362 10.0467L12.7031 7.84303V4.26187ZM8.29003 2.07727L11.2969 4.26187V7.84303L8.26378 10.0467L4.85789 8.94009L3.71114 5.41078C4.89773 3.92114 6.47658 2.75752 8.29003 2.07727ZM3.17053 17.847C2.13623 16.2903 1.50244 14.446 1.41689 12.4618L4.42331 10.2775L7.8292 11.3841L8.98777 14.9497L6.8828 17.847H3.17053ZM14.8307 22.2091C13.9293 22.4594 12.9801 22.5938 12 22.5938C11.0199 22.5938 10.0707 22.4594 9.16927 22.2091L8.0205 18.6736L10.1255 15.7763H13.8745L15.9795 18.6736L14.8307 22.2091ZM17.1172 17.847L15.0122 14.9498L16.1708 11.3842L19.5767 10.2775L22.5831 12.4618C22.4976 14.4461 21.8638 16.2904 20.8295 17.847H17.1172Z" fill="white"/>
</svg>
