<svg width="56" height="56" viewBox="0 0 56 56" fill="none" xmlns="http://www.w3.org/2000/svg">
<path d="M54.8365 41.9945L35.0543 5.62997C31.876 0.279241 24.1282 0.272131 20.9456 5.62997L1.1645 41.9945C-2.08459 47.4621 1.84908 54.3857 8.21722 54.3857H47.7821C54.1449 54.3857 58.0855 47.4677 54.8365 41.9945ZM28 47.8232C26.1911 47.8232 24.7187 46.3508 24.7187 44.542C24.7187 42.7331 26.1911 41.2607 28 41.2607C29.8088 41.2607 31.2812 42.7331 31.2812 44.542C31.2812 46.3508 29.8088 47.8232 28 47.8232ZM31.2812 34.6982C31.2812 36.5071 29.8088 37.9795 28 37.9795C26.1911 37.9795 24.7187 36.5071 24.7187 34.6982V18.292C24.7187 16.4831 26.1911 15.0107 28 15.0107C29.8088 15.0107 31.2812 16.4831 31.2812 18.292V34.6982Z" fill="#F7FF13"/>
</svg>
