<svg width="40" height="40" viewBox="0 0 40 40" fill="none" xmlns="http://www.w3.org/2000/svg">
<g clipPath="url(#clip0_137_16227)">
<path fillRule="evenodd" clipRule="evenodd" d="M4.60105 35.3989C9.65936 40.4573 20.85 38.0489 29.4496 29.4498C38.0492 20.8496 40.4571 9.65901 35.3988 4.60071C30.3405 -0.457596 19.1499 1.95079 10.5507 10.5499C1.95113 19.15 -0.456758 30.3406 4.60155 35.3989H4.60105ZM3.20185 36.7981C-2.7909 30.8074 -0.127127 18.4289 9.15105 9.15071C18.4287 -0.126975 30.8072 -2.79075 36.7985 3.20151C42.7908 9.19278 40.127 21.5713 30.8493 30.8489C21.5716 40.1266 9.19312 42.7904 3.20185 36.7981Z" fill="currentColor"/>
<path opacity="0.2" fillRule="evenodd" clipRule="evenodd" d="M3.20175 36.7985C9.19302 42.7908 21.5715 40.127 30.8492 30.8493C40.1269 21.5716 42.7907 9.19312 36.7984 3.20185C30.8076 -2.7909 18.4291 -0.127127 9.15095 9.15105C-0.126731 18.4287 -2.79051 30.8072 3.20175 36.7985Z" fill="currentColor"/>
<path fillRule="evenodd" clipRule="evenodd" d="M19.3667 22.1333C19.4667 22.0329 19.9211 21.4325 20.077 21.4231C20.2799 21.4107 21.0248 22.3645 21.1807 22.5189C21.6113 22.9505 22.1112 23.4974 22.7744 23.0851C24.1493 22.2358 22.0008 20.6757 21.4103 20.0892L25.703 15.7966C26.1583 16.2549 26.6038 16.7271 27.0754 17.1691C27.7327 17.7877 29.078 17.6328 28.8147 16.4578C28.7216 16.0396 28.2935 15.7214 28.003 15.4313L26.4251 13.8525C25.8881 13.3154 25.353 12.7784 24.8165 12.2439C24.5245 11.9509 24.1622 11.4619 23.744 11.351C22.5527 11.0372 22.3809 12.431 23.0016 13.0907C23.4436 13.5634 23.9172 14.0074 24.3735 14.4637C23.6767 15.1586 22.9813 15.8545 22.2849 16.5509C21.8023 17.031 21.3207 17.513 20.8397 17.9946C20.7125 18.1194 20.272 18.7257 20.0903 18.7435C19.8874 18.7613 19.2469 17.9238 19.0806 17.7595C18.5892 17.2705 17.9175 16.5098 17.2098 17.221C16.253 18.1812 18.1432 19.4879 18.7416 20.0867L15.9155 22.9129C15.5265 23.3009 15.1018 23.9037 14.6321 24.1957C14.2668 24.4209 14.2787 24.2096 13.9095 23.8404C13.4987 23.4296 12.8983 22.5704 12.2524 22.5704C11.2358 22.5704 11.1561 23.68 11.6803 24.2744C12.5415 25.2505 13.5383 26.1329 14.4589 27.053C15.0414 27.6336 16.3723 29.5253 17.3182 28.5775C18.2764 27.6212 16.3867 26.3106 15.7888 25.7118L17.9349 23.5652L19.3667 22.1333Z" fill="currentColor"/>
</g>
<defs>
<clipPath id="clip0_137_16227">
<rect width="40" height="40" fill="currentColor"/>
</clipPath>
</defs>
</svg>
