<svg width="16" height="16" viewBox="0 0 16 16" fill="none" xmlns="http://www.w3.org/2000/svg">
<path d="M14.5006 7.25H14.4999C14.4015 7.25008 14.3039 7.26956 14.213 7.30733C14.122 7.3451 14.0394 7.40042 13.9698 7.47012C13.9002 7.53983 13.845 7.62256 13.8074 7.71359C13.7698 7.80462 13.7505 7.90216 13.7506 8.00066C13.7496 9.05213 13.4605 10.0832 12.9146 10.9819C12.3687 11.8805 11.5869 12.6123 10.6542 13.0978C9.72144 13.5832 8.67351 13.8037 7.62427 13.7353C6.57502 13.6669 5.56461 13.3121 4.70285 12.7097C2.10598 10.8913 1.47257 7.29916 3.29095 4.70225C5.10932 2.10534 8.70148 1.47188 11.2984 3.29031C11.6912 3.56469 12.0483 3.88708 12.3612 4.25H10.2506C10.0517 4.25 9.86093 4.32902 9.72027 4.46967C9.57962 4.61032 9.5006 4.80109 9.5006 5C9.5006 5.19891 9.57962 5.38968 9.72027 5.53033C9.86093 5.67098 10.0517 5.75 10.2506 5.75H13.7506C13.9495 5.75 14.1403 5.67098 14.2809 5.53033C14.4216 5.38968 14.5006 5.19891 14.5006 5V1.5C14.5006 1.30109 14.4216 1.11032 14.2809 0.96967C14.1403 0.829018 13.9495 0.75 13.7506 0.75C13.5517 0.75 13.3609 0.829018 13.2203 0.96967C13.0796 1.11032 13.0006 1.30109 13.0006 1.5V2.74897C12.7374 2.49925 12.456 2.26945 12.1587 2.06147C11.3789 1.51542 10.4991 1.12832 9.56966 0.922267C8.64021 0.716217 7.67928 0.695254 6.74173 0.860574C5.80417 1.02589 4.90836 1.37426 4.10544 1.88578C3.30252 2.3973 2.60822 3.06196 2.06217 3.84181C0.959367 5.41679 0.527392 7.36534 0.861271 9.25881C1.19515 11.1523 2.26753 12.8356 3.84251 13.9384C5.05511 14.7925 6.50201 15.2511 7.98523 15.2513C8.41243 15.2511 8.8388 15.2137 9.25948 15.1393C10.938 14.8432 12.4586 13.9652 13.5542 12.6595C14.6499 11.3538 15.2505 9.70383 15.2506 7.99934C15.2504 7.80055 15.1713 7.60996 15.0307 7.46945C14.8901 7.32894 14.6994 7.25001 14.5006 7.25Z" fill="#FFFFFF"/>
</svg>
