<svg width="16" height="12" viewBox="0 0 16 12" fill="none" xmlns="http://www.w3.org/2000/svg">
<path d="M15.7546 5.31908C13.8612 3.03105 10.995 0.828613 8.00003 0.828613C5.00444 0.828613 2.13764 3.03259 0.245476 5.31908C-0.0818254 5.71443 -0.0818254 6.28836 0.245476 6.68371C0.721187 7.25857 1.71849 8.36825 3.05048 9.33784C6.40506 11.7799 9.58761 11.7853 12.9496 9.33784C14.2816 8.36825 15.2789 7.25857 15.7546 6.68371C16.0809 6.28913 16.0826 5.71572 15.7546 5.31908ZM8.00003 2.55287C9.90164 2.55287 11.4486 4.09978 11.4486 6.0014C11.4486 7.90301 9.90164 9.44992 8.00003 9.44992C6.09842 9.44992 4.55151 7.90301 4.55151 6.0014C4.55151 4.09978 6.09842 2.55287 8.00003 2.55287Z" fill="#FFFFFF"/>
</svg>
