<svg width="20" height="20" viewBox="0 0 20 20" fill="none" xmlns="http://www.w3.org/2000/svg">
<g id="lock icon" clip-path="url(#clip0_90_12539)">
<g id="Group">
<path id="Vector" fill-rule="evenodd" clip-rule="evenodd" d="M9.99996 2.85714C9.2422 2.85714 8.51548 3.15816 7.97966 3.69398C7.44384 4.2298 7.14282 4.95652 7.14282 5.71429V7.14286H12.8571V5.71429C12.8571 4.95652 12.5561 4.2298 12.0203 3.69398C11.4845 3.15816 10.7577 2.85714 9.99996 2.85714ZM4.28568 5.71429V7.14286C3.71736 7.14286 3.17231 7.36862 2.77045 7.77049C2.36859 8.17235 2.14282 8.71739 2.14282 9.28571V17.8571C2.14282 18.4255 2.36859 18.9705 2.77045 19.3724C3.17231 19.7742 3.71736 20 4.28568 20H15.7142C16.2826 20 16.8276 19.7742 17.2295 19.3724C17.6313 18.9705 17.8571 18.4255 17.8571 17.8571V9.28571C17.8571 8.71739 17.6313 8.17235 17.2295 7.77049C16.8276 7.36862 16.2826 7.14286 15.7142 7.14286V5.71429C15.7142 4.19876 15.1122 2.74531 14.0406 1.67368C12.9689 0.602039 11.5155 0 9.99996 0C8.48444 0 7.03099 0.602039 5.95935 1.67368C4.88772 2.74531 4.28568 4.19876 4.28568 5.71429ZM9.99996 15.3571C10.2345 15.3571 10.4667 15.311 10.6833 15.2212C10.9 15.1315 11.0968 14.9999 11.2627 14.8341C11.4285 14.6683 11.56 14.4714 11.6497 14.2548C11.7395 14.0381 11.7857 13.8059 11.7857 13.5714C11.7857 13.3369 11.7395 13.1047 11.6497 12.8881C11.56 12.6714 11.4285 12.4746 11.2627 12.3087C11.0968 12.1429 10.9 12.0114 10.6833 11.9216C10.4667 11.8319 10.2345 11.7857 9.99996 11.7857C9.52636 11.7857 9.07216 11.9739 8.73727 12.3087C8.40239 12.6436 8.21425 13.0978 8.21425 13.5714C8.21425 14.045 8.40239 14.4992 8.73727 14.8341C9.07216 15.169 9.52636 15.3571 9.99996 15.3571Z" fill="#666666"/>
</g>
</g>
<defs>
<clipPath id="clip0_90_12539">
<rect width="20" height="20" fill="white"/>
</clipPath>
</defs>
</svg>
