<svg width="24" height="24" viewBox="0 0 24 24" fill="none" xmlns="http://www.w3.org/2000/svg">
<path id="Vector" d="M20.2842 18.075H18.728V6.8322C18.728 3.48016 16.0009 0.753024 12.6488 0.753024H10.0306L9.4834 0.205945C9.20885 -0.0686484 8.76363 -0.0686484 8.48904 0.205945C8.21445 0.480539 8.21445 0.925711 8.48904 1.20035L8.74498 1.45629L3.21823 6.98412C3.09857 7.10379 3.02609 7.26262 3.0141 7.43143C3.0021 7.60023 3.0514 7.76771 3.15293 7.9031L5.41231 10.9157C5.50087 11.0337 5.62431 11.1209 5.76517 11.1649C5.90602 11.2089 6.05714 11.2074 6.19713 11.1608L9.79038 9.96302V11.7871L6.89595 16.1287C6.81894 16.2442 6.77785 16.3799 6.77787 16.5187V18.0749H5.22171C4.8334 18.0749 4.51859 18.3897 4.51859 18.7781V23.2969C4.51859 23.6853 4.8334 24 5.22171 24H20.2842C20.6725 24 20.9873 23.6853 20.9873 23.2969V18.7781C20.9874 18.3898 20.6726 18.075 20.2842 18.075Z" fill="currentColor"/>

</svg>
