<svg width="34" height="34" viewBox="0 0 34 34" fill="none" xmlns="http://www.w3.org/2000/svg">
<rect width="34" height="34" rx="17" fill="#3F3F3F"/>
<path d="M11.6006 18.6846H13.5898C13.5625 19.432 13.4121 20.0632 13.1387 20.5781C12.8652 21.0885 12.4756 21.4759 11.9697 21.7402C11.4684 22.0046 10.8623 22.1367 10.1514 22.1367C9.59993 22.1367 9.11003 22.0456 8.68164 21.8633C8.25326 21.6764 7.88867 21.403 7.58789 21.043C7.28711 20.6829 7.05924 20.2386 6.9043 19.71C6.75391 19.1768 6.67871 18.5638 6.67871 17.8711V16.1826C6.67871 15.4899 6.75846 14.877 6.91797 14.3438C7.08203 13.8105 7.31445 13.3639 7.61523 13.0039C7.92057 12.6393 8.28743 12.3659 8.71582 12.1836C9.14876 11.9967 9.63639 11.9033 10.1787 11.9033C10.9033 11.9033 11.5094 12.04 11.9971 12.3135C12.4847 12.5869 12.8607 12.9857 13.125 13.5098C13.3939 14.0293 13.5557 14.665 13.6104 15.417H11.6143C11.6006 14.943 11.5459 14.5716 11.4502 14.3027C11.359 14.0293 11.2132 13.8379 11.0127 13.7285C10.8122 13.6146 10.5342 13.5576 10.1787 13.5576C9.91439 13.5576 9.68652 13.6055 9.49512 13.7012C9.30371 13.7923 9.14648 13.9404 9.02344 14.1455C8.90039 14.3506 8.80924 14.6195 8.75 14.9521C8.69531 15.2848 8.66797 15.6904 8.66797 16.1689V17.8711C8.66797 18.3405 8.69303 18.7415 8.74316 19.0742C8.79329 19.4023 8.87305 19.6712 8.98242 19.8809C9.0918 20.0905 9.23991 20.2432 9.42676 20.3389C9.61816 20.4346 9.8597 20.4824 10.1514 20.4824C10.4886 20.4824 10.7598 20.4323 10.9648 20.332C11.1745 20.2318 11.3294 20.0518 11.4297 19.792C11.5299 19.5322 11.5869 19.1631 11.6006 18.6846ZM14.5205 19.0879V18.5781C14.5205 18.0859 14.5811 17.6504 14.7021 17.2715C14.8232 16.8926 14.9951 16.5762 15.2178 16.3223C15.4443 16.0645 15.71 15.8711 16.0146 15.7422C16.3193 15.6094 16.6553 15.543 17.0225 15.543C17.3975 15.543 17.7373 15.6094 18.042 15.7422C18.3506 15.8711 18.6162 16.0645 18.8389 16.3223C19.0654 16.5762 19.2393 16.8926 19.3604 17.2715C19.4814 17.6504 19.542 18.0859 19.542 18.5781V19.0879C19.542 19.5801 19.4814 20.0156 19.3604 20.3945C19.2393 20.7734 19.0654 21.0918 18.8389 21.3496C18.6162 21.6035 18.3525 21.7949 18.0479 21.9238C17.7432 22.0527 17.4053 22.1172 17.0342 22.1172C16.667 22.1172 16.3291 22.0527 16.0205 21.9238C15.7158 21.7949 15.4502 21.6035 15.2236 21.3496C14.9971 21.0918 14.8232 20.7734 14.7021 20.3945C14.5811 20.0156 14.5205 19.5801 14.5205 19.0879ZM15.8857 18.5781V19.0879C15.8857 19.4043 15.9131 19.6816 15.9678 19.9199C16.0225 20.1543 16.1006 20.3496 16.2021 20.5059C16.3037 20.6621 16.4248 20.7793 16.5654 20.8574C16.7061 20.9355 16.8623 20.9746 17.0342 20.9746C17.2256 20.9746 17.3916 20.9355 17.5322 20.8574C17.6768 20.7793 17.7959 20.6621 17.8896 20.5059C17.9873 20.3496 18.0596 20.1543 18.1064 19.9199C18.1533 19.6816 18.1768 19.4043 18.1768 19.0879V18.5781C18.1768 18.2656 18.1494 17.9922 18.0947 17.7578C18.04 17.5195 17.9619 17.3223 17.8604 17.166C17.7588 17.0059 17.6357 16.8867 17.4912 16.8086C17.3506 16.7305 17.1943 16.6914 17.0225 16.6914C16.8545 16.6914 16.7002 16.7305 16.5596 16.8086C16.4229 16.8867 16.3037 17.0059 16.2021 17.166C16.1006 17.3223 16.0225 17.5195 15.9678 17.7578C15.9131 17.9922 15.8857 18.2656 15.8857 18.5781ZM23.4385 22H21.6816L21.6953 20.3457H23.4385C23.9215 20.3457 24.2975 20.2591 24.5664 20.0859C24.8353 19.9128 25.0244 19.6393 25.1338 19.2656C25.2477 18.8919 25.3047 18.402 25.3047 17.7959V16.2441C25.3047 15.7839 25.2751 15.3942 25.2158 15.0752C25.1566 14.7516 25.0563 14.4919 24.915 14.2959C24.7738 14.0954 24.5846 13.9473 24.3477 13.8516C24.1107 13.7559 23.8167 13.708 23.4658 13.708H21.6475V12.0469H23.4658C24.04 12.0469 24.5618 12.1403 25.0312 12.3271C25.5007 12.514 25.904 12.7874 26.2412 13.1475C26.5785 13.5029 26.8382 13.9427 27.0205 14.4668C27.2028 14.9909 27.2939 15.5879 27.2939 16.2578V17.7959C27.2939 18.4704 27.2028 19.0674 27.0205 19.5869C26.8382 20.1064 26.5785 20.5462 26.2412 20.9062C25.9085 21.2617 25.5052 21.5329 25.0312 21.7197C24.5573 21.9066 24.0264 22 23.4385 22ZM22.8438 12.0469V22H20.8408V12.0469H22.8438Z" fill="#B7B7B7"/>
</svg>
