<svg width="14" height="14" viewBox="0 0 14 14" fill="none" xmlns="http://www.w3.org/2000/svg">
<path d="M12 0H4C3.26467 0 2.66667 0.598 2.66667 1.33333V2.66667H1.33333C0.598 2.66667 0 3.26467 0 4V12C0 12.7353 0.598 13.3333 1.33333 13.3333H9.33333C10.0687 13.3333 10.6667 12.7353 10.6667 12V10.6667H12C12.7353 10.6667 13.3333 10.0687 13.3333 9.33333V1.33333C13.3333 0.598 12.7353 0 12 0ZM9.33333 12H1.33333V4H2.66667V9.33333C2.66667 10.0687 3.26467 10.6667 4 10.6667H9.33333V12ZM11.998 9.33333H4V1.33333H12L11.998 9.33333Z" fill="white"/>
</svg>
