<svg width="34" height="34" viewBox="0 0 34 34" fill="none" xmlns="http://www.w3.org/2000/svg">
<rect width="34" height="34" rx="17" fill="#DE9B35"/>
<path d="M16.5248 7.43008V8.15585H16.9787L17.6312 7.79297V7.24138H17.8014V7.70588H18.1844V7.99619H23.0496V8.14134H23.234V7.22687H23.4184V8.14134H23.7447V8.48971H25.1631V8.33004H25.305V8.51874H26V8.80905H25.078V8.69293H23.7589V8.82356H23.0496V9.07033H20.9645L20.2128 9.78158L20.4397 10.9138L20.0142 11.1751C20.0142 11.1751 19.7305 13.0476 18.3688 12.8879L16.4823 11.9589L16.3404 12.5831L16.8511 13.004V15.2249L16.3404 15.8926L15.9574 15.791V16.6619C16.882 17.6117 17.5261 18.8091 17.8156 20.1166C18.0128 20.3048 18.1426 20.5552 18.1844 20.8278C18.2892 21.2547 18.337 21.6942 18.3262 22.1342C18.1959 22.6573 18.1152 23.192 18.0851 23.7309C18.1985 24.2116 18.1738 24.7157 18.0142 25.1824V26.3727C18.212 26.7201 18.4502 27.0418 18.7234 27.3307C18.9504 27.4468 19.7021 27.6646 19.7305 27.8678V28.3903H17.8582C17.677 28.2939 17.487 28.2161 17.2908 28.1581C17.0496 28.1581 16.6241 28.4194 16.2837 28.1581C16.2169 28.0741 16.1715 27.9744 16.1517 27.868C16.1319 27.7615 16.1382 27.6517 16.1702 27.5485L16.5248 26.6775V25.3276C16.1495 24.8268 15.9723 24.1997 16.0284 23.5712C16.1277 22.5116 16.2837 22.2213 16.2695 21.931C16.2553 21.6407 16.1702 21.3939 15.9574 21.3939H15.4894L14.1844 19.4779H13.6738L13.4326 18.8828H13.2199V19.3327C12.7737 19.7424 12.4659 20.2861 12.3404 20.8859C12.3404 21.6987 12.1277 21.8003 11.9291 21.9455C11.5056 22.3145 11.2323 22.8323 11.1631 23.397C11.1815 23.9094 11.048 24.4154 10.7801 24.8486C10.5674 25.1389 10.6099 25.705 10.3688 25.8647C10.1693 25.9757 10.0024 26.1391 9.8852 26.3381C9.76802 26.5371 9.70482 26.7645 9.70213 26.9969C9.63507 27.5074 9.67374 28.0267 9.8156 28.521C9.84626 28.6399 9.84626 28.7649 9.8156 28.8839C9.51724 28.9517 9.2133 28.9906 8.9078 29C8.49646 29 8.02837 29 8 28.6952C8.11382 27.7886 8.30849 26.8946 8.58156 26.0243C8.48223 25.8155 8.42438 25.5885 8.41135 25.3566C8.48225 24.9428 8.65288 24.5537 8.9078 24.2244C8.87497 24.0177 8.87497 23.807 8.9078 23.6003C8.9078 23.4116 9.88653 21.8439 10.0851 21.452C9.94861 20.924 9.94861 20.3688 10.0851 19.8408C10.3121 19.1731 10.383 18.8973 10.3121 18.7231C10.2411 18.5489 9.98582 18.1715 10.0284 17.9973C10.0709 17.8231 10.2128 17.9247 10.2128 17.9247V17.5764H10.0142C10.0117 17.4291 10.0601 17.2857 10.151 17.1715C10.2418 17.0572 10.3692 16.9796 10.5106 16.9522C10.4619 16.4931 10.3861 16.0375 10.2837 15.5877C10.2128 15.1958 10.1844 14.4846 10.6383 14.412C10.6383 14.412 10.5674 14.0927 10.3404 14.0927C10.2231 14.0718 10.1031 14.0718 9.98582 14.0927L10.1844 11.625H11.1915C10.9622 10.7309 11.0168 9.78537 11.3475 8.92517C11.9433 7.86555 12.766 7.22687 13.5177 7.80748H13.6879L13.617 7.48815C13.4535 7.03251 13.465 6.53034 13.6493 6.08308C13.8336 5.63582 14.177 5.27682 14.6099 5.07859C14.9688 4.9775 15.3472 4.97387 15.7079 5.06805C16.0685 5.16223 16.399 5.35097 16.6667 5.61566C16.8725 5.81538 17.0058 6.08092 17.0445 6.36852C17.0831 6.65612 17.0249 6.94862 16.8794 7.19784C16.7869 7.3102 16.6633 7.39118 16.5248 7.43008Z" fill="black"/>
</svg>
