<svg width="24" height="24" viewBox="0 0 24 24" fill="none" xmlns="http://www.w3.org/2000/svg">
<path d="M23 3.34375V18.0562C23 18.2281 22.8625 18.4 22.6562 18.4H21.4531V4.89062C21.4531 4.85625 21.4187 4.7875 21.3844 4.75312L21.35 4.71875L21.3156 4.68437C21.3156 4.68437 21.2812 4.68438 21.2812 4.65H2.75312C2.75312 4.65 2.71875 4.65 2.71875 4.68437L2.68438 4.71875L2.65 4.75312C2.61563 4.7875 2.61562 4.82187 2.58125 4.89062V18.3656H1.34375C1.17188 18.3656 1 18.2281 1 18.0219V3.34375C1 3.17188 1.1375 3 1.34375 3H22.6562C22.8625 3 23 3.1375 23 3.34375Z" fill="white"/>
<path d="M18.325 7.40001V11.3531H20.8V12.0063H18.325V15.925L20.8 17.4375V18.2281L17.9125 16.4406L17.6375 16.3031V12.0063H16.3312C16.125 11.7656 15.9187 11.5594 15.6781 11.3531H17.6375V7.57188H14.5437V10.5969C14.3375 10.4938 14.0969 10.3906 13.8906 10.3219V7.60626H10.1437V10.3219C9.90312 10.3906 9.69687 10.4938 9.49062 10.5969V7.60626H6.39687V11.3875H8.35625C8.11562 11.5938 7.90937 11.8 7.70312 12.0406H6.39687V16.3031L6.15625 16.475L3.23437 18.2625V17.4719L5.70937 15.9594V12.0063H3.2V11.3531H5.675V7.40001L3.2 5.61251V5.30313H3.8875L6.12187 6.91876H9.28437L8.7 5.30313H9.42187L10.0406 6.91876H13.9937L14.6125 5.30313H15.3344L14.7156 6.91876H17.8781L20.1125 5.30313H20.8V5.61251L18.325 7.40001Z" fill="white"/>
<path d="M16.95 14.7562V14.6875C16.95 14.6531 16.95 14.5844 16.9156 14.55C16.7094 13.5531 16.1937 12.6937 15.4719 12.0062C15.4031 11.9375 15.3344 11.8687 15.2312 11.8C15.2312 11.7656 15.1969 11.7656 15.1625 11.7656C15.1625 11.7656 15.1281 11.7656 15.1281 11.7312C14.9906 11.6281 14.8531 11.525 14.6812 11.4219C14.6469 11.3875 14.6125 11.3875 14.5781 11.3531C14.5781 11.3531 14.5437 11.3187 14.5094 11.3187C14.3031 11.1812 14.0625 11.0781 13.8562 10.975C13.4781 10.8375 13.1 10.7 12.6875 10.6656H12.6187C12.0687 10.5969 11.4844 10.6312 10.9344 10.7344C10.6594 10.8031 10.3844 10.8719 10.1437 10.975C9.90312 11.0781 9.69687 11.1812 9.49062 11.3187C9.45625 11.3187 9.45625 11.3531 9.42187 11.3531C9.42187 11.3531 9.3875 11.3531 9.3875 11.3875C9.35312 11.3875 9.35312 11.4219 9.31875 11.4219C9.04375 11.5937 8.80312 11.8 8.5625 12.0062C8.2875 12.2812 8.0125 12.5906 7.80625 12.9344C7.70312 13.1062 7.6 13.2781 7.53125 13.45V13.4844C7.53125 13.4844 7.53125 13.5187 7.49687 13.5187C7.15312 14.2406 6.98125 14.9969 7.01562 15.7875C7.01562 15.9937 7.05 16.2344 7.08437 16.4406C7.08437 16.5437 7.11875 16.6125 7.15312 16.7156C7.15312 16.7844 7.1875 16.8187 7.1875 16.8531C7.1875 16.8875 7.1875 16.8875 7.22187 16.9219C7.4625 17.8156 7.90937 18.6062 8.59687 19.2594L8.63125 19.2937C8.8375 19.5 9.1125 19.7062 9.35312 19.8781C10.1781 20.3937 11.1062 20.6687 12.0344 20.6687C12.4125 20.6687 12.7562 20.6344 13.1344 20.5656C13.5812 20.4625 13.9937 20.325 14.4062 20.0844C14.4406 20.0844 14.4406 20.05 14.475 20.05C15.1969 19.6375 15.85 19.0875 16.2969 18.3656C16.4687 18.0906 16.6062 17.8156 16.7094 17.5406C16.7094 17.5062 16.7437 17.5062 16.7437 17.4719C16.8812 17.1281 16.9844 16.7844 17.0187 16.4406C17.0531 16.2344 17.0875 15.9937 17.0875 15.7875C17.0531 15.4437 17.0187 15.1 16.95 14.7562ZM12.7562 11.3531C13.2031 11.4219 13.6156 11.5594 14.0281 11.8C14.0625 11.8 14.0625 11.8344 14.0969 11.8344C14.1656 11.8687 14.2687 11.9375 14.3375 11.9719H14.3719C14.475 12.0406 14.5781 12.1094 14.6469 12.1781L14.4406 13.8281L13.5469 14.3437L11.8969 13.6219L11.6906 12.625L12.7562 11.3531ZM8.32187 13.2781C8.63125 12.7969 9.04375 12.3844 9.525 12.0406L11.0375 12.7625L11.2437 13.7594L10.0406 15.1L9.04375 14.9969L8.15 13.5875C8.21875 13.4844 8.25312 13.3812 8.32187 13.2781ZM10.4875 18.2625L8.87187 18.675C8.39062 18.1937 8.04687 17.575 7.84062 16.8875L8.975 15.6844L9.97187 15.7875L10.9 17.3344L10.4875 18.2625ZM13.925 19.5687C13.6156 19.7062 13.2719 19.8437 12.9625 19.9125C12.6187 19.9812 12.275 20.0156 11.9312 20.0156L11.1406 18.5719L11.5531 17.6437L13.3062 17.2656L14.0625 17.9531L13.925 19.5687ZM16.3312 16.0281V16.0969C16.2969 16.4406 16.2281 16.75 16.125 17.0594L14.475 17.3687L13.7187 16.6812L13.8906 14.8937L14.7844 14.3781L16.3312 14.9969C16.3656 15.375 16.3656 15.7187 16.3312 16.0281Z" fill="white"/>
</svg>
