<svg width="24" height="24" viewBox="0 0 24 24" fill="none" xmlns="http://www.w3.org/2000/svg">
<path d="M21.0369 9.57824C20.9743 9.55191 20.9053 9.54472 20.8386 9.55757C20.7719 9.57042 20.7105 9.60273 20.6622 9.65043L15.9528 14.3632C14.9729 13.6749 13.8426 13.2305 12.6563 13.0673V8.3098C13.0173 8.40628 13.3894 8.45482 13.7631 8.45418C14.4586 8.43034 15.1498 8.33472 15.8256 8.16886C16.9497 7.93168 18.0119 7.70824 19.0569 8.14824C19.1091 8.1701 19.166 8.17871 19.2223 8.17331C19.2787 8.16792 19.3329 8.14867 19.38 8.1173C19.4267 8.08577 19.4648 8.04326 19.4912 7.99351C19.5176 7.94376 19.5313 7.8883 19.5313 7.83199V3.01949C19.5312 2.95201 19.5113 2.88605 19.474 2.82981C19.4367 2.77357 19.3837 2.72955 19.3216 2.70324C18.0772 2.18074 16.8569 2.43511 15.6778 2.67574C14.6156 2.89918 13.6153 3.10199 12.6184 2.7548C12.5519 2.51556 12.4012 2.30838 12.1941 2.17132C11.9871 2.03425 11.7375 1.97651 11.4913 2.0087C11.245 2.04089 11.0187 2.16085 10.8538 2.34654C10.6889 2.53223 10.5966 2.77118 10.5938 3.01949V13.0673C9.40737 13.2305 8.27714 13.6749 7.29719 14.3632L2.58782 9.65043C2.53948 9.60273 2.47809 9.57042 2.41141 9.55757C2.34473 9.54472 2.27573 9.55191 2.21313 9.57824C2.15036 9.60403 2.09662 9.64782 2.05869 9.7041C2.02076 9.76038 2.00034 9.82662 2.00001 9.89449V11.6854C1.99974 11.7307 2.00842 11.7755 2.02552 11.8174C2.04263 11.8593 2.06783 11.8974 2.09969 11.9295L10.6316 20.4614C10.6823 20.666 10.7945 20.8501 10.953 20.989C11.1116 21.1279 11.3089 21.2149 11.5184 21.2382H11.7488C11.9539 21.2124 12.1464 21.1254 12.3015 20.9887C12.4566 20.852 12.567 20.6719 12.6184 20.4717L21.1503 11.9295C21.1822 11.8974 21.2074 11.8593 21.2245 11.8174C21.2416 11.7755 21.2503 11.7307 21.25 11.6854V9.89449C21.2497 9.82662 21.2292 9.76038 21.1913 9.7041C21.1534 9.64782 21.0997 9.60403 21.0369 9.57824ZM8.78219 15.8482C9.34092 15.5143 9.95417 15.2816 10.5938 15.1607V17.6667L8.78219 15.8482ZM12.6563 15.1539C13.2958 15.2747 13.9091 15.5075 14.4678 15.8414L12.6563 17.6598V15.1539Z" fill="white"/>
</svg>
