<svg width="966" height="120" viewBox="0 0 966 120" fill="none" xmlns="http://www.w3.org/2000/svg">
<rect width="1" height="120" fill="#2E2E2E"/>
<path d="M11.333 13.2305V14.748C11.333 15.5638 11.2692 16.252 11.1416 16.8125C11.0186 17.373 10.8408 17.8242 10.6084 18.166C10.376 18.5078 10.0957 18.7562 9.76758 18.9111C9.44401 19.0615 9.07943 19.1367 8.67383 19.1367C8.35482 19.1367 8.05632 19.0889 7.77832 18.9932C7.50488 18.8975 7.25879 18.7448 7.04004 18.5352C6.82129 18.321 6.63444 18.043 6.47949 17.7012C6.32454 17.3594 6.20605 16.9447 6.12402 16.457C6.04199 15.9694 6.00098 15.3997 6.00098 14.748V13.2305C6.00098 12.4147 6.06478 11.7311 6.19238 11.1797C6.31999 10.6283 6.5 10.1862 6.73242 9.85352C6.9694 9.51628 7.24967 9.27474 7.57324 9.12891C7.90137 8.98307 8.26595 8.91016 8.66699 8.91016C8.99056 8.91016 9.28906 8.95801 9.5625 9.05371C9.84049 9.14486 10.0866 9.29297 10.3008 9.49805C10.5195 9.69857 10.7064 9.96745 10.8613 10.3047C11.0163 10.6374 11.1325 11.0452 11.21 11.5283C11.292 12.0114 11.333 12.5788 11.333 13.2305ZM10.1299 14.9531V13.0186C10.1299 12.5719 10.1094 12.18 10.0684 11.8428C10.0273 11.501 9.9681 11.2093 9.89062 10.9678C9.81315 10.7262 9.71289 10.5303 9.58984 10.3799C9.47135 10.2295 9.33464 10.1201 9.17969 10.0518C9.02474 9.97884 8.85384 9.94238 8.66699 9.94238C8.43457 9.94238 8.22721 9.99935 8.04492 10.1133C7.86719 10.2227 7.71452 10.3981 7.58691 10.6396C7.46387 10.8812 7.37044 11.1979 7.30664 11.5898C7.24284 11.9818 7.21094 12.458 7.21094 13.0186V14.9531C7.21094 15.3997 7.23145 15.7939 7.27246 16.1357C7.31803 16.4775 7.37956 16.7738 7.45703 17.0244C7.53906 17.2705 7.63932 17.4733 7.75781 17.6328C7.8763 17.7923 8.01302 17.9108 8.16797 17.9883C8.32292 18.0612 8.49154 18.0977 8.67383 18.0977C8.91536 18.0977 9.125 18.0384 9.30273 17.9199C9.48503 17.8014 9.6377 17.6169 9.76074 17.3662C9.88379 17.111 9.97493 16.7852 10.0342 16.3887C10.098 15.9876 10.1299 15.5091 10.1299 14.9531ZM18.251 13.2305V14.748C18.251 15.5638 18.1872 16.252 18.0596 16.8125C17.9365 17.373 17.7588 17.8242 17.5264 18.166C17.2939 18.5078 17.0137 18.7562 16.6855 18.9111C16.362 19.0615 15.9974 19.1367 15.5918 19.1367C15.2728 19.1367 14.9743 19.0889 14.6963 18.9932C14.4229 18.8975 14.1768 18.7448 13.958 18.5352C13.7393 18.321 13.5524 18.043 13.3975 17.7012C13.2425 17.3594 13.124 16.9447 13.042 16.457C12.96 15.9694 12.9189 15.3997 12.9189 14.748V13.2305C12.9189 12.4147 12.9827 11.7311 13.1104 11.1797C13.238 10.6283 13.418 10.1862 13.6504 9.85352C13.8874 9.51628 14.1676 9.27474 14.4912 9.12891C14.8193 8.98307 15.1839 8.91016 15.585 8.91016C15.9085 8.91016 16.207 8.95801 16.4805 9.05371C16.7585 9.14486 17.0046 9.29297 17.2188 9.49805C17.4375 9.69857 17.6243 9.96745 17.7793 10.3047C17.9342 10.6374 18.0505 11.0452 18.1279 11.5283C18.21 12.0114 18.251 12.5788 18.251 13.2305ZM17.0479 14.9531V13.0186C17.0479 12.5719 17.0273 12.18 16.9863 11.8428C16.9453 11.501 16.8861 11.2093 16.8086 10.9678C16.7311 10.7262 16.6309 10.5303 16.5078 10.3799C16.3893 10.2295 16.2526 10.1201 16.0977 10.0518C15.9427 9.97884 15.7718 9.94238 15.585 9.94238C15.3525 9.94238 15.1452 9.99935 14.9629 10.1133C14.7852 10.2227 14.6325 10.3981 14.5049 10.6396C14.3818 10.8812 14.2884 11.1979 14.2246 11.5898C14.1608 11.9818 14.1289 12.458 14.1289 13.0186V14.9531C14.1289 15.3997 14.1494 15.7939 14.1904 16.1357C14.236 16.4775 14.2975 16.7738 14.375 17.0244C14.457 17.2705 14.5573 17.4733 14.6758 17.6328C14.7943 17.7923 14.931 17.9108 15.0859 17.9883C15.2409 18.0612 15.4095 18.0977 15.5918 18.0977C15.8333 18.0977 16.043 18.0384 16.2207 17.9199C16.403 17.8014 16.5557 17.6169 16.6787 17.3662C16.8018 17.111 16.8929 16.7852 16.9521 16.3887C17.016 15.9876 17.0479 15.5091 17.0479 14.9531ZM21.1904 8.5V9.375C21.1904 9.64844 21.1471 9.93783 21.0605 10.2432C20.9785 10.5439 20.8577 10.8356 20.6982 11.1182C20.5387 11.3962 20.3428 11.64 20.1104 11.8496L19.4336 11.3506C19.6159 11.0498 19.7549 10.7422 19.8506 10.4277C19.9463 10.1087 19.9941 9.76465 19.9941 9.39551V8.5H21.1904Z" fill="#6D6D6D"/>
<path d="M11.333 105.23V106.748C11.333 107.564 11.2692 108.252 11.1416 108.812C11.0186 109.373 10.8408 109.824 10.6084 110.166C10.376 110.508 10.0957 110.756 9.76758 110.911C9.44401 111.062 9.07943 111.137 8.67383 111.137C8.35482 111.137 8.05632 111.089 7.77832 110.993C7.50488 110.897 7.25879 110.745 7.04004 110.535C6.82129 110.321 6.63444 110.043 6.47949 109.701C6.32454 109.359 6.20605 108.945 6.12402 108.457C6.04199 107.969 6.00098 107.4 6.00098 106.748V105.23C6.00098 104.415 6.06478 103.731 6.19238 103.18C6.31999 102.628 6.5 102.186 6.73242 101.854C6.9694 101.516 7.24967 101.275 7.57324 101.129C7.90137 100.983 8.26595 100.91 8.66699 100.91C8.99056 100.91 9.28906 100.958 9.5625 101.054C9.84049 101.145 10.0866 101.293 10.3008 101.498C10.5195 101.699 10.7064 101.967 10.8613 102.305C11.0163 102.637 11.1325 103.045 11.21 103.528C11.292 104.011 11.333 104.579 11.333 105.23ZM10.1299 106.953V105.019C10.1299 104.572 10.1094 104.18 10.0684 103.843C10.0273 103.501 9.9681 103.209 9.89062 102.968C9.81315 102.726 9.71289 102.53 9.58984 102.38C9.47135 102.229 9.33464 102.12 9.17969 102.052C9.02474 101.979 8.85384 101.942 8.66699 101.942C8.43457 101.942 8.22721 101.999 8.04492 102.113C7.86719 102.223 7.71452 102.398 7.58691 102.64C7.46387 102.881 7.37044 103.198 7.30664 103.59C7.24284 103.982 7.21094 104.458 7.21094 105.019V106.953C7.21094 107.4 7.23145 107.794 7.27246 108.136C7.31803 108.478 7.37956 108.774 7.45703 109.024C7.53906 109.271 7.63932 109.473 7.75781 109.633C7.8763 109.792 8.01302 109.911 8.16797 109.988C8.32292 110.061 8.49154 110.098 8.67383 110.098C8.91536 110.098 9.125 110.038 9.30273 109.92C9.48503 109.801 9.6377 109.617 9.76074 109.366C9.88379 109.111 9.97493 108.785 10.0342 108.389C10.098 107.988 10.1299 107.509 10.1299 106.953ZM18.251 105.23V106.748C18.251 107.564 18.1872 108.252 18.0596 108.812C17.9365 109.373 17.7588 109.824 17.5264 110.166C17.2939 110.508 17.0137 110.756 16.6855 110.911C16.362 111.062 15.9974 111.137 15.5918 111.137C15.2728 111.137 14.9743 111.089 14.6963 110.993C14.4229 110.897 14.1768 110.745 13.958 110.535C13.7393 110.321 13.5524 110.043 13.3975 109.701C13.2425 109.359 13.124 108.945 13.042 108.457C12.96 107.969 12.9189 107.4 12.9189 106.748V105.23C12.9189 104.415 12.9827 103.731 13.1104 103.18C13.238 102.628 13.418 102.186 13.6504 101.854C13.8874 101.516 14.1676 101.275 14.4912 101.129C14.8193 100.983 15.1839 100.91 15.585 100.91C15.9085 100.91 16.207 100.958 16.4805 101.054C16.7585 101.145 17.0046 101.293 17.2188 101.498C17.4375 101.699 17.6243 101.967 17.7793 102.305C17.9342 102.637 18.0505 103.045 18.1279 103.528C18.21 104.011 18.251 104.579 18.251 105.23ZM17.0479 106.953V105.019C17.0479 104.572 17.0273 104.18 16.9863 103.843C16.9453 103.501 16.8861 103.209 16.8086 102.968C16.7311 102.726 16.6309 102.53 16.5078 102.38C16.3893 102.229 16.2526 102.12 16.0977 102.052C15.9427 101.979 15.7718 101.942 15.585 101.942C15.3525 101.942 15.1452 101.999 14.9629 102.113C14.7852 102.223 14.6325 102.398 14.5049 102.64C14.3818 102.881 14.2884 103.198 14.2246 103.59C14.1608 103.982 14.1289 104.458 14.1289 105.019V106.953C14.1289 107.4 14.1494 107.794 14.1904 108.136C14.236 108.478 14.2975 108.774 14.375 109.024C14.457 109.271 14.5573 109.473 14.6758 109.633C14.7943 109.792 14.931 109.911 15.0859 109.988C15.2409 110.061 15.4095 110.098 15.5918 110.098C15.8333 110.098 16.043 110.038 16.2207 109.92C16.403 109.801 16.5557 109.617 16.6787 109.366C16.8018 109.111 16.8929 108.785 16.9521 108.389C17.016 107.988 17.0479 107.509 17.0479 106.953ZM21.1904 100.5V101.375C21.1904 101.648 21.1471 101.938 21.0605 102.243C20.9785 102.544 20.8577 102.836 20.6982 103.118C20.5387 103.396 20.3428 103.64 20.1104 103.85L19.4336 103.351C19.6159 103.05 19.7549 102.742 19.8506 102.428C19.9463 102.109 19.9941 101.765 19.9941 101.396V100.5H21.1904Z" fill="#6D6D6D"/>
<rect x="140" y="30" width="1" height="60" fill="#2E2E2E"/>
<path d="M137.617 8.99219V19H136.407V10.5713L134.315 11.501V10.3594L137.433 8.99219H137.617ZM142.396 14.2627L141.432 14.0029L141.855 9.04688H146.189V10.2158H142.874L142.642 12.9229C142.797 12.818 142.983 12.7201 143.202 12.6289C143.421 12.5378 143.676 12.4922 143.968 12.4922C144.36 12.4922 144.708 12.5719 145.014 12.7314C145.324 12.8864 145.586 13.1097 145.8 13.4014C146.014 13.693 146.178 14.0439 146.292 14.4541C146.406 14.8643 146.463 15.3223 146.463 15.8281C146.463 16.3066 146.406 16.7464 146.292 17.1475C146.183 17.5485 146.014 17.8994 145.786 18.2002C145.563 18.4964 145.28 18.7266 144.938 18.8906C144.601 19.0547 144.207 19.1367 143.756 19.1367C143.419 19.1367 143.1 19.082 142.799 18.9727C142.498 18.8587 142.227 18.6878 141.985 18.46C141.748 18.2275 141.555 17.9404 141.404 17.5986C141.254 17.2523 141.16 16.8467 141.124 16.3818H142.266C142.311 16.7555 142.398 17.07 142.525 17.3252C142.658 17.5804 142.826 17.7741 143.031 17.9062C143.241 18.0339 143.482 18.0977 143.756 18.0977C143.988 18.0977 144.198 18.0452 144.385 17.9404C144.572 17.8356 144.729 17.6852 144.856 17.4893C144.984 17.2933 145.082 17.0563 145.15 16.7783C145.219 16.5003 145.253 16.1882 145.253 15.8418C145.253 15.5273 145.219 15.2357 145.15 14.9668C145.082 14.6979 144.979 14.4632 144.843 14.2627C144.706 14.0622 144.54 13.9072 144.344 13.7979C144.152 13.6839 143.929 13.627 143.674 13.627C143.332 13.627 143.079 13.6839 142.915 13.7979C142.756 13.9118 142.582 14.0667 142.396 14.2627ZM149.19 8.5V9.375C149.19 9.64844 149.147 9.93783 149.061 10.2432C148.979 10.5439 148.858 10.8356 148.698 11.1182C148.539 11.3962 148.343 11.64 148.11 11.8496L147.434 11.3506C147.616 11.0498 147.755 10.7422 147.851 10.4277C147.946 10.1087 147.994 9.76465 147.994 9.39551V8.5H149.19Z" fill="#6D6D6D"/>
<path d="M137.617 100.992V111H136.407V102.571L134.315 103.501V102.359L137.433 100.992H137.617ZM142.396 106.263L141.432 106.003L141.855 101.047H146.189V102.216H142.874L142.642 104.923C142.797 104.818 142.983 104.72 143.202 104.629C143.421 104.538 143.676 104.492 143.968 104.492C144.36 104.492 144.708 104.572 145.014 104.731C145.324 104.886 145.586 105.11 145.8 105.401C146.014 105.693 146.178 106.044 146.292 106.454C146.406 106.864 146.463 107.322 146.463 107.828C146.463 108.307 146.406 108.746 146.292 109.147C146.183 109.549 146.014 109.899 145.786 110.2C145.563 110.496 145.28 110.727 144.938 110.891C144.601 111.055 144.207 111.137 143.756 111.137C143.419 111.137 143.1 111.082 142.799 110.973C142.498 110.859 142.227 110.688 141.985 110.46C141.748 110.228 141.555 109.94 141.404 109.599C141.254 109.252 141.16 108.847 141.124 108.382H142.266C142.311 108.756 142.398 109.07 142.525 109.325C142.658 109.58 142.826 109.774 143.031 109.906C143.241 110.034 143.482 110.098 143.756 110.098C143.988 110.098 144.198 110.045 144.385 109.94C144.572 109.836 144.729 109.685 144.856 109.489C144.984 109.293 145.082 109.056 145.15 108.778C145.219 108.5 145.253 108.188 145.253 107.842C145.253 107.527 145.219 107.236 145.15 106.967C145.082 106.698 144.979 106.463 144.843 106.263C144.706 106.062 144.54 105.907 144.344 105.798C144.152 105.684 143.929 105.627 143.674 105.627C143.332 105.627 143.079 105.684 142.915 105.798C142.756 105.912 142.582 106.067 142.396 106.263ZM149.19 100.5V101.375C149.19 101.648 149.147 101.938 149.061 102.243C148.979 102.544 148.858 102.836 148.698 103.118C148.539 103.396 148.343 103.64 148.11 103.85L147.434 103.351C147.616 103.05 147.755 102.742 147.851 102.428C147.946 102.109 147.994 101.765 147.994 101.396V100.5H149.19Z" fill="#6D6D6D"/>
<rect x="312" y="30" width="1" height="60" fill="#2E2E2E"/>
<path d="M307.566 13.4014H308.346C308.692 13.4014 308.979 13.3285 309.207 13.1826C309.435 13.0322 309.604 12.8294 309.713 12.5742C309.827 12.3145 309.884 12.0228 309.884 11.6992C309.884 11.3164 309.834 10.9951 309.733 10.7354C309.633 10.4756 309.483 10.2796 309.282 10.1475C309.086 10.0153 308.838 9.94922 308.537 9.94922C308.255 9.94922 308.008 10.0199 307.799 10.1611C307.589 10.2979 307.427 10.4938 307.313 10.749C307.2 11.0042 307.143 11.305 307.143 11.6514H305.939C305.939 11.1455 306.044 10.6852 306.254 10.2705C306.468 9.85579 306.769 9.52539 307.156 9.2793C307.548 9.0332 308.008 8.91016 308.537 8.91016C309.043 8.91016 309.487 9.01725 309.87 9.23145C310.253 9.44108 310.551 9.75553 310.766 10.1748C310.984 10.5895 311.094 11.1068 311.094 11.7266C311.094 11.9772 311.046 12.2461 310.95 12.5332C310.859 12.8158 310.711 13.0801 310.506 13.3262C310.305 13.5723 310.041 13.7751 309.713 13.9346C309.389 14.0895 308.993 14.167 308.523 14.167H307.566V13.4014ZM307.566 14.4404V13.6816H308.523C309.079 13.6816 309.533 13.7568 309.884 13.9072C310.235 14.0576 310.506 14.2581 310.697 14.5088C310.889 14.7594 311.021 15.0352 311.094 15.3359C311.171 15.6322 311.21 15.9284 311.21 16.2246C311.21 16.6895 311.142 17.1019 311.005 17.4619C310.873 17.8219 310.684 18.1273 310.438 18.3779C310.196 18.6286 309.913 18.8177 309.59 18.9453C309.266 19.0729 308.913 19.1367 308.53 19.1367C308.157 19.1367 307.81 19.0752 307.491 18.9521C307.172 18.8291 306.892 18.6514 306.65 18.4189C306.409 18.182 306.22 17.8926 306.083 17.5508C305.951 17.2044 305.885 16.8102 305.885 16.3682H307.095C307.095 16.7145 307.152 17.0176 307.266 17.2773C307.38 17.5371 307.544 17.7399 307.758 17.8857C307.972 18.027 308.229 18.0977 308.53 18.0977C308.831 18.0977 309.091 18.0316 309.31 17.8994C309.528 17.7627 309.697 17.5576 309.815 17.2842C309.938 17.0107 310 16.6667 310 16.252C310 15.8372 309.932 15.4977 309.795 15.2334C309.663 14.9645 309.474 14.7663 309.228 14.6387C308.981 14.5065 308.688 14.4404 308.346 14.4404H307.566ZM318.251 13.2305V14.748C318.251 15.5638 318.187 16.252 318.06 16.8125C317.937 17.373 317.759 17.8242 317.526 18.166C317.294 18.5078 317.014 18.7562 316.686 18.9111C316.362 19.0615 315.997 19.1367 315.592 19.1367C315.273 19.1367 314.974 19.0889 314.696 18.9932C314.423 18.8975 314.177 18.7448 313.958 18.5352C313.739 18.321 313.552 18.043 313.397 17.7012C313.243 17.3594 313.124 16.9447 313.042 16.457C312.96 15.9694 312.919 15.3997 312.919 14.748V13.2305C312.919 12.4147 312.983 11.7311 313.11 11.1797C313.238 10.6283 313.418 10.1862 313.65 9.85352C313.887 9.51628 314.168 9.27474 314.491 9.12891C314.819 8.98307 315.184 8.91016 315.585 8.91016C315.909 8.91016 316.207 8.95801 316.48 9.05371C316.758 9.14486 317.005 9.29297 317.219 9.49805C317.438 9.69857 317.624 9.96745 317.779 10.3047C317.934 10.6374 318.05 11.0452 318.128 11.5283C318.21 12.0114 318.251 12.5788 318.251 13.2305ZM317.048 14.9531V13.0186C317.048 12.5719 317.027 12.18 316.986 11.8428C316.945 11.501 316.886 11.2093 316.809 10.9678C316.731 10.7262 316.631 10.5303 316.508 10.3799C316.389 10.2295 316.253 10.1201 316.098 10.0518C315.943 9.97884 315.772 9.94238 315.585 9.94238C315.353 9.94238 315.145 9.99935 314.963 10.1133C314.785 10.2227 314.632 10.3981 314.505 10.6396C314.382 10.8812 314.288 11.1979 314.225 11.5898C314.161 11.9818 314.129 12.458 314.129 13.0186V14.9531C314.129 15.3997 314.149 15.7939 314.19 16.1357C314.236 16.4775 314.298 16.7738 314.375 17.0244C314.457 17.2705 314.557 17.4733 314.676 17.6328C314.794 17.7923 314.931 17.9108 315.086 17.9883C315.241 18.0612 315.41 18.0977 315.592 18.0977C315.833 18.0977 316.043 18.0384 316.221 17.9199C316.403 17.8014 316.556 17.6169 316.679 17.3662C316.802 17.111 316.893 16.7852 316.952 16.3887C317.016 15.9876 317.048 15.5091 317.048 14.9531ZM321.19 8.5V9.375C321.19 9.64844 321.147 9.93783 321.061 10.2432C320.979 10.5439 320.858 10.8356 320.698 11.1182C320.539 11.3962 320.343 11.64 320.11 11.8496L319.434 11.3506C319.616 11.0498 319.755 10.7422 319.851 10.4277C319.946 10.1087 319.994 9.76465 319.994 9.39551V8.5H321.19Z" fill="#6D6D6D"/>
<path d="M307.566 105.401H308.346C308.692 105.401 308.979 105.328 309.207 105.183C309.435 105.032 309.604 104.829 309.713 104.574C309.827 104.314 309.884 104.023 309.884 103.699C309.884 103.316 309.834 102.995 309.733 102.735C309.633 102.476 309.483 102.28 309.282 102.147C309.086 102.015 308.838 101.949 308.537 101.949C308.255 101.949 308.008 102.02 307.799 102.161C307.589 102.298 307.427 102.494 307.313 102.749C307.2 103.004 307.143 103.305 307.143 103.651H305.939C305.939 103.146 306.044 102.685 306.254 102.271C306.468 101.856 306.769 101.525 307.156 101.279C307.548 101.033 308.008 100.91 308.537 100.91C309.043 100.91 309.487 101.017 309.87 101.231C310.253 101.441 310.551 101.756 310.766 102.175C310.984 102.59 311.094 103.107 311.094 103.727C311.094 103.977 311.046 104.246 310.95 104.533C310.859 104.816 310.711 105.08 310.506 105.326C310.305 105.572 310.041 105.775 309.713 105.935C309.389 106.09 308.993 106.167 308.523 106.167H307.566V105.401ZM307.566 106.44V105.682H308.523C309.079 105.682 309.533 105.757 309.884 105.907C310.235 106.058 310.506 106.258 310.697 106.509C310.889 106.759 311.021 107.035 311.094 107.336C311.171 107.632 311.21 107.928 311.21 108.225C311.21 108.689 311.142 109.102 311.005 109.462C310.873 109.822 310.684 110.127 310.438 110.378C310.196 110.629 309.913 110.818 309.59 110.945C309.266 111.073 308.913 111.137 308.53 111.137C308.157 111.137 307.81 111.075 307.491 110.952C307.172 110.829 306.892 110.651 306.65 110.419C306.409 110.182 306.22 109.893 306.083 109.551C305.951 109.204 305.885 108.81 305.885 108.368H307.095C307.095 108.715 307.152 109.018 307.266 109.277C307.38 109.537 307.544 109.74 307.758 109.886C307.972 110.027 308.229 110.098 308.53 110.098C308.831 110.098 309.091 110.032 309.31 109.899C309.528 109.763 309.697 109.558 309.815 109.284C309.938 109.011 310 108.667 310 108.252C310 107.837 309.932 107.498 309.795 107.233C309.663 106.965 309.474 106.766 309.228 106.639C308.981 106.507 308.688 106.44 308.346 106.44H307.566ZM318.251 105.23V106.748C318.251 107.564 318.187 108.252 318.06 108.812C317.937 109.373 317.759 109.824 317.526 110.166C317.294 110.508 317.014 110.756 316.686 110.911C316.362 111.062 315.997 111.137 315.592 111.137C315.273 111.137 314.974 111.089 314.696 110.993C314.423 110.897 314.177 110.745 313.958 110.535C313.739 110.321 313.552 110.043 313.397 109.701C313.243 109.359 313.124 108.945 313.042 108.457C312.96 107.969 312.919 107.4 312.919 106.748V105.23C312.919 104.415 312.983 103.731 313.11 103.18C313.238 102.628 313.418 102.186 313.65 101.854C313.887 101.516 314.168 101.275 314.491 101.129C314.819 100.983 315.184 100.91 315.585 100.91C315.909 100.91 316.207 100.958 316.48 101.054C316.758 101.145 317.005 101.293 317.219 101.498C317.438 101.699 317.624 101.967 317.779 102.305C317.934 102.637 318.05 103.045 318.128 103.528C318.21 104.011 318.251 104.579 318.251 105.23ZM317.048 106.953V105.019C317.048 104.572 317.027 104.18 316.986 103.843C316.945 103.501 316.886 103.209 316.809 102.968C316.731 102.726 316.631 102.53 316.508 102.38C316.389 102.229 316.253 102.12 316.098 102.052C315.943 101.979 315.772 101.942 315.585 101.942C315.353 101.942 315.145 101.999 314.963 102.113C314.785 102.223 314.632 102.398 314.505 102.64C314.382 102.881 314.288 103.198 314.225 103.59C314.161 103.982 314.129 104.458 314.129 105.019V106.953C314.129 107.4 314.149 107.794 314.19 108.136C314.236 108.478 314.298 108.774 314.375 109.024C314.457 109.271 314.557 109.473 314.676 109.633C314.794 109.792 314.931 109.911 315.086 109.988C315.241 110.061 315.41 110.098 315.592 110.098C315.833 110.098 316.043 110.038 316.221 109.92C316.403 109.801 316.556 109.617 316.679 109.366C316.802 109.111 316.893 108.785 316.952 108.389C317.016 107.988 317.048 107.509 317.048 106.953ZM321.19 100.5V101.375C321.19 101.648 321.147 101.938 321.061 102.243C320.979 102.544 320.858 102.836 320.698 103.118C320.539 103.396 320.343 103.64 320.11 103.85L319.434 103.351C319.616 103.05 319.755 102.742 319.851 102.428C319.946 102.109 319.994 101.765 319.994 101.396V100.5H321.19Z" fill="#6D6D6D"/>
<rect x="485" y="30" width="1" height="60" fill="#2E2E2E"/>
<path d="M483.592 13.3262V14.3994H479.278V13.3262H483.592ZM479.449 9.04688V19H478.191V9.04688H479.449ZM484.706 9.04688V19H483.448V9.04688H484.706ZM489.867 9.04688V19H488.623V9.04688H489.867ZM492.485 9.04688V10.127H486.012V9.04688H492.485Z" fill="#6D6D6D"/>
<path d="M483.709 107.65V108.689H477.625V107.944L481.323 101.047H482.294L481.323 103.043L478.972 107.65H483.709ZM482.602 101.047V111H481.392V101.047H482.602ZM486.396 106.263L485.432 106.003L485.855 101.047H490.189V102.216H486.874L486.642 104.923C486.797 104.818 486.983 104.72 487.202 104.629C487.421 104.538 487.676 104.492 487.968 104.492C488.36 104.492 488.708 104.572 489.014 104.731C489.324 104.886 489.586 105.11 489.8 105.401C490.014 105.693 490.178 106.044 490.292 106.454C490.406 106.864 490.463 107.322 490.463 107.828C490.463 108.307 490.406 108.746 490.292 109.147C490.183 109.549 490.014 109.899 489.786 110.2C489.563 110.496 489.28 110.727 488.938 110.891C488.601 111.055 488.207 111.137 487.756 111.137C487.419 111.137 487.1 111.082 486.799 110.973C486.498 110.859 486.227 110.688 485.985 110.46C485.748 110.228 485.555 109.94 485.404 109.599C485.254 109.252 485.16 108.847 485.124 108.382H486.266C486.311 108.756 486.398 109.07 486.525 109.325C486.658 109.58 486.826 109.774 487.031 109.906C487.241 110.034 487.482 110.098 487.756 110.098C487.988 110.098 488.198 110.045 488.385 109.94C488.572 109.836 488.729 109.685 488.856 109.489C488.984 109.293 489.082 109.056 489.15 108.778C489.219 108.5 489.253 108.188 489.253 107.842C489.253 107.527 489.219 107.236 489.15 106.967C489.082 106.698 488.979 106.463 488.843 106.263C488.706 106.062 488.54 105.907 488.344 105.798C488.152 105.684 487.929 105.627 487.674 105.627C487.332 105.627 487.079 105.684 486.915 105.798C486.756 105.912 486.582 106.067 486.396 106.263ZM493.19 100.5V101.375C493.19 101.648 493.147 101.938 493.061 102.243C492.979 102.544 492.858 102.836 492.698 103.118C492.539 103.396 492.343 103.64 492.11 103.85L491.434 103.351C491.616 103.05 491.755 102.742 491.851 102.428C491.946 102.109 491.994 101.765 491.994 101.396V100.5H493.19Z" fill="#6D6D6D"/>
<rect x="657" y="30" width="1" height="60" fill="#2E2E2E"/>
<path d="M654.137 9.0332H654.226V10.1064H654.137C653.562 10.1064 653.091 10.2158 652.722 10.4346C652.357 10.6488 652.072 10.9382 651.867 11.3027C651.667 11.6628 651.528 12.0684 651.45 12.5195C651.373 12.9707 651.334 13.4287 651.334 13.8936V15.3564C651.334 15.7985 651.375 16.1904 651.457 16.5322C651.544 16.8695 651.655 17.1543 651.792 17.3867C651.933 17.6191 652.09 17.7946 652.264 17.9131C652.441 18.0316 652.621 18.0908 652.804 18.0908C653.036 18.0908 653.241 18.0361 653.419 17.9268C653.601 17.8128 653.752 17.6556 653.87 17.4551C653.993 17.25 654.087 17.0085 654.15 16.7305C654.214 16.4525 654.246 16.1471 654.246 15.8145C654.246 15.5182 654.216 15.2334 654.157 14.96C654.103 14.682 654.018 14.4359 653.904 14.2217C653.79 14.0029 653.645 13.832 653.467 13.709C653.294 13.5814 653.086 13.5176 652.845 13.5176C652.571 13.5176 652.316 13.6042 652.079 13.7773C651.847 13.946 651.655 14.1693 651.505 14.4473C651.354 14.7207 651.266 15.0192 651.238 15.3428L650.616 15.3359C650.68 14.8255 650.787 14.3903 650.938 14.0303C651.088 13.6657 651.27 13.3695 651.484 13.1416C651.703 12.9092 651.945 12.7406 652.209 12.6357C652.473 12.5264 652.751 12.4717 653.043 12.4717C653.467 12.4717 653.829 12.5651 654.13 12.752C654.435 12.9388 654.684 13.1895 654.875 13.5039C655.071 13.8138 655.215 14.1647 655.306 14.5566C655.397 14.944 655.442 15.3428 655.442 15.7529C655.442 16.2223 655.385 16.6621 655.271 17.0723C655.162 17.4824 654.998 17.8424 654.779 18.1523C654.561 18.4622 654.285 18.7038 653.952 18.877C653.624 19.0501 653.241 19.1367 652.804 19.1367C652.339 19.1367 651.938 19.0273 651.601 18.8086C651.263 18.5853 650.983 18.2891 650.76 17.9199C650.541 17.5508 650.379 17.1406 650.274 16.6895C650.17 16.2383 650.117 15.7803 650.117 15.3154V14.7207C650.117 14.0189 650.167 13.3307 650.268 12.6562C650.368 11.9818 650.557 11.3711 650.835 10.8242C651.118 10.2773 651.523 9.84212 652.052 9.51855C652.585 9.19499 653.28 9.0332 654.137 9.0332ZM662.251 13.2305V14.748C662.251 15.5638 662.187 16.252 662.06 16.8125C661.937 17.373 661.759 17.8242 661.526 18.166C661.294 18.5078 661.014 18.7562 660.686 18.9111C660.362 19.0615 659.997 19.1367 659.592 19.1367C659.273 19.1367 658.974 19.0889 658.696 18.9932C658.423 18.8975 658.177 18.7448 657.958 18.5352C657.739 18.321 657.552 18.043 657.397 17.7012C657.243 17.3594 657.124 16.9447 657.042 16.457C656.96 15.9694 656.919 15.3997 656.919 14.748V13.2305C656.919 12.4147 656.983 11.7311 657.11 11.1797C657.238 10.6283 657.418 10.1862 657.65 9.85352C657.887 9.51628 658.168 9.27474 658.491 9.12891C658.819 8.98307 659.184 8.91016 659.585 8.91016C659.909 8.91016 660.207 8.95801 660.48 9.05371C660.758 9.14486 661.005 9.29297 661.219 9.49805C661.438 9.69857 661.624 9.96745 661.779 10.3047C661.934 10.6374 662.05 11.0452 662.128 11.5283C662.21 12.0114 662.251 12.5788 662.251 13.2305ZM661.048 14.9531V13.0186C661.048 12.5719 661.027 12.18 660.986 11.8428C660.945 11.501 660.886 11.2093 660.809 10.9678C660.731 10.7262 660.631 10.5303 660.508 10.3799C660.389 10.2295 660.253 10.1201 660.098 10.0518C659.943 9.97884 659.772 9.94238 659.585 9.94238C659.353 9.94238 659.145 9.99935 658.963 10.1133C658.785 10.2227 658.632 10.3981 658.505 10.6396C658.382 10.8812 658.288 11.1979 658.225 11.5898C658.161 11.9818 658.129 12.458 658.129 13.0186V14.9531C658.129 15.3997 658.149 15.7939 658.19 16.1357C658.236 16.4775 658.298 16.7738 658.375 17.0244C658.457 17.2705 658.557 17.4733 658.676 17.6328C658.794 17.7923 658.931 17.9108 659.086 17.9883C659.241 18.0612 659.41 18.0977 659.592 18.0977C659.833 18.0977 660.043 18.0384 660.221 17.9199C660.403 17.8014 660.556 17.6169 660.679 17.3662C660.802 17.111 660.893 16.7852 660.952 16.3887C661.016 15.9876 661.048 15.5091 661.048 14.9531ZM665.19 8.5V9.375C665.19 9.64844 665.147 9.93783 665.061 10.2432C664.979 10.5439 664.858 10.8356 664.698 11.1182C664.539 11.3962 664.343 11.64 664.11 11.8496L663.434 11.3506C663.616 11.0498 663.755 10.7422 663.851 10.4277C663.946 10.1087 663.994 9.76465 663.994 9.39551V8.5H665.19Z" fill="#6D6D6D"/>
<path d="M654.137 101.033H654.226V102.106H654.137C653.562 102.106 653.091 102.216 652.722 102.435C652.357 102.649 652.072 102.938 651.867 103.303C651.667 103.663 651.528 104.068 651.45 104.52C651.373 104.971 651.334 105.429 651.334 105.894V107.356C651.334 107.799 651.375 108.19 651.457 108.532C651.544 108.869 651.655 109.154 651.792 109.387C651.933 109.619 652.09 109.795 652.264 109.913C652.441 110.032 652.621 110.091 652.804 110.091C653.036 110.091 653.241 110.036 653.419 109.927C653.601 109.813 653.752 109.656 653.87 109.455C653.993 109.25 654.087 109.008 654.15 108.73C654.214 108.452 654.246 108.147 654.246 107.814C654.246 107.518 654.216 107.233 654.157 106.96C654.103 106.682 654.018 106.436 653.904 106.222C653.79 106.003 653.645 105.832 653.467 105.709C653.294 105.581 653.086 105.518 652.845 105.518C652.571 105.518 652.316 105.604 652.079 105.777C651.847 105.946 651.655 106.169 651.505 106.447C651.354 106.721 651.266 107.019 651.238 107.343L650.616 107.336C650.68 106.826 650.787 106.39 650.938 106.03C651.088 105.666 651.27 105.369 651.484 105.142C651.703 104.909 651.945 104.741 652.209 104.636C652.473 104.526 652.751 104.472 653.043 104.472C653.467 104.472 653.829 104.565 654.13 104.752C654.435 104.939 654.684 105.189 654.875 105.504C655.071 105.814 655.215 106.165 655.306 106.557C655.397 106.944 655.442 107.343 655.442 107.753C655.442 108.222 655.385 108.662 655.271 109.072C655.162 109.482 654.998 109.842 654.779 110.152C654.561 110.462 654.285 110.704 653.952 110.877C653.624 111.05 653.241 111.137 652.804 111.137C652.339 111.137 651.938 111.027 651.601 110.809C651.263 110.585 650.983 110.289 650.76 109.92C650.541 109.551 650.379 109.141 650.274 108.689C650.17 108.238 650.117 107.78 650.117 107.315V106.721C650.117 106.019 650.167 105.331 650.268 104.656C650.368 103.982 650.557 103.371 650.835 102.824C651.118 102.277 651.523 101.842 652.052 101.519C652.585 101.195 653.28 101.033 654.137 101.033ZM662.251 105.23V106.748C662.251 107.564 662.187 108.252 662.06 108.812C661.937 109.373 661.759 109.824 661.526 110.166C661.294 110.508 661.014 110.756 660.686 110.911C660.362 111.062 659.997 111.137 659.592 111.137C659.273 111.137 658.974 111.089 658.696 110.993C658.423 110.897 658.177 110.745 657.958 110.535C657.739 110.321 657.552 110.043 657.397 109.701C657.243 109.359 657.124 108.945 657.042 108.457C656.96 107.969 656.919 107.4 656.919 106.748V105.23C656.919 104.415 656.983 103.731 657.11 103.18C657.238 102.628 657.418 102.186 657.65 101.854C657.887 101.516 658.168 101.275 658.491 101.129C658.819 100.983 659.184 100.91 659.585 100.91C659.909 100.91 660.207 100.958 660.48 101.054C660.758 101.145 661.005 101.293 661.219 101.498C661.438 101.699 661.624 101.967 661.779 102.305C661.934 102.637 662.05 103.045 662.128 103.528C662.21 104.011 662.251 104.579 662.251 105.23ZM661.048 106.953V105.019C661.048 104.572 661.027 104.18 660.986 103.843C660.945 103.501 660.886 103.209 660.809 102.968C660.731 102.726 660.631 102.53 660.508 102.38C660.389 102.229 660.253 102.12 660.098 102.052C659.943 101.979 659.772 101.942 659.585 101.942C659.353 101.942 659.145 101.999 658.963 102.113C658.785 102.223 658.632 102.398 658.505 102.64C658.382 102.881 658.288 103.198 658.225 103.59C658.161 103.982 658.129 104.458 658.129 105.019V106.953C658.129 107.4 658.149 107.794 658.19 108.136C658.236 108.478 658.298 108.774 658.375 109.024C658.457 109.271 658.557 109.473 658.676 109.633C658.794 109.792 658.931 109.911 659.086 109.988C659.241 110.061 659.41 110.098 659.592 110.098C659.833 110.098 660.043 110.038 660.221 109.92C660.403 109.801 660.556 109.617 660.679 109.366C660.802 109.111 660.893 108.785 660.952 108.389C661.016 107.988 661.048 107.509 661.048 106.953ZM665.19 100.5V101.375C665.19 101.648 665.147 101.938 665.061 102.243C664.979 102.544 664.858 102.836 664.698 103.118C664.539 103.396 664.343 103.64 664.11 103.85L663.434 103.351C663.616 103.05 663.755 102.742 663.851 102.428C663.946 102.109 663.994 101.765 663.994 101.396V100.5H665.19Z" fill="#6D6D6D"/>
<rect x="830" y="30" width="1" height="60" fill="#2E2E2E"/>
<path d="M827.511 9.04688V9.75781L824.086 19H822.814L826.239 10.0859H821.803V9.04688H827.511ZM830.396 14.2627L829.432 14.0029L829.855 9.04688H834.189V10.2158H830.874L830.642 12.9229C830.797 12.818 830.983 12.7201 831.202 12.6289C831.421 12.5378 831.676 12.4922 831.968 12.4922C832.36 12.4922 832.708 12.5719 833.014 12.7314C833.324 12.8864 833.586 13.1097 833.8 13.4014C834.014 13.693 834.178 14.0439 834.292 14.4541C834.406 14.8643 834.463 15.3223 834.463 15.8281C834.463 16.3066 834.406 16.7464 834.292 17.1475C834.183 17.5485 834.014 17.8994 833.786 18.2002C833.563 18.4964 833.28 18.7266 832.938 18.8906C832.601 19.0547 832.207 19.1367 831.756 19.1367C831.419 19.1367 831.1 19.082 830.799 18.9727C830.498 18.8587 830.227 18.6878 829.985 18.46C829.748 18.2275 829.555 17.9404 829.404 17.5986C829.254 17.2523 829.16 16.8467 829.124 16.3818H830.266C830.311 16.7555 830.398 17.07 830.525 17.3252C830.658 17.5804 830.826 17.7741 831.031 17.9062C831.241 18.0339 831.482 18.0977 831.756 18.0977C831.988 18.0977 832.198 18.0452 832.385 17.9404C832.572 17.8356 832.729 17.6852 832.856 17.4893C832.984 17.2933 833.082 17.0563 833.15 16.7783C833.219 16.5003 833.253 16.1882 833.253 15.8418C833.253 15.5273 833.219 15.2357 833.15 14.9668C833.082 14.6979 832.979 14.4632 832.843 14.2627C832.706 14.0622 832.54 13.9072 832.344 13.7979C832.152 13.6839 831.929 13.627 831.674 13.627C831.332 13.627 831.079 13.6839 830.915 13.7979C830.756 13.9118 830.582 14.0667 830.396 14.2627ZM837.19 8.5V9.375C837.19 9.64844 837.147 9.93783 837.061 10.2432C836.979 10.5439 836.858 10.8356 836.698 11.1182C836.539 11.3962 836.343 11.64 836.11 11.8496L835.434 11.3506C835.616 11.0498 835.755 10.7422 835.851 10.4277C835.946 10.1087 835.994 9.76465 835.994 9.39551V8.5H837.19Z" fill="#6D6D6D"/>
<path d="M827.511 101.047V101.758L824.086 111H822.814L826.239 102.086H821.803V101.047H827.511ZM830.396 106.263L829.432 106.003L829.855 101.047H834.189V102.216H830.874L830.642 104.923C830.797 104.818 830.983 104.72 831.202 104.629C831.421 104.538 831.676 104.492 831.968 104.492C832.36 104.492 832.708 104.572 833.014 104.731C833.324 104.886 833.586 105.11 833.8 105.401C834.014 105.693 834.178 106.044 834.292 106.454C834.406 106.864 834.463 107.322 834.463 107.828C834.463 108.307 834.406 108.746 834.292 109.147C834.183 109.549 834.014 109.899 833.786 110.2C833.563 110.496 833.28 110.727 832.938 110.891C832.601 111.055 832.207 111.137 831.756 111.137C831.419 111.137 831.1 111.082 830.799 110.973C830.498 110.859 830.227 110.688 829.985 110.46C829.748 110.228 829.555 109.94 829.404 109.599C829.254 109.252 829.16 108.847 829.124 108.382H830.266C830.311 108.756 830.398 109.07 830.525 109.325C830.658 109.58 830.826 109.774 831.031 109.906C831.241 110.034 831.482 110.098 831.756 110.098C831.988 110.098 832.198 110.045 832.385 109.94C832.572 109.836 832.729 109.685 832.856 109.489C832.984 109.293 833.082 109.056 833.15 108.778C833.219 108.5 833.253 108.188 833.253 107.842C833.253 107.527 833.219 107.236 833.15 106.967C833.082 106.698 832.979 106.463 832.843 106.263C832.706 106.062 832.54 105.907 832.344 105.798C832.152 105.684 831.929 105.627 831.674 105.627C831.332 105.627 831.079 105.684 830.915 105.798C830.756 105.912 830.582 106.067 830.396 106.263ZM837.19 100.5V101.375C837.19 101.648 837.147 101.938 837.061 102.243C836.979 102.544 836.858 102.836 836.698 103.118C836.539 103.396 836.343 103.64 836.11 103.85L835.434 103.351C835.616 103.05 835.755 102.742 835.851 102.428C835.946 102.109 835.994 101.765 835.994 101.396V100.5H837.19Z" fill="#6D6D6D"/>
<path d="M951.108 17.9404H951.204C951.819 17.9404 952.314 17.8379 952.688 17.6328C953.061 17.4277 953.341 17.152 953.528 16.8057C953.72 16.4593 953.847 16.0697 953.911 15.6367C953.979 15.1992 954.014 14.7503 954.014 14.29V12.7656C954.014 12.3145 953.97 11.9134 953.884 11.5625C953.802 11.2116 953.69 10.9176 953.549 10.6807C953.412 10.4437 953.255 10.2637 953.077 10.1406C952.904 10.0176 952.726 9.95605 952.544 9.95605C952.312 9.95605 952.106 10.0153 951.929 10.1338C951.751 10.2477 951.601 10.4095 951.478 10.6191C951.359 10.8288 951.268 11.0749 951.204 11.3574C951.14 11.64 951.108 11.9476 951.108 12.2803C951.108 12.5765 951.136 12.8636 951.19 13.1416C951.245 13.4196 951.329 13.6702 951.443 13.8936C951.562 14.1169 951.708 14.2946 951.881 14.4268C952.059 14.5544 952.268 14.6182 952.51 14.6182C952.71 14.6182 952.904 14.5635 953.091 14.4541C953.282 14.3402 953.455 14.1875 953.61 13.9961C953.765 13.8001 953.893 13.5791 953.993 13.333C954.093 13.0869 954.153 12.8294 954.171 12.5605H954.738C954.738 12.9388 954.677 13.3125 954.554 13.6816C954.435 14.0462 954.264 14.3789 954.041 14.6797C953.822 14.9805 953.565 15.222 953.269 15.4043C952.977 15.582 952.656 15.6709 952.305 15.6709C951.881 15.6709 951.519 15.5752 951.218 15.3838C950.917 15.1924 950.671 14.9372 950.479 14.6182C950.293 14.2992 950.154 13.9437 950.062 13.5518C949.971 13.1553 949.926 12.7542 949.926 12.3486C949.926 11.8747 949.98 11.4303 950.09 11.0156C950.199 10.6009 950.361 10.2363 950.575 9.92188C950.794 9.60286 951.067 9.35449 951.396 9.17676C951.724 8.99902 952.106 8.91016 952.544 8.91016C953.032 8.91016 953.446 9.02409 953.788 9.25195C954.13 9.47982 954.406 9.78516 954.615 10.168C954.825 10.5508 954.978 10.9814 955.073 11.46C955.169 11.9385 955.217 12.4307 955.217 12.9365V13.3945C955.217 13.9095 955.192 14.4336 955.142 14.9668C955.096 15.4954 954.998 16.0013 954.848 16.4844C954.702 16.9674 954.483 17.4004 954.191 17.7832C953.9 18.1615 953.51 18.4622 953.022 18.6855C952.539 18.9043 951.933 19.0137 951.204 19.0137H951.115L951.108 17.9404ZM962.251 13.2305V14.748C962.251 15.5638 962.187 16.252 962.06 16.8125C961.937 17.373 961.759 17.8242 961.526 18.166C961.294 18.5078 961.014 18.7562 960.686 18.9111C960.362 19.0615 959.997 19.1367 959.592 19.1367C959.273 19.1367 958.974 19.0889 958.696 18.9932C958.423 18.8975 958.177 18.7448 957.958 18.5352C957.739 18.321 957.552 18.043 957.397 17.7012C957.243 17.3594 957.124 16.9447 957.042 16.457C956.96 15.9694 956.919 15.3997 956.919 14.748V13.2305C956.919 12.4147 956.983 11.7311 957.11 11.1797C957.238 10.6283 957.418 10.1862 957.65 9.85352C957.887 9.51628 958.168 9.27474 958.491 9.12891C958.819 8.98307 959.184 8.91016 959.585 8.91016C959.909 8.91016 960.207 8.95801 960.48 9.05371C960.758 9.14486 961.005 9.29297 961.219 9.49805C961.438 9.69857 961.624 9.96745 961.779 10.3047C961.934 10.6374 962.05 11.0452 962.128 11.5283C962.21 12.0114 962.251 12.5788 962.251 13.2305ZM961.048 14.9531V13.0186C961.048 12.5719 961.027 12.18 960.986 11.8428C960.945 11.501 960.886 11.2093 960.809 10.9678C960.731 10.7262 960.631 10.5303 960.508 10.3799C960.389 10.2295 960.253 10.1201 960.098 10.0518C959.943 9.97884 959.772 9.94238 959.585 9.94238C959.353 9.94238 959.145 9.99935 958.963 10.1133C958.785 10.2227 958.632 10.3981 958.505 10.6396C958.382 10.8812 958.288 11.1979 958.225 11.5898C958.161 11.9818 958.129 12.458 958.129 13.0186V14.9531C958.129 15.3997 958.149 15.7939 958.19 16.1357C958.236 16.4775 958.298 16.7738 958.375 17.0244C958.457 17.2705 958.557 17.4733 958.676 17.6328C958.794 17.7923 958.931 17.9108 959.086 17.9883C959.241 18.0612 959.41 18.0977 959.592 18.0977C959.833 18.0977 960.043 18.0384 960.221 17.9199C960.403 17.8014 960.556 17.6169 960.679 17.3662C960.802 17.111 960.893 16.7852 960.952 16.3887C961.016 15.9876 961.048 15.5091 961.048 14.9531ZM965.19 8.5V9.375C965.19 9.64844 965.147 9.93783 965.061 10.2432C964.979 10.5439 964.858 10.8356 964.698 11.1182C964.539 11.3962 964.343 11.64 964.11 11.8496L963.434 11.3506C963.616 11.0498 963.755 10.7422 963.851 10.4277C963.946 10.1087 963.994 9.76465 963.994 9.39551V8.5H965.19Z" fill="#6D6D6D"/>
<path d="M951.108 109.94H951.204C951.819 109.94 952.314 109.838 952.688 109.633C953.061 109.428 953.341 109.152 953.528 108.806C953.72 108.459 953.847 108.07 953.911 107.637C953.979 107.199 954.014 106.75 954.014 106.29V104.766C954.014 104.314 953.97 103.913 953.884 103.562C953.802 103.212 953.69 102.918 953.549 102.681C953.412 102.444 953.255 102.264 953.077 102.141C952.904 102.018 952.726 101.956 952.544 101.956C952.312 101.956 952.106 102.015 951.929 102.134C951.751 102.248 951.601 102.41 951.478 102.619C951.359 102.829 951.268 103.075 951.204 103.357C951.14 103.64 951.108 103.948 951.108 104.28C951.108 104.576 951.136 104.864 951.19 105.142C951.245 105.42 951.329 105.67 951.443 105.894C951.562 106.117 951.708 106.295 951.881 106.427C952.059 106.554 952.268 106.618 952.51 106.618C952.71 106.618 952.904 106.563 953.091 106.454C953.282 106.34 953.455 106.188 953.61 105.996C953.765 105.8 953.893 105.579 953.993 105.333C954.093 105.087 954.153 104.829 954.171 104.561H954.738C954.738 104.939 954.677 105.312 954.554 105.682C954.435 106.046 954.264 106.379 954.041 106.68C953.822 106.98 953.565 107.222 953.269 107.404C952.977 107.582 952.656 107.671 952.305 107.671C951.881 107.671 951.519 107.575 951.218 107.384C950.917 107.192 950.671 106.937 950.479 106.618C950.293 106.299 950.154 105.944 950.062 105.552C949.971 105.155 949.926 104.754 949.926 104.349C949.926 103.875 949.98 103.43 950.09 103.016C950.199 102.601 950.361 102.236 950.575 101.922C950.794 101.603 951.067 101.354 951.396 101.177C951.724 100.999 952.106 100.91 952.544 100.91C953.032 100.91 953.446 101.024 953.788 101.252C954.13 101.48 954.406 101.785 954.615 102.168C954.825 102.551 954.978 102.981 955.073 103.46C955.169 103.938 955.217 104.431 955.217 104.937V105.395C955.217 105.91 955.192 106.434 955.142 106.967C955.096 107.495 954.998 108.001 954.848 108.484C954.702 108.967 954.483 109.4 954.191 109.783C953.9 110.161 953.51 110.462 953.022 110.686C952.539 110.904 951.933 111.014 951.204 111.014H951.115L951.108 109.94ZM962.251 105.23V106.748C962.251 107.564 962.187 108.252 962.06 108.812C961.937 109.373 961.759 109.824 961.526 110.166C961.294 110.508 961.014 110.756 960.686 110.911C960.362 111.062 959.997 111.137 959.592 111.137C959.273 111.137 958.974 111.089 958.696 110.993C958.423 110.897 958.177 110.745 957.958 110.535C957.739 110.321 957.552 110.043 957.397 109.701C957.243 109.359 957.124 108.945 957.042 108.457C956.96 107.969 956.919 107.4 956.919 106.748V105.23C956.919 104.415 956.983 103.731 957.11 103.18C957.238 102.628 957.418 102.186 957.65 101.854C957.887 101.516 958.168 101.275 958.491 101.129C958.819 100.983 959.184 100.91 959.585 100.91C959.909 100.91 960.207 100.958 960.48 101.054C960.758 101.145 961.005 101.293 961.219 101.498C961.438 101.699 961.624 101.967 961.779 102.305C961.934 102.637 962.05 103.045 962.128 103.528C962.21 104.011 962.251 104.579 962.251 105.23ZM961.048 106.953V105.019C961.048 104.572 961.027 104.18 960.986 103.843C960.945 103.501 960.886 103.209 960.809 102.968C960.731 102.726 960.631 102.53 960.508 102.38C960.389 102.229 960.253 102.12 960.098 102.052C959.943 101.979 959.772 101.942 959.585 101.942C959.353 101.942 959.145 101.999 958.963 102.113C958.785 102.223 958.632 102.398 958.505 102.64C958.382 102.881 958.288 103.198 958.225 103.59C958.161 103.982 958.129 104.458 958.129 105.019V106.953C958.129 107.4 958.149 107.794 958.19 108.136C958.236 108.478 958.298 108.774 958.375 109.024C958.457 109.271 958.557 109.473 958.676 109.633C958.794 109.792 958.931 109.911 959.086 109.988C959.241 110.061 959.41 110.098 959.592 110.098C959.833 110.098 960.043 110.038 960.221 109.92C960.403 109.801 960.556 109.617 960.679 109.366C960.802 109.111 960.893 108.785 960.952 108.389C961.016 107.988 961.048 107.509 961.048 106.953ZM965.19 100.5V101.375C965.19 101.648 965.147 101.938 965.061 102.243C964.979 102.544 964.858 102.836 964.698 103.118C964.539 103.396 964.343 103.64 964.11 103.85L963.434 103.351C963.616 103.05 963.755 102.742 963.851 102.428C963.946 102.109 963.994 101.765 963.994 101.396V100.5H965.19Z" fill="#6D6D6D"/>
<rect x="1" y="58" width="960" height="4" fill="#1F8F4B"/>
</svg>
