<svg width="22" height="22" viewBox="0 0 22 22" fill="none" xmlns="http://www.w3.org/2000/svg">
<path d="M21.9425 8.00843C21.872 7.79079 21.7391 7.59867 21.5603 7.45591C21.3815 7.31315 21.1648 7.22605 20.9369 7.20541L14.5862 6.62885L12.0763 0.752766C11.891 0.321052 11.4694 0.0424805 11.0001 0.0424805C10.5307 0.0424805 10.109 0.321052 9.92483 0.752766L7.41498 6.62885L1.06323 7.20541C0.597571 7.24838 0.203283 7.56378 0.0576165 8.00843C-0.0133633 8.22625 -0.0188845 8.46011 0.0417367 8.68104C0.102358 8.90197 0.226458 9.10027 0.398665 9.25136L5.19935 13.4608L3.78389 19.6951C3.68033 20.1535 3.85823 20.6276 4.23859 20.9025C4.43781 21.0474 4.67789 21.1254 4.92426 21.1253C5.13544 21.1253 5.34266 21.0679 5.52381 20.9594L11.0001 17.685L16.4753 20.9594C16.6717 21.0769 16.8983 21.1342 17.127 21.1241C17.3556 21.1139 17.5763 21.0369 17.7616 20.9025C18.1419 20.6276 18.3198 20.1535 18.2163 19.6951L16.8008 13.4609L21.6015 9.2514C21.7737 9.10032 21.8978 8.90203 21.9584 8.68109C22.019 8.46016 22.0135 8.22629 21.9425 8.00847V8.00843Z" fill="#EE9035"/>
</svg>
