<svg width="20" height="20" viewBox="0 0 20 20" fill="none" xmlns="http://www.w3.org/2000/svg">
<path fill-rule="evenodd" clip-rule="evenodd" d="M5.31673 2.61591C5.15143 2.77501 5.05856 2.99077 5.05856 3.21574C5.05856 3.4407 5.15143 3.65646 5.31673 3.81556L11.7474 10.003L5.31673 16.1904C5.15143 16.3495 5.05856 16.5653 5.05856 16.7902C5.05856 17.0152 5.15143 17.231 5.31673 17.3901L5.94014 17.9899C6.10549 18.1489 6.32974 18.2383 6.56355 18.2383C6.79736 18.2383 7.0216 18.1489 7.18696 17.9899L14.5532 10.9031C14.6761 10.785 14.7736 10.6446 14.8402 10.4902C14.9067 10.3357 14.9409 10.1702 14.9409 10.003C14.9409 9.8358 14.9067 9.67024 14.8402 9.51579C14.7736 9.36134 14.6761 9.22101 14.5532 9.10283L7.18696 2.01609C7.0216 1.85704 6.79736 1.76769 6.56355 1.76769C6.32974 1.76769 6.1055 1.85704 5.94014 2.01609L5.31673 2.61591Z" fill="black"/>
</svg>
