<svg width="24" height="24" viewBox="0 0 24 24" fill="none" xmlns="http://www.w3.org/2000/svg">
<path d="M12 0C5.37178 0 0 5.37178 0 12C0 18.6282 5.37178 24 12 24C18.6282 24 24 18.6282 24 12C24 5.37178 18.5962 0 12 0ZM12 22.8367C6.03198 22.8367 1.16335 17.968 1.16335 12C1.16335 6.03198 6.00002 1.16335 12 1.16335C18 1.16335 22.8367 6.03198 22.8367 12C22.8367 17.968 17.968 22.8367 12 22.8367ZM12.5032 17.8109C12.5032 18.1571 12.221 18.4391 11.875 18.4391C11.5288 18.4391 11.2468 18.157 11.2468 17.8109C11.2468 17.4648 11.5289 17.1827 11.875 17.1827C12.2181 17.1827 12.5032 17.4649 12.5032 17.8109ZM15.1091 9.26613C15.1091 10.3655 14.4809 11.3718 13.3175 12.0611C12.4683 12.5642 12.5003 13.1604 12.5003 13.1924C12.5003 13.1924 12.5003 13.2244 12.5003 13.2564V14.7019C12.5003 15.016 12.2501 15.2662 11.936 15.2662C11.6219 15.2662 11.3398 15.016 11.3398 14.7019V13.2884C11.3078 12.7853 11.5608 11.811 12.6893 11.1217C13.2535 10.7756 13.9137 10.1794 13.9137 9.30103C13.9137 8.23367 13.0354 7.35241 11.9651 7.35241C10.8948 7.35241 10.0165 8.23073 10.0165 9.30103C10.0165 9.61515 9.76635 9.86528 9.45223 9.86528C9.13811 9.86528 8.88798 9.61515 8.88798 9.30103C8.88798 7.57344 10.2695 6.19196 11.9971 6.19196C13.7247 6.19196 15.1091 7.53854 15.1091 9.26613Z" fill="#FFF9F9"/>
</svg>
