<svg width="28" height="24" viewBox="0 0 28 24" fill="none" xmlns="http://www.w3.org/2000/svg">
<path d="M27.6851 9.43307C27.4154 7.94229 26.0499 6.644 24.5553 6.4094C23.869 6.29619 22.0156 6.16549 20.4264 6.11572C20.4565 6.64564 20.4718 7.19197 20.4729 7.75635V7.75908C20.4729 9.31986 20.3586 10.7264 20.1289 12.0581V12.0696C19.9408 13.1086 19.3851 14.1127 18.5643 14.9018C17.7538 15.6811 16.7372 16.2001 15.6997 16.3642C14.7487 16.5206 12.1582 16.6852 10.3289 16.7131L10.3207 16.7262C10.3382 16.8405 10.3562 16.951 10.3754 17.0543C10.6455 18.5451 12.0111 19.8434 13.5051 20.0774C14.408 20.2267 17.3278 20.4056 19.0116 20.3908L20.9361 23.4478C21.0198 23.5807 21.1359 23.6901 21.2734 23.766C21.4109 23.8419 21.5654 23.8817 21.7225 23.8817C21.8795 23.8817 22.034 23.8419 22.1715 23.766C22.3091 23.6901 22.4251 23.5807 22.5089 23.4478L24.6417 20.0627C26.1035 19.7947 27.4247 18.5178 27.6894 17.0549C27.8447 16.1531 27.9908 14.9221 27.9929 13.2415C27.9951 11.561 27.8404 10.3343 27.6851 9.43307Z" fill="#F7FF13"/>
<path d="M18.8355 3.68269C18.5467 2.08855 17.0855 0.70058 15.4886 0.449564C14.5195 0.28933 11.3761 0.0973766 9.57852 0.11433C7.78148 0.0973766 4.63805 0.28933 3.66898 0.449564C2.07102 0.70058 0.610312 2.09019 0.322109 3.68269C0.155859 4.64683 0 5.96261 0 7.76074C0 9.55886 0.155859 10.8741 0.322109 11.8361C0.605391 13.4007 2.01742 14.7668 3.58094 15.0533L5.86031 18.6736C5.94991 18.8156 6.07401 18.9326 6.22104 19.0137C6.36807 19.0948 6.53323 19.1373 6.70113 19.1373C6.86903 19.1373 7.0342 19.0948 7.18123 19.0137C7.32825 18.9326 7.45235 18.8156 7.54195 18.6736L9.60039 15.4044C11.4012 15.4197 14.5223 15.2289 15.4886 15.0692C17.0866 14.8182 18.5467 13.4286 18.8355 11.8361C18.9995 10.8719 19.1581 9.55613 19.1603 7.75855C19.1625 5.96097 19.0017 4.64683 18.8355 3.68269ZM10.5087 9.87332C10.5114 9.99342 10.4902 10.1129 10.4461 10.2246C10.4021 10.3364 10.3362 10.4383 10.2524 10.5243C10.1685 10.6103 10.0683 10.6787 9.95767 10.7255C9.84704 10.7724 9.72818 10.7967 9.60805 10.797C8.01372 10.7809 6.41958 10.7454 4.82562 10.6903C4.57821 10.6767 4.3441 10.574 4.16664 10.401C3.98918 10.2281 3.88038 9.99671 3.86039 9.74972C3.83086 9.24933 4.22516 8.85449 4.73539 8.86597C6.35122 8.90243 7.96742 8.92631 9.58398 8.93761C9.83027 8.94091 10.0654 9.04084 10.2387 9.21587C10.412 9.3909 10.5096 9.62701 10.5104 9.87332H10.5087ZM14.2505 6.75613C11.0706 6.77363 7.89049 6.76123 4.71023 6.71894C4.19836 6.71128 3.7718 6.29894 3.76359 5.79855C3.75539 5.29816 4.17102 4.89347 4.68508 4.89402C7.87701 4.90094 11.0689 4.90313 14.2609 4.90058C14.3825 4.89986 14.5031 4.92325 14.6157 4.96942C14.7283 5.01558 14.8306 5.08359 14.9168 5.16953C15.0029 5.25547 15.0712 5.35762 15.1176 5.47009C15.164 5.58257 15.1877 5.70312 15.1873 5.8248C15.1846 6.07216 15.0849 6.30858 14.9097 6.48324C14.7345 6.65791 14.4978 6.75687 14.2505 6.75886V6.75613Z" fill="#F7FF13"/>
</svg>
