<svg width="40" height="40" viewBox="0 0 40 40" fill="none" xmlns="http://www.w3.org/2000/svg">
<g clip-path="url(#clip0_137_16321)">
<path fill-rule="evenodd" clip-rule="evenodd" d="M12.1777 31.9603C9.75451 31.9043 7.66171 31.6631 6.63651 31.1775C5.05971 30.4295 4.36691 28.7895 4.58731 27.1351C4.80811 25.4807 5.36211 23.9671 7.57371 23.4991C9.78571 23.0299 13.6549 23.9311 18.0809 22.9431C22.5077 21.9543 24.7865 20.6191 26.1009 19.8415C27.4145 19.0643 27.8477 18.7703 28.6101 18.0135C29.3721 17.2563 29.7769 16.2967 29.7769 16.2967L34.8701 0.416661H36.5517L30.9717 17.8055C30.8389 18.2195 28.7557 20.4887 26.6217 21.4507C24.4885 22.4127 21.0417 24.2667 17.5529 24.6779C13.5849 25.1459 8.70891 24.5403 7.82091 24.8859C6.93291 25.2311 6.15571 25.4235 5.92731 27.2379C5.69851 29.0523 6.53211 29.4259 7.34651 29.7579C8.32731 30.1571 10.5293 30.4539 12.6325 30.5619C12.4377 31.0079 12.2841 31.4755 12.1777 31.9603ZM26.3909 30.1843C29.0429 29.3735 30.8937 28.3307 31.5521 26.1675L39.8201 0.397461L38.1457 0.400261L31.4721 21.1935L30.0681 25.3715C29.6533 26.7315 29.2009 26.9927 27.1521 27.9335C26.7177 28.1335 26.0749 28.3547 25.3089 28.5823C25.7341 29.0663 26.0993 29.6039 26.3917 30.1847L26.3909 30.1843Z" fill="black"/>
<path opacity="0.5" fill-rule="evenodd" clip-rule="evenodd" d="M14.2464 28.2054L15.8332 24.0722L14.3392 23.4994L11.4724 30.9674L12.3524 31.3058C12.7284 30.1202 13.3856 29.0606 14.2468 28.2058L14.2464 28.2054ZM19.7516 26.0014L20.5428 23.2414L19.0052 22.7998L18.0412 26.1598C18.5452 26.055 19.066 25.9998 19.6 25.9998C19.6508 25.9998 19.7008 25.9998 19.7516 26.0014ZM24.0008 27.4034L24.4968 21.7394L22.9028 21.5994L22.4688 26.5594C23.014 26.7822 23.5276 27.0662 24.0008 27.4034ZM10.34 23.585L11.7656 24.3114L8.31525 31.0834L6.88965 30.3566L10.34 23.585ZM26.4 21.2838L28.0412 20.1738L28.4304 29.4514L26.8324 29.5346L26.4 21.283V21.2838Z" fill="black"/>
<path fill-rule="evenodd" clip-rule="evenodd" d="M19.6 38.7998C22.472 38.7998 24.8 36.4718 24.8 33.5998C24.8 30.7278 22.472 28.3998 19.6 28.3998C16.728 28.3998 14.4 30.7278 14.4 33.5998C14.4 36.4718 16.728 38.7998 19.6 38.7998ZM19.6 40.3998C15.844 40.3998 12.8 37.3558 12.8 33.5998C12.8 29.8438 15.844 26.7998 19.6 26.7998C23.356 26.7998 26.4 29.8438 26.4 33.5998C26.4 37.3558 23.356 40.3998 19.6 40.3998Z" fill="black"/>
<path fill-rule="evenodd" clip-rule="evenodd" d="M19.0345 34.166C19.3465 34.478 19.8533 34.478 20.1657 34.166C20.4777 33.854 20.4777 33.3472 20.1657 33.0348C19.8537 32.7228 19.3469 32.7228 19.0345 33.0348C18.7225 33.3468 18.7225 33.8536 19.0345 34.166Z" fill="black"/>
<path fill-rule="evenodd" clip-rule="evenodd" d="M19.0344 34.1658C19.3464 34.4778 19.8532 34.4778 20.1656 34.1658C20.4776 33.8538 20.4776 33.3469 20.1656 33.0345C19.8536 32.7225 19.3468 32.7225 19.0344 33.0345C18.7224 33.3465 18.7224 33.8534 19.0344 34.1658ZM17.172 36.0281C17.484 36.3409 17.9904 36.3409 18.3028 36.0281C18.6148 35.7161 18.6148 35.2097 18.3028 34.8973C17.9908 34.5853 17.484 34.5853 17.1716 34.8973C16.8588 35.2093 16.8588 35.7161 17.1716 36.0285L17.172 36.0281ZM20.8972 32.303C21.2092 32.615 21.716 32.615 22.0284 32.303C22.3412 31.991 22.3412 31.4842 22.0284 31.1718C21.7164 30.859 21.21 30.859 20.8976 31.1718C20.5856 31.4838 20.5856 31.9901 20.8976 32.3025L20.8972 32.303ZM17.2652 32.2098C17.5772 32.5218 18.084 32.5218 18.3964 32.2098C18.7092 31.8978 18.7092 31.3905 18.3964 31.0777C18.0844 30.7658 17.578 30.7658 17.2656 31.0777C16.9536 31.3905 16.9536 31.8978 17.2656 32.2098H17.2652ZM20.9904 35.9349C21.3024 36.2469 21.8096 36.2469 22.1224 35.9349C22.4344 35.6229 22.4344 35.1162 22.1224 34.8038C21.8096 34.491 21.3024 34.491 20.9904 34.8038C20.6784 35.1158 20.6784 35.6225 20.9904 35.9349Z" fill="black"/>
</g>
<defs>
<clipPath id="clip0_137_16321">
<rect width="40" height="40" fill="black"/>
</clipPath>
</defs>
</svg>
