<svg width="40" height="40" viewBox="0 0 40 40" fill="none" xmlns="http://www.w3.org/2000/svg">
<g id="handball-jKiBGB.svg" clip-path="url(#clip0_137_16202)">
<g id="Group">
<path id="Vector" fill-rule="evenodd" clip-rule="evenodd" d="M20 40C31.0455 40 40 31.0455 40 20C40 8.95447 31.0455 0 20 0C8.95447 0 0 8.95447 0 20C0 31.0455 8.95447 40 20 40ZM26.6796 36.9626C27.1323 36.5243 27.4974 36.0783 27.7553 35.5285C28.4694 35.5043 29.1809 35.3945 29.8872 35.2187C30.0532 35.1774 30.2247 35.1123 30.3902 35.0655C29.1953 35.914 27.9051 36.586 26.5434 37.0894C26.5902 37.0477 26.6353 37.0051 26.6796 36.9626ZM29.9264 34.2434C29.2166 34.4349 28.5051 34.5651 27.7894 34.6145C27.1715 34.223 26.6132 33.8179 26.1315 33.3932C25.6881 33.0038 25.3119 32.6 25.0157 32.1796C25.5979 31.1685 26.0762 30.1443 26.4604 29.1094C26.846 28.0711 27.14 27.0157 27.3532 25.9477C28.3838 25.5689 29.3574 25.0996 30.2787 24.5451C31.1851 24.0004 32.0404 23.3715 32.846 22.6651C33.3736 22.9698 33.8787 23.3272 34.3609 23.7332C34.8757 24.1655 35.3694 24.6583 35.8438 25.2038C35.8557 25.8902 35.8115 26.6149 35.7119 27.3783C35.6077 28.1677 35.5574 29.0792 35.3323 29.9511C34.6609 30.9843 33.883 31.9426 33.0145 32.8098C32.7557 33.0672 32.4898 33.3174 32.2145 33.5596C31.494 33.8651 30.6557 34.0464 29.9272 34.2434H29.9264ZM36.5562 27.32C36.654 26.5217 36.7196 25.8153 36.7094 25.0928C37.2106 24.5438 37.6557 23.9302 37.9919 23.2574L38.0004 23.2404C37.7196 24.9553 37.1238 26.5979 36.4217 28.1064C36.46 27.8621 36.5281 27.5566 36.5566 27.3191L36.5562 27.32ZM37.4004 22.8038C37.1043 23.3685 36.7451 23.8881 36.3196 24.357C35.8753 23.8472 35.4106 23.38 34.9247 22.96C34.4183 22.5226 33.8919 22.1387 33.3443 21.8128C33.623 20.6034 33.7838 19.3915 33.8102 18.177C33.8357 16.9787 33.7306 15.7813 33.4783 14.5855C33.9664 14.4298 34.4187 14.263 34.8391 14.0851C35.2562 13.9089 35.6404 13.7234 35.9979 13.5285C36.4106 13.9894 36.7664 14.5234 37.0804 15.1115C37.4336 15.7711 37.8319 16.5128 38.1017 17.2753C38.2302 18.1519 38.2889 19.0106 38.2889 19.9243C38.2889 20.1647 38.2838 20.4051 38.274 20.6434C38.0923 21.4123 37.7438 22.1498 37.4017 22.8038H37.4004ZM36.3106 12.9047C36.3574 12.5898 36.4187 12.2494 36.4213 11.9281C36.8247 12.6489 37.0749 13.4472 37.3668 14.2191C37.0328 13.7498 36.7268 13.2898 36.3106 12.9047ZM35.6511 11.674C35.6596 12.0247 35.6392 12.3762 35.5949 12.7277C35.2323 12.9247 34.84 13.1136 34.4119 13.2919C33.9791 13.4723 33.5081 13.6426 32.9957 13.8009C32.0349 12.8391 31.0583 12.0243 30.0651 11.3626C29.0766 10.703 28.0715 10.1966 27.0498 9.85064C26.8209 8.8634 26.5221 7.93234 26.1477 7.06468C25.7817 6.22085 25.3434 5.4366 24.8243 4.72C25.083 4.43574 25.4051 4.18255 25.7987 3.96255C26.2515 3.70979 26.8766 3.46468 27.5238 3.30723C29.5651 4.20681 31.2515 5.51872 32.8515 6.96043C34.4515 8.40213 35.3026 9.92213 35.5953 10.4149C35.8889 10.9085 35.643 11.2923 35.6519 11.6745L35.6511 11.674ZM26.6596 10.7677C27.6523 11.0911 28.6306 11.5711 29.5957 12.2009C30.58 12.8413 31.5506 13.6391 32.5094 14.5851C32.7851 15.7745 32.9009 16.9617 32.8753 18.1468C32.8481 19.3323 32.6796 20.5196 32.386 21.7098C31.5753 22.4221 30.7136 23.0545 29.7979 23.6004C28.8979 24.1366 27.9447 24.5911 26.9349 24.957L20.4549 21.3953V13.9383C23.0051 12.0404 25.4145 11.2255 26.66 10.7672L26.6596 10.7677ZM14.8523 3.3617C15.323 3.63915 15.7089 3.9634 16.0191 4.33021C18.54 3.53149 21.4179 3.53149 23.9383 4.33021C24.2489 3.9634 24.6345 3.63915 25.1051 3.3617C25.4123 3.18213 25.8894 2.9234 26.2732 2.78468C22.3302 1.22936 17.7221 1.22936 13.7783 2.78468C14.1626 2.92298 14.5451 3.18213 14.8523 3.3617ZM14.6736 7.29362C14.3162 8.08426 14.0289 8.93191 13.8055 9.83064C14.7843 10.2485 19.1557 12.3004 19.9672 13.0332C20.7787 12.3004 25.1511 10.2485 26.1289 9.83064C25.9064 8.93277 25.6196 8.08426 25.2609 7.29362C24.8847 6.46128 24.4277 5.69192 23.8809 4.99319C21.3855 4.26128 18.5489 4.26128 16.0536 4.99319C15.5072 5.69192 15.0494 6.46128 14.6732 7.29362H14.6736ZM13.6285 25.8694C13.8362 26.9204 14.123 27.9617 14.4983 28.9894C14.8838 30.0472 15.3613 31.0872 15.9421 32.106C18.4468 32.7455 21.5072 32.7455 24.0119 32.106C24.5923 31.0877 25.0698 30.0477 25.4557 28.9898C25.8311 27.9621 26.117 26.9209 26.3251 25.8698L19.977 22.1294L13.6281 25.8698L13.6285 25.8694ZM14.7277 34.2281C14.2553 34.6323 13.7149 35.0196 13.1192 35.3932C13.3217 35.7932 13.6187 36.1583 13.9843 36.4974C14.4183 36.9 14.9319 37.3987 15.5204 37.746C18.4481 38.4889 21.5034 38.4889 24.4311 37.746C25.0196 37.3987 25.6353 36.9 26.0694 36.4979C26.4353 36.1591 26.7323 35.7945 26.9353 35.394C26.3396 35.0196 25.7992 34.6323 25.3268 34.2289C24.8502 33.8213 24.4434 33.3949 24.1162 32.9438C21.577 33.5502 18.477 33.5502 15.9374 32.9438C15.6111 33.3949 15.203 33.8213 14.7272 34.2289L14.7277 34.2281ZM13.3404 36.9502C12.8872 36.5119 12.4894 36.0638 12.2315 35.5149C11.5174 35.4902 10.8068 35.3609 10.0996 35.1855C9.93362 35.1438 9.76851 35.0992 9.6034 35.0515C10.7983 35.9009 12.114 36.5732 13.4757 37.077C13.4289 37.0345 13.3843 36.9919 13.3396 36.9502H13.3404ZM10.0783 34.3468C10.7881 34.5391 11.5004 34.6694 12.2157 34.7183C12.8336 34.3277 13.3919 33.9217 13.8736 33.4979C14.3162 33.1081 14.6932 32.7043 14.9885 32.2838C14.4064 31.2723 13.9289 30.2481 13.5438 29.2132C13.1583 28.1749 12.8647 27.1196 12.6511 26.0515C11.6213 25.6728 10.6468 25.2034 9.72638 24.6489C8.82 24.1034 7.96468 23.4745 7.15872 22.7681C6.63106 23.0732 6.12638 23.4302 5.64383 23.8362C5.12894 24.2689 4.63532 24.7613 4.16128 25.3072C4.14851 25.9936 4.19319 26.7179 4.29319 27.4817C4.39702 28.2711 4.47021 29.1413 4.69532 30.0123C5.36766 31.0464 6.14553 32.0038 7.01447 32.8711C7.27234 33.1289 7.53872 33.3792 7.81319 33.6209C8.53362 33.9272 9.34936 34.1498 10.0779 34.3464L10.0783 34.3468ZM3.52213 27.4779C3.42426 26.6796 3.29362 25.9443 3.30511 25.2217C2.80298 24.6728 2.01362 23.36 2.01362 23.36C2.29532 25.0749 2.92085 26.6911 3.6234 28.1996C3.58511 27.9557 3.55106 27.7149 3.52213 27.4779ZM2.58809 22.7694C2.88511 23.3345 3.2434 23.8545 3.66894 24.3238C4.11362 23.8132 4.57787 23.3464 5.06468 22.9264C5.57106 22.4894 6.09702 22.1051 6.64511 21.7796C6.36553 20.5702 6.20468 19.3583 6.1783 18.1434C6.15277 16.9451 6.25787 15.7477 6.50936 14.5519C6.02213 14.3966 5.57021 14.2298 5.14979 14.0515C4.73277 13.8753 4.34808 13.6889 3.99106 13.4949C3.5783 13.9557 3.22298 14.4898 2.90851 15.077C2.55532 15.7379 2.17787 16.4685 1.90851 17.2311C1.78085 18.1077 1.71277 19.0055 1.71277 19.9196C1.71277 20.16 1.71787 20.4004 1.72723 20.6387C1.90936 21.4077 2.24511 22.1153 2.58766 22.7698L2.58809 22.7694ZM3.6617 12.9055C3.61574 12.5906 3.61574 12.2034 3.61362 11.8826C3.20936 12.6034 2.92511 13.4847 2.63277 14.2562C2.96638 13.7868 3.24553 13.2906 3.6617 12.9055ZM4.25872 11.6613C4.25106 12.0119 4.33702 12.3719 4.38128 12.7243C4.74298 12.9209 5.13532 13.1098 5.5634 13.2881C5.99745 13.4685 6.46808 13.6387 6.98043 13.7974C7.94128 12.8357 8.91745 12.0204 9.91064 11.3583C10.9 10.6987 11.9047 10.1932 12.9264 9.84681C13.1562 8.86042 13.454 7.92936 13.8294 7.06128C14.1945 6.21745 14.6328 5.43319 15.1519 4.7166C14.8923 4.43277 14.5706 4.17915 14.1774 3.95915C13.7247 3.70638 13.1796 3.46681 12.5319 3.30894C10.4915 4.20851 8.62298 5.49191 7.07149 7.06128C6.05745 8.08681 5.07021 9.29191 4.32681 10.5421C4.24851 10.9315 4.26723 11.2791 4.25872 11.6613ZM13.3234 10.6128C12.3298 10.9447 11.3489 11.4383 10.3817 12.0838C9.3966 12.7413 8.42426 13.5596 7.46255 14.5306C7.18681 15.7519 7.07106 16.9698 7.09745 18.1868C7.12298 19.4026 7.29234 20.6209 7.58681 21.8421C8.39872 22.574 9.2617 23.223 10.18 23.7834C11.0821 24.334 12.0362 24.8004 13.0481 25.1757L19.4702 21.3949L19.4694 13.9353C17.1609 12.2919 15.177 11.3706 13.3234 10.6119V10.6128Z" fill="currentColor"/>
</g>
</g>
<defs>
<clipPath id="clip0_137_16202">
<rect width="40" height="40" fill="currentColor"/>
</clipPath>
</defs>
</svg>
