<svg width="22" height="16" viewBox="0 0 22 16" fill="none" xmlns="http://www.w3.org/2000/svg">
<path d="M18.4117 4.31246C18.3425 4.24352 18.2725 4.17574 18.2016 4.10912L20.5303 1.78034C20.6708 1.63966 20.7497 1.44894 20.7497 1.25012C20.7496 1.05129 20.6706 0.860623 20.53 0.720032C20.3894 0.57944 20.1987 0.500429 19.9999 0.500366C19.8011 0.500304 19.6104 0.579195 19.4697 0.719699L17.035 3.15441C15.2703 1.91206 13.1642 1.24676 11.0061 1.24996C8.84803 1.25317 6.74391 1.92472 4.98298 3.17231L2.53032 0.719703C2.38964 0.579199 2.19893 0.500307 2.0001 0.50037C1.80127 0.500432 1.61061 0.579443 1.47002 0.720035C1.32943 0.860627 1.25041 1.05129 1.25035 1.25012C1.25029 1.44895 1.32918 1.63966 1.46969 1.78034L3.81902 4.12968C2.76941 5.12407 1.93371 6.32215 1.36303 7.65061C0.792346 8.97908 0.498684 10.41 0.500004 11.8559V14C0.500459 14.3977 0.658641 14.779 0.939847 15.0602C1.22105 15.3414 1.60232 15.4996 2 15.5H20C20.3977 15.4996 20.779 15.3414 21.0602 15.0602C21.3414 14.779 21.4995 14.3977 21.5 14V11.75C21.5039 10.3675 21.2328 8.99798 20.7027 7.72115C20.1725 6.44431 19.3937 5.28562 18.4117 4.31246ZM7.625 11.75C7.4025 11.75 7.18499 11.684 6.99999 11.5604C6.81498 11.4368 6.67079 11.2611 6.58564 11.0555C6.50049 10.85 6.47821 10.6238 6.52162 10.4055C6.56503 10.1873 6.67217 9.98686 6.82951 9.82952C6.98684 9.67219 7.1873 9.56504 7.40553 9.52164C7.62376 9.47823 7.84996 9.50051 8.05552 9.58566C8.26109 9.6708 8.43679 9.815 8.56041 10C8.68402 10.185 8.75 10.4025 8.75 10.625C8.75 10.9234 8.63148 11.2095 8.4205 11.4205C8.20952 11.6315 7.92337 11.75 7.625 11.75ZM14.375 11.75C14.1525 11.75 13.935 11.684 13.75 11.5604C13.565 11.4368 13.4208 11.2611 13.3356 11.0555C13.2505 10.85 13.2282 10.6238 13.2716 10.4055C13.315 10.1873 13.4222 9.98686 13.5795 9.82952C13.7368 9.67219 13.9373 9.56504 14.1555 9.52164C14.3738 9.47823 14.6 9.50051 14.8055 9.58566C15.0111 9.6708 15.1868 9.815 15.3104 10C15.434 10.185 15.5 10.4025 15.5 10.625C15.5 10.9234 15.3815 11.2095 15.1705 11.4205C14.9595 11.6315 14.6734 11.75 14.375 11.75Z" fill="white"/>
</svg>
