<svg width="18" height="18" viewBox="0 0 18 18" fill="none" xmlns="http://www.w3.org/2000/svg">
<path d="M9 18C13.97 18 18 13.97 18 9C18 4.02996 13.97 0 9 0C4.02996 0 0 4.02996 0 9C0 13.97 4.02996 18 9 18Z" fill="white"/>
<path d="M17.44 12.1289C18.1867 10.1091 18.1867 7.88885 17.44 5.86902H0.560043C-0.186681 7.88885 -0.186681 10.1091 0.560043 12.1289L9 12.9154L17.44 12.1289Z" fill="#0052B4"/>
<path d="M9.00002 18C12.87 18 16.1698 15.5602 17.44 12.1289H0.560059C1.83166 15.5602 5.13002 18 9.00002 18Z" fill="#D80027"/>
</svg>
