<svg width="34" height="34" viewBox="0 0 34 34" fill="none" xmlns="http://www.w3.org/2000/svg">
<rect width="34" height="34" rx="17" fill="#02417A"/>
<path d="M28 16.8443L23.8514 14.3507C23.8514 14.3507 23.6629 13.6233 22.9086 12.7312L23.6629 9.98847L20.8343 10.8605C20.8343 10.8605 19.8914 10.1331 19.3886 10.0508L17 6L14.4857 10.2376C14.4857 10.2376 13.9829 10.4667 12.9771 10.8605L10.3371 9.73933L11.1543 12.669C11.1543 12.669 10.4629 13.6455 10.3371 14.4129L6 16.8443L10.2114 19.2756C10.2114 19.2756 10.5684 20.3767 10.9657 20.8973L10.0229 23.5778L12.9143 22.8904C12.9143 22.8904 14.2769 23.8469 14.8 24.0115L16.9371 28L19.3257 24.0115C19.3257 24.0115 20.7714 23.3887 21.2114 23.0772L24.04 23.8247L23.16 20.9573C23.16 20.9573 23.9143 19.7517 24.1657 19.1511L28 16.8443ZM20.08 20.459C20.08 20.459 18.9014 21.4245 17.3771 21.5179C17.3771 21.5179 14.7214 21.8605 13.7943 20.6459L15.8686 19.8985C15.8686 19.8985 19.0271 18.8708 19.0743 17.7786C19.0743 17.7786 20.0329 16.019 18.6971 14.4752L18.5714 14.1638L18.32 14.2261C18.32 14.2261 16.9371 13.7589 15.7429 14.9735C15.7429 14.9735 15.0671 16.1258 15.9314 16.9066C15.9314 16.9066 16.4029 17.1713 16.3714 16.6574L16.2457 15.9723C16.2457 15.9723 18.1629 15.0692 18.1943 17.9676C18.1943 17.9676 16.6386 19.4936 14.9886 18.5282C14.9886 18.5282 12.8986 16.6886 13.2914 15.2249L13.2286 14.4775L14.6114 13.294L16.4343 12.2352L17.0629 12.3598L17.6286 12.1106L17.9429 12.4843L19.7029 12.9203C19.7029 12.9203 21.2586 14.5086 21.2743 15.1648C21.2743 15.1626 22.4057 18.6038 20.08 20.459Z" fill="#FFD800"/>
</svg>
