<svg width="24" height="24" viewBox="0 0 24 24" fill="none" xmlns="http://www.w3.org/2000/svg">
<path id="Vector" d="M5.40847 9.10908C5.47321 9.02798 5.55167 9.04392 5.59278 9.06047C5.62724 9.07444 5.70617 9.11906 5.69525 9.23091C5.68213 9.3652 5.67477 9.50212 5.67336 9.63792C5.6675 10.2013 5.89349 10.7532 6.29333 11.1521C6.69064 11.5485 7.21321 11.7621 7.76961 11.7559C8.52964 11.7462 9.16002 11.3497 9.59263 10.6095C9.95033 9.99731 9.79311 9.2078 9.62666 8.37188C9.52925 7.88259 9.42852 7.37663 9.42852 6.89508C9.42852 3.14559 11.9492 0.982406 13.4517 0.0266719C13.4828 0.0069375 13.5124 0 13.5386 0C13.5812 0 13.6149 0.018375 13.6316 0.029625C13.6638 0.0514687 13.7154 0.10125 13.6988 0.189375C13.1245 3.23916 14.8375 5.07342 16.6511 7.01536C18.5205 9.01706 20.6393 11.2859 20.6393 15.3777C20.6393 20.1321 16.7713 24.0001 12.0169 24.0001C8.10224 24.0001 4.65078 21.2708 3.62366 17.3631C2.92325 14.6985 3.65722 11.3044 5.40847 9.10908ZM11.8018 22.1596C12.9923 22.2139 14.1245 21.7869 14.9893 20.9601C15.8448 20.142 16.3355 19.0004 16.3355 17.8278C16.3355 15.6275 15.4942 14.0122 13.2313 11.8677C13.1943 11.8326 13.1564 11.8215 13.1233 11.8215C13.0934 11.8215 13.0674 11.8306 13.0496 11.8392C13.0119 11.8574 12.95 11.9023 12.9584 11.9994C13.0393 12.9409 13.0379 13.7223 12.9543 14.3221C12.7405 15.8542 11.6189 16.8837 10.1632 16.8837C9.44952 16.8837 8.76969 16.6151 8.24896 16.1273C8.22885 16.108 8.20433 16.0939 8.17752 16.0863C8.15071 16.0786 8.12243 16.0776 8.09516 16.0834C8.06089 16.0908 8.015 16.1118 7.99096 16.1698C7.77505 16.6911 7.66471 17.2445 7.66302 17.8144C7.65613 20.1078 9.51275 22.0571 11.8018 22.1596Z" fill="currentCOlor"/>
</svg>
