<svg width="48" height="48" viewBox="0 0 48 48" fill="none" xmlns="http://www.w3.org/2000/svg">
<g clip-path="url(#clip0_11_92)">
<path d="M32.2844 30.075H30.7282V18.8322C30.7282 15.4802 28.0011 12.7531 24.649 12.7531H22.0308L21.4836 12.206C21.209 11.9314 20.7638 11.9314 20.4892 12.206C20.2146 12.4806 20.2146 12.9257 20.4892 13.2004L20.7451 13.4563L15.2184 18.9841C15.0987 19.1038 15.0263 19.2626 15.0143 19.4315C15.0023 19.6003 15.0516 19.7677 15.1531 19.9031L17.4125 22.9157C17.501 23.0337 17.6245 23.1209 17.7653 23.1649C17.9062 23.2089 18.0573 23.2075 18.1973 23.1608L21.7905 21.9631V23.7871L18.8961 28.1287C18.8191 28.2442 18.778 28.3799 18.778 28.5188V30.075H17.2219C16.8336 30.075 16.5187 30.3898 16.5187 30.7781V35.2969C16.5187 35.6853 16.8336 36.0001 17.2219 36.0001H32.2844C32.6727 36.0001 32.9875 35.6853 32.9875 35.2969V30.7782C32.9875 30.3898 32.6727 30.075 32.2844 30.075Z" fill="white"/>
</g>
<defs>
<clipPath id="clip0_11_92">
<rect width="24" height="24" fill="white" transform="translate(12 12)"/>
</clipPath>
</defs>
</svg>
