<svg width="34" height="34" viewBox="0 0 34 34" fill="none" xmlns="http://www.w3.org/2000/svg">
<rect x="-0.00012207" width="34" height="34" rx="17" fill="#DE9B35"/>
<path d="M16.5247 7.43008V8.15585H16.9786L17.6311 7.79297V7.24138H17.8013V7.70588H18.1843V7.99619H23.0495V8.14134H23.2339V7.22687H23.4183V8.14134H23.7446V8.48971H25.163V8.33004H25.3048V8.51874H25.9999V8.80905H25.0779V8.69293H23.7587V8.82356H23.0495V9.07033H20.9644L20.2126 9.78158L20.4396 10.9138L20.0141 11.1751C20.0141 11.1751 19.7304 13.0476 18.3687 12.8879L16.4821 11.9589L16.3403 12.5831L16.8509 13.004V15.2249L16.3403 15.8926L15.9573 15.791V16.6619C16.8819 17.6117 17.5259 18.8091 17.8155 20.1166C18.0127 20.3048 18.1425 20.5552 18.1843 20.8278C18.2891 21.2547 18.3368 21.6942 18.3261 22.1342C18.1958 22.6573 18.1151 23.192 18.085 23.7309C18.1984 24.2116 18.1737 24.7157 18.0141 25.1824V26.3727C18.2119 26.7201 18.45 27.0418 18.7233 27.3307C18.9502 27.4468 19.702 27.6646 19.7304 27.8678V28.3903H17.858C17.6769 28.2939 17.4868 28.2161 17.2907 28.1581C17.0495 28.1581 16.624 28.4194 16.2836 28.1581C16.2167 28.0741 16.1714 27.9744 16.1516 27.868C16.1317 27.7615 16.1381 27.6517 16.1701 27.5485L16.5247 26.6775V25.3276C16.1494 24.8268 15.9722 24.1997 16.0282 23.5712C16.1275 22.5116 16.2836 22.2213 16.2694 21.931C16.2552 21.6407 16.1701 21.3939 15.9573 21.3939H15.4892L14.1843 19.4779H13.6736L13.4325 18.8828H13.2197V19.3327C12.7736 19.7424 12.4658 20.2861 12.3403 20.8859C12.3403 21.6987 12.1275 21.8003 11.929 21.9455C11.5055 22.3145 11.2322 22.8323 11.163 23.397C11.1814 23.9094 11.0479 24.4154 10.78 24.8486C10.5673 25.1389 10.6098 25.705 10.3687 25.8647C10.1692 25.9757 10.0023 26.1391 9.88508 26.3381C9.76789 26.5371 9.7047 26.7645 9.70201 26.9969C9.63495 27.5074 9.67361 28.0267 9.81548 28.521C9.84614 28.6399 9.84614 28.7649 9.81548 28.8839C9.51712 28.9517 9.21317 28.9906 8.90768 29C8.49633 29 8.02825 29 7.99988 28.6952C8.1137 27.7886 8.30837 26.8946 8.58144 26.0243C8.48211 25.8155 8.42426 25.5885 8.41123 25.3566C8.48212 24.9428 8.65276 24.5537 8.90768 24.2244C8.87485 24.0177 8.87485 23.807 8.90768 23.6003C8.90768 23.4116 9.8864 21.8439 10.085 21.452C9.94849 20.924 9.94849 20.3688 10.085 19.8408C10.3119 19.1731 10.3829 18.8973 10.3119 18.7231C10.241 18.5489 9.98569 18.1715 10.0282 17.9973C10.0708 17.8231 10.2126 17.9247 10.2126 17.9247V17.5764H10.0141C10.0116 17.4291 10.06 17.2857 10.1509 17.1715C10.2417 17.0572 10.3691 16.9796 10.5105 16.9522C10.4617 16.4931 10.386 16.0375 10.2836 15.5877C10.2126 15.1958 10.1843 14.4846 10.6382 14.412C10.6382 14.412 10.5673 14.0927 10.3403 14.0927C10.223 14.0718 10.103 14.0718 9.9857 14.0927L10.1843 11.625H11.1914C10.962 10.7309 11.0167 9.78537 11.3474 8.92517C11.9431 7.86555 12.7658 7.22687 13.5176 7.80748H13.6878L13.6169 7.48815C13.4534 7.03251 13.4649 6.53034 13.6492 6.08308C13.8335 5.63582 14.1768 5.27682 14.6098 5.07859C14.9687 4.9775 15.3471 4.97387 15.7078 5.06805C16.0684 5.16223 16.3989 5.35097 16.6665 5.61566C16.8724 5.81538 17.0057 6.08092 17.0444 6.36852C17.083 6.65612 17.0248 6.94862 16.8793 7.19784C16.7868 7.3102 16.6631 7.39118 16.5247 7.43008Z" fill="black"/>
</svg>
