<svg width="48" height="48" viewBox="0 0 48 48" fill="none" xmlns="http://www.w3.org/2000/svg">
<path d="M17.5714 34.6667C17.5714 35.4 18.15 36 18.8571 36H29.1429C29.85 36 30.4286 35.4 30.4286 34.6667V30.6667H17.5714V34.6667ZM31.7143 17.3333C31.0071 17.3333 30.4286 17.9333 30.4286 18.6667V14.6667C30.4286 13.2 29.2714 12 27.8571 12H17.5714C16.1571 12 15 13.2 15 14.6667V22.4C15 22.5733 15.0129 22.7467 15.0514 22.92L16.08 28.2533C16.1957 28.88 16.7229 29.32 17.34 29.32H30.66C31.2386 29.32 31.8043 28.84 31.92 28.2533L32.9486 22.92C32.9871 22.7467 33 22.5733 33 22.4V18.6667C33 17.9333 32.4214 17.3333 31.7143 17.3333ZM27.8571 21.3333H17.5714V17.3333H27.8571V21.3333Z" fill="white"/>
</svg>
