<svg width="48" height="48" viewBox="0 0 48 48" fill="none" xmlns="http://www.w3.org/2000/svg">
<path d="M17.25 30.75C15.975 30.75 15 29.775 15 28.5V19.5C15 18.225 15.975 17.25 17.25 17.25C18.525 17.25 19.5 18.225 19.5 19.5V28.5C19.5 29.775 18.525 30.75 17.25 30.75ZM30.75 30.75C29.475 30.75 28.5 29.775 28.5 28.5V19.5C28.5 18.225 29.475 17.25 30.75 17.25C32.025 17.25 33 18.225 33 19.5V28.5C33 29.775 32.025 30.75 30.75 30.75Z" fill="white"/>
<path d="M29.25 24.75H18.75C18.3 24.75 18 24.45 18 24C18 23.55 18.3 23.25 18.75 23.25H29.25C29.7 23.25 30 23.55 30 24C30 24.45 29.7 24.75 29.25 24.75ZM13.5 19.65C12.6 19.95 12 20.775 12 21.75V26.25C12 27.225 12.6 28.05 13.5 28.35V19.65ZM34.5 19.65V28.35C35.4 28.05 36 27.225 36 26.25V21.75C36 20.775 35.4 19.95 34.5 19.65Z" fill="white"/>
</svg>
