<svg width="48" height="48" viewBox="0 0 48 48" fill="none" xmlns="http://www.w3.org/2000/svg">
<g clip-path="url(#clip0_11_92)">
<path d="M17.4084 21.109C17.4732 21.0279 17.5516 21.0438 17.5928 21.0603C17.6272 21.0743 17.7061 21.1189 17.6952 21.2308C17.6821 21.3651 17.6747 21.502 17.6733 21.6378C17.6675 22.2011 17.8935 22.753 18.2933 23.152C18.6906 23.5484 19.2132 23.7619 19.7696 23.7558C20.5296 23.746 21.16 23.3496 21.5926 22.6093C21.9503 21.9972 21.7931 21.2077 21.6266 20.3718C21.5292 19.8825 21.4285 19.3765 21.4285 18.895C21.4285 15.1455 23.9491 12.9823 25.4517 12.0265C25.4828 12.0068 25.5123 11.9999 25.5385 11.9999C25.5811 11.9999 25.6149 12.0183 25.6315 12.0295C25.6638 12.0513 25.7154 12.1011 25.6988 12.1893C25.1245 15.239 26.8375 17.0733 28.6511 19.0152C30.5205 21.0169 32.6393 23.2857 32.6393 27.3776C32.6393 32.132 28.7713 36 24.0168 36C20.1022 36 16.6508 33.2707 15.6236 29.3629C14.9232 26.6984 15.6572 23.3043 17.4084 21.109ZM23.8017 34.1595C24.9923 34.2138 26.1245 33.7868 26.9893 32.9599C27.8448 32.1419 28.3355 31.0002 28.3355 29.8277C28.3355 27.6273 27.4942 26.012 25.2313 23.8676C25.1943 23.8325 25.1564 23.8214 25.1233 23.8214C25.0934 23.8214 25.0674 23.8305 25.0495 23.8391C25.0119 23.8572 24.95 23.9021 24.9584 23.9993C25.0393 24.9408 25.0379 25.7222 24.9542 26.322C24.7405 27.8541 23.6189 28.8836 22.1632 28.8836C21.4495 28.8836 20.7697 28.615 20.2489 28.1272C20.2288 28.1079 20.2043 28.0938 20.1775 28.0861C20.1507 28.0785 20.1224 28.0775 20.0951 28.0833C20.0609 28.0907 20.015 28.1117 19.9909 28.1697C19.775 28.691 19.6647 29.2443 19.663 29.8143C19.6561 32.1077 21.5127 34.057 23.8017 34.1595Z" fill="white"/>
</g>
<defs>
<clipPath id="clip0_11_92">
<rect width="24" height="24" fill="white" transform="translate(12 12)"/>
</clipPath>
</defs>
</svg>
