<svg width="48" height="48" viewBox="0 0 48 48" fill="none" xmlns="http://www.w3.org/2000/svg">
<path d="M32.4853 15.5147C30.2188 13.2482 27.2053 12 24 12C20.7947 12 17.7812 13.2482 15.5147 15.5147C13.2482 17.7812 12 20.7947 12 24C12 27.2053 13.2482 30.2188 15.5147 32.4853C17.7812 34.7518 20.7947 36 24 36C27.2053 36 30.2188 34.7518 32.4853 32.4853C34.7518 30.2188 36 27.2053 36 24C36 20.7947 34.7518 17.7812 32.4853 15.5147ZM24.7031 16.2619L27.71 14.0773C29.5234 14.7575 31.1023 15.9211 32.2889 17.4108L31.1421 20.9401L27.7362 22.0467L24.7031 19.843V16.2619ZM20.29 14.0773L23.2969 16.2619V19.843L20.2638 22.0467L16.8579 20.9401L15.7111 17.4108C16.8977 15.9211 18.4766 14.7575 20.29 14.0773ZM15.1705 29.847C14.1362 28.2903 13.5024 26.446 13.4169 24.4618L16.4233 22.2775L19.8292 23.3841L20.9878 26.9497L18.8828 29.847H15.1705ZM26.8307 34.2091C25.9293 34.4594 24.9801 34.5938 24 34.5938C23.0199 34.5938 22.0707 34.4594 21.1693 34.2091L20.0205 30.6736L22.1255 27.7763H25.8745L27.9795 30.6736L26.8307 34.2091ZM29.1172 29.847L27.0122 26.9498L28.1708 23.3842L31.5767 22.2775L34.5831 24.4618C34.4976 26.4461 33.8638 28.2904 32.8295 29.847H29.1172Z" fill="white"/>
</svg>
