<svg width="48" height="48" viewBox="0 0 48 48" fill="none" xmlns="http://www.w3.org/2000/svg">
<path d="M24 12.0003C26.8637 11.9796 29.6368 13.0035 31.7999 14.8803C30.4907 16.0136 29.4387 17.4135 28.7143 18.9863C27.99 20.5592 27.6101 22.2686 27.6 24.0002C27.6101 25.7318 27.99 27.4412 28.7143 29.0141C29.4387 30.5869 30.4907 31.9868 31.7999 33.1201C29.6262 34.979 26.8601 36.0003 24 36.0001C21.1363 36.0208 18.3632 34.9969 16.2001 33.1201C17.5093 31.9868 18.5613 30.5869 19.2857 29.0141C20.01 27.4412 20.3899 25.7318 20.4 24.0002C20.3899 22.2686 20.01 20.5592 19.2857 18.9863C18.5613 17.4135 17.5093 16.0136 16.2001 14.8803C18.3632 13.0035 21.1363 11.9796 24 12.0003ZM35.9999 24.0002C36.0111 26.6548 35.1228 29.235 33.4799 31.3201C32.3776 30.4484 31.4905 29.3348 30.8871 28.0656C30.2837 26.7964 29.9802 25.4054 29.9999 24.0002C29.9935 22.5799 30.3023 21.1758 30.9041 19.8893C31.5058 18.6027 32.3856 17.4657 33.4799 16.5603C35.0897 18.7092 35.9725 21.3153 35.9999 24.0002ZM12.0001 24.0002C12.0275 21.3153 12.9103 18.7092 14.5201 16.5603C15.6144 17.4657 16.4942 18.6027 17.0959 19.8893C17.6977 21.1758 18.0065 22.5799 18.0001 24.0002C18.0198 25.4054 17.7163 26.7964 17.1129 28.0656C16.5095 29.3348 15.6224 30.4484 14.5201 31.3201C12.8772 29.235 11.9889 26.6548 12.0001 24.0002Z" fill="white"/>
</svg>
