<svg width="20" height="20" viewBox="0 0 20 20" fill="none" xmlns="http://www.w3.org/2000/svg">
<path d="M19.4007 12.1917L17.5624 10.7542C17.5857 10.5325 17.6057 10.2734 17.6057 9.99918C17.6057 9.725 17.5866 9.46586 17.5624 9.24418L19.4024 7.80586C19.7441 7.53586 19.8374 7.05668 19.6199 6.65754L17.7082 3.35C17.5041 2.97668 17.0566 2.785 16.6024 2.9525L14.4332 3.82332C14.0174 3.52332 13.5816 3.27 13.1307 3.0675L12.8007 0.76668C12.7466 0.33 12.3666 0 11.9174 0H8.0841C7.63492 0 7.25578 0.33 7.20242 0.76L6.8716 3.06918C6.43492 3.26586 6.00578 3.51586 5.5716 3.825L3.3966 2.95168C2.98906 2.79418 2.50156 2.97082 2.29906 3.3425L0.384918 6.65418C0.159097 7.03586 0.252418 7.53168 0.601597 7.80836L2.43992 9.24586C2.41074 9.52668 2.3966 9.77086 2.3966 10C2.3966 10.2292 2.41078 10.4734 2.43992 10.755L0.599918 12.1934C0.258238 12.4642 0.165738 12.9434 0.383238 13.3417L2.29492 16.6492C2.4991 17.0217 2.94242 17.215 3.40074 17.0467L5.56992 16.1759C5.98492 16.475 6.42074 16.7284 6.8716 16.9317L7.2016 19.2317C7.25574 19.67 7.63492 20 8.08492 20H11.9182C12.3674 20 12.7474 19.67 12.8007 19.24L13.1316 16.9317C13.5682 16.7342 13.9966 16.485 14.4316 16.175L16.6066 17.0483C16.7106 17.0891 16.8214 17.11 16.9332 17.11C17.2566 17.11 17.5541 16.9333 17.7041 16.6583L19.6241 13.3333C19.8374 12.9433 19.7441 12.4642 19.4007 12.1917ZM10.0007 13.3333C8.16242 13.3333 6.66742 11.8383 6.66742 10C6.66742 8.16168 8.16242 6.66668 10.0007 6.66668C11.8391 6.66668 13.3341 8.16168 13.3341 10C13.3341 11.8383 11.8391 13.3333 10.0007 13.3333Z" fill="white"/>
</svg>
