<svg width="18" height="18" viewBox="0 0 18 18" fill="none" xmlns="http://www.w3.org/2000/svg">
<path d="M15.5625 4.6875H2.4375C1.60907 4.6875 0.9375 5.35907 0.9375 6.1875V8.0625C0.9375 8.89093 1.60907 9.5625 2.4375 9.5625H15.5625C16.3909 9.5625 17.0625 8.89093 17.0625 8.0625V6.1875C17.0625 5.35907 16.3909 4.6875 15.5625 4.6875Z" fill="#F7FF13"/>
<path d="M8.4375 10.3125V17.0625H4.125C3.85409 17.0627 3.58581 17.0095 3.33548 16.9059C3.08516 16.8023 2.85771 16.6504 2.66615 16.4588C2.47459 16.2673 2.32268 16.0398 2.2191 15.7895C2.11552 15.5392 2.0623 15.2709 2.0625 15V10.1475C2.36313 10.2562 2.68032 10.312 3 10.3125H8.4375ZM15.9375 10.1475V15C15.9377 15.2709 15.8845 15.5392 15.7809 15.7895C15.6773 16.0398 15.5254 16.2673 15.3338 16.4588C15.1423 16.6504 14.9148 16.8023 14.6645 16.9059C14.4142 17.0095 14.1459 17.0627 13.875 17.0625H9.5625V10.3125H15C15.3197 10.312 15.6369 10.2562 15.9375 10.1475ZM11.625 5.8125H9C8.91654 5.81265 8.83409 5.79421 8.75865 5.7585C8.6832 5.72279 8.61667 5.67072 8.56387 5.60608C8.51108 5.54143 8.47335 5.46583 8.45344 5.38478C8.43353 5.30372 8.43192 5.21925 8.44875 5.1375L8.8305 3.2265C8.96144 2.5815 9.31102 2.00147 9.82018 1.58442C10.3293 1.16736 10.9668 0.938854 11.625 0.9375C12.2715 0.9375 12.8915 1.19431 13.3486 1.65143C13.8057 2.10855 14.0625 2.72853 14.0625 3.375C14.0625 4.02146 13.8057 4.64145 13.3486 5.09857C12.8915 5.55569 12.2715 5.8125 11.625 5.8125ZM9.68625 4.6875H11.625C11.9731 4.6875 12.3069 4.54922 12.5531 4.30308C12.7992 4.05694 12.9375 3.7231 12.9375 3.375C12.9375 3.0269 12.7992 2.69306 12.5531 2.44692C12.3069 2.20078 11.9731 2.0625 11.625 2.0625C11.2263 2.0633 10.8402 2.20187 10.532 2.45472C10.2238 2.70758 10.0124 3.05918 9.93375 3.45L9.68625 4.6875Z" fill="#F7FF13"/>
<path d="M9 5.8125H6.375C5.72853 5.8125 5.10855 5.55569 4.65143 5.09857C4.19431 4.64145 3.9375 4.02147 3.9375 3.375C3.9375 2.72853 4.19431 2.10855 4.65143 1.65143C5.10855 1.19431 5.72853 0.9375 6.375 0.9375C7.03347 0.93896 7.67124 1.16779 8.18043 1.58529C8.68963 2.00279 9.03902 2.58333 9.1695 3.22875L9.55125 5.13975C9.56808 5.2215 9.56648 5.30597 9.54656 5.38703C9.52665 5.46808 9.48892 5.54368 9.43613 5.60833C9.38333 5.67297 9.3168 5.72504 9.24136 5.76075C9.16592 5.79646 9.08347 5.8149 9 5.81475V5.8125ZM6.375 2.0625C6.0269 2.0625 5.69306 2.20078 5.44692 2.44692C5.20078 2.69306 5.0625 3.0269 5.0625 3.375C5.0625 3.7231 5.20078 4.05694 5.44692 4.30308C5.69306 4.54922 6.0269 4.6875 6.375 4.6875H8.31375L8.06625 3.45C7.98756 3.05918 7.77621 2.70758 7.468 2.45472C7.15979 2.20187 6.77366 2.0633 6.375 2.0625Z" fill="#F7FF13"/>
</svg>
