<svg width="34" height="34" viewBox="0 0 34 34" fill="none" xmlns="http://www.w3.org/2000/svg">
<rect width="34" height="34" rx="17" fill="#FA9C1E"/>
<g clip-path="url(#clip0_90_12584)">
<path d="M8.74512 8.29007C6.35696 10.5337 4.95671 13.795 5.00102 17.0849C5.00244 20.4997 6.56017 23.8541 9.1471 26.0727C11.5383 28.1641 14.7905 29.2295 17.9656 28.9599C21.406 28.7037 24.6715 26.8662 26.6902 24.0742C28.6552 21.4211 29.4251 17.9223 28.7728 14.6779C28.2933 12.1942 26.9912 9.89248 25.1393 8.18164L22.8728 10.8131C24.6991 12.5344 25.6962 15.0754 25.5082 17.5821C25.426 18.824 25.0653 20.0497 24.4557 21.1404L19.8368 16.6789L17.5064 11.6556L17.5029 19.2627L22.1707 23.7798C20.0906 25.3959 17.2366 25.9319 14.7076 25.2156C13.6778 24.9283 12.7027 24.4463 11.8552 23.7996L16.5548 19.2627C16.5466 16.7895 16.5835 14.1197 16.5547 11.6474L14.2209 16.6789L9.56231 21.1775C8.1411 18.6965 8.1071 15.489 9.47504 12.9804C9.90268 12.1767 10.4687 11.4432 11.1253 10.8131L8.85884 8.18164C8.82093 8.21778 8.78302 8.25393 8.74512 8.29007Z" fill="#4A4C4E"/>
<path d="M16.8681 5.00032C14.1974 5.01744 11.5572 5.96945 9.48291 7.64365L11.7494 10.2751C13.6622 8.76551 16.2396 8.15035 18.6301 8.62559C19.9438 8.87833 21.1939 9.45518 22.2486 10.2751L24.5151 7.64365C22.3696 5.91232 19.6306 4.95892 16.8681 5.00032Z" fill="#4A4C4E"/>
</g>
<defs>
<clipPath id="clip0_90_12584">
<rect width="24" height="24" fill="white" transform="translate(5 5)"/>
</clipPath>
</defs>
</svg>
