<svg width="100" height="100" viewBox="0 0 100 100" fill="none" xmlns="http://www.w3.org/2000/svg">
<circle cx="50" cy="50" r="50" fill="#2E5B1E"/>
<path d="M43.8853 68.9889C43.6382 69.2374 43.3444 69.4346 43.0209 69.5692C42.6973 69.7037 42.3504 69.773 41.9999 69.773C41.6495 69.773 41.3025 69.7037 40.979 69.5692C40.6554 69.4346 40.3617 69.2374 40.1146 68.9889L25.0586 53.9303C24.3087 53.1801 23.8875 52.1629 23.8875 51.1023C23.8875 50.0416 24.3087 49.0244 25.0586 48.2743L26.9439 46.3889C27.694 45.639 28.7113 45.2178 29.7719 45.2178C30.8326 45.2178 31.8498 45.639 32.5999 46.3889L41.9999 55.7889L67.3999 30.3889C68.15 29.639 69.1673 29.2178 70.2279 29.2178C71.2886 29.2178 72.3058 29.639 73.0559 30.3889L74.9413 32.2743C75.6912 33.0244 76.1124 34.0416 76.1124 35.1023C76.1124 36.1629 75.6912 37.1801 74.9413 37.9303L43.8853 68.9889Z" fill="#6FCD4F"/>
</svg>
