<svg width="1790" height="620" viewBox="0 0 1790 620" fill="none" xmlns="http://www.w3.org/2000/svg">
<rect x="10.5" y="0.5" width="1779" height="619" stroke="white" stroke-opacity="0.3"/>
<line x1="179.5" y1="1" x2="179.5" y2="619" stroke="white" stroke-opacity="0.5"/>
<line x1="360.5" y1="1" x2="360.5" y2="619" stroke="white" stroke-opacity="0.5"/>
<line x1="540.5" y1="1" x2="540.5" y2="619" stroke="white" stroke-opacity="0.5"/>
<line x1="720.5" y1="1" x2="720.5" y2="619" stroke="white" stroke-opacity="0.5"/>
<line x1="900.5" y1="1" x2="900.5" y2="619" stroke="white" stroke-opacity="0.5"/>
<line x1="1080.5" y1="1" x2="1080.5" y2="619" stroke="white" stroke-opacity="0.5"/>
<line x1="1260.5" y1="1" x2="1260.5" y2="619" stroke="white" stroke-opacity="0.5"/>
<line x1="1440.5" y1="1" x2="1440.5" y2="619" stroke="white" stroke-opacity="0.5"/>
<line x1="1620.5" y1="1" x2="1620.5" y2="619" stroke="white" stroke-opacity="0.5"/>
<rect y="109" width="10" height="261" fill="#D60019"/>
<rect y="59" width="10" height="63" fill="#1D7E3A"/>
<line x1="13.5" y1="59.5" x2="1789.5" y2="59.5" stroke="#1D7E3A" stroke-linecap="round" stroke-dasharray="8 8"/>
<line x1="13.5" y1="121.5" x2="1789.5" y2="121.5" stroke="#D60019" stroke-linecap="round" stroke-dasharray="8 8"/>
<line x1="10.5" y1="369.5" x2="1786.5" y2="369.5" stroke="#D60019" stroke-linecap="round" stroke-dasharray="8 8"/>
<line x1="10" y1="61.5003" x2="1790" y2="61.5002" stroke="white" stroke-opacity="0.5"/>
<line x1="10" y1="123.5" x2="1790" y2="123.5" stroke="white" stroke-opacity="0.5"/>
<line x1="10" y1="185.501" x2="1790" y2="185.5" stroke="white" stroke-opacity="0.5"/>
<line x1="10" y1="247.501" x2="1790" y2="247.501" stroke="white" stroke-opacity="0.5"/>
<line x1="10" y1="309.501" x2="1790" y2="309.501" stroke="white" stroke-opacity="0.5"/>
<line x1="10" y1="371.501" x2="1790" y2="371.501" stroke="white" stroke-opacity="0.5"/>
<line x1="10" y1="433.501" x2="1790" y2="433.501" stroke="white" stroke-opacity="0.5"/>
<line x1="10" y1="495.501" x2="1790" y2="495.501" stroke="white" stroke-opacity="0.5"/>
<line x1="10" y1="557.502" x2="1790" y2="557.501" stroke="white" stroke-opacity="0.5"/>
</svg>
