<svg width="8" height="12" viewBox="0 0 8 12" fill="none" xmlns="http://www.w3.org/2000/svg">
<path fillRule="evenodd" clipRule="evenodd" d="M7.31713 11.2326C7.43422 11.1199 7.5 10.9671 7.5 10.8077C7.5 10.6484 7.43422 10.4955 7.31713 10.3828L2.76204 6.00008L7.31713 1.61732C7.43422 1.50463 7.5 1.3518 7.5 1.19245C7.5 1.0331 7.43422 0.880269 7.31713 0.767574L6.87555 0.342699C6.75842 0.230038 6.59959 0.166748 6.43397 0.166748C6.26835 0.166748 6.10952 0.230038 5.99239 0.342699L0.774617 5.36247C0.687556 5.44618 0.618493 5.54558 0.571373 5.65498C0.524253 5.76439 0.5 5.88165 0.5 6.00008C0.5 6.11851 0.524253 6.23577 0.571373 6.34518C0.618493 6.45458 0.687556 6.55398 0.774617 6.63769L5.99239 11.6575C6.10952 11.7701 6.26835 11.8334 6.43397 11.8334C6.59959 11.8334 6.75842 11.7701 6.87555 11.6575L7.31713 11.2326Z" fill="white"/>
</svg>
