<svg width="18" height="18" viewBox="0 0 18 18" fill="none" xmlns="http://www.w3.org/2000/svg">
<path d="M8.88327 8.67066C10.107 8.67066 11.1668 8.24341 12.0326 7.40047C12.8985 6.5577 13.3374 5.52651 13.3374 4.33521C13.3374 3.14426 12.8985 2.11295 12.0325 1.26987C11.1665 0.427217 10.1069 0 8.88327 0C7.65932 0 6.59985 0.427217 5.73401 1.27001C4.86818 2.11281 4.42909 3.14415 4.42909 4.33521C4.42909 5.52651 4.86814 6.55785 5.73416 7.40064C6.60017 8.2433 7.65975 8.67066 8.88327 8.67066ZM16.6768 13.8411C16.6518 13.4903 16.6013 13.1077 16.527 12.7037C16.4519 12.2967 16.3553 11.9119 16.2396 11.5602C16.1201 11.1967 15.9576 10.8377 15.7567 10.4937C15.5481 10.1366 15.3032 9.82571 15.0283 9.56988C14.7409 9.30224 14.3891 9.08705 13.9822 8.93004C13.5767 8.77395 13.1273 8.69485 12.6466 8.69485C12.4579 8.69485 12.2753 8.77022 11.9227 8.99367C11.6721 9.15253 11.4207 9.31026 11.1686 9.46687C10.9264 9.61713 10.5982 9.7579 10.1928 9.88534C9.79736 10.0099 9.39583 10.0731 8.9995 10.0731C8.6032 10.0731 8.20178 10.0099 7.80589 9.88534C7.401 9.758 7.07282 9.61727 6.83083 9.46701C6.55019 9.29246 6.29627 9.13317 6.07602 8.9935C5.72387 8.77008 5.54114 8.69467 5.35239 8.69467C4.87154 8.69467 4.42233 8.77391 4.01697 8.93021C3.61035 9.08691 3.25834 9.3021 2.97065 9.57002C2.69597 9.82599 2.45091 10.1367 2.24265 10.4937C2.0419 10.8377 1.87937 11.1965 1.7597 11.5603C1.64413 11.912 1.54751 12.2967 1.47245 12.7037C1.39809 13.1072 1.34759 13.4899 1.3226 13.8415C1.29773 14.1953 1.28541 14.5498 1.28565 14.9044C1.28565 15.844 1.59251 16.6047 2.19764 17.1656C2.7953 17.7192 3.58608 18.0001 4.54774 18.0001H13.4521C14.4138 18.0001 15.2043 17.7194 15.8021 17.1657C16.4074 16.6051 16.7142 15.8443 16.7142 14.9043C16.7141 14.5416 16.7015 14.1838 16.6768 13.8411Z" fill="#000000"/>
</svg>
