<svg width="18" height="18" viewBox="0 0 18 18" fill="none" xmlns="http://www.w3.org/2000/svg">
<path d="M17.0353 8.73844H14.2988C12.1461 8.80734 12.148 11.9295 14.2988 11.9981H17.0353C17.1046 11.9978 17.1709 11.9701 17.2199 11.9211C17.2688 11.8721 17.2965 11.8058 17.2969 11.7366V9C17.2965 8.93074 17.2688 8.86443 17.2199 8.81546C17.1709 8.76648 17.1046 8.73881 17.0353 8.73844Z" fill="#000000"/>
<path d="M11.8266 10.3669C11.827 9.71135 12.0876 9.0828 12.5511 8.61927C13.0147 8.15574 13.6432 7.89514 14.2988 7.89469H16.2703V5.23969C16.2703 4.89806 16.1346 4.57042 15.893 4.32885C15.6515 4.08728 15.3238 3.95156 14.9822 3.95156H3.01781C2.90592 3.95156 2.79862 3.90712 2.7195 3.828C2.64039 3.74888 2.59594 3.64158 2.59594 3.52969C2.59594 3.4178 2.64039 3.31049 2.7195 3.23138C2.79862 3.15226 2.90592 3.10781 3.01781 3.10781H13.5366V2.50313C13.5357 2.16177 13.3997 1.83464 13.1583 1.59327C12.9169 1.35189 12.5898 1.21589 12.2484 1.215H1.99125C1.64976 1.21545 1.32237 1.3513 1.0809 1.59278C0.839428 1.83425 0.703571 2.16163 0.703125 2.50313V15.4969C0.703571 15.8384 0.839428 16.1658 1.0809 16.4072C1.32237 16.6487 1.64976 16.7846 1.99125 16.785H14.9822C15.3237 16.7846 15.6511 16.6487 15.8925 16.4072C16.134 16.1658 16.2699 15.8384 16.2703 15.4969V12.8419H14.2988C13.6429 12.8408 13.0143 12.5797 12.5508 12.1156C12.0873 11.6516 11.8269 11.0227 11.8266 10.3669Z" fill="#000000"/>
</svg>
