<svg width="8" height="14" viewBox="0 0 8 14" fill="none" xmlns="http://www.w3.org/2000/svg">
<path fill-rule="evenodd" clip-rule="evenodd" d="M0.68287 12.6186C0.565779 12.4981 0.5 12.3347 0.5 12.1643C0.5 11.9939 0.565779 11.8305 0.68287 11.7099L5.23796 7.02328L0.68287 2.33662C0.565779 2.21611 0.5 2.05269 0.5 1.88228C0.5 1.71188 0.565779 1.54846 0.68287 1.42795L1.12445 0.973613C1.24158 0.85314 1.40041 0.785461 1.56603 0.785461C1.73165 0.785461 1.89048 0.85314 2.00761 0.973613L7.22538 6.34146C7.31244 6.43098 7.38151 6.53727 7.42863 6.65426C7.47575 6.77125 7.5 6.89665 7.5 7.02328C7.5 7.14992 7.47575 7.27532 7.42863 7.39231C7.38151 7.5093 7.31244 7.61559 7.22538 7.70511L2.00761 13.073C1.89048 13.1934 1.73165 13.2611 1.56603 13.2611C1.40041 13.2611 1.24158 13.1934 1.12445 13.073L0.68287 12.6186Z" fill="white"/>
</svg>
