<svg width="18" height="18" viewBox="0 0 18 18" fill="none" xmlns="http://www.w3.org/2000/svg">
<path fill-rule="evenodd" clip-rule="evenodd" d="M14.4 1.28571H3.6C1.62 1.28571 0 2.82857 0 4.71428C0 6.17143 0.9 7.37143 2.25 7.88571V4.71428C2.25 4.37143 2.43 4.02857 2.61 3.77143C2.79 3.51428 3.24 3.42857 3.6 3.42857H14.4C14.76 3.42857 15.12 3.6 15.39 3.77143C15.66 3.94286 15.75 4.37143 15.75 4.71428V7.88571C17.1 7.37143 18 6.17143 18 4.71428C18 2.82857 16.38 1.28571 14.4 1.28571ZM14.4 15V4.71428H3.6V15C3.6 15.9429 4.41 16.7143 5.4 16.7143H12.6C13.59 16.7143 14.4 15.9429 14.4 15ZM8.28 9.34285L7.65 9.94286C7.38 10.2 6.93 10.2 6.66 9.94286C6.39 9.68571 6.39 9.25714 6.66 9L7.83 7.88571C8.46 7.28571 9.45 7.28571 10.08 7.88571L11.25 9C11.52 9.25714 11.52 9.68571 11.25 9.94286C10.98 10.2 10.53 10.2 10.26 9.94286L9.63 9.34285V12.9429C9.63 13.2857 9.36 13.6286 8.91 13.6286C8.46 13.6286 8.19 13.3714 8.19 12.9429V9.34285H8.28Z" fill="#000000"/>
</svg>
