<svg width="8" height="14" viewBox="0 0 8 14" fill="none" xmlns="http://www.w3.org/2000/svg">
<path d="M7.87213 10.3343L7.61008 10.1109C7.52761 10.0412 7.41788 10.0028 7.30061 10.0028C7.18341 10.0028 7.07355 10.0412 6.99108 10.1109L4.00179 12.6415L1.00905 10.1081C0.926707 10.0384 0.816852 10 0.699648 10C0.582444 10 0.472524 10.0384 0.390117 10.1081L0.128001 10.3301C-0.042667 10.4745 -0.042667 10.7096 0.128001 10.854L3.69122 13.8812C3.77356 13.9509 3.88328 14 4.00153 14H4.00289C4.12016 14 4.22989 13.9508 4.31223 13.8812L7.87213 10.8622C7.9546 10.7925 7.99987 10.6968 8 10.5976C8 10.4983 7.9546 10.404 7.87213 10.3343Z" fill="white"/>
<path d="M7.87213 3.66568L7.61008 3.88906C7.52761 3.95882 7.41788 3.99725 7.30061 3.99725C7.18341 3.99725 7.07355 3.95882 6.99108 3.88906L4.00179 1.35846L1.00905 3.89187C0.926707 3.96162 0.816852 4 0.699648 4C0.582444 4 0.472524 3.96162 0.390117 3.89187L0.128001 3.66987C-0.042667 3.52551 -0.042667 3.29035 0.128001 3.14599L3.69122 0.118817C3.77356 0.0491125 3.88328 4.09709e-08 4.00153 4.09709e-08H4.00289C4.12016 4.09709e-08 4.22989 0.0491675 4.31223 0.118817L7.87213 3.13778C7.9546 3.20749 7.99987 3.30318 8 3.4024C8 3.50167 7.9546 3.59604 7.87213 3.66568Z" fill="white"/>
</svg>
