<svg width="16" height="16" viewBox="0 0 16 16" fill="none" xmlns="http://www.w3.org/2000/svg">
<path d="M15.6676 11.9986L10.0155 1.60877C9.10743 0.0799923 6.89378 0.0779611 5.98446 1.60877L0.332715 11.9986C-0.595597 13.5608 0.528309 15.539 2.34778 15.539H13.652C15.47 15.539 16.5959 13.5624 15.6676 11.9986ZM8 13.664C7.48318 13.664 7.0625 13.2433 7.0625 12.7265C7.0625 12.2097 7.48318 11.789 8 11.789C8.51681 11.789 8.9375 12.2097 8.9375 12.7265C8.9375 13.2433 8.51681 13.664 8 13.664ZM8.9375 9.91399C8.9375 10.4308 8.51681 10.8515 8 10.8515C7.48318 10.8515 7.0625 10.4308 7.0625 9.91399V5.22649C7.0625 4.70968 7.48318 4.28899 8 4.28899C8.51681 4.28899 8.9375 4.70968 8.9375 5.22649V9.91399Z" fill="#F7FF13"/>
</svg>
