<svg width="18" height="18" viewBox="0 0 18 18" fill="none" xmlns="http://www.w3.org/2000/svg">
<path d="M17.4607 10.9725L15.8062 9.67876C15.8272 9.47925 15.8452 9.24602 15.8452 8.99926C15.8452 8.7525 15.8279 8.51927 15.8062 8.31976L17.4622 7.02527C17.7697 6.78227 17.8537 6.35101 17.6579 5.99179L15.9374 3.015C15.7537 2.67901 15.3509 2.5065 14.9422 2.65725L12.9899 3.44099C12.6157 3.17099 12.2234 2.943 11.8177 2.76075L11.5207 0.690012C11.4719 0.297 11.1299 0 10.7257 0H7.27569C6.87143 0 6.5302 0.297 6.48218 0.684L6.18444 2.76226C5.79143 2.93927 5.4052 3.16427 5.01444 3.4425L3.05694 2.65651C2.69016 2.51476 2.25141 2.67374 2.06916 3.00825L0.34643 5.98876C0.143192 6.33227 0.22718 6.77851 0.541442 7.02752L2.19593 8.32127C2.16967 8.57401 2.15694 8.79377 2.15694 9.00004C2.15694 9.2063 2.1697 9.42602 2.19593 9.67954L0.53993 10.974C0.232419 11.2178 0.149169 11.649 0.344919 12.0075L2.06543 14.9843C2.24919 15.3195 2.64818 15.4935 3.06067 15.342L5.01293 14.5583C5.38643 14.8275 5.77867 15.0555 6.18444 15.2385L6.48144 17.3085C6.53017 17.703 6.87143 18 7.27643 18H10.7264C11.1307 18 11.4727 17.703 11.5207 17.316L11.8184 15.2385C12.2114 15.0608 12.5969 14.8365 12.9884 14.5575L14.9459 15.3435C15.0396 15.3802 15.1393 15.399 15.2399 15.399C15.5309 15.399 15.7987 15.24 15.9337 14.9925L17.6617 12C17.8537 11.649 17.7697 11.2178 17.4607 10.9725ZM9.00067 12C7.34618 12 6.00068 10.6545 6.00068 9C6.00068 7.34551 7.34618 6.00001 9.00067 6.00001C10.6552 6.00001 12.0007 7.34551 12.0007 9C12.0007 10.6545 10.6552 12 9.00067 12Z" fill="#000000"/>
</svg>
