<svg width="42" height="42" viewBox="0 0 42 42" fill="none" xmlns="http://www.w3.org/2000/svg">
<circle cx="21" cy="21" r="20" fill="#222222" stroke="#191919" stroke-width="2"/>
<path fill-rule="evenodd" clip-rule="evenodd" d="M16.7351 27.7275C16.5846 27.5826 16.5 27.3861 16.5 27.1812C16.5 26.9764 16.5846 26.7799 16.7351 26.635L22.5917 21L16.7351 15.365C16.5846 15.2201 16.5 15.0236 16.5 14.8188C16.5 14.6139 16.5846 14.4174 16.7351 14.2725L17.3029 13.7262C17.4535 13.5814 17.6577 13.5 17.8706 13.5C18.0835 13.5 18.2878 13.5814 18.4384 13.7262L25.1469 20.1802C25.2589 20.2878 25.3477 20.4156 25.4082 20.5563C25.4688 20.697 25.5 20.8477 25.5 21C25.5 21.1523 25.4688 21.303 25.4082 21.4437C25.3477 21.5844 25.2589 21.7122 25.1469 21.8198L18.4384 28.2738C18.2878 28.4186 18.0835 28.5 17.8706 28.5C17.6577 28.5 17.4535 28.4186 17.3029 28.2738L16.7351 27.7275Z" fill="#9B9B9B"/>
</svg>
