<svg width="18" height="18" viewBox="0 0 18 18" fill="none" xmlns="http://www.w3.org/2000/svg">
<g clip-path="url(#clip0_116_141)">
<path d="M6.7546 0V1.50154H8.25614V2.2523C8.78167 2.17723 9.23213 2.17723 9.75769 2.2523V1.50154H11.2592V0H6.7546Z" fill="white"/>
<path d="M14.1121 4.95506L14.6376 4.42953L15.2383 5.03016L16.2893 3.97907L14.037 1.72678L12.986 2.77786L13.5866 3.37845L12.9109 4.05414C9.30723 1.87691 4.65247 3.00305 2.55034 6.60673C0.448207 10.2104 1.57432 14.715 5.10293 16.8922C8.63154 19.0695 13.2863 17.9433 15.3884 14.3396C17.2653 11.2615 16.7398 7.35752 14.1121 4.95506ZM9.0069 15.691C6.07891 15.691 3.75155 13.3637 3.75155 10.4357C3.75155 7.50768 6.07891 5.18029 9.0069 5.18029V10.4356H14.2622C14.2623 13.3636 11.9349 15.691 9.0069 15.691Z" fill="white"/>
</g>
<defs>
<clipPath id="clip0_116_141">
<rect width="18" height="18" fill="white"/>
</clipPath>
</defs>
</svg>
