<svg width="24" height="24" viewBox="0 0 24 24" fill="none" xmlns="http://www.w3.org/2000/svg">
<path id="Vector" d="M15.9396 8.01711C15.9389 7.51885 15.7315 7.04117 15.3628 6.68884C14.994 6.33651 14.4941 6.13831 13.9726 6.1377H2.72874L0 13.9573L14.5385 9.81642C14.9425 9.69869 15.2964 9.46052 15.5485 9.13676C15.8006 8.813 15.9376 8.42065 15.9396 8.01711Z" fill="currentColor"/>
<path id="Vector_2" d="M23.9815 3.65836C23.9581 3.55889 23.9143 3.46484 23.8526 3.38168C23.7909 3.29851 23.7125 3.22788 23.622 3.17387C11.6558 -3.96483 4.84321 2.93432 3.44861 4.5973H13.9726C14.8319 4.5973 15.6625 4.89267 16.3127 5.42945C16.9629 5.96623 17.3893 6.70859 17.5139 7.52094C17.6386 8.33328 17.4533 9.16137 16.9918 9.85394C16.5304 10.5465 15.8235 11.0573 15.0004 11.2931L0.0975342 15.5349L1.46795 19.4732C1.50394 19.5764 1.56239 19.6712 1.63947 19.7512C1.71655 19.8313 1.8105 19.8948 1.91514 19.9377C2.01978 19.9806 2.13274 20.0018 2.24657 19.9999C2.3604 19.998 2.47253 19.9731 2.57557 19.9269C8.72149 17.1732 18.1338 18.5319 18.2314 18.5458C18.3524 18.5628 18.4759 18.5537 18.5928 18.5192C18.7097 18.4847 18.817 18.4256 18.9069 18.3463C23.4809 14.2455 22.6957 7.89244 22.4305 6.38121L23.8703 4.24144C23.9282 4.15609 23.9678 4.06061 23.9869 3.96054C24.006 3.86046 24.0042 3.75776 23.9815 3.65836Z" fill="currentColor"/>
</svg>
