<svg width="48" height="48" viewBox="0 0 48 48" fill="none" xmlns="http://www.w3.org/2000/svg">
<g clip-path="url(#clip0_240_22)">
<path d="M19.625 24.875C20.3499 24.875 20.9375 24.2874 20.9375 23.5625C20.9375 22.8376 20.3499 22.25 19.625 22.25C18.9001 22.25 18.3125 22.8376 18.3125 23.5625C18.3125 24.2874 18.9001 24.875 19.625 24.875Z" fill="white"/>
<path d="M20.5 20.5H18.75V17H20.5C20.9641 17 21.4092 16.8156 21.7374 16.4874C22.0656 16.1592 22.25 15.7141 22.25 15.25C22.25 14.7859 22.0656 14.3408 21.7374 14.0126C21.4092 13.6844 20.9641 13.5 20.5 13.5H18.75C18.286 13.5005 17.8412 13.6851 17.5132 14.0132C17.1851 14.3412 17.0005 14.786 17 15.25V15.6875H15.25V15.25C15.251 14.3221 15.6201 13.4324 16.2763 12.7763C16.9324 12.1201 17.8221 11.751 18.75 11.75H20.5C21.4283 11.75 22.3185 12.1187 22.9749 12.7751C23.6313 13.4315 24 14.3217 24 15.25C24 16.1783 23.6313 17.0685 22.9749 17.7249C22.3185 18.3813 21.4283 18.75 20.5 18.75V20.5Z" fill="white"/>
<path d="M29.6419 28.4045C30.5172 27.357 31.1589 26.1349 31.5245 24.8197C31.89 23.5046 31.9708 22.1266 31.7616 20.7777C31.5523 19.4288 31.0578 18.1401 30.3111 16.9975C29.5643 15.8548 28.5824 14.8846 27.431 14.1515L26.5568 15.6653C27.6977 16.4117 28.6252 17.4416 29.2485 18.6542C29.8718 19.8667 30.1694 21.2204 30.1123 22.5826C30.0552 23.9447 29.6453 25.2687 28.9228 26.4249C28.2002 27.581 27.1898 28.5297 25.9904 29.178C24.791 29.8263 23.4439 30.152 22.0808 30.1232C20.7177 30.0944 19.3855 29.7121 18.2146 29.0137C17.0437 28.3153 16.0742 27.3248 15.4012 26.1391C14.7281 24.9535 14.3745 23.6134 14.375 22.25H12.625C12.6236 24.0792 13.1438 25.8708 14.1247 27.4147C15.1056 28.9587 16.5064 30.1909 18.1628 30.9668C19.8192 31.7427 21.6626 32.0302 23.4766 31.7956C25.2906 31.5609 27.0001 30.8137 28.4046 29.6418L35.0127 36.25L36.25 35.0127L29.6419 28.4045Z" fill="white"/>
</g>
<defs>
<clipPath id="clip0_240_22">
<rect width="28" height="28" fill="white" transform="translate(10 10)"/>
</clipPath>
</defs>
</svg>
