<svg width="48" height="48" viewBox="0 0 48 48" fill="none" xmlns="http://www.w3.org/2000/svg">
<path d="M30.7742 23.5484H29.4193H19.9355C19.9355 23.3677 19.9355 23.2774 19.9355 23.0968V16.7742C19.9355 14.5162 21.7419 12.7097 24 12.7097C26.258 12.7097 28.0645 14.5162 28.0645 16.7742V17.6774V20.0258C28.0645 20.9291 28.6967 21.7419 29.4193 21.7419C30.1419 21.7419 30.7742 21.0194 30.7742 20.0258V17.6774V16.7742C30.7742 13.071 27.7032 10 24 10C20.2968 10 17.2258 13.071 17.2258 16.7742V23.5484C15.6903 23.5484 14.5161 24.7226 14.5161 26.2581V35.2903C14.5161 36.8258 15.6903 38 17.2258 38H30.7742C32.3097 38 33.4839 36.8258 33.4839 35.2903V26.2581C33.4839 24.8129 32.3097 23.5484 30.7742 23.5484ZM24.4516 30.6839V33.0323C24.4516 33.3032 24.271 33.4839 24 33.4839C23.7291 33.4839 23.5484 33.3032 23.5484 33.0323V30.6839C23.0065 30.5033 22.6452 29.9613 22.6452 29.4194C22.6452 28.6968 23.2775 28.0645 24.0001 28.0645C24.7226 28.0645 25.3549 28.6968 25.3549 29.4194C25.3548 30.0516 24.9935 30.5033 24.4516 30.6839Z" fill="white"/>
</svg>
