<svg width="87" height="87" viewBox="0 0 87 87" fill="none" xmlns="http://www.w3.org/2000/svg">
<path d="M47.125 87C40.9021 87 35.2229 85.2624 30.0875 81.7873C24.9521 78.3121 21.2365 73.6757 18.9406 67.8781L9.69687 44.5875C9.45521 43.9833 9.28967 43.4239 9.20025 42.9091C9.11083 42.3944 9.06492 41.8059 9.0625 41.1438C9.0625 39.3313 9.75729 37.7302 11.1469 36.3406C12.5365 34.951 14.1375 34.2562 15.95 34.2562C16.3729 34.2562 16.7511 34.272 17.0846 34.3034C17.4181 34.3348 17.7649 34.4097 18.125 34.5281L20.9344 35.2531C21.7802 35.4948 22.5656 35.8126 23.2906 36.2065C24.0156 36.6004 24.7104 37.0982 25.375 37.7V16.3125C25.375 13.775 26.251 11.6302 28.0031 9.87812C29.7552 8.12604 31.9 7.25 34.4375 7.25C34.8 7.25 35.148 7.2645 35.4815 7.2935C35.815 7.3225 36.1316 7.36842 36.4313 7.43125C36.7938 5.13542 37.8365 3.32292 39.5596 1.99375C41.2827 0.664583 43.2003 0 45.3125 0C47.2458 0 48.9677 0.52925 50.4781 1.58775C51.9885 2.64625 53.076 4.05033 53.7406 5.8C54.1635 5.67917 54.572 5.58854 54.9659 5.52812C55.3598 5.46771 55.767 5.4375 56.1875 5.4375C58.725 5.4375 60.8698 6.31354 62.6219 8.06562C64.374 9.81771 65.25 11.9625 65.25 14.5V16.4938C65.5521 16.4333 65.8542 16.3886 66.1562 16.3596C66.4583 16.3306 66.7604 16.3149 67.0625 16.3125C69.6 16.3125 71.7448 17.1885 73.4969 18.9406C75.249 20.6927 76.125 22.8375 76.125 25.375V58C76.125 66.0958 73.3156 72.9531 67.6969 78.5719C62.0781 84.1906 55.2208 87 47.125 87ZM47.125 79.75C53.1667 79.75 58.3021 77.6354 62.5312 73.4062C66.7604 69.1771 68.875 64.0417 68.875 58V25.375C68.875 24.8917 68.6938 24.4688 68.3313 24.1063C67.9688 23.7437 67.5458 23.5625 67.0625 23.5625C66.5792 23.5625 66.1562 23.7437 65.7937 24.1063C65.4312 24.4688 65.25 24.8917 65.25 25.375V39.875C65.25 40.9021 64.902 41.7636 64.206 42.4596C63.51 43.1556 62.6497 43.5024 61.625 43.5C60.5979 43.5 59.7364 43.152 59.0404 42.456C58.3444 41.76 57.9976 40.8997 58 39.875V14.5C58 14.0167 57.8188 13.5938 57.4563 13.2313C57.0938 12.8688 56.6708 12.6875 56.1875 12.6875C55.7042 12.6875 55.2812 12.8688 54.9187 13.2313C54.5562 13.5938 54.375 14.0167 54.375 14.5V39.875C54.375 40.9021 54.027 41.7636 53.331 42.4596C52.635 43.1556 51.7747 43.5024 50.75 43.5C49.7229 43.5 48.8614 43.152 48.1654 42.456C47.4694 41.76 47.1226 40.8997 47.125 39.875V9.0625C47.125 8.57917 46.9438 8.15625 46.5813 7.79375C46.2188 7.43125 45.7958 7.25 45.3125 7.25C44.8292 7.25 44.4062 7.43125 44.0437 7.79375C43.6812 8.15625 43.5 8.57917 43.5 9.0625V39.875C43.5 40.9021 43.152 41.7636 42.456 42.4596C41.76 43.1556 40.8997 43.5024 39.875 43.5C38.8479 43.5 37.9864 43.152 37.2904 42.456C36.5944 41.76 36.2476 40.8997 36.25 39.875V16.3125C36.25 15.8292 36.0688 15.4062 35.7063 15.0438C35.3438 14.6813 34.9208 14.5 34.4375 14.5C33.9542 14.5 33.5312 14.6813 33.1687 15.0438C32.8062 15.4062 32.625 15.8292 32.625 16.3125V50.75C32.625 51.7771 32.277 52.6386 31.581 53.3346C30.885 54.0306 30.0247 54.3774 29 54.375H27.6406C26.8552 54.375 26.2063 54.178 25.694 53.7841C25.1817 53.3902 24.7732 52.832 24.4688 52.1094L21.8406 45.3125C21.4177 44.2854 20.828 43.5302 20.0716 43.0469C19.3152 42.5635 18.0622 42.05 16.3125 41.5062L25.7375 65.25C27.4896 69.6 30.3135 73.1042 34.2091 75.7625C38.1048 78.4208 42.4101 79.75 47.125 79.75Z" fill="white" fill-opacity="0.3"/>
</svg>
