<svg width="48" height="48" viewBox="0 0 48 48" fill="none" xmlns="http://www.w3.org/2000/svg">
<path d="M30.6263 35.8645C30.1898 35.8645 29.1488 35.8585 27.813 35.851C24.5123 35.8322 19.4018 35.8022 17.1585 35.8285C14.6655 35.8285 11.2853 34.1387 11.2763 30.967C11.2718 29.311 11.2853 27.8792 11.298 26.5007C11.3183 24.3062 11.3378 22.2332 11.28 19.5947C11.1833 15.1832 13.122 12.535 16.599 12.3287C18.4995 12.2155 22.041 12.1367 25.2113 12.1367C28.3358 12.1367 32.2853 12.2072 33.3593 12.5447C35.289 13.1507 36.387 15.238 36.5903 16.921C36.8228 18.8462 36.6968 25.447 36.6293 28.9937C36.6105 29.9912 36.5955 30.7397 36.5955 31.0585C36.5963 32.4107 35.994 33.6407 34.9013 34.5212C33.8108 35.4002 32.3318 35.8645 30.6263 35.8645ZM19.5683 34.3195C22.0845 34.3195 25.428 34.3382 27.8213 34.3517C29.1525 34.3592 30.1905 34.3652 30.6255 34.3652C31.9658 34.3652 33.15 34.006 33.9593 33.3542C34.7018 32.7557 35.0948 31.9622 35.0948 31.06C35.0948 30.736 35.1098 29.9777 35.1285 28.966C35.1908 25.7065 35.3205 18.9235 35.1 17.1017C34.9485 15.8432 34.1468 14.3657 32.9093 13.9772C32.3873 13.813 30.0908 13.6382 25.2105 13.6382C22.0665 13.6382 18.561 13.7162 16.6868 13.8272C13.3575 14.0252 12.7238 17.056 12.7793 19.5632C12.8378 22.225 12.8183 24.3092 12.7973 26.5165C12.7845 27.8897 12.771 29.3147 12.7755 30.964C12.7815 33.1315 15.3375 34.3307 17.1015 34.3307C17.7653 34.3225 18.606 34.3195 19.5683 34.3195Z" fill="#F7FF13"/>
<path d="M22.2592 27.3633C21.0254 27.3633 20.1359 26.2758 19.3214 25.2791C19.1654 25.0878 19.0027 24.8891 18.8309 24.6866C18.5632 24.3708 18.6022 23.8976 18.9179 23.6298C19.2344 23.3621 19.7077 23.4011 19.9747 23.7168C20.1524 23.9261 20.3204 24.1323 20.4824 24.3296C21.8212 25.9668 22.1452 26.2803 23.3242 25.3443C24.9209 24.0761 27.2842 21.6603 28.0604 20.8661C28.3499 20.5706 28.8254 20.5646 29.1209 20.8541C29.4164 21.1436 29.4224 21.6183 29.1329 21.9146C27.7574 23.3216 25.7549 25.3293 24.2572 26.5188C23.4959 27.1233 22.8397 27.3633 22.2592 27.3633Z" fill="#F7FF13"/>
</svg>
