<svg width="28" height="28" viewBox="0 0 28 28" fill="none" xmlns="http://www.w3.org/2000/svg">
<path d="M5.83333 8.16667C7.12197 8.16667 8.16667 7.12197 8.16667 5.83333C8.16667 4.54467 7.12197 3.5 5.83333 3.5C4.54467 3.5 3.5 4.54467 3.5 5.83333C3.5 7.12197 4.54467 8.16667 5.83333 8.16667Z" fill="white"/>
<path d="M14 8.16667C15.2886 8.16667 16.3333 7.12197 16.3333 5.83333C16.3333 4.54467 15.2886 3.5 14 3.5C12.7113 3.5 11.6666 4.54467 11.6666 5.83333C11.6666 7.12197 12.7113 8.16667 14 8.16667Z" fill="white"/>
<path d="M22.1667 8.16667C23.4553 8.16667 24.5 7.12197 24.5 5.83333C24.5 4.54467 23.4553 3.5 22.1667 3.5C20.8781 3.5 19.8334 4.54467 19.8334 5.83333C19.8334 7.12197 20.8781 8.16667 22.1667 8.16667Z" fill="white"/>
<path d="M5.83333 16.3333C7.12197 16.3333 8.16667 15.2886 8.16667 14C8.16667 12.7114 7.12197 11.6667 5.83333 11.6667C4.54467 11.6667 3.5 12.7114 3.5 14C3.5 15.2886 4.54467 16.3333 5.83333 16.3333Z" fill="white"/>
<path d="M14 16.3333C15.2886 16.3333 16.3333 15.2886 16.3333 14C16.3333 12.7114 15.2886 11.6667 14 11.6667C12.7113 11.6667 11.6666 12.7114 11.6666 14C11.6666 15.2886 12.7113 16.3333 14 16.3333Z" fill="white"/>
<path d="M22.1667 16.3333C23.4553 16.3333 24.5 15.2886 24.5 14C24.5 12.7114 23.4553 11.6667 22.1667 11.6667C20.8781 11.6667 19.8334 12.7114 19.8334 14C19.8334 15.2886 20.8781 16.3333 22.1667 16.3333Z" fill="white"/>
<path d="M5.83333 24.5C7.12197 24.5 8.16667 23.4553 8.16667 22.1667C8.16667 20.878 7.12197 19.8333 5.83333 19.8333C4.54467 19.8333 3.5 20.878 3.5 22.1667C3.5 23.4553 4.54467 24.5 5.83333 24.5Z" fill="white"/>
<path d="M14 24.5C15.2886 24.5 16.3333 23.4553 16.3333 22.1667C16.3333 20.878 15.2886 19.8333 14 19.8333C12.7113 19.8333 11.6666 20.878 11.6666 22.1667C11.6666 23.4553 12.7113 24.5 14 24.5Z" fill="white"/>
<path d="M22.1667 24.5C23.4553 24.5 24.5 23.4553 24.5 22.1667C24.5 20.878 23.4553 19.8333 22.1667 19.8333C20.8781 19.8333 19.8334 20.878 19.8334 22.1667C19.8334 23.4553 20.8781 24.5 22.1667 24.5Z" fill="white"/>
</svg>
