<svg width="24" height="24" viewBox="0 0 24 24" fill="none" xmlns="http://www.w3.org/2000/svg">
    <path d="M20.4852 3.51469C18.2186 1.24823 15.2052 0 11.9999 0C8.79457 0 5.78111 1.24823 3.51457 3.51469C1.24811 5.78123 -0.00012207 8.79469 -0.00012207 12C-0.00012207 15.2053 1.24811 18.2188 3.51457 20.4853C5.78111 22.7518 8.79457 24 11.9999 24C15.2052 24 18.2186 22.7518 20.4852 20.4853C22.7516 18.2188 23.9999 15.2053 23.9999 12C23.9999 8.79469 22.7516 5.78123 20.4852 3.51469ZM12.703 4.26188L15.7098 2.07727C17.5233 2.75752 19.1021 3.92114 20.2887 5.41078L19.142 8.94009L15.7361 10.0467L12.703 7.84303V4.26188ZM8.28991 2.07727L11.2968 4.26188V7.84303L8.26366 10.0467L4.85777 8.94009L3.71102 5.41078C4.89761 3.92114 6.47646 2.75752 8.28991 2.07727ZM3.17041 17.847C2.13611 16.2903 1.50232 14.446 1.41677 12.4618L4.42319 10.2775L7.82908 11.3841L8.98764 14.9497L6.88267 17.847H3.17041ZM14.8306 22.2091C13.9292 22.4594 12.9799 22.5938 11.9999 22.5938C11.0198 22.5938 10.0706 22.4594 9.16914 22.2091L8.02038 18.6736L10.1253 15.7763H13.8744L15.9793 18.6736L14.8306 22.2091ZM17.1171 17.847L15.0121 14.9498L16.1707 11.3842L19.5766 10.2775L22.583 12.4618C22.4974 14.4461 21.8636 16.2904 20.8293 17.847H17.1171Z"
          fill="currentColor"/>
</svg>
