<svg width="42" height="42" viewBox="0 0 42 42" fill="none" xmlns="http://www.w3.org/2000/svg">
<rect width="42" height="42" fill="url(#paint0_linear_108_29653)"/>
<path fill-rule="evenodd" clip-rule="evenodd" d="M13.8839 19.8531C18.3116 17.5246 21.2642 15.9895 22.7414 15.2478C26.9594 13.1302 27.8358 12.7623 28.4071 12.7501C28.5327 12.7475 28.8136 12.7851 28.9956 12.9633C29.2656 13.2277 29.2671 13.8016 29.2371 14.1815C29.0085 17.0804 28.0195 24.1154 27.5163 27.3622C27.3034 28.7361 26.8842 29.1968 26.4784 29.2418C25.5964 29.3398 24.9266 28.5382 24.0723 27.8623C22.7356 26.8046 21.9804 26.1461 20.6828 25.114C19.1832 23.9212 20.1553 23.2657 21.0099 22.1942C21.2336 21.9139 25.1197 17.6471 25.195 17.2601C25.2044 17.2116 25.2131 17.0312 25.1243 16.9359C25.0355 16.8407 24.9044 16.8732 24.8099 16.8991C24.6758 16.9359 22.5403 18.6396 18.4033 22.0104C17.7972 22.5128 17.2481 22.7576 16.7562 22.7448C16.2139 22.7307 15.1708 22.3747 14.3953 22.0704C13.4441 21.6972 12.6881 21.4999 12.754 20.8661C12.7883 20.5359 13.1649 20.1983 13.8839 19.8531Z" fill="white"/>
<defs>
<linearGradient id="paint0_linear_108_29653" x1="21" y1="0" x2="21" y2="41.6719" gradientUnits="userSpaceOnUse">
<stop stop-color="#2AABEE"/>
<stop offset="1" stop-color="#229ED9"/>
</linearGradient>
</defs>
</svg>
