<svg width="42" height="42" viewBox="0 0 42 42" fill="none" xmlns="http://www.w3.org/2000/svg">
<rect width="42" height="42" fill="#03A9F4"/>
<g clip-path="url(#clip0_108_29659)">
<path d="M32 14.1786C31.1819 14.5375 30.3101 14.7754 29.4012 14.8909C30.3363 14.3326 31.0499 13.4554 31.3854 12.398C30.5136 12.9177 29.5511 13.2849 28.5254 13.4898C27.6976 12.6084 26.5179 12.0625 25.2309 12.0625C22.7339 12.0625 20.7236 14.0893 20.7236 16.5739C20.7236 16.9314 20.7539 17.2751 20.8281 17.6024C17.0785 17.4195 13.7606 15.6224 11.5317 12.8848C11.1426 13.5599 10.9144 14.3326 10.9144 15.1645C10.9144 16.7265 11.7188 18.1111 12.9177 18.9127C12.1931 18.899 11.4822 18.6886 10.88 18.3573V18.4067C10.88 20.5985 12.4434 22.419 14.4935 22.8384C14.1264 22.9388 13.7262 22.9869 13.311 22.9869C13.0222 22.9869 12.7307 22.9704 12.4571 22.9099C13.0415 24.696 14.6998 26.0091 16.6715 26.0518C15.137 27.2521 13.1886 27.9754 11.0794 27.9754C10.7095 27.9754 10.3547 27.9589 10 27.9135C11.9979 29.2019 14.3656 29.9375 16.919 29.9375C25.2185 29.9375 29.756 23.0625 29.756 17.1033C29.756 16.9039 29.7491 16.7114 29.7395 16.5203C30.6346 15.885 31.3867 15.0916 32 14.1786Z" fill="white"/>
</g>
<defs>
<clipPath id="clip0_108_29659">
<rect width="22" height="22" fill="white" transform="translate(10 10)"/>
</clipPath>
</defs>
</svg>
