<svg width="42" height="42" viewBox="0 0 42 42" fill="none" xmlns="http://www.w3.org/2000/svg">
<rect width="42" height="42" fill="white"/>
<g clip-path="url(#clip0_108_29643)">
<path d="M31.1696 19.0873L22.196 19.0869C21.7997 19.0869 21.4785 19.4081 21.4785 19.8043V22.671C21.4785 23.0672 21.7997 23.3884 22.1959 23.3884H27.2493C26.696 24.8244 25.6632 26.0271 24.3455 26.7913L26.5002 30.5213C29.9567 28.5223 32.0002 25.0148 32.0002 21.0884C32.0002 20.5293 31.959 20.1297 31.8766 19.6797C31.814 19.3378 31.5171 19.0873 31.1696 19.0873Z" fill="#167EE6"/>
<path d="M20.9999 27.6954C18.5269 27.6954 16.368 26.3442 15.2085 24.3447L11.4785 26.4946C13.3767 29.7844 16.9325 31.9997 20.9999 31.9997C22.9953 31.9997 24.878 31.4625 26.4999 30.5263V30.5211L24.3452 26.791C23.3595 27.3627 22.219 27.6954 20.9999 27.6954Z" fill="#12B347"/>
<path d="M26.5 30.5262V30.5211L24.3452 26.791C23.3596 27.3626 22.2192 27.6954 21 27.6954V31.9997C22.9953 31.9997 24.8782 31.4625 26.5 30.5262Z" fill="#0F993E"/>
<path d="M14.3044 20.9998C14.3044 19.7808 14.637 18.6404 15.2085 17.6548L11.4786 15.5049C10.5372 17.1217 10 18.9993 10 20.9998C10 23.0002 10.5372 24.8779 11.4786 26.4947L15.2085 24.3448C14.637 23.3592 14.3044 22.2188 14.3044 20.9998Z" fill="#FFD500"/>
<path d="M20.9999 14.3044C22.6126 14.3044 24.0939 14.8774 25.2509 15.8306C25.5363 16.0657 25.9512 16.0487 26.2127 15.7872L28.2438 13.7561C28.5405 13.4595 28.5193 12.9739 28.2024 12.699C26.2639 11.0172 23.7416 10 20.9999 10C16.9325 10 13.3767 12.2153 11.4785 15.5051L15.2085 17.655C16.368 15.6555 18.5269 14.3044 20.9999 14.3044Z" fill="#FF4B26"/>
<path d="M25.251 15.8306C25.5364 16.0657 25.9513 16.0487 26.2128 15.7872L28.2439 13.7561C28.5405 13.4595 28.5194 12.9739 28.2025 12.699C26.264 11.0172 23.7417 10 21 10V14.3044C22.6126 14.3044 24.094 14.8774 25.251 15.8306Z" fill="#D93F21"/>
</g>
<defs>
<clipPath id="clip0_108_29643">
<rect width="22" height="22" fill="white" transform="translate(10 10)"/>
</clipPath>
</defs>
</svg>
