<svg width="8" height="14" viewBox="0 0 8 14" fill="none" xmlns="http://www.w3.org/2000/svg">
<path fill-rule="evenodd" clip-rule="evenodd" d="M0.208995 12.9799C0.0751759 12.8511 0 12.6765 0 12.4944C0 12.3122 0.0751759 12.1376 0.208995 12.0088L5.41481 6.99992L0.208995 1.99105C0.0751759 1.86226 0 1.6876 0 1.50548C0 1.32336 0.0751759 1.1487 0.208995 1.01991L0.713657 0.534339C0.847516 0.405583 1.02904 0.333252 1.21832 0.333252C1.4076 0.333252 1.58913 0.405583 1.72298 0.534339L7.68615 6.27122C7.78565 6.36689 7.86458 6.48049 7.91843 6.60552C7.97228 6.73056 8 6.86457 8 6.99992C8 7.13526 7.97228 7.26928 7.91843 7.39431C7.86458 7.51935 7.78565 7.63294 7.68615 7.72862L1.72298 13.4655C1.58913 13.5943 1.4076 13.6666 1.21832 13.6666C1.02904 13.6666 0.847516 13.5943 0.713657 13.4655L0.208995 12.9799Z" fill="white"/>
</svg>
