<svg width="24" height="24" viewBox="0 0 24 24" fill="none" xmlns="http://www.w3.org/2000/svg">
<path d="M21.4169 4.6012C19.693 6.34959 18.5833 8.69625 18.4106 11.2969H24C23.8523 8.77664 22.8922 6.46566 21.4169 4.6012ZM12.7031 0V11.2969H17.0044C17.1814 8.27709 18.47 5.55145 20.4844 3.54197C18.4768 1.53928 15.7126 0.176391 12.7031 0ZM18.4106 12.7031C18.5833 15.3037 19.693 17.6973 21.417 19.4457C22.8922 17.5812 23.8523 15.2234 24 12.7031H18.4106ZM3.51562 3.54197C5.52998 5.55145 6.81863 8.27709 6.99563 11.2969H11.2969V0C8.28741 0.176391 5.52319 1.53928 3.51562 3.54197ZM17.0044 12.7031H12.7031V24C15.7126 23.8236 18.4768 22.5076 20.4844 20.5049C18.47 18.4954 17.1814 15.7229 17.0044 12.7031ZM6.99563 12.7031C6.81863 15.7229 5.52998 18.4954 3.51562 20.5049C5.52319 22.5076 8.28741 23.8237 11.2969 24V12.7031H6.99563ZM0 12.7031C0.147703 15.2234 1.1078 17.5812 2.58309 19.4457C4.30702 17.6973 5.41669 15.3037 5.58942 12.7031H0ZM2.58305 4.6012C1.1078 6.46566 0.147703 8.77664 0 11.2969H5.58937C5.41669 8.6963 4.30697 6.34959 2.58305 4.6012Z" fill="white"/>
</svg>
