<svg width="24" height="24" viewBox="0 0 24 24" fill="none" xmlns="http://www.w3.org/2000/svg">
<path d="M11.9999 6.46371e-05C14.8636 -0.0206675 17.6367 1.00324 19.7998 2.88004C18.4906 4.01333 17.4386 5.41327 16.7142 6.9861C15.9899 8.55894 15.61 10.2684 15.5998 12C15.61 13.7315 15.9899 15.441 16.7142 17.0138C17.4386 18.5867 18.4906 19.9866 19.7998 21.1199C17.6261 22.9787 14.86 24.0001 11.9999 23.9999C9.13614 24.0206 6.36306 22.9967 4.19995 21.1199C5.50919 19.9866 6.5612 18.5867 7.28553 17.0138C8.00986 15.441 8.3898 13.7315 8.39991 12C8.3898 10.2684 8.00986 8.55894 7.28553 6.9861C6.5612 5.41327 5.50919 4.01333 4.19995 2.88004C6.36306 1.00324 9.13614 -0.0206675 11.9999 6.46371e-05ZM23.9998 12C24.0109 14.6546 23.1227 17.2347 21.4798 19.3199C20.3775 18.4481 19.4904 17.3346 18.887 16.0654C18.2836 14.7961 17.98 13.4052 17.9998 12C17.9934 10.5796 18.3022 9.17558 18.9039 7.88902C19.5057 6.60247 20.3855 5.46548 21.4798 4.56003C23.0896 6.70891 23.9724 9.3151 23.9998 12ZM-1.80759e-05 12C0.0273922 9.3151 0.910134 6.70891 2.51996 4.56003C3.61427 5.46548 4.49403 6.60247 5.09581 7.88902C5.69758 9.17558 6.00638 10.5796 5.99993 12C6.01972 13.4052 5.71618 14.7961 5.11278 16.0654C4.50937 17.3346 3.62225 18.4481 2.51996 19.3199C0.877061 17.2347 -0.0111836 14.6546 -1.80759e-05 12Z" fill="white"/>
</svg>
