<svg width="40" height="40" viewBox="0 0 40 40" fill="none" xmlns="http://www.w3.org/2000/svg">
<g clip-path="url(#clip0_137_16299)">
<path fill-rule="evenodd" clip-rule="evenodd" d="M18.8301 8.48439C18.8146 8.74953 18.7916 9.01884 18.7612 9.29274C18.7027 9.82093 18.6184 10.3625 18.5086 10.9086C18.4543 11.1779 18.3967 11.4472 18.3311 11.717C18.1992 12.2589 18.0442 12.8005 17.8676 13.3328C17.7766 13.6055 17.6789 13.8748 17.5774 14.1412C17.4501 14.4752 17.3144 14.8043 17.1695 15.1253C16.9131 15.6957 16.6317 16.2427 16.3261 16.7508C16.0108 17.2727 15.6705 17.7529 15.3081 18.1817C14.8392 18.7362 14.3327 19.1997 13.7937 19.5421C13.2605 19.8811 12.6968 20.1032 12.1056 20.1746C11.9666 20.1913 11.8258 20.2022 11.6839 20.2022C11.5419 20.2022 11.4012 20.1918 11.2622 20.1746C10.6705 20.1037 10.1068 19.8811 9.57364 19.5421C9.03501 19.1997 8.52854 18.7362 8.05964 18.1817C7.69764 17.7533 7.35692 17.2732 7.0421 16.7508C6.73604 16.2427 6.45462 15.6957 6.19867 15.1253C6.05378 14.8038 5.91767 14.4757 5.79032 14.1412C5.68844 13.8748 5.59073 13.6055 5.50013 13.3333C5.32351 12.8005 5.16818 12.2589 5.03666 11.7174C4.97069 11.4472 4.91265 11.1779 4.85879 10.909C4.74856 10.3621 4.6638 9.82093 4.60576 9.29316C4.57528 9.01926 4.55231 8.74953 4.53645 8.48481C4.51975 8.2038 4.50931 7.92739 4.50931 7.65891C4.50931 7.38167 4.52016 7.12029 4.53854 6.86893C4.55816 6.58333 4.58989 6.31444 4.63248 6.06099C4.73854 5.43051 4.91223 4.89606 5.14689 4.44512C5.30556 4.13948 5.49136 3.87142 5.70347 3.63676C5.85504 3.46891 6.0208 3.3186 6.19742 3.18332C6.45379 2.98707 6.73521 2.82131 7.04085 2.68394C7.54356 2.4593 8.10975 2.30732 8.72937 2.20627C9.00077 2.1616 9.2822 2.12694 9.5728 2.10064C10.1064 2.0522 10.6701 2.02966 11.2613 2.02298C11.4008 2.02131 11.5411 2.02047 11.683 2.02047C11.825 2.02047 11.9661 2.02131 12.1048 2.02298C12.6964 2.02966 13.2601 2.0522 13.7933 2.10106C14.0843 2.1282 14.3653 2.16243 14.6367 2.20711C15.2568 2.30815 15.8225 2.46014 16.3252 2.68519C16.6313 2.82173 16.9127 2.98749 17.1687 3.18373C17.3461 3.31902 17.5111 3.46933 17.663 3.63676C17.8751 3.87058 18.0614 4.13906 18.22 4.44428C18.4547 4.89606 18.628 5.42967 18.7336 6.06016C18.7766 6.31402 18.8088 6.58292 18.8288 6.86851C18.8463 7.11904 18.8572 7.38125 18.8572 7.6585C18.8572 7.92697 18.8468 8.20339 18.8301 8.48522M12.2246 23.9053C12.1432 24.1241 12.0701 24.3438 12.0075 24.5626C11.8893 24.9717 11.782 25.378 11.6839 25.7747C11.5858 25.378 11.478 24.9717 11.3603 24.563C11.2977 24.3442 11.2242 24.1246 11.1432 23.9058C10.9022 23.2565 10.5903 22.6126 10.2546 22.0101C10.7202 22.1479 11.1983 22.2223 11.6839 22.2223C12.1699 22.2223 12.6471 22.1483 13.1127 22.0093C12.7774 22.6126 12.4655 23.2565 12.2246 23.9058M11.6835 0C6.55608 0 2.3999 1.74239 2.3999 7.87896C2.3999 12.2498 4.50847 17.6711 7.5753 20.4289C8.20829 21.3734 8.92645 22.5993 9.42833 23.9058C9.51184 24.1229 9.59117 24.3421 9.66132 24.563C10.3185 26.634 10.6225 28.4849 10.7528 29.4949H10.3895C10.1724 29.4949 9.99619 29.6686 9.99619 29.8874V39.6077C9.99619 39.824 10.1728 40.0002 10.3899 40.0002H12.9787C13.1958 40.0002 13.372 39.8265 13.372 39.6077V29.8874C13.372 29.6703 13.1954 29.4949 12.9782 29.4949H12.615C12.7457 28.4845 13.0492 26.6348 13.7069 24.563C13.7762 24.3417 13.8555 24.1233 13.939 23.9058C14.4409 22.5989 15.1591 21.3734 15.7929 20.4289C18.8589 17.6711 20.9674 12.2493 20.9674 7.87896C20.9679 1.74239 16.8108 0 11.6835 0Z" fill="white"/>
<path opacity="0.2" fill-rule="evenodd" clip-rule="evenodd" d="M14.5878 6.12841H16.2763V4.51254H14.5878V6.12841ZM16.2763 8.55264H14.5878V6.93677H16.2763V8.55264ZM16.2763 13.4011H14.5878V11.7852H16.2763V13.4011ZM14.5878 15.8249V14.209H16.2763V15.8249H14.5878ZM14.5878 9.36058H16.2763V10.9765H14.5878V9.36058ZM12.0563 10.9765H13.7444V9.36058H12.0563V10.9765ZM12.0563 15.8253H13.7444V14.2095H12.0563V15.8253ZM13.7444 18.25H12.0563V16.6341H13.7444V18.25ZM12.0563 11.7852H13.7444V13.4011H12.0563V11.7852ZM12.0563 6.93677H13.7444V8.55264H12.0563V6.93677ZM12.0563 4.51254H13.7444V6.12841H12.0563V4.51254ZM11.2128 6.12841H9.52432V4.51254H11.2124L11.2128 6.12841ZM11.2128 8.55306H9.52432V6.93719H11.2124L11.2128 8.55306ZM9.52432 10.9773H11.2124V9.36058H9.52432V10.9765V10.9773ZM9.52432 13.4011H11.2124V11.7852H9.52432V13.4011ZM9.52432 15.8253V14.2095H11.2124V15.8253H9.52432ZM11.2124 18.25H9.52432V16.6341H11.2124V18.25ZM8.68047 6.12883H6.99278V4.51296H8.68047V6.12883ZM6.99278 8.55264V6.93677H8.68047V8.55264H6.99278ZM6.99278 10.9769H8.68047V9.36016H6.99278V10.976V10.9769ZM6.99278 13.4007H8.68047V11.7848H6.99278V13.4007ZM8.67964 15.8249H6.99278V14.209H8.68047V15.8249H8.67964ZM18.7118 9.36142C18.7423 9.08793 18.7653 8.81862 18.7812 8.55348H17.1202V6.9376H18.7799C18.759 6.65159 18.7277 6.38228 18.6851 6.12925H17.1202V4.51337H18.1707C18.0129 4.20774 17.8267 3.93926 17.6146 3.7046H17.1206V3.25115C16.8642 3.05491 16.5828 2.88915 16.2772 2.75178V3.70377H14.5878V2.27411C14.3164 2.22985 14.0354 2.19478 13.7444 2.16889V3.70418H12.0563V2.0904C11.9168 2.08873 11.7765 2.08789 11.6346 2.08789C11.4926 2.08789 11.3515 2.08873 11.2128 2.0904V3.70377H9.52432V2.16848C9.2333 2.19478 8.95229 2.22944 8.68089 2.2737V3.70418H6.99236V2.75178C6.68589 2.88957 6.40447 3.05491 6.1481 3.25115V3.70377H5.65415C5.44204 3.93842 5.25582 4.2069 5.09716 4.51212H6.14852V6.128H4.58358C4.54099 6.38144 4.50926 6.65075 4.4888 6.93635H6.14852V8.55223H4.48755C4.50342 8.81736 4.52638 9.08668 4.55686 9.36058H6.14852V10.9765H4.80905C4.86333 11.2454 4.92179 11.5151 4.98693 11.7848H6.14852V13.4007H5.45123C5.54142 13.6733 5.63912 13.9427 5.74058 14.209H6.14894V15.1928C6.4053 15.7635 6.68673 16.3101 6.99236 16.8182V16.6329H8.68089V18.2487H8.01032C8.47922 18.8041 8.98569 19.2667 9.52474 19.6099V19.0567H11.2128V20.2416C11.3519 20.2583 11.4926 20.2688 11.6346 20.2688C11.7765 20.2688 11.9172 20.2588 12.0563 20.2416V19.0567H13.7448V19.6091C14.2834 19.2667 14.7903 18.8032 15.2592 18.2487H14.5878V16.6329H16.2763V16.8174C16.5824 16.3088 16.8638 15.7623 17.1198 15.1915V14.209H17.5281C17.6296 13.9418 17.7273 13.6733 17.8179 13.4011H17.1206V11.7852H18.2814C18.3473 11.5151 18.4054 11.2454 18.4592 10.9769H17.1202V9.36016H18.7118V9.36142Z" fill="white"/>
<path fill-rule="evenodd" clip-rule="evenodd" d="M30.5838 12.5264C26.5483 12.5264 23.2769 15.7978 23.2769 19.8333C23.2769 23.8688 26.5483 27.1402 30.5838 27.1402C34.6193 27.1402 37.8907 23.8688 37.8907 19.8333C37.8907 15.7978 34.6193 12.5264 30.5838 12.5264ZM30.5838 14.1736C33.7045 14.1736 36.2435 16.7122 36.2435 19.8333C36.2435 22.954 33.7049 25.493 30.5838 25.493C27.4631 25.493 24.924 22.9544 24.924 19.8333C24.924 16.7126 27.4627 14.1736 30.5838 14.1736Z" fill="white"/>
<path fill-rule="evenodd" clip-rule="evenodd" d="M30.375 17.9543C30.375 18.8771 29.6276 19.6245 28.7048 19.6245C27.7821 19.6245 27.0347 18.8771 27.0347 17.9543C27.0347 17.0316 27.7821 16.2842 28.7048 16.2842C29.6276 16.2842 30.375 17.0316 30.375 17.9543ZM34.1328 21.7122C34.1328 22.6349 33.3854 23.3823 32.4627 23.3823C31.5399 23.3823 30.7925 22.6349 30.7925 21.7122C30.7925 20.7894 31.5399 20.042 32.4627 20.042C33.3854 20.042 34.1328 20.7894 34.1328 21.7122Z" fill="white"/>
</g>
<defs>
<clipPath id="clip0_137_16299">
<rect width="40" height="40" fill="white"/>
</clipPath>
</defs>
</svg>
