<svg width="18" height="18" viewBox="0 0 18 18" fill="none" xmlns="http://www.w3.org/2000/svg">
<path d="M8.99993 16C8.71969 16 8.48809 15.7606 8.45143 15.45L8.44638 15.3636L8.44682 4.17721L4.9458 8.21853C4.7301 8.46758 4.37961 8.46845 4.16297 8.22047C3.96603 7.99504 3.9475 7.64155 4.10782 7.39203L4.16129 7.32052L8.60737 2.18719C8.63581 2.15436 8.66658 2.12584 8.69908 2.10164C8.70886 2.09481 8.71886 2.08785 8.72907 2.08125C8.73782 2.07519 8.74691 2.0697 8.75609 2.06453C8.76946 2.05735 8.78327 2.05033 8.79736 2.04396C8.80822 2.03878 8.81879 2.03445 8.82944 2.03051C8.84265 2.02582 8.85672 2.02127 8.87101 2.01735C8.88098 2.01444 8.89059 2.01213 8.90022 2.01012C8.91457 2.00729 8.92941 2.00488 8.94442 2.00316C8.95588 2.00167 8.96723 2.00078 8.97858 2.00029C8.98547 2.00016 8.99268 2 8.99993 2L9.02137 2.00032C9.03223 2.00081 9.04309 2.00166 9.05392 2.00288L8.99993 2C9.03486 2 9.06903 2.00372 9.10217 2.01083C9.11008 2.01248 9.11821 2.01445 9.1263 2.01662C9.14296 2.02115 9.15901 2.02637 9.17474 2.03238C9.18256 2.03534 9.19091 2.03878 9.1992 2.04245C9.21585 2.04989 9.23173 2.05797 9.2472 2.06686C9.25447 2.07099 9.26208 2.07562 9.26962 2.08047C9.28191 2.08842 9.2936 2.09661 9.30499 2.10527C9.31305 2.11139 9.32144 2.11815 9.32969 2.12522L9.33607 2.13073C9.35556 2.14787 9.37402 2.16647 9.39134 2.18639L9.39186 2.18715L13.8387 7.32048C14.0544 7.56951 14.0537 7.97243 13.8371 8.22044C13.6401 8.44589 13.3326 8.4657 13.1162 8.28033L13.0542 8.21857L9.55392 4.17891L9.55347 15.3636C9.55347 15.7151 9.30564 16 8.99993 16Z" fill="#979797"/>
</svg>
