<svg width="18" height="18" viewBox="0 0 18 18" fill="none" xmlns="http://www.w3.org/2000/svg">
<path d="M8.99993 15C8.71969 15 8.48809 14.7948 8.45143 14.5286L8.44638 14.4545L8.44682 4.86618L4.94581 8.33017C4.7301 8.54364 4.37961 8.54439 4.16297 8.33183C3.96603 8.1386 3.9475 7.83561 4.10783 7.62174L4.16129 7.56044L8.60737 3.16045C8.63581 3.13231 8.66658 3.10787 8.69908 3.08712C8.70886 3.08126 8.71887 3.0753 8.72907 3.06965C8.73782 3.06445 8.74691 3.05975 8.7561 3.05531C8.76946 3.04915 8.78327 3.04314 8.79736 3.03768C8.80823 3.03324 8.81879 3.02953 8.82944 3.02615C8.84265 3.02213 8.85672 3.01823 8.87101 3.01487C8.88099 3.01237 8.89059 3.0104 8.90023 3.00867C8.91457 3.00624 8.92941 3.00418 8.94443 3.00271C8.95588 3.00143 8.96723 3.00067 8.97859 3.00025C8.98547 3.00014 8.99268 3 8.99993 3L9.02137 3.00027C9.03223 3.00069 9.04309 3.00142 9.05392 3.00247L8.99993 3C9.03486 3 9.06903 3.00319 9.10217 3.00928C9.11009 3.0107 9.11821 3.01238 9.1263 3.01425C9.14296 3.01812 9.15901 3.0226 9.17474 3.02776C9.18256 3.03029 9.19091 3.03324 9.1992 3.03639C9.21585 3.04276 9.23173 3.04969 9.2472 3.05731C9.25447 3.06085 9.26209 3.06482 9.26962 3.06897C9.28192 3.07579 9.2936 3.08281 9.30499 3.09023C9.31305 3.09547 9.32144 3.10127 9.32969 3.10733L9.33607 3.11205C9.35556 3.12675 9.37402 3.14269 9.39134 3.15976L9.39186 3.16041L13.8387 7.56041C14.0544 7.77387 14.0537 8.11923 13.8371 8.3318C13.6401 8.52505 13.3326 8.54203 13.1162 8.38314L13.0542 8.3302L9.55392 4.86764L9.55347 14.4545C9.55347 14.7558 9.30564 15 8.99993 15Z" fill="white"/>
</svg>
