<svg width="25" height="24" viewBox="0 0 25 24" fill="none" xmlns="http://www.w3.org/2000/svg">
<path d="M13.1711 2.2052L13.3924 1.82993L14.9677 0.254762C11.1366 -0.545898 6.98921 0.540589 4.01557 3.51532C-0.143834 7.67473 -0.611808 14.1271 2.61271 18.8024L0.930653 20.4845L6.33034 21.2558L5.55913 15.8561L4.18792 17.2272C1.79676 13.4344 2.25383 8.36195 5.55803 5.05774C7.64592 2.9699 10.4396 2.01866 13.1711 2.2052Z" fill="white"/>
<path d="M23.2985 2.74387L17.8988 1.97266L18.67 7.37235L20.17 5.87243C23.2571 9.72751 23.0138 15.3694 19.4413 18.9429C17.0447 21.3396 13.7165 22.2384 10.6229 21.6384L8.83276 23.4285C12.9758 24.7539 17.697 23.7732 20.9848 20.4854C25.4104 16.0598 25.6569 9.03586 21.7222 4.32123L23.2985 2.74387Z" fill="white"/>
</svg>
