<svg width="18" height="18" viewBox="0 0 18 18" fill="none" xmlns="http://www.w3.org/2000/svg">
<path d="M9.00007 3C9.28031 3 9.51191 3.2052 9.54857 3.47144L9.55362 3.54545L9.55318 13.1338L13.0542 9.66983C13.2699 9.45636 13.6204 9.45561 13.837 9.66817C14.034 9.8614 14.0525 10.1644 13.8922 10.3783L13.8387 10.4396L9.39263 14.8396C9.36419 14.8677 9.33342 14.8921 9.30092 14.9129C9.29114 14.9187 9.28114 14.9247 9.27093 14.9304C9.26218 14.9356 9.25309 14.9403 9.24391 14.9447C9.23054 14.9508 9.21673 14.9569 9.20264 14.9623C9.19178 14.9668 9.18121 14.9705 9.17056 14.9738C9.15735 14.9779 9.14328 14.9818 9.12899 14.9851C9.11902 14.9876 9.10941 14.9896 9.09978 14.9913C9.08543 14.9938 9.07059 14.9958 9.05558 14.9973C9.04412 14.9986 9.03277 14.9993 9.02142 14.9998C9.01453 14.9999 9.00732 15 9.00007 15L8.97863 14.9997C8.96777 14.9993 8.95691 14.9986 8.94608 14.9975L9.00007 15C8.96514 15 8.93097 14.9968 8.89783 14.9907C8.88992 14.9893 8.88179 14.9876 8.8737 14.9858C8.85704 14.9819 8.84099 14.9774 8.82526 14.9722C8.81744 14.9697 8.80909 14.9668 8.8008 14.9636C8.78415 14.9572 8.76827 14.9503 8.7528 14.9427C8.74553 14.9391 8.73792 14.9352 8.73038 14.931C8.71809 14.9242 8.7064 14.9172 8.69501 14.9098C8.68695 14.9045 8.67856 14.8987 8.67031 14.8927L8.66393 14.8879C8.64444 14.8733 8.62598 14.8573 8.60866 14.8402L8.60814 14.8396L4.16132 10.4396C3.9456 10.2261 3.94632 9.88077 4.16294 9.6682C4.35987 9.47495 4.66743 9.45797 4.8838 9.61686L4.94577 9.6698L8.44608 13.1324L8.44653 3.54545C8.44653 3.24421 8.69436 3 9.00007 3Z" fill="white"/>
</svg>
