<svg width="48" height="48" viewBox="0 0 48 48" fill="none" xmlns="http://www.w3.org/2000/svg">
<path d="M15.8333 18.1667C17.122 18.1667 18.1667 17.122 18.1667 15.8333C18.1667 14.5447 17.122 13.5 15.8333 13.5C14.5447 13.5 13.5 14.5447 13.5 15.8333C13.5 17.122 14.5447 18.1667 15.8333 18.1667Z" fill="white"/>
<path d="M24 18.1667C25.2886 18.1667 26.3333 17.122 26.3333 15.8333C26.3333 14.5447 25.2886 13.5 24 13.5C22.7113 13.5 21.6666 14.5447 21.6666 15.8333C21.6666 17.122 22.7113 18.1667 24 18.1667Z" fill="white"/>
<path d="M32.1667 18.1667C33.4553 18.1667 34.5 17.122 34.5 15.8333C34.5 14.5447 33.4553 13.5 32.1667 13.5C30.8781 13.5 29.8334 14.5447 29.8334 15.8333C29.8334 17.122 30.8781 18.1667 32.1667 18.1667Z" fill="white"/>
<path d="M15.8333 26.3333C17.122 26.3333 18.1667 25.2886 18.1667 24C18.1667 22.7114 17.122 21.6667 15.8333 21.6667C14.5447 21.6667 13.5 22.7114 13.5 24C13.5 25.2886 14.5447 26.3333 15.8333 26.3333Z" fill="white"/>
<path d="M24 26.3333C25.2886 26.3333 26.3333 25.2886 26.3333 24C26.3333 22.7114 25.2886 21.6667 24 21.6667C22.7113 21.6667 21.6666 22.7114 21.6666 24C21.6666 25.2886 22.7113 26.3333 24 26.3333Z" fill="white"/>
<path d="M32.1667 26.3333C33.4553 26.3333 34.5 25.2886 34.5 24C34.5 22.7114 33.4553 21.6667 32.1667 21.6667C30.8781 21.6667 29.8334 22.7114 29.8334 24C29.8334 25.2886 30.8781 26.3333 32.1667 26.3333Z" fill="white"/>
<path d="M15.8333 34.5C17.122 34.5 18.1667 33.4553 18.1667 32.1667C18.1667 30.878 17.122 29.8333 15.8333 29.8333C14.5447 29.8333 13.5 30.878 13.5 32.1667C13.5 33.4553 14.5447 34.5 15.8333 34.5Z" fill="white"/>
<path d="M24 34.5C25.2886 34.5 26.3333 33.4553 26.3333 32.1667C26.3333 30.878 25.2886 29.8333 24 29.8333C22.7113 29.8333 21.6666 30.878 21.6666 32.1667C21.6666 33.4553 22.7113 34.5 24 34.5Z" fill="white"/>
<path d="M32.1667 34.5C33.4553 34.5 34.5 33.4553 34.5 32.1667C34.5 30.878 33.4553 29.8333 32.1667 29.8333C30.8781 29.8333 29.8334 30.878 29.8334 32.1667C29.8334 33.4553 30.8781 34.5 32.1667 34.5Z" fill="white"/>
</svg>
