<svg width="14" height="12" viewBox="0 0 14 12" fill="none" xmlns="http://www.w3.org/2000/svg">
<g clip-path="url(#clip0_408_3)">
<path fill-rule="evenodd" clip-rule="evenodd" d="M3.68287 11.2326C3.56578 11.1199 3.5 10.9671 3.5 10.8077C3.5 10.6484 3.56578 10.4955 3.68287 10.3828L8.23796 6.00008L3.68287 1.61732C3.56578 1.50463 3.5 1.3518 3.5 1.19245C3.5 1.0331 3.56578 0.880269 3.68287 0.767574L4.12445 0.342699C4.24158 0.230038 4.40041 0.166748 4.56603 0.166748C4.73165 0.166748 4.89048 0.230038 5.00761 0.342699L10.2254 5.36247C10.3124 5.44618 10.3815 5.54558 10.4286 5.65498C10.4757 5.76439 10.5 5.88165 10.5 6.00008C10.5 6.11851 10.4757 6.23577 10.4286 6.34518C10.3815 6.45458 10.3124 6.55398 10.2254 6.63769L5.00761 11.6575C4.89048 11.7701 4.73165 11.8334 4.56603 11.8334C4.40041 11.8334 4.24158 11.7701 4.12445 11.6575L3.68287 11.2326Z" fill="white"/>
</g>
<defs>
<clipPath id="clip0_408_3">
<rect width="14" height="11.6667" fill="white" transform="matrix(-1 0 0 1 14 0.166748)"/>
</clipPath>
</defs>
</svg>
