<svg width="18" height="18" viewBox="0 0 18 18" fill="none" xmlns="http://www.w3.org/2000/svg">
<g id="UK" clip-path="url(#clip0_60_7843)">
<g id="Group">
<path id="Vector" d="M1.58504 3.90039C1.00466 4.74278 0.563589 5.68865 0.296143 6.70527H4.39007L1.58504 3.90039Z" fill="#29337A"/>
<path id="Vector_2" d="M6.47943 0.360352C5.44248 0.66234 4.48213 1.14422 3.63647 1.77275L6.47943 4.6157V0.360352Z" fill="#29337A"/>
<path id="Vector_3" d="M3.8479 16.3777C4.64112 16.9328 5.52733 17.3625 6.47942 17.6397V13.7466L3.8479 16.3777Z" fill="#29337A"/>
<path id="Vector_4" d="M0.399414 11.6577C0.696995 12.6216 1.153 13.5159 1.73577 14.3114L4.38945 11.6577H0.399414Z" fill="#29337A"/>
</g>
<g id="Group_2">
<path id="Vector_5" d="M1.73349 3.69189C1.68318 3.76068 1.63359 3.83044 1.58499 3.90093L4.39002 6.70581H0.296093C0.229744 6.95833 0.175594 7.2157 0.130981 7.47661H5.51852L1.73349 3.69189Z" fill="white"/>
<path id="Vector_6" d="M3.63916 16.2291C3.70764 16.2801 3.77801 16.3287 3.8479 16.3776L6.47942 13.7464V17.6395C6.73224 17.7134 6.989 17.7772 7.25022 17.8285V12.6182L3.63916 16.2291Z" fill="white"/>
<path id="Vector_7" d="M0.199463 10.8867C0.255323 11.1479 0.321254 11.4051 0.399269 11.6575H4.38934L1.73566 14.3112C2.02428 14.7055 2.34432 15.0756 2.69206 15.4178L7.22306 10.8867H0.199463Z" fill="white"/>
<path id="Vector_8" d="M6.47945 0.3604V4.61575L3.63645 1.77295C3.24451 2.06441 2.87815 2.38798 2.5387 2.73827L7.25009 7.44967V0.171387C6.98903 0.222991 6.73226 0.286946 6.47945 0.3604Z" fill="white"/>
</g>
<g id="Group_3">
<path id="Vector_9" d="M6.47953 11.6304L6.45251 11.6575H6.47953V11.6304Z" fill="#D32030"/>
<path id="Vector_10" d="M7.22327 10.8865H7.25025V10.8594L7.22327 10.8865Z" fill="#D32030"/>
<path id="Vector_11" d="M10.6869 7.47607H10.6609V7.50222L10.6869 7.47607Z" fill="#D32030"/>
<path id="Vector_12" d="M6.50605 6.70543L6.47949 6.67871V6.70543H6.50605Z" fill="#D32030"/>
<path id="Vector_13" d="M7.25024 7.44971V7.47631H7.27684L7.25024 7.44971Z" fill="#D32030"/>
</g>
<g id="Group_4">
<path id="Vector_14" d="M11.4314 15.6471V17.6646C12.3959 17.3946 13.2951 16.969 14.0994 16.4145L11.9134 14.2285C11.7387 14.8423 11.6748 15.1596 11.4314 15.6471Z" fill="#252F6C"/>
<path id="Vector_15" d="M11.9249 4.12181L14.3113 1.73543C13.454 1.10758 12.4814 0.629122 11.4314 0.334961V2.40742C11.7121 2.96945 11.7357 3.3965 11.9249 4.12181Z" fill="#252F6C"/>
<path id="Vector_16" d="M16.2272 14.3633C16.8282 13.5549 17.2966 12.6423 17.6008 11.6572H13.5211L16.2272 14.3633Z" fill="#252F6C"/>
<path id="Vector_17" d="M17.7039 6.70547C17.4308 5.66737 16.9765 4.70376 16.3778 3.84814L13.5201 6.70547H17.7039Z" fill="#252F6C"/>
</g>
<g id="Group_5">
<path id="Vector_18" d="M12.4503 11.0391L13.0688 11.6575L16.0291 14.6179C16.0963 14.5337 16.1631 14.4499 16.2274 14.3636L13.5212 11.6575H17.601C17.6787 11.4053 17.7448 11.1479 17.8005 10.8867H12.5082C12.4995 10.996 12.4607 10.9305 12.4503 11.0391Z" fill="#E7E7E7"/>
<path id="Vector_19" d="M11.8315 4.57306L14.5146 1.88967C14.4474 1.83753 14.3801 1.78566 14.3114 1.73535L11.925 4.12174C11.9497 4.21609 11.8085 4.47643 11.8315 4.57306Z" fill="#E7E7E7"/>
<path id="Vector_20" d="M11.4314 2.24168V0.334901C11.1789 0.264144 10.9219 0.20418 10.6606 0.155273V1.08537C10.9474 1.39629 11.2045 1.78682 11.4314 2.24168Z" fill="#E7E7E7"/>
<path id="Vector_21" d="M12.3897 7.47582H17.8691C17.8246 7.21491 17.7704 6.95768 17.704 6.70502H13.5203L16.3779 3.8477C16.0969 3.44637 15.7847 3.06896 15.4437 2.71924L12.225 5.93764C12.3117 6.52144 12.3505 6.86048 12.3897 7.47582Z" fill="#E7E7E7"/>
<path id="Vector_22" d="M11.7834 14.0983L14.0996 16.4148C14.4849 16.1494 14.8477 15.8541 15.1862 15.5336L12.1396 12.4868C12.0423 13.0503 11.927 13.5945 11.7834 14.0983Z" fill="#E7E7E7"/>
<path id="Vector_23" d="M10.6608 16.8074V17.8441C10.9219 17.7955 11.1789 17.7352 11.4316 17.6644V15.647C11.2045 16.102 10.9474 16.4969 10.6608 16.8074Z" fill="#E7E7E7"/>
</g>
<path id="Vector_24" d="M12.225 5.93767L15.4434 2.71927C15.1536 2.42169 14.8429 2.14474 14.5144 1.88965L11.9855 4.41899C12.0979 4.88879 12.1489 5.42653 12.225 5.93767Z" fill="#D71F28"/>
<g id="Group_6">
<path id="Vector_25" d="M8.55078 0.0110961C8.70073 0.00383803 8.85022 0 8.99983 0C8.84935 0 8.69959 0.00383803 8.55078 0.0110961Z" fill="#D32030"/>
<path id="Vector_26" d="M8.99981 18.0001C8.85016 18.0001 8.70067 17.996 8.55103 17.9888C8.69983 17.9963 8.84933 18.0001 8.99981 18.0001Z" fill="#D32030"/>
<path id="Vector_27" d="M8.99988 18C9.56772 18 10.1222 17.945 10.6608 17.8443V16.8076C10.188 17.3201 9.63498 18 8.99988 18Z" fill="#D32030"/>
</g>
<g id="Group_7">
<path id="Vector_28" d="M17.8689 7.47607H12.4607C12.5323 8.60484 12.5237 9.76556 12.4348 10.8866H17.8005C17.9303 10.278 18 9.6473 18 9.00015C18 8.48031 17.9536 7.97186 17.8689 7.47607Z" fill="#D71F28"/>
<path id="Vector_29" d="M12.4503 11.0391C12.4003 11.5708 12.2261 11.9852 12.1394 12.4868L15.186 15.5334C15.4874 15.2478 15.7692 14.9423 16.029 14.6179L13.0687 11.6574L12.4503 11.0391Z" fill="#D71F28"/>
</g>
<path id="Vector_30" d="M10.6608 1.15232V0.155459C10.1224 0.0549865 9.56791 0 8.99988 0C9.63498 0 10.188 0.64004 10.6608 1.15232Z" fill="#D32030"/>
<g id="Group_8">
<path id="Vector_31" d="M11.4314 16.0363C11.6748 15.5486 11.8836 14.9872 12.0584 14.3735L11.4314 13.7466V16.0363Z" fill="#29337A"/>
<path id="Vector_32" d="M12.1364 3.91059C11.9468 3.18527 11.7121 2.52589 11.4314 1.96387V4.61527L12.1364 3.91059Z" fill="#29337A"/>
</g>
<g id="Group_9">
<path id="Vector_33" d="M12.625 11.2132C12.6352 11.1047 12.6444 10.9957 12.6532 10.8862H12.298L12.625 11.2132Z" fill="white"/>
<path id="Vector_34" d="M11.4314 4.61499V1.96344C11.2044 1.50858 10.9474 1.11778 10.6606 0.807129V5.7436L12.2086 4.19566C12.1853 4.09902 12.1608 4.00436 12.1364 3.91001L11.4314 4.61499Z" fill="white"/>
<path id="Vector_35" d="M10.6868 7.47572H12.6791C12.64 6.86042 12.5778 6.25503 12.4912 5.67139L10.6868 7.47572Z" fill="white"/>
<path id="Vector_36" d="M10.6608 17.1924C10.9476 16.8815 11.2045 16.491 11.4316 16.0361V13.7463L12.0585 14.3733C12.2023 13.8693 12.323 13.3308 12.4205 12.7674L10.6608 11.0078L10.6608 17.1924Z" fill="white"/>
</g>
<path id="Vector_37" d="M10.6608 17.1926V11.008L12.4204 12.7677C12.5069 12.2659 12.575 11.7455 12.6249 11.2136L12.2979 10.8866H12.6531C12.7419 9.76552 12.7506 8.6048 12.679 7.47607H10.6867L12.491 5.67174C12.415 5.16045 12.3209 4.66591 12.2085 4.19596L10.6608 5.7439V0.807431C10.188 0.294997 9.63495 0 8.99985 0C8.85021 0 8.70071 0.00383803 8.5508 0.0110961C8.10813 0.0332503 7.67402 0.0877048 7.25024 0.171268V7.44951L2.53873 2.73811C2.24924 3.03683 1.97997 3.35513 1.73354 3.6915L4.74746 6.70543L5.51853 7.47622H0.131025C0.0466264 7.97186 0 8.48031 0 9.00015C0 9.64745 0.0699206 10.278 0.199502 10.8866H7.22326L2.69221 15.4176C2.98892 15.7091 3.30481 15.9805 3.63922 16.2289L7.25012 12.618V17.8285C7.67387 17.912 8.10829 17.9664 8.55095 17.9886C8.7006 17.9959 8.85009 18 8.99974 18C9.63495 18 10.188 17.705 10.6608 17.1926Z" fill="#E51D35"/>
</g>
<defs>
<clipPath id="clip0_60_7843">
<rect width="18" height="18" fill="white"/>
</clipPath>
</defs>
</svg>
