<svg width="34" height="34" viewBox="0 0 34 34" fill="none" xmlns="http://www.w3.org/2000/svg">
<rect width="34" height="34" rx="17" fill="#FF6066"/>
<path d="M19.85 24.5748H19.7C17.9 24.5748 16.1 24.5748 14.3 24.5748C14.075 24.5748 13.925 24.4998 13.85 24.3498C11.975 21.9498 10.025 19.6248 8.15 17.2248C8.075 17.0748 8 16.9998 8 16.8498C8 14.5248 8 12.2748 8 9.9498C8 9.8748 8 9.7998 8.075 9.7998H8.15C12.05 14.6748 15.95 19.5498 19.775 24.4248C19.775 24.4248 19.775 24.4998 19.85 24.4998V24.5748Z" fill="black"/>
<path d="M25.85 17.2248C25.325 17.8998 24.725 18.5748 24.2 19.3248C24.05 19.4748 23.9 19.5498 23.75 19.5498C21.95 19.5498 20.15 19.5498 18.425 19.5498H18.35C18.275 19.5498 18.2 19.4748 18.275 19.3998C18.275 19.3998 18.275 19.3248 18.35 19.3248C20.15 17.0748 21.875 14.8998 23.675 12.6498C24.425 11.7498 25.175 10.7748 25.85 9.8748C25.85 9.7998 25.925 9.7998 26 9.7998H26.075C26.075 9.8748 26.075 9.8748 26.075 9.9498C26.075 12.1998 26.075 14.5248 26.075 16.7748C26 16.9998 25.925 17.1498 25.85 17.2248Z" fill="black"/>
</svg>
