<svg width="48" height="48" viewBox="0 0 48 48" fill="none" xmlns="http://www.w3.org/2000/svg">
<path d="M29.2682 13.5C33.2919 13.5 35.6667 15.8154 35.6667 19.7788H30.7304V19.8192C28.4395 19.8192 26.5823 21.6299 26.5823 23.8635C26.5823 26.0971 28.4395 27.9078 30.7304 27.9078H35.6667V28.2718C35.6667 32.1846 33.2919 34.5 29.2682 34.5H18.7319C14.7082 34.5 12.3334 32.1846 12.3334 28.2718V19.7282C12.3334 15.8154 14.7082 13.5 18.7319 13.5H29.2682ZM34.7956 21.5178C35.2767 21.5178 35.6667 21.8981 35.6667 22.3671V25.3195C35.6611 25.7862 35.2744 26.1633 34.7956 26.1688H30.8237C29.664 26.184 28.6498 25.4098 28.3867 24.3084C28.255 23.6247 28.4399 22.9192 28.892 22.3809C29.344 21.8427 30.0169 21.5268 30.7304 21.5178H34.7956ZM31.2904 22.8828H30.9067C30.6711 22.8801 30.4443 22.9694 30.2767 23.1309C30.1091 23.2923 30.0149 23.5125 30.0149 23.7422C30.0148 24.2241 30.4125 24.6163 30.9067 24.6218H31.2904C31.783 24.6218 32.1823 24.2325 32.1823 23.7523C32.1823 23.2721 31.783 22.8828 31.2904 22.8828ZM24.446 18.0397H17.8608C17.3722 18.0397 16.9746 18.4229 16.9689 18.8991C16.9689 19.381 17.3666 19.7732 17.8608 19.7788H24.446C24.9385 19.7788 25.3378 19.3895 25.3378 18.9092C25.3378 18.429 24.9385 18.0397 24.446 18.0397Z" fill="black"/>
</svg>
