<svg width="20" height="20" viewBox="0 0 20 20" fill="none" xmlns="http://www.w3.org/2000/svg">
<path fillRule="evenodd" clipRule="evenodd" d="M15.0001 1.6665H10.0001C8.60116 1.6665 7.40352 2.52824 6.90903 3.74984H18.0911C17.5966 2.52824 16.399 1.6665 15.0001 1.6665ZM1.66675 13.3332L1.66675 9.99984H5.00008C5.92056 9.99984 6.66675 10.746 6.66675 11.6665C6.66675 12.587 5.92056 13.3332 5.00008 13.3332H1.66675ZM5.00008 4.99984H18.3334V11.6665C18.3334 12.1267 17.9603 12.4998 17.5001 12.4998H15.0001C13.1591 12.4998 11.6667 13.9922 11.6667 15.8332V17.4998C11.6667 17.9601 11.2937 18.3332 10.8334 18.3332H5.00008C3.15913 18.3332 1.66675 16.8408 1.66675 14.9998V14.5832H5.00008C6.61091 14.5832 7.91675 13.2773 7.91675 11.6665C7.91675 10.0557 6.61091 8.74984 5.00008 8.74984L1.66675 8.74984V8.33317C1.66675 6.49222 3.15913 4.99984 5.00008 4.99984ZM14.6087 16.5697L15.2084 17.1695V14.1665C15.2084 13.8213 15.4882 13.5415 15.8334 13.5415C16.1786 13.5415 16.4584 13.8213 16.4584 14.1665V17.1695L17.0581 16.5697C17.3022 16.3257 17.6979 16.3257 17.942 16.5697C18.1861 16.8138 18.1861 17.2095 17.942 17.4536L16.8646 18.531C16.2951 19.1005 15.3717 19.1005 14.8022 18.531L13.7248 17.4536C13.4807 17.2095 13.4807 16.8138 13.7248 16.5697C13.9689 16.3257 14.3646 16.3257 14.6087 16.5697Z" fill="#F7FF13"/>
</svg>
