<svg width="100" height="100" viewBox="0 0 100 100" fill="none" xmlns="http://www.w3.org/2000/svg">
<circle cx="50" cy="50" r="50" fill="#66231E"/>
<path fill-rule="evenodd" clip-rule="evenodd" d="M57.2617 52.0003L70.8743 65.613C72.3788 67.1169 72.3788 69.5558 70.8719 71.0574L69.0573 72.872C67.5557 74.376 65.1173 74.376 63.6128 72.872L50.001 59.2601L36.387 72.8721C34.8855 74.3761 32.4471 74.3761 30.9426 72.8721L29.128 71.0575C27.624 69.5559 27.624 67.1171 29.128 65.6131L42.741 52.0001L29.128 38.387C27.624 36.8855 27.624 34.4471 29.128 32.9426L30.9454 31.128C32.4471 29.624 34.8855 29.624 36.3895 31.128L50.0012 44.7398L63.6128 31.1281C65.1173 29.6241 67.5557 29.6241 69.0597 31.131L70.8743 32.9456C72.3788 34.4472 72.3788 36.8856 70.8743 38.3896L57.2617 52.0003Z" fill="#F44336"/>
</svg>
