<svg width="27" height="22" viewBox="0 0 27 22" fill="none" xmlns="http://www.w3.org/2000/svg">
<path d="M17.3583 4.35482C17.0525 4.35482 16.7954 4.26589 16.5868 4.08805C16.3782 3.9102 16.274 3.69249 16.274 3.43492C16.274 3.17735 16.3795 2.96072 16.5906 2.78503C16.8018 2.60933 17.0602 2.52148 17.366 2.52148C17.6717 2.52148 17.9289 2.61041 18.1375 2.78826C18.346 2.96611 18.4503 3.18381 18.4503 3.44138C18.4503 3.69895 18.3447 3.91558 18.1336 4.09128C17.9225 4.26697 17.6641 4.35482 17.3583 4.35482ZM17.3583 19.4798C17.0525 19.4798 16.7954 19.3909 16.5868 19.213C16.3782 19.0352 16.274 18.8175 16.274 18.5599C16.274 18.3024 16.3795 18.0857 16.5906 17.91C16.8018 17.7343 17.0602 17.6465 17.366 17.6465C17.6717 17.6465 17.9289 17.7354 18.1375 17.9133C18.346 18.0911 18.4503 18.3088 18.4503 18.5664C18.4503 18.8239 18.3447 19.0406 18.1336 19.2163C17.9225 19.392 17.6641 19.4798 17.3583 19.4798ZM21.711 7.56315C21.4052 7.56315 21.1481 7.47423 20.9395 7.29638C20.7309 7.11853 20.6266 6.90082 20.6266 6.64325C20.6266 6.38569 20.7322 6.16905 20.9433 5.99336C21.1545 5.81767 21.4129 5.72982 21.7187 5.72982C22.0244 5.72982 22.2816 5.81874 22.4901 5.99659C22.6987 6.17444 22.803 6.39215 22.803 6.64972C22.803 6.90728 22.6974 7.12392 22.4863 7.29961C22.2752 7.4753 22.0167 7.56315 21.711 7.56315ZM21.711 16.2715C21.4052 16.2715 21.1481 16.1826 20.9395 16.0047C20.7309 15.8269 20.6266 15.6092 20.6266 15.3516C20.6266 15.094 20.7322 14.8774 20.9433 14.7017C21.1545 14.526 21.4129 14.4382 21.7187 14.4382C22.0244 14.4382 22.2816 14.5271 22.4901 14.7049C22.6987 14.8828 22.803 15.1005 22.803 15.358C22.803 15.6156 22.6974 15.8322 22.4863 16.0079C22.2752 16.1836 22.0167 16.2715 21.711 16.2715ZM23.3432 11.9173C23.0375 11.9173 22.7803 11.8284 22.5718 11.6505C22.3632 11.4727 22.2589 11.255 22.2589 10.9974C22.2589 10.7399 22.3645 10.5232 22.5756 10.3475C22.7867 10.1718 23.0452 10.084 23.3509 10.084C23.6567 10.084 23.9138 10.1729 24.1224 10.3508C24.331 10.5286 24.4352 10.7463 24.4352 11.0039C24.4352 11.2615 24.3297 11.4781 24.1186 11.6538C23.9074 11.8295 23.649 11.9173 23.3432 11.9173ZM13.8256 20.1673C12.3203 20.1673 10.9056 19.9267 9.5817 19.4454C8.25775 18.9642 7.10611 18.3111 6.12675 17.4861C5.1474 16.6611 4.37207 15.6909 3.80078 14.5757C3.22949 13.4604 2.94385 12.2687 2.94385 11.0007C2.94385 9.7326 3.22949 8.54093 3.80078 7.42565C4.37207 6.31037 5.1474 5.34023 6.12675 4.51523C7.10611 3.69023 8.25775 3.03711 9.5817 2.55586C10.9056 2.07461 12.3203 1.83398 13.8256 1.83398V3.20898C11.2502 3.20898 9.06482 3.9638 7.26933 5.47343C5.47385 6.98307 4.57611 8.82548 4.57611 11.0007C4.57611 13.1758 5.47214 15.0182 7.26422 16.5279C9.05631 18.0375 11.2434 18.7923 13.8256 18.7923V20.1673ZM13.8231 12.6048C13.2988 12.6048 12.8507 12.4477 12.479 12.1336C12.1072 11.8194 11.9213 11.4418 11.9213 11.0007C11.9213 10.9099 11.9303 10.8147 11.9485 10.7149C11.9666 10.6151 11.9938 10.5283 12.0301 10.4545L9.85374 8.61732L10.9963 7.65482L13.1999 9.48815C13.2906 9.4576 13.4991 9.42704 13.8256 9.39648C14.3493 9.39648 14.7976 9.55376 15.1705 9.86832C15.5434 10.1829 15.7299 10.561 15.7299 11.0027C15.7299 11.4444 15.5432 11.8218 15.1698 12.135C14.7964 12.4482 14.3475 12.6048 13.8231 12.6048Z" fill="white"/>
</svg>
