<svg width="48" height="48" viewBox="0 0 48 48" fill="none" xmlns="http://www.w3.org/2000/svg">
<g clipPath="url(#clip0_240_70)">
<path d="M36.9427 17.096H29.2552L31.0117 16.2257C31.1147 16.1765 31.2089 16.1081 31.2911 16.0259C31.938 15.3784 32.2943 14.5151 32.2943 13.5991C32.2943 12.6812 31.9383 11.8202 31.2911 11.1704C29.9542 9.83381 27.7824 9.83381 26.4461 11.1704C26.3736 11.2439 26.3122 11.3277 26.264 11.4181L23.8167 15.97L21.3698 11.4184C21.3212 11.328 21.2595 11.2442 21.187 11.1723C19.8513 9.83253 17.6783 9.83253 16.343 11.1723C15.0073 12.5105 15.0073 14.6877 16.343 16.0259C16.4241 16.1081 16.5191 16.1765 16.6213 16.2257L18.3779 17.096H11.0569C10.4733 17.096 10 17.5709 10 18.1552V24.4425C10 25.0271 10.4733 25.501 11.0569 25.501H12.2782V36.7746C12.2782 37.3592 12.7512 37.8328 13.3351 37.8328H34.7307C35.314 37.8328 35.788 37.3598 35.788 36.7746V25.501H36.9427C37.5263 25.501 38.0003 25.0277 38.0003 24.4425V18.1552C37.9994 17.5709 37.5263 17.096 36.9427 17.096ZM22.8687 35.7151V25.501H25.1578V35.7154L22.8687 35.7151ZM25.177 23.3833H22.8889V19.215H25.177V23.3833ZM28.0384 12.5789C28.5536 12.1586 29.3162 12.1874 29.7963 12.6694C30.044 12.9171 30.1808 13.2472 30.1808 13.5991C30.1808 13.8996 30.081 14.1853 29.8953 14.418L26.0191 16.3369L28.0384 12.5789ZM17.8371 12.6694C18.3002 12.2047 19.0926 12.1689 19.594 12.5789L21.613 16.3369L17.7371 14.418C17.328 13.9018 17.3612 13.1462 17.8371 12.6694ZM12.1129 19.215H20.775V23.3833H12.1129V19.215ZM14.3911 25.501H21.8124V35.7154H14.3911V25.501ZM33.6744 35.7151H26.2138V25.501H33.6744V35.7151ZM35.8867 23.3833H27.2909V19.215H35.8871L35.8867 23.3833Z" fill="white"/>
</g>
<defs>
<clipPath id="clip0_240_70">
<rect width="28" height="28" fill="white" transform="translate(10 10)"/>
</clipPath>
</defs>
</svg>
