<svg width="48" height="48" viewBox="0 0 48 48" fill="none" xmlns="http://www.w3.org/2000/svg">
<g clipPath="url(#clip0_240_81)">
<path d="M24 10.4126C21.3126 10.4126 18.6857 11.2095 16.4512 12.7025C14.2168 14.1955 12.4753 16.3176 11.4469 18.8003C10.4185 21.2831 10.1494 24.0151 10.6737 26.6508C11.198 29.2865 12.492 31.7075 14.3923 33.6077C16.2925 35.5079 18.7135 36.802 21.3492 37.3263C23.9849 37.8506 26.7169 37.5815 29.1996 36.5531C31.6824 35.5247 33.8045 33.7832 35.2975 31.5487C36.7905 29.3143 37.5873 26.6873 37.5873 24C37.5832 20.3977 36.1504 16.944 33.6032 14.3968C31.0559 11.8496 27.6023 10.4167 24 10.4126Z" fill="white"/>
<path d="M24 30.72C24.7642 30.72 25.3838 30.1005 25.3838 29.3362C25.3838 28.572 24.7642 27.9524 24 27.9524C23.2358 27.9524 22.6162 28.572 22.6162 29.3362C22.6162 30.1005 23.2358 30.72 24 30.72Z" fill="black"/>
<path d="M23.9771 25.8929C23.7495 25.8932 23.5305 25.8056 23.3658 25.6485C23.2011 25.4913 23.1033 25.2767 23.0929 25.0493L22.7797 18.5039C22.7729 18.3396 22.7994 18.1755 22.8577 18.0217C22.9159 17.8679 23.0048 17.7275 23.1188 17.609C23.2328 17.4905 23.3697 17.3963 23.5212 17.3322C23.6726 17.268 23.8355 17.2352 24 17.2358C24.1647 17.2358 24.3277 17.2692 24.4792 17.3341C24.6306 17.399 24.7673 17.4939 24.881 17.6132C24.9947 17.7324 25.0829 17.8735 25.1405 18.0279C25.198 18.1823 25.2236 18.3467 25.2157 18.5113L24.8569 25.0552C24.845 25.2808 24.7473 25.4933 24.5837 25.6491C24.4201 25.8049 24.203 25.8921 23.9771 25.8929Z" fill="black"/>
</g>
<defs>
<clipPath id="clip0_240_81">
<rect width="28" height="28" fill="white" transform="translate(10 10)"/>
</clipPath>
</defs>
</svg>
